<!DOCTYPE svg PUBLIC "-//W3C//DTD SVG 1.1//EN" "http://www.w3.org/Graphics/SVG/1.1/DTD/svg11.dtd">
<!-- Uploaded to: SVG Repo, www.svgrepo.com, Transformed by: SVG Repo Mixer Tools -->
<svg height="800px" width="800px" version="1.1" id="Layer_1" xmlns="http://www.w3.org/2000/svg" xmlns:xlink="http://www.w3.org/1999/xlink" viewBox="0 0 512 512" xml:space="preserve" fill="#000000">
<g id="SVGRepo_bgCarrier" stroke-width="0"/>
<g id="SVGRepo_tracerCarrier" stroke-linecap="round" stroke-linejoin="round"/>
<g id="SVGRepo_iconCarrier"> <path style="fill:#803030;" d="M308.966,278.074c-1.112,0-2.241-0.211-3.328-0.655c-4.517-1.841-6.69-6.991-4.845-11.509 l97.103-238.345c1.836-4.518,7.009-6.681,11.5-4.845c4.518,1.841,6.69,6.991,4.845,11.509l-97.103,238.345 C315.742,275.997,312.449,278.074,308.966,278.074z"/> <circle style="fill:#FFDC78;" cx="326.621" cy="286.896" r="61.793"/> <circle style="fill:#FFCF65;" cx="326.621" cy="286.896" r="44.138"/> <circle style="fill:#FFDC78;" cx="185.379" cy="286.896" r="97.103"/> <circle style="fill:#FFCF65;" cx="185.379" cy="286.896" r="79.448"/> <circle style="fill:#FFDC78;" cx="185.379" cy="286.896" r="61.793"/> <circle style="fill:#FFCF65;" cx="185.379" cy="286.896" r="44.138"/> <g> <circle style="fill:#FFDC78;" cx="185.379" cy="286.896" r="26.483"/> <circle style="fill:#FFDC78;" cx="326.621" cy="286.896" r="26.483"/> </g> <path style="fill:#fff5f5;" d="M503.172,286.898C475.415,404.866,398.563,462.83,366.955,482.231 c-8.285,5.085-17.8,7.703-27.52,7.703h-166.87c-9.721,0-19.235-2.617-27.52-7.703C113.437,462.83,36.585,404.866,8.828,286.898"/> <g> <path style="fill:#ffffff;" d="M264.828,189.794c-4.879,0-8.828-3.953-8.828-8.828c0-7.927-2.741-11.353-6.888-16.534 c-4.802-5.992-10.767-13.444-10.767-27.569c0-14.134,5.965-21.594,10.759-27.586c4.156-5.19,6.897-8.617,6.897-16.556 c0-7.948-2.897-11.564-6.897-16.574c-4.793-5.999-10.759-13.461-10.759-27.599c0-4.875,3.948-8.828,8.828-8.828 c4.879,0,8.828,3.953,8.828,8.828c0,7.948,2.897,11.564,6.897,16.574c4.793,6.001,10.759,13.461,10.759,27.599 c0,14.13-5.965,21.59-10.759,27.582c-4.156,5.19-6.897,8.621-6.897,16.561c0,7.927,2.741,11.353,6.888,16.534 c4.802,5.992,10.767,13.444,10.767,27.569C273.655,185.841,269.707,189.794,264.828,189.794z"/> <path style="fill:#ffffff;" d="M283.577,145.665c-1.931,0-3.88-0.629-5.5-1.931c-3.81-3.043-4.431-8.599-1.388-12.405 c5.465-6.84,14.621-18.293,14.621-38.607c0-8.401-1.517-15.935-4.647-23.03c-1.965-4.461,0.061-9.673,4.518-11.638 c4.483-1.965,9.681,0.07,11.638,4.518c4.077,9.259,6.146,19.401,6.146,30.151c0,26.505-12.483,42.125-18.483,49.63 C288.742,144.531,286.173,145.665,283.577,145.665z"/> <path style="fill:#ffffff;" d="M217.19,172.083c-3.405,0-6.646-1.978-8.095-5.289c-4.018-9.181-6.06-19.25-6.06-29.931 c0-25.771,11.794-41.241,17.974-48.983c0.638-0.983,1.483-1.854,2.517-2.543c4.061-2.711,9.535-1.612,12.242,2.449 c1.974,2.966,1.983,6.883,0.009,9.849c-5.922,7.457-15.086,18.901-15.086,39.229c0,8.228,1.543,15.914,4.577,22.845 c1.956,4.466-0.077,9.673-4.543,11.629C219.57,171.842,218.371,172.083,217.19,172.083z"/> </g> <path style="fill:#803030;" d="M335.439,295.726c-2.008,0-4.034-0.685-5.689-2.091c-3.724-3.147-4.19-8.719-1.043-12.439 l150.069-177.332c3.155-3.715,8.715-4.19,12.439-1.035c3.724,3.147,4.19,8.719,1.043,12.439L342.189,292.6 C340.44,294.666,337.949,295.726,335.439,295.726z"/> <path style="fill:#963737;" d="M503.172,286.898H8.828C36.585,404.867,113.437,462.83,145.045,482.231 c8.285,5.085,17.8,7.703,27.521,7.703h94.132c-4.125,0-8.189-1.526-11.767-4.551c-16.541-13.984-64.263-61.645-88.474-161.129 c-1.344-5.524,2.932-10.872,8.616-10.872h320.651C498.451,304.876,501.002,296.126,503.172,286.898z"/> <path style="fill:#fff5f5;" d="M503.172,295.726H8.828c-4.879,0-8.828-3.953-8.828-8.828s3.948-8.828,8.828-8.828h494.345 c4.879,0,8.828,3.953,8.828,8.828S508.052,295.726,503.172,295.726z"/> </g>
</svg>