<svg width="600" height="600" viewBox="0 0 600 600" fill="none" xmlns="http://www.w3.org/2000/svg">
<path d="M269.761 199.469L269.395 198.5H268.358H229.403H228.358L227.996 199.48L154.037 399.48L153.29 401.5H155.444H190.588H191.646L192.001 400.504L205.609 362.402H292.021L305.333 400.495L305.685 401.5H306.749H344.011H346.182L345.414 399.469L269.761 199.469ZM407.897 200V198.5H406.397H371.393H369.893V200V400V401.5H371.393H406.397H407.897V400V200ZM498.5 101.5V498.5H101.5V101.5H498.5ZM248.597 238.135L281.339 331.833H216.376L248.597 238.135ZM534.833 401.5H598.5V465.167H534.833V401.5ZM134.833 534.833H198.5V598.5H134.833V534.833ZM268.167 534.833H331.833V598.5H268.167V534.833ZM134.833 1.5H198.5V65.1667H134.833V1.5ZM401.5 534.833H465.167V598.5H401.5V534.833ZM268.167 1.5H331.833V65.1667H268.167V1.5ZM401.5 1.5H465.167V65.1667H401.5V1.5ZM534.833 268.167H598.5V331.833H534.833V268.167ZM1.5 401.5H65.1667V465.167H1.5V401.5ZM534.833 134.833H598.5V198.5H534.833V134.833ZM1.5 268.167H65.1667V331.833H1.5V268.167ZM1.5 134.833H65.1667V198.5H1.5V134.833Z" fill="white" stroke="black" stroke-width="3"/>
</svg>
