<svg width="667" height="667" viewBox="0 0 667 667" fill="none" xmlns="http://www.w3.org/2000/svg">
<path d="M433.333 401.499L465.167 401.5V465.167H433.333H431.833V466.667L431.833 665.167H401.5V466.667V465.167H400H368.167V401.5L400 401.499L401.5 401.499V399.999V368.167H431.833L431.833 399.999L431.833 401.499L433.333 401.499ZM501.5 533.332V368.167H531.833L531.833 533.332V534.832H533.333L565.167 534.833V598.5L533.333 598.499H531.833V600L531.833 665.167H501.5V599.999V598.499H500L468.167 598.5V534.833L500 534.832H501.5V533.332ZM633.333 434.832L665.167 434.833V498.5L633.333 498.499L631.833 498.499V499.999L631.833 665.167H601.5V499.999V498.499L600 498.499L568.167 498.5V434.833L600 434.832L601.5 434.832V433.332V368.167H631.833L631.833 433.332V434.832L633.333 434.832ZM531.833 150.877L531.833 331.833H468.166V216.792V214.194L465.916 215.493L299.25 311.718L298.5 312.151V313.017V504.716V507.28L300.735 506.023L331.833 488.53L331.833 500L331.833 501.5H333.333H365.167L365.166 542.873L266.667 598.279L1.5 449.123V150.877L266.667 1.72102L531.833 150.877ZM67.4156 217.315L65.1656 216.016L65.1656 218.614L65.1667 411V411.877L65.9314 412.307L232.598 506.029L234.833 507.286V504.722V314.839V313.973L234.083 313.54L67.4156 217.315ZM267.402 75.1926L266.667 74.779L265.931 75.1925L107.462 164.303L105.167 165.594L107.447 166.91L264.337 257.491L265.088 257.924L265.838 257.491L424.263 166.024L426.542 164.708L424.248 163.418L267.402 75.1926Z" fill="white" stroke="black" stroke-width="3"/>
</svg>
