<svg width="600" height="693" viewBox="0 0 600 693" fill="none" xmlns="http://www.w3.org/2000/svg">
<path d="M67.4156 245.035L65.1656 243.736L65.1656 246.334L65.1667 481.125V481.991L65.9167 482.424L265.916 597.893L268.166 599.192V596.594V361.805V360.939L267.416 360.506L67.4156 245.035ZM534.833 246.336V243.738L532.583 245.037L332.583 360.506L331.833 360.939V361.805V596.594V599.192L334.083 597.893L534.083 482.424L534.833 481.991V481.125L534.833 246.336ZM300.75 75.681L300 75.248L299.25 75.681L102.583 189.227L100.333 190.526L102.583 191.825L299.25 305.37L300 305.803L300.75 305.37L497.417 191.825L499.667 190.526L497.417 189.227L300.75 75.681ZM1.5 174.071L300 1.73205L598.5 174.071V518.749L300 691.088L1.5 518.749V174.071Z" fill="white" stroke="black" stroke-width="3"/>
</svg>
