<svg width="1182" height="887" viewBox="0 0 1182 887" fill="none" xmlns="http://www.w3.org/2000/svg">
<rect x="1.79498" y="1.05896" width="1178.98" height="885.253" fill="#EDDFA1" stroke="black" stroke-width="2"/>
<path d="M234.691 518.136C255.468 518.136 274.42 535.444 288.208 563.756C301.979 592.035 310.511 631.136 310.511 674.353C310.511 717.571 301.979 756.672 288.208 784.951C274.42 813.263 255.468 830.571 234.691 830.571C213.914 830.571 194.962 813.263 181.174 784.951C167.403 756.672 158.871 717.571 158.871 674.353C158.871 631.136 167.403 592.035 181.174 563.756C194.962 535.444 213.914 518.136 234.691 518.136Z" fill="white" stroke="black"/>
<path d="M362.101 453.128C360.555 470.789 344.943 485.668 320.655 495.369C296.396 505.057 263.63 509.51 228.112 506.403C192.594 503.295 161.099 493.22 138.891 479.466C116.656 465.696 103.865 448.332 105.41 430.67C106.955 413.008 122.568 398.129 146.856 388.429C171.114 378.74 203.881 374.287 239.399 377.395C274.917 380.502 306.412 390.577 328.619 404.331C350.854 418.102 363.646 435.466 362.101 453.128Z" fill="white" stroke="black"/>
<ellipse cx="233.755" cy="441.899" rx="108.362" ry="45.4423" transform="rotate(5 233.755 441.899)" fill="black"/>
<circle cx="203.576" cy="439.258" r="18.643" transform="rotate(5 203.576 439.258)" fill="white"/>
<circle cx="263.935" cy="444.539" r="18.643" transform="rotate(5 263.935 444.539)" fill="white"/>
<path d="M262.673 458.966C268.824 459.504 274.17 453.604 274.829 446.077C275.487 438.55 271.247 431.811 265.095 431.273C258.944 430.735 253.598 436.635 252.939 444.162C252.281 451.689 256.521 458.428 262.673 458.966Z" fill="#AEEFFF" stroke="black"/>
<path d="M202.313 453.686C208.465 454.224 213.811 448.323 214.47 440.796C215.128 433.27 210.888 426.53 204.736 425.992C198.585 425.454 193.238 431.354 192.58 438.881C191.921 446.408 196.162 453.147 202.313 453.686Z" fill="#AEEFFF" stroke="black"/>
<ellipse cx="230.23" cy="475.51" rx="9.90409" ry="2.33037" transform="rotate(5 230.23 475.51)" fill="white"/>
<path d="M917.843 527.995C938.62 527.995 957.572 545.303 971.36 573.615C985.131 601.894 993.663 640.995 993.663 684.212C993.663 727.43 985.131 766.531 971.36 794.809C957.572 823.122 938.62 840.43 917.843 840.43C897.067 840.43 878.114 823.122 864.327 794.809C850.555 766.531 842.024 727.43 842.024 684.212C842.024 640.995 850.555 601.894 864.327 573.615C878.114 545.303 897.067 527.995 917.843 527.995Z" fill="white" stroke="black"/>
<path d="M1045.74 451.758C1045.74 469.487 1031.49 485.67 1008.14 497.45C984.815 509.216 952.561 516.508 916.908 516.508C881.254 516.508 849 509.216 825.679 497.45C802.328 485.67 788.072 469.487 788.072 451.758C788.072 434.028 802.328 417.845 825.679 406.065C849 394.299 881.254 387.007 916.908 387.007C952.561 387.007 984.815 394.299 1008.14 406.065C1031.49 417.845 1045.74 434.028 1045.74 451.758Z" fill="white" stroke="black"/>
<circle cx="886.613" cy="451.758" r="18.643" fill="white"/>
<circle cx="947.203" cy="451.758" r="18.643" fill="white"/>
<ellipse cx="916.325" cy="485.548" rx="9.90409" ry="2.33037" fill="white"/>
<rect x="57" y="655.128" width="1068.48" height="231.872" fill="#D9D9D9"/>
<rect x="260.908" y="559.583" width="245.854" height="114.188" fill="black"/>
<path d="M313.8 511.611L313.341 510.552L312.882 511.611L294.719 553.558L294.416 554.257H295.178H331.504H332.266L331.963 553.558L313.8 511.611Z" fill="#D9D9D9" stroke="black"/>
<rect x="253.251" y="551.926" width="243.689" height="113.188" fill="white" stroke="black"/>
<path d="M313.341 511.81L331.504 553.757H295.178L313.341 511.81Z" fill="white"/>
<rect x="851.657" y="345.188" width="410.146" height="114.188" transform="rotate(-180 851.657 345.188)" fill="black"/>
<path d="M819.738 394.325L820.197 395.384L820.656 394.325L838.819 352.378L839.122 351.679H838.361H802.034H801.272L801.575 352.378L819.738 394.325Z" fill="#D9D9D9" stroke="black"/>
<rect x="860.479" y="352.845" width="409.146" height="113.188" transform="rotate(-180 860.479 352.845)" fill="white" stroke="black"/>
<path d="M820.197 394.126L802.034 352.179H838.361L820.197 394.126Z" fill="white"/>
</svg>
