<svg width="126" height="121" viewBox="0 0 126 121" fill="none" xmlns="http://www.w3.org/2000/svg">
<path d="M70.3723 67.9244C70.174 67.8442 69.9878 67.7253 69.8259 67.5677C69.1529 66.9139 69.1365 65.8388 69.7911 65.1659L104.285 29.6531C104.938 28.9796 106.017 28.9666 106.685 29.6177C107.358 30.2716 107.375 31.3467 106.72 32.0195L72.2261 67.5323C71.7305 68.0422 70.9935 68.1754 70.3723 67.9244Z" stroke="black"/>
<path d="M68.4326 81.7911C74.5194 84.2504 81.4473 81.3096 83.9065 75.2229C86.3657 69.1361 83.425 62.2082 77.3382 59.749C71.2514 57.2897 64.3235 60.2305 61.8643 66.3172C59.4051 72.404 62.3458 79.3319 68.4326 81.7911Z" stroke="black"/>
<path d="M69.7048 78.6423C74.0526 80.3989 79.0011 78.2984 80.7577 73.9506C82.5143 69.6029 80.4137 64.6544 76.066 62.8978C71.7183 61.1412 66.7698 63.2417 65.0132 67.5895C63.2566 71.9372 65.3571 76.8857 69.7048 78.6423Z" stroke="black"/>
<path d="M40.697 77.9109C50.2619 81.7753 61.1486 77.1542 65.013 67.5893C68.8775 58.0244 64.2564 47.1377 54.6915 43.2733C45.1266 39.4088 34.2399 44.0299 30.3754 53.5948C26.511 63.1597 31.1321 74.0464 40.697 77.9109Z" stroke="black"/>
<path d="M41.9692 74.7621C49.795 77.9239 58.7023 74.143 61.8641 66.3172C65.026 58.4913 61.2451 49.584 53.4192 46.4222C45.5934 43.2603 36.6861 47.0412 33.5242 54.8671C30.3624 62.6929 34.1433 71.6002 41.9692 74.7621Z" stroke="black"/>
<path d="M43.2414 71.6132C49.3282 74.0724 56.2561 71.1317 58.7153 65.0449C61.1745 58.9582 58.2338 52.0303 52.147 49.571C46.0602 47.1118 39.1323 50.0525 36.6731 56.1393C34.2139 62.2261 37.1546 69.154 43.2414 71.6132Z" stroke="black"/>
<path d="M44.5136 68.4644C48.8613 70.221 53.8099 68.1204 55.5664 63.7727C57.323 59.425 55.2225 54.4765 50.8748 52.7199C46.5271 50.9633 41.5786 53.0638 39.822 57.4115C38.0654 61.7593 40.1659 66.7078 44.5136 68.4644Z" stroke="black"/>
<path d="M45.7859 65.3155C48.3945 66.3695 51.3636 65.1091 52.4176 62.5005C53.4716 59.8919 52.2112 56.9227 49.6026 55.8688C46.9939 54.8148 44.0248 56.0751 42.9708 58.6838C41.9169 61.2924 43.1772 64.2615 45.7859 65.3155Z" stroke="black"/>
<path d="M70.977 75.4934C73.5857 76.5474 76.5548 75.2871 77.6088 72.6784C78.6627 70.0698 77.4024 67.1006 74.7937 66.0467C72.1851 64.9927 69.216 66.253 68.162 68.8617C67.108 71.4703 68.3684 74.4395 70.977 75.4934Z" stroke="black"/>
<path d="M104.374 83.4927C90.9227 102.533 73.0388 107.333 66.0034 108.515C64.1593 108.825 62.2736 108.607 60.5399 107.906L30.7778 95.8816C29.0441 95.1811 27.5358 94.0288 26.4246 92.5246C22.1852 86.7867 12.6551 70.9106 16.2053 47.8702" stroke="black"/>
<path d="M73.8219 72.9803C73.4637 72.8356 73.1517 72.5674 72.9579 72.1974C72.5204 71.3678 72.8389 70.3404 73.6682 69.9037L113.212 49.0896C114.043 48.6544 115.069 48.9703 115.505 49.8014C115.943 50.631 115.624 51.6584 114.795 52.0951L75.251 72.9092C74.7902 73.1516 74.2695 73.1612 73.8219 72.9803Z" stroke="black"/>
<path d="M104.374 83.4927L16.2053 47.8702C12.6551 70.9107 22.1852 86.7867 26.4246 92.5246C27.5358 94.0286 29.0442 95.1812 30.778 95.8817L47.5669 102.665C46.8312 102.368 46.2164 101.803 45.7962 101.005C43.8537 97.3191 38.7767 85.3797 41.6274 65.8916C41.7857 64.8095 42.9337 64.1638 43.9475 64.5734L101.137 87.6795C102.237 86.359 103.322 84.9822 104.374 83.4927Z" stroke="black"/>
<path d="M103.738 85.0672L15.5692 49.4447C14.699 49.0931 14.2795 48.1035 14.6308 47.234C14.9821 46.3645 15.9711 45.944 16.8415 46.2956L105.01 81.9182C105.881 82.2698 106.3 83.2594 105.949 84.1288C105.597 84.9983 104.608 85.4188 103.738 85.0672Z" stroke="black"/>
<path d="M70.1746 67.2094L70.1743 67.2091C69.6991 66.7474 69.688 65.989 70.1495 65.5146L70.1498 65.5143L104.644 30.0015L104.644 30.0012C105.104 29.5265 105.866 29.5175 106.337 29.9759L106.337 29.9763C106.812 30.4381 106.823 31.1964 106.362 31.6708L106.361 31.6711L71.8676 67.1838C71.8676 67.1838 71.8675 67.1838 71.8675 67.1839C71.5179 67.5435 70.9982 67.638 70.5596 67.4608C70.4201 67.4044 70.2891 67.3208 70.1746 67.2094Z" fill="#803030" stroke="black"/>
<path d="M83.4429 75.0356C81.0871 80.8663 74.4507 83.6833 68.6199 81.3275C62.7892 78.9718 59.9721 72.3353 62.3279 66.5045C64.6837 60.6738 71.3202 57.8568 77.1509 60.2125C82.9817 62.5683 85.7987 69.2048 83.4429 75.0356Z" fill="#FFDC78" stroke="black"/>
<path d="M80.2941 73.7633C78.6409 77.855 73.9838 79.8318 69.8921 78.1787C65.8005 76.5255 63.8236 71.8684 65.4768 67.7768C67.1299 63.6851 71.787 61.7083 75.8787 63.3614C79.9704 65.0146 81.9472 69.6717 80.2941 73.7633Z" fill="#FFCF65" stroke="black"/>
<path d="M64.5494 67.402C60.7884 76.7109 50.1932 81.2083 40.8843 77.4473C31.5754 73.6862 27.078 63.091 30.839 53.7821C34.6001 44.4732 45.1953 39.9758 54.5042 43.7368C63.8131 47.4979 68.3105 58.0931 64.5494 67.402Z" fill="#FFDC78" stroke="black"/>
<path d="M61.4005 66.1299C58.3421 73.6997 49.7263 77.3569 42.1565 74.2985C34.5866 71.2401 30.9294 62.6242 33.9878 55.0544C37.0462 47.4846 45.6621 43.8274 53.2319 46.8858C60.8017 49.9442 64.4589 58.56 61.4005 66.1299Z" fill="#FFCF65" stroke="black"/>
<path d="M58.2517 64.8576C55.8959 70.6884 49.2594 73.5054 43.4287 71.1496C37.5979 68.7939 34.7809 62.1574 37.1367 56.3266C39.4925 50.4959 46.129 47.6789 51.9597 50.0346C57.7905 52.3904 60.6075 59.0269 58.2517 64.8576Z" fill="#FFDC78" stroke="black"/>
<path d="M55.1029 63.5854C53.4497 67.6771 48.7926 69.6539 44.7009 68.0008C40.6092 66.3476 38.6324 61.6905 40.2856 57.5988C41.9387 53.5072 46.5958 51.5303 50.6875 53.1835C54.7792 54.8366 56.756 59.4937 55.1029 63.5854Z" fill="#FFCF65" stroke="black"/>
<path d="M51.954 62.3132C51.0035 64.6658 48.3258 65.8024 45.9732 64.8519C43.6205 63.9014 42.4839 61.2237 43.4344 58.8711C44.385 56.5185 47.0627 55.3818 49.4153 56.3323C51.7679 57.2829 52.9045 59.9606 51.954 62.3132Z" fill="#FFDC78" stroke="black"/>
<path d="M77.1452 72.4911C76.1946 74.8437 73.5169 75.9804 71.1643 75.0298C68.8117 74.0793 67.6751 71.4016 68.6256 69.049C69.5761 66.6964 72.2538 65.5597 74.6064 66.5103C76.9591 67.4608 78.0957 70.1385 77.1452 72.4911Z" fill="#FFDC78" stroke="black"/>
<mask id="path-23-inside-1_8_5" fill="white">
<path d="M104.374 83.4927C90.9227 102.533 73.0388 107.333 66.0034 108.515C64.1593 108.825 62.2736 108.607 60.5399 107.906L30.7778 95.8816C29.0441 95.1811 27.5358 94.0288 26.4246 92.5246C22.1852 86.7867 12.6551 70.9106 16.2053 47.8702"/>
</mask>
<path d="M104.374 83.4927C90.9227 102.533 73.0388 107.333 66.0034 108.515C64.1593 108.825 62.2736 108.607 60.5399 107.906L30.7778 95.8816C29.0441 95.1811 27.5358 94.0288 26.4246 92.5246C22.1852 86.7867 12.6551 70.9106 16.2053 47.8702" fill="#FFF5F5"/>
<path d="M66.0034 108.515L66.1691 109.502L66.1691 109.502L66.0034 108.515ZM26.4246 92.5246L27.2289 91.9304L27.2289 91.9304L26.4246 92.5246ZM103.557 82.9157C90.3156 101.659 72.7243 106.372 65.8376 107.529L66.1691 109.502C73.3533 108.294 91.5297 103.407 105.191 84.0697L103.557 82.9157ZM65.8376 107.529C64.1803 107.808 62.4814 107.612 60.9146 106.979L60.1653 108.833C62.0657 109.601 64.1382 109.843 66.1691 109.502L65.8376 107.529ZM60.9146 106.979L31.1525 94.9544L30.4032 96.8088L60.1653 108.833L60.9146 106.979ZM31.1525 94.9544C29.5854 94.3213 28.2275 93.2821 27.2289 91.9304L25.6203 93.1188C26.8441 94.7754 28.5027 96.0409 30.4032 96.8088L31.1525 94.9544ZM27.2289 91.9304C23.0791 86.3138 13.6988 70.7037 17.1937 48.0225L15.217 47.7179C11.6115 71.1175 21.2913 87.2596 25.6203 93.1189L27.2289 91.9304Z" fill="black" mask="url(#path-23-inside-1_8_5)"/>
<path d="M73.4008 71.9654L73.4002 71.9642C73.0915 71.3789 73.3163 70.6541 73.9012 70.3461L113.444 49.5325C113.445 49.5324 113.445 49.5324 113.445 49.5323C114.032 49.2247 114.755 49.4488 115.063 50.034L115.063 50.0346C115.372 50.6199 115.147 51.3447 114.562 51.6527C114.562 51.6527 114.562 51.6527 114.562 51.6527L75.0182 72.4667C74.6932 72.6377 74.3266 72.645 74.0092 72.5167C73.7565 72.4146 73.5374 72.2262 73.4008 71.9654Z" fill="#803030" stroke="black"/>
<path d="M41.1326 65.8192L41.1326 65.8192C38.2665 85.4131 43.3623 97.4554 45.3492 101.23L30.9653 95.4181C29.3149 94.7513 27.8817 93.6553 26.8267 92.2275C22.6705 86.6021 13.3493 71.0942 16.6061 48.5714L103.598 83.7184C102.745 84.8962 101.871 86.0062 100.986 87.079L44.1348 64.1098C42.8262 63.5811 41.3388 64.4107 41.1326 65.8192Z" fill="#AEEFFF" stroke="black"/>
<path d="M103.925 84.6036L15.7565 48.9811C15.1425 48.733 14.8465 48.0349 15.0944 47.4213C15.3423 46.8077 16.04 46.5111 16.6542 46.7592L104.823 82.3818C105.437 82.6299 105.733 83.328 105.485 83.9415C105.237 84.5551 104.539 84.8517 103.925 84.6036Z" fill="#FFF5F5" stroke="black"/>
</svg>
