<svg width="590" height="107" viewBox="0 0 590 107" fill="none" xmlns="http://www.w3.org/2000/svg">
<path d="M363.64 84V35.52H362.2L354.68 53.28H343.96L355.4 28H373.88V84H363.64ZM405.092 85.12C398.479 85.12 393.172 83.3067 389.172 79.68C385.172 76 383.172 70.4533 383.172 63.04V48.96C383.172 41.76 385.172 36.2933 389.172 32.56C393.172 28.7733 398.479 26.88 405.092 26.88C411.759 26.88 417.065 28.7733 421.012 32.56C425.012 36.2933 427.012 41.76 427.012 48.96V63.04C427.012 70.4533 425.012 76 421.012 79.68C417.065 83.3067 411.759 85.12 405.092 85.12ZM405.092 76C409.092 76 412.025 74.9067 413.892 72.72C415.812 70.5333 416.772 67.4133 416.772 63.36V48.48C416.772 44.3733 415.705 41.28 413.572 39.2C411.492 37.0667 408.665 36 405.092 36C401.412 36 398.532 37.0933 396.452 39.28C394.425 41.4667 393.412 44.5333 393.412 48.48V63.36C393.412 67.5733 394.372 70.7467 396.292 72.88C398.265 74.96 401.199 76 405.092 76ZM455.767 85.12C451.447 85.12 447.634 84.3467 444.327 82.8C441.02 81.2533 438.434 79.04 436.567 76.16C434.7 73.28 433.767 69.8133 433.767 65.76V63.52H444.167V65.76C444.167 69.12 445.207 71.6533 447.287 73.36C449.367 75.0133 452.194 75.84 455.767 75.84C459.394 75.84 462.087 75.12 463.847 73.68C465.66 72.24 466.567 70.4 466.567 68.16C466.567 66.6133 466.14 65.36 465.287 64.4C464.434 63.44 463.18 62.6667 461.527 62.08C459.874 61.44 457.847 60.8533 455.447 60.32L453.607 59.92C449.767 59.0667 446.46 58 443.687 56.72C440.967 55.3867 438.86 53.6533 437.367 51.52C435.927 49.3867 435.207 46.6133 435.207 43.2C435.207 39.7867 436.007 36.88 437.607 34.48C439.26 32.0267 441.554 30.16 444.487 28.88C447.474 27.5467 450.967 26.88 454.967 26.88C458.967 26.88 462.514 27.5733 465.607 28.96C468.754 30.2933 471.207 32.32 472.967 35.04C474.78 37.7067 475.687 41.0667 475.687 45.12V47.52H465.287V45.12C465.287 42.9867 464.86 41.28 464.007 40C463.207 38.6667 462.034 37.7067 460.487 37.12C458.94 36.48 457.1 36.16 454.967 36.16C451.767 36.16 449.394 36.7733 447.847 38C446.354 39.1733 445.607 40.8 445.607 42.88C445.607 44.2667 445.954 45.44 446.647 46.4C447.394 47.36 448.487 48.16 449.927 48.8C451.367 49.44 453.207 50 455.447 50.48L457.287 50.88C461.287 51.7333 464.754 52.8267 467.687 54.16C470.62 55.4933 472.887 57.2533 474.487 59.44C476.14 61.6267 476.967 64.4267 476.967 67.84C476.967 71.2533 476.087 74.2667 474.327 76.88C472.62 79.44 470.167 81.4667 466.967 82.96C463.82 84.4 460.087 85.12 455.767 85.12ZM450.887 93.28V18.72H460.487V93.28H450.887Z" fill="black"/>
<mask id="path-2-outside-1_52_8" maskUnits="userSpaceOnUse" x="337" y="12" width="136" height="78" fill="black">
<rect fill="white" x="337" y="12" width="136" height="78"/>
<path d="M358.64 79V30.52H357.2L349.68 48.28H338.96L350.4 23H368.88V79H358.64ZM400.092 80.12C393.479 80.12 388.172 78.3067 384.172 74.68C380.172 71 378.172 65.4533 378.172 58.04V43.96C378.172 36.76 380.172 31.2933 384.172 27.56C388.172 23.7733 393.479 21.88 400.092 21.88C406.759 21.88 412.065 23.7733 416.012 27.56C420.012 31.2933 422.012 36.76 422.012 43.96V58.04C422.012 65.4533 420.012 71 416.012 74.68C412.065 78.3067 406.759 80.12 400.092 80.12ZM400.092 71C404.092 71 407.025 69.9067 408.892 67.72C410.812 65.5333 411.772 62.4133 411.772 58.36V43.48C411.772 39.3733 410.705 36.28 408.572 34.2C406.492 32.0667 403.665 31 400.092 31C396.412 31 393.532 32.0933 391.452 34.28C389.425 36.4667 388.412 39.5333 388.412 43.48V58.36C388.412 62.5733 389.372 65.7467 391.292 67.88C393.265 69.96 396.199 71 400.092 71ZM450.767 80.12C446.447 80.12 442.634 79.3467 439.327 77.8C436.02 76.2533 433.434 74.04 431.567 71.16C429.7 68.28 428.767 64.8133 428.767 60.76V58.52H439.167V60.76C439.167 64.12 440.207 66.6533 442.287 68.36C444.367 70.0133 447.194 70.84 450.767 70.84C454.394 70.84 457.087 70.12 458.847 68.68C460.66 67.24 461.567 65.4 461.567 63.16C461.567 61.6133 461.14 60.36 460.287 59.4C459.434 58.44 458.18 57.6667 456.527 57.08C454.874 56.44 452.847 55.8533 450.447 55.32L448.607 54.92C444.767 54.0667 441.46 53 438.687 51.72C435.967 50.3867 433.86 48.6533 432.367 46.52C430.927 44.3867 430.207 41.6133 430.207 38.2C430.207 34.7867 431.007 31.88 432.607 29.48C434.26 27.0267 436.554 25.16 439.487 23.88C442.474 22.5467 445.967 21.88 449.967 21.88C453.967 21.88 457.514 22.5733 460.607 23.96C463.754 25.2933 466.207 27.32 467.967 30.04C469.78 32.7067 470.687 36.0667 470.687 40.12V42.52H460.287V40.12C460.287 37.9867 459.86 36.28 459.007 35C458.207 33.6667 457.034 32.7067 455.487 32.12C453.94 31.48 452.1 31.16 449.967 31.16C446.767 31.16 444.394 31.7733 442.847 33C441.354 34.1733 440.607 35.8 440.607 37.88C440.607 39.2667 440.954 40.44 441.647 41.4C442.394 42.36 443.487 43.16 444.927 43.8C446.367 44.44 448.207 45 450.447 45.48L452.287 45.88C456.287 46.7333 459.754 47.8267 462.687 49.16C465.62 50.4933 467.887 52.2533 469.487 54.44C471.14 56.6267 471.967 59.4267 471.967 62.84C471.967 66.2533 471.087 69.2667 469.327 71.88C467.62 74.44 465.167 76.4667 461.967 77.96C458.82 79.4 455.087 80.12 450.767 80.12ZM445.887 88.28V13.72H455.487V88.28H445.887Z"/>
</mask>
<path d="M358.64 79V30.52H357.2L349.68 48.28H338.96L350.4 23H368.88V79H358.64ZM400.092 80.12C393.479 80.12 388.172 78.3067 384.172 74.68C380.172 71 378.172 65.4533 378.172 58.04V43.96C378.172 36.76 380.172 31.2933 384.172 27.56C388.172 23.7733 393.479 21.88 400.092 21.88C406.759 21.88 412.065 23.7733 416.012 27.56C420.012 31.2933 422.012 36.76 422.012 43.96V58.04C422.012 65.4533 420.012 71 416.012 74.68C412.065 78.3067 406.759 80.12 400.092 80.12ZM400.092 71C404.092 71 407.025 69.9067 408.892 67.72C410.812 65.5333 411.772 62.4133 411.772 58.36V43.48C411.772 39.3733 410.705 36.28 408.572 34.2C406.492 32.0667 403.665 31 400.092 31C396.412 31 393.532 32.0933 391.452 34.28C389.425 36.4667 388.412 39.5333 388.412 43.48V58.36C388.412 62.5733 389.372 65.7467 391.292 67.88C393.265 69.96 396.199 71 400.092 71ZM450.767 80.12C446.447 80.12 442.634 79.3467 439.327 77.8C436.02 76.2533 433.434 74.04 431.567 71.16C429.7 68.28 428.767 64.8133 428.767 60.76V58.52H439.167V60.76C439.167 64.12 440.207 66.6533 442.287 68.36C444.367 70.0133 447.194 70.84 450.767 70.84C454.394 70.84 457.087 70.12 458.847 68.68C460.66 67.24 461.567 65.4 461.567 63.16C461.567 61.6133 461.14 60.36 460.287 59.4C459.434 58.44 458.18 57.6667 456.527 57.08C454.874 56.44 452.847 55.8533 450.447 55.32L448.607 54.92C444.767 54.0667 441.46 53 438.687 51.72C435.967 50.3867 433.86 48.6533 432.367 46.52C430.927 44.3867 430.207 41.6133 430.207 38.2C430.207 34.7867 431.007 31.88 432.607 29.48C434.26 27.0267 436.554 25.16 439.487 23.88C442.474 22.5467 445.967 21.88 449.967 21.88C453.967 21.88 457.514 22.5733 460.607 23.96C463.754 25.2933 466.207 27.32 467.967 30.04C469.78 32.7067 470.687 36.0667 470.687 40.12V42.52H460.287V40.12C460.287 37.9867 459.86 36.28 459.007 35C458.207 33.6667 457.034 32.7067 455.487 32.12C453.94 31.48 452.1 31.16 449.967 31.16C446.767 31.16 444.394 31.7733 442.847 33C441.354 34.1733 440.607 35.8 440.607 37.88C440.607 39.2667 440.954 40.44 441.647 41.4C442.394 42.36 443.487 43.16 444.927 43.8C446.367 44.44 448.207 45 450.447 45.48L452.287 45.88C456.287 46.7333 459.754 47.8267 462.687 49.16C465.62 50.4933 467.887 52.2533 469.487 54.44C471.14 56.6267 471.967 59.4267 471.967 62.84C471.967 66.2533 471.087 69.2667 469.327 71.88C467.62 74.44 465.167 76.4667 461.967 77.96C458.82 79.4 455.087 80.12 450.767 80.12ZM445.887 88.28V13.72H455.487V88.28H445.887Z" fill="#AEEFFF"/>
<path d="M358.64 79H357.64V80H358.64V79ZM358.64 30.52H359.64V29.52H358.64V30.52ZM357.2 30.52V29.52H356.537L356.279 30.1301L357.2 30.52ZM349.68 48.28V49.28H350.343L350.601 48.6699L349.68 48.28ZM338.96 48.28L338.049 47.8677L337.41 49.28H338.96V48.28ZM350.4 23V22H349.755L349.489 22.5877L350.4 23ZM368.88 23H369.88V22H368.88V23ZM368.88 79V80H369.88V79H368.88ZM359.64 79V30.52H357.64V79H359.64ZM358.64 29.52H357.2V31.52H358.64V29.52ZM356.279 30.1301L348.759 47.8901L350.601 48.6699L358.121 30.9099L356.279 30.1301ZM349.68 47.28H338.96V49.28H349.68V47.28ZM339.871 48.6923L351.311 23.4123L349.489 22.5877L338.049 47.8677L339.871 48.6923ZM350.4 24H368.88V22H350.4V24ZM367.88 23V79H369.88V23H367.88ZM368.88 78H358.64V80H368.88V78ZM384.172 74.68L383.495 75.416L383.5 75.4208L384.172 74.68ZM384.172 27.56L384.854 28.2911L384.859 28.2862L384.172 27.56ZM416.012 27.56L415.319 28.2816L415.33 28.2911L416.012 27.56ZM416.012 74.68L416.689 75.4163L416.689 75.4159L416.012 74.68ZM408.892 67.72L408.14 67.0601L408.131 67.0707L408.892 67.72ZM408.572 34.2L407.856 34.8981L407.865 34.9072L407.874 34.916L408.572 34.2ZM391.452 34.28L390.727 33.5907L390.718 33.6002L391.452 34.28ZM391.292 67.88L390.549 68.549L390.557 68.5587L390.566 68.5683L391.292 67.88ZM400.092 79.12C393.668 79.12 388.62 77.3635 384.844 73.9392L383.5 75.4208C387.723 79.2498 393.289 81.12 400.092 81.12V79.12ZM384.849 73.9441C381.121 70.5148 379.172 65.2793 379.172 58.04H377.172C377.172 65.6273 379.222 71.4852 383.495 75.4159L384.849 73.9441ZM379.172 58.04V43.96H377.172V58.04H379.172ZM379.172 43.96C379.172 36.9453 381.115 31.7806 384.854 28.2911L383.49 26.8289C379.228 30.8061 377.172 36.5747 377.172 43.96H379.172ZM384.859 28.2862C388.638 24.7095 393.68 22.88 400.092 22.88V20.88C393.277 20.88 387.706 22.8371 383.484 26.8338L384.859 28.2862ZM400.092 22.88C406.56 22.88 411.598 24.7111 415.32 28.2816L416.704 26.8384C412.532 22.8356 406.957 20.88 400.092 20.88V22.88ZM415.33 28.2911C419.068 31.7806 421.012 36.9453 421.012 43.96H423.012C423.012 36.5747 420.955 30.8061 416.694 26.8289L415.33 28.2911ZM421.012 43.96V58.04H423.012V43.96H421.012ZM421.012 58.04C421.012 65.2793 419.062 70.5148 415.335 73.9441L416.689 75.4159C420.961 71.4852 423.012 65.6273 423.012 58.04H421.012ZM415.335 73.9437C411.615 77.362 406.572 79.12 400.092 79.12V81.12C406.945 81.12 412.515 79.2513 416.689 75.4163L415.335 73.9437ZM400.092 72C404.265 72 407.53 70.8557 409.652 68.3693L408.131 67.0707C406.521 68.9577 403.919 70 400.092 70V72ZM409.643 68.3798C411.777 65.95 412.772 62.561 412.772 58.36H410.772C410.772 62.2657 409.847 65.1167 408.14 67.0602L409.643 68.3798ZM412.772 58.36V43.48H410.772V58.36H412.772ZM412.772 43.48C412.772 39.2082 411.66 35.8144 409.27 33.484L407.874 34.916C409.75 36.7456 410.772 39.5384 410.772 43.48H412.772ZM409.288 33.5019C406.983 31.1378 403.877 30 400.092 30V32C403.453 32 406.001 32.9956 407.856 34.8981L409.288 33.5019ZM400.092 30C396.202 30 393.036 31.1633 390.727 33.5908L392.176 34.9692C394.027 33.0233 396.621 32 400.092 32V30ZM390.718 33.6002C388.471 36.0251 387.412 39.3648 387.412 43.48H389.412C389.412 39.7018 390.379 36.9082 392.185 34.9598L390.718 33.6002ZM387.412 43.48V58.36H389.412V43.48H387.412ZM387.412 58.36C387.412 62.7069 388.401 66.1623 390.549 68.549L392.035 67.211C390.343 65.3311 389.412 62.4398 389.412 58.36H387.412ZM390.566 68.5683C392.789 70.9106 396.026 72 400.092 72V70C396.371 70 393.742 69.0094 392.017 67.1917L390.566 68.5683ZM439.327 77.8L438.903 78.7058L438.903 78.7058L439.327 77.8ZM431.567 71.16L432.406 70.6161L432.406 70.6161L431.567 71.16ZM428.767 58.52V57.52H427.767V58.52H428.767ZM439.167 58.52H440.167V57.52H439.167V58.52ZM442.287 68.36L441.653 69.1331L441.659 69.138L441.665 69.1428L442.287 68.36ZM458.847 68.68L458.225 67.8969L458.219 67.9014L458.214 67.906L458.847 68.68ZM460.287 59.4L459.539 60.0644L459.539 60.0644L460.287 59.4ZM456.527 57.08L456.166 58.0126L456.179 58.0177L456.192 58.0224L456.527 57.08ZM450.447 55.32L450.664 54.3438L450.659 54.3428L450.447 55.32ZM448.607 54.92L448.39 55.8962L448.394 55.8972L448.607 54.92ZM438.687 51.72L438.247 52.6179L438.257 52.6231L438.268 52.628L438.687 51.72ZM432.367 46.52L431.538 47.0795L431.543 47.0865L431.548 47.0935L432.367 46.52ZM432.607 29.48L431.778 28.9211L431.775 28.9253L432.607 29.48ZM439.487 23.88L439.887 24.7966L439.895 24.7931L439.487 23.88ZM460.607 23.96L460.198 24.8725L460.207 24.8767L460.217 24.8808L460.607 23.96ZM467.967 30.04L467.127 30.5832L467.134 30.5928L467.14 30.6023L467.967 30.04ZM470.687 42.52V43.52H471.687V42.52H470.687ZM460.287 42.52H459.287V43.52H460.287V42.52ZM459.007 35L458.149 35.5145L458.162 35.5349L458.175 35.5547L459.007 35ZM455.487 32.12L455.105 33.044L455.118 33.0497L455.132 33.055L455.487 32.12ZM442.847 33L443.465 33.7863L443.468 33.7835L442.847 33ZM441.647 41.4L440.836 41.9855L440.847 41.9999L440.858 42.0139L441.647 41.4ZM444.927 43.8L445.333 42.8862L445.333 42.8862L444.927 43.8ZM450.447 45.48L450.659 44.5028L450.656 44.5022L450.447 45.48ZM452.287 45.88L452.074 46.8572L452.078 46.858L452.287 45.88ZM462.687 49.16L463.101 48.2496L463.101 48.2496L462.687 49.16ZM469.487 54.44L468.68 55.0305L468.684 55.0368L468.689 55.0431L469.487 54.44ZM469.327 71.88L468.497 71.3214L468.495 71.3253L469.327 71.88ZM461.967 77.96L462.383 78.8693L462.39 78.8662L461.967 77.96ZM445.887 88.28H444.887V89.28H445.887V88.28ZM445.887 13.72V12.72H444.887V13.72H445.887ZM455.487 13.72H456.487V12.72H455.487V13.72ZM455.487 88.28V89.28H456.487V88.28H455.487ZM450.767 79.12C446.567 79.12 442.902 78.3685 439.751 76.8942L438.903 78.7058C442.365 80.3249 446.327 81.12 450.767 81.12V79.12ZM439.751 76.8942C436.602 75.4216 434.164 73.3288 432.406 70.6161L430.728 71.7039C432.703 74.7512 435.438 77.0851 438.903 78.7058L439.751 76.8942ZM432.406 70.6161C430.662 67.9255 429.767 64.6558 429.767 60.76H427.767C427.767 64.9708 428.738 68.6345 430.728 71.7039L432.406 70.6161ZM429.767 60.76V58.52H427.767V60.76H429.767ZM428.767 59.52H439.167V57.52H428.767V59.52ZM438.167 58.52V60.76H440.167V58.52H438.167ZM438.167 60.76C438.167 64.3381 439.285 67.1903 441.653 69.1331L442.921 67.5869C441.129 66.1164 440.167 63.9019 440.167 60.76H438.167ZM441.665 69.1428C443.974 70.9785 447.045 71.84 450.767 71.84V69.84C447.342 69.84 444.76 69.0481 442.909 67.5772L441.665 69.1428ZM450.767 71.84C454.496 71.84 457.462 71.1049 459.48 69.454L458.214 67.906C456.711 69.1351 454.291 69.84 450.767 69.84V71.84ZM459.469 69.4631C461.512 67.8408 462.567 65.7168 462.567 63.16H460.567C460.567 65.0832 459.809 66.6392 458.225 67.8969L459.469 69.4631ZM462.567 63.16C462.567 61.4209 462.082 59.9145 461.034 58.7356L459.539 60.0644C460.198 60.8055 460.567 61.8057 460.567 63.16H462.567ZM461.034 58.7356C460.035 57.6119 458.618 56.7609 456.861 56.1376L456.192 58.0224C457.742 58.5724 458.832 59.2681 459.539 60.0644L461.034 58.7356ZM456.888 56.1474C455.174 55.4839 453.096 54.8842 450.664 54.3438L450.23 56.2962C452.598 56.8225 454.573 57.3961 456.166 58.0126L456.888 56.1474ZM450.659 54.3428L448.819 53.9428L448.394 55.8972L450.234 56.2972L450.659 54.3428ZM448.824 53.9438C445.035 53.1018 441.799 52.055 439.106 50.812L438.268 52.628C441.121 53.945 444.499 55.0316 448.39 55.8962L448.824 53.9438ZM439.127 50.8221C436.534 49.5509 434.568 47.9203 433.186 45.9465L431.548 47.0935C433.153 49.3863 435.4 51.2224 438.247 52.6179L439.127 50.8221ZM433.196 45.9605C431.898 44.0385 431.207 41.4779 431.207 38.2H429.207C429.207 41.7488 429.955 44.7348 431.538 47.0795L433.196 45.9605ZM431.207 38.2C431.207 34.9472 431.967 32.2422 433.439 30.0347L431.775 28.9253C430.046 31.5178 429.207 34.6261 429.207 38.2H431.207ZM433.436 30.0389C434.975 27.756 437.113 26.007 439.887 24.7965L439.087 22.9635C435.994 24.313 433.546 26.2973 431.778 28.9211L433.436 30.0389ZM439.895 24.7931C442.728 23.5283 446.077 22.88 449.967 22.88V20.88C445.857 20.88 442.219 21.565 439.079 22.9669L439.895 24.7931ZM449.967 22.88C453.851 22.88 457.254 23.553 460.198 24.8725L461.016 23.0475C457.773 21.5937 454.083 20.88 449.967 20.88V22.88ZM460.217 24.8808C463.19 26.1406 465.482 28.0407 467.127 30.5832L468.806 29.4967C466.932 26.5993 464.317 24.4461 460.997 23.0392L460.217 24.8808ZM467.14 30.6023C468.815 33.065 469.687 36.2156 469.687 40.12H471.687C471.687 35.9177 470.746 32.3483 468.794 29.4777L467.14 30.6023ZM469.687 40.12V42.52H471.687V40.12H469.687ZM470.687 41.52H460.287V43.52H470.687V41.52ZM461.287 42.52V40.12H459.287V42.52H461.287ZM461.287 40.12C461.287 37.863 460.837 35.9418 459.839 34.4453L458.175 35.5547C458.884 36.6182 459.287 38.1103 459.287 40.12H461.287ZM459.864 34.4855C458.941 32.9467 457.584 31.8459 455.842 31.185L455.132 33.055C456.483 33.5674 457.473 34.3866 458.149 35.5145L459.864 34.4855ZM455.869 31.196C454.173 30.4941 452.197 30.16 449.967 30.16V32.16C452.004 32.16 453.707 32.4659 455.105 33.044L455.869 31.196ZM449.967 30.16C446.671 30.16 444.029 30.786 442.225 32.2165L443.468 33.7835C444.758 32.7607 446.863 32.16 449.967 32.16V30.16ZM442.229 32.2137C440.469 33.5964 439.607 35.5266 439.607 37.88H441.607C441.607 36.0734 442.238 34.7503 443.465 33.7863L442.229 32.2137ZM439.607 37.88C439.607 39.4398 440 40.8273 440.836 41.9855L442.458 40.8145C441.907 40.0527 441.607 39.0935 441.607 37.88H439.607ZM440.858 42.0139C441.731 43.1367 442.973 44.0261 444.521 44.7138L445.333 42.8862C444 42.2939 443.056 41.5833 442.436 40.7861L440.858 42.0139ZM444.521 44.7138C446.045 45.3914 447.957 45.9692 450.237 46.4578L450.656 44.5022C448.456 44.0308 446.689 43.4886 445.333 42.8862L444.521 44.7138ZM450.234 46.4572L452.074 46.8572L452.499 44.9028L450.659 44.5028L450.234 46.4572ZM452.078 46.858C456.026 47.7001 459.42 48.7736 462.273 50.0704L463.101 48.2496C460.087 46.8797 456.548 45.7666 452.496 44.902L452.078 46.858ZM462.273 50.0704C465.08 51.3461 467.199 53.0066 468.68 55.0305L470.294 53.8495C468.575 51.5001 466.161 49.6406 463.101 48.2496L462.273 50.0704ZM468.689 55.0431C470.182 57.0173 470.967 59.5901 470.967 62.84H472.967C472.967 59.2633 472.099 56.236 470.285 53.8369L468.689 55.0431ZM470.967 62.84C470.967 66.0717 470.137 68.887 468.497 71.3214L470.156 72.4386C472.037 69.6463 472.967 66.435 472.967 62.84H470.967ZM468.495 71.3253C466.904 73.7114 464.603 75.6263 461.544 77.0538L462.39 78.8662C465.731 77.307 468.336 75.1686 470.159 72.4347L468.495 71.3253ZM461.551 77.0507C458.563 78.418 454.978 79.12 450.767 79.12V81.12C455.196 81.12 459.078 80.382 462.383 78.8693L461.551 77.0507ZM446.887 88.28V13.72H444.887V88.28H446.887ZM445.887 14.72H455.487V12.72H445.887V14.72ZM454.487 13.72V88.28H456.487V13.72H454.487ZM455.487 87.28H445.887V89.28H455.487V87.28Z" fill="black" mask="url(#path-2-outside-1_52_8)"/>
<path d="M19.45 75.7C16.75 75.7 14.3667 75.2167 12.3 74.25C10.2333 73.2833 8.61667 71.9 7.45 70.1C6.28333 68.3 5.7 66.1333 5.7 63.6V62.2H12.2V63.6C12.2 65.7 12.85 67.2833 14.15 68.35C15.45 69.3833 17.2167 69.9 19.45 69.9C21.7167 69.9 23.4 69.45 24.5 68.55C25.6333 67.65 26.2 66.5 26.2 65.1C26.2 64.1333 25.9167 63.35 25.35 62.75C24.8167 62.15 24.0167 61.6667 22.95 61.3C21.9167 60.9 20.65 60.5333 19.15 60.2L18 59.95C15.6 59.4167 13.5333 58.75 11.8 57.95C10.1 57.1167 8.78333 56.0333 7.85 54.7C6.95 53.3667 6.5 51.6333 6.5 49.5C6.5 47.3667 7 45.55 8 44.05C9.03333 42.5167 10.4667 41.35 12.3 40.55C14.1667 39.7167 16.35 39.3 18.85 39.3C21.35 39.3 23.5667 39.7333 25.5 40.6C27.4667 41.4333 29 42.7 30.1 44.4C31.2333 46.0667 31.8 48.1667 31.8 50.7V52.2H25.3V50.7C25.3 49.3667 25.0333 48.3 24.5 47.5C24 46.6667 23.2667 46.0667 22.3 45.7C21.3333 45.3 20.1833 45.1 18.85 45.1C16.85 45.1 15.3667 45.4833 14.4 46.25C13.4667 46.9833 13 48 13 49.3C13 50.1667 13.2167 50.9 13.65 51.5C14.1167 52.1 14.8 52.6 15.7 53C16.6 53.4 17.75 53.75 19.15 54.05L20.3 54.3C22.8 54.8333 24.9667 55.5167 26.8 56.35C28.6667 57.1833 30.1167 58.2833 31.15 59.65C32.1833 61.0167 32.7 62.7667 32.7 64.9C32.7 67.0333 32.15 68.9167 31.05 70.55C29.9833 72.15 28.45 73.4167 26.45 74.35C24.4833 75.25 22.15 75.7 19.45 75.7ZM44.5992 75V46H34.3992V40H61.3992V46H51.1992V75H44.5992ZM60.2711 75L69.4711 40H80.9711L90.1711 75H83.3711L81.4711 67.3H68.9711L67.0711 75H60.2711ZM70.5211 61.2H79.9211L75.6711 44.15H74.7711L70.5211 61.2ZM94.3605 75V40H109.561C111.761 40 113.677 40.3833 115.311 41.15C116.944 41.9167 118.211 43 119.111 44.4C120.011 45.8 120.461 47.45 120.461 49.35V49.95C120.461 52.05 119.961 53.75 118.961 55.05C117.961 56.35 116.727 57.3 115.261 57.9V58.8C116.594 58.8667 117.627 59.3333 118.361 60.2C119.094 61.0333 119.461 62.15 119.461 63.55V75H112.861V64.5C112.861 63.7 112.644 63.05 112.211 62.55C111.811 62.05 111.127 61.8 110.161 61.8H100.961V75H94.3605ZM100.961 55.8H108.861C110.427 55.8 111.644 55.3833 112.511 54.55C113.411 53.6833 113.861 52.55 113.861 51.15V50.65C113.861 49.25 113.427 48.1333 112.561 47.3C111.694 46.4333 110.461 46 108.861 46H100.961V55.8ZM133.466 75V46H123.266V40H150.266V46H140.066V75H133.466ZM154.761 75V40H161.361V75H154.761ZM167.945 75V40H180.495L187.445 70.5H188.345V40H194.845V75H182.295L175.345 44.5H174.445V75H167.945ZM213.541 75.7C211.141 75.7 208.957 75.1667 206.991 74.1C205.057 73 203.507 71.4167 202.341 69.35C201.207 67.25 200.641 64.7 200.641 61.7V53.3C200.641 48.8 201.907 45.35 204.441 42.95C206.974 40.5167 210.407 39.3 214.741 39.3C219.041 39.3 222.357 40.45 224.691 42.75C227.057 45.0167 228.241 48.1 228.241 52V52.2H221.741V51.8C221.741 50.5667 221.474 49.45 220.941 48.45C220.441 47.45 219.674 46.6667 218.641 46.1C217.607 45.5 216.307 45.2 214.741 45.2C212.407 45.2 210.574 45.9167 209.241 47.35C207.907 48.7833 207.241 50.7333 207.241 53.2V61.8C207.241 64.2333 207.907 66.2 209.241 67.7C210.574 69.1667 212.441 69.9 214.841 69.9C217.241 69.9 218.991 69.2667 220.091 68C221.191 66.7333 221.741 65.1333 221.741 63.2V62.7H213.441V57.1H228.241V75H222.141V71.65H221.241C221.007 72.2167 220.624 72.8167 220.091 73.45C219.591 74.0833 218.824 74.6167 217.791 75.05C216.757 75.4833 215.341 75.7 213.541 75.7ZM244.255 75L253.455 40H264.955L274.155 75H267.355L265.455 67.3H252.955L251.055 75H244.255ZM254.505 61.2H263.905L259.655 44.15H258.755L254.505 61.2ZM283.222 75V46H273.022V40H300.022V46H289.822V75H283.222ZM308.667 75.7C307.333 75.7 306.2 75.2667 305.267 74.4C304.367 73.5 303.917 72.35 303.917 70.95C303.917 69.55 304.367 68.4167 305.267 67.55C306.2 66.65 307.333 66.2 308.667 66.2C310.033 66.2 311.167 66.65 312.067 67.55C312.967 68.4167 313.417 69.55 313.417 70.95C313.417 72.35 312.967 73.5 312.067 74.4C311.167 75.2667 310.033 75.7 308.667 75.7ZM308.667 59C307.333 59 306.2 58.5667 305.267 57.7C304.367 56.8 303.917 55.65 303.917 54.25C303.917 52.85 304.367 51.7167 305.267 50.85C306.2 49.95 307.333 49.5 308.667 49.5C310.033 49.5 311.167 49.95 312.067 50.85C312.967 51.7167 313.417 52.85 313.417 54.25C313.417 55.65 312.967 56.8 312.067 57.7C311.167 58.5667 310.033 59 308.667 59Z" fill="black"/>
<mask id="path-5-outside-2_52_8" maskUnits="userSpaceOnUse" x="0" y="35" width="311" height="39" fill="black">
<rect fill="white" y="35" width="311" height="39"/>
<path d="M15.45 72.7C12.75 72.7 10.3667 72.2167 8.3 71.25C6.23333 70.2833 4.61667 68.9 3.45 67.1C2.28333 65.3 1.7 63.1333 1.7 60.6V59.2H8.2V60.6C8.2 62.7 8.85 64.2833 10.15 65.35C11.45 66.3833 13.2167 66.9 15.45 66.9C17.7167 66.9 19.4 66.45 20.5 65.55C21.6333 64.65 22.2 63.5 22.2 62.1C22.2 61.1333 21.9167 60.35 21.35 59.75C20.8167 59.15 20.0167 58.6667 18.95 58.3C17.9167 57.9 16.65 57.5333 15.15 57.2L14 56.95C11.6 56.4167 9.53333 55.75 7.8 54.95C6.1 54.1167 4.78333 53.0333 3.85 51.7C2.95 50.3667 2.5 48.6333 2.5 46.5C2.5 44.3667 3 42.55 4 41.05C5.03333 39.5167 6.46667 38.35 8.3 37.55C10.1667 36.7167 12.35 36.3 14.85 36.3C17.35 36.3 19.5667 36.7333 21.5 37.6C23.4667 38.4333 25 39.7 26.1 41.4C27.2333 43.0667 27.8 45.1667 27.8 47.7V49.2H21.3V47.7C21.3 46.3667 21.0333 45.3 20.5 44.5C20 43.6667 19.2667 43.0667 18.3 42.7C17.3333 42.3 16.1833 42.1 14.85 42.1C12.85 42.1 11.3667 42.4833 10.4 43.25C9.46667 43.9833 9 45 9 46.3C9 47.1667 9.21667 47.9 9.65 48.5C10.1167 49.1 10.8 49.6 11.7 50C12.6 50.4 13.75 50.75 15.15 51.05L16.3 51.3C18.8 51.8333 20.9667 52.5167 22.8 53.35C24.6667 54.1833 26.1167 55.2833 27.15 56.65C28.1833 58.0167 28.7 59.7667 28.7 61.9C28.7 64.0333 28.15 65.9167 27.05 67.55C25.9833 69.15 24.45 70.4167 22.45 71.35C20.4833 72.25 18.15 72.7 15.45 72.7ZM40.5992 72V43H30.3992V37H57.3992V43H47.1992V72H40.5992ZM56.2711 72L65.4711 37H76.9711L86.1711 72H79.3711L77.4711 64.3H64.9711L63.0711 72H56.2711ZM66.5211 58.2H75.9211L71.6711 41.15H70.7711L66.5211 58.2ZM90.3605 72V37H105.561C107.761 37 109.677 37.3833 111.311 38.15C112.944 38.9167 114.211 40 115.111 41.4C116.011 42.8 116.461 44.45 116.461 46.35V46.95C116.461 49.05 115.961 50.75 114.961 52.05C113.961 53.35 112.727 54.3 111.261 54.9V55.8C112.594 55.8667 113.627 56.3333 114.361 57.2C115.094 58.0333 115.461 59.15 115.461 60.55V72H108.861V61.5C108.861 60.7 108.644 60.05 108.211 59.55C107.811 59.05 107.127 58.8 106.161 58.8H96.9605V72H90.3605ZM96.9605 52.8H104.861C106.427 52.8 107.644 52.3833 108.511 51.55C109.411 50.6833 109.861 49.55 109.861 48.15V47.65C109.861 46.25 109.427 45.1333 108.561 44.3C107.694 43.4333 106.461 43 104.861 43H96.9605V52.8ZM129.466 72V43H119.266V37H146.266V43H136.066V72H129.466ZM150.761 72V37H157.361V72H150.761ZM163.945 72V37H176.495L183.445 67.5H184.345V37H190.845V72H178.295L171.345 41.5H170.445V72H163.945ZM209.541 72.7C207.141 72.7 204.957 72.1667 202.991 71.1C201.057 70 199.507 68.4167 198.341 66.35C197.207 64.25 196.641 61.7 196.641 58.7V50.3C196.641 45.8 197.907 42.35 200.441 39.95C202.974 37.5167 206.407 36.3 210.741 36.3C215.041 36.3 218.357 37.45 220.691 39.75C223.057 42.0167 224.241 45.1 224.241 49V49.2H217.741V48.8C217.741 47.5667 217.474 46.45 216.941 45.45C216.441 44.45 215.674 43.6667 214.641 43.1C213.607 42.5 212.307 42.2 210.741 42.2C208.407 42.2 206.574 42.9167 205.241 44.35C203.907 45.7833 203.241 47.7333 203.241 50.2V58.8C203.241 61.2333 203.907 63.2 205.241 64.7C206.574 66.1667 208.441 66.9 210.841 66.9C213.241 66.9 214.991 66.2667 216.091 65C217.191 63.7333 217.741 62.1333 217.741 60.2V59.7H209.441V54.1H224.241V72H218.141V68.65H217.241C217.007 69.2167 216.624 69.8167 216.091 70.45C215.591 71.0833 214.824 71.6167 213.791 72.05C212.757 72.4833 211.341 72.7 209.541 72.7ZM240.255 72L249.455 37H260.955L270.155 72H263.355L261.455 64.3H248.955L247.055 72H240.255ZM250.505 58.2H259.905L255.655 41.15H254.755L250.505 58.2ZM279.222 72V43H269.022V37H296.022V43H285.822V72H279.222ZM304.667 72.7C303.333 72.7 302.2 72.2667 301.267 71.4C300.367 70.5 299.917 69.35 299.917 67.95C299.917 66.55 300.367 65.4167 301.267 64.55C302.2 63.65 303.333 63.2 304.667 63.2C306.033 63.2 307.167 63.65 308.067 64.55C308.967 65.4167 309.417 66.55 309.417 67.95C309.417 69.35 308.967 70.5 308.067 71.4C307.167 72.2667 306.033 72.7 304.667 72.7ZM304.667 56C303.333 56 302.2 55.5667 301.267 54.7C300.367 53.8 299.917 52.65 299.917 51.25C299.917 49.85 300.367 48.7167 301.267 47.85C302.2 46.95 303.333 46.5 304.667 46.5C306.033 46.5 307.167 46.95 308.067 47.85C308.967 48.7167 309.417 49.85 309.417 51.25C309.417 52.65 308.967 53.8 308.067 54.7C307.167 55.5667 306.033 56 304.667 56Z"/>
</mask>
<path d="M15.45 72.7C12.75 72.7 10.3667 72.2167 8.3 71.25C6.23333 70.2833 4.61667 68.9 3.45 67.1C2.28333 65.3 1.7 63.1333 1.7 60.6V59.2H8.2V60.6C8.2 62.7 8.85 64.2833 10.15 65.35C11.45 66.3833 13.2167 66.9 15.45 66.9C17.7167 66.9 19.4 66.45 20.5 65.55C21.6333 64.65 22.2 63.5 22.2 62.1C22.2 61.1333 21.9167 60.35 21.35 59.75C20.8167 59.15 20.0167 58.6667 18.95 58.3C17.9167 57.9 16.65 57.5333 15.15 57.2L14 56.95C11.6 56.4167 9.53333 55.75 7.8 54.95C6.1 54.1167 4.78333 53.0333 3.85 51.7C2.95 50.3667 2.5 48.6333 2.5 46.5C2.5 44.3667 3 42.55 4 41.05C5.03333 39.5167 6.46667 38.35 8.3 37.55C10.1667 36.7167 12.35 36.3 14.85 36.3C17.35 36.3 19.5667 36.7333 21.5 37.6C23.4667 38.4333 25 39.7 26.1 41.4C27.2333 43.0667 27.8 45.1667 27.8 47.7V49.2H21.3V47.7C21.3 46.3667 21.0333 45.3 20.5 44.5C20 43.6667 19.2667 43.0667 18.3 42.7C17.3333 42.3 16.1833 42.1 14.85 42.1C12.85 42.1 11.3667 42.4833 10.4 43.25C9.46667 43.9833 9 45 9 46.3C9 47.1667 9.21667 47.9 9.65 48.5C10.1167 49.1 10.8 49.6 11.7 50C12.6 50.4 13.75 50.75 15.15 51.05L16.3 51.3C18.8 51.8333 20.9667 52.5167 22.8 53.35C24.6667 54.1833 26.1167 55.2833 27.15 56.65C28.1833 58.0167 28.7 59.7667 28.7 61.9C28.7 64.0333 28.15 65.9167 27.05 67.55C25.9833 69.15 24.45 70.4167 22.45 71.35C20.4833 72.25 18.15 72.7 15.45 72.7ZM40.5992 72V43H30.3992V37H57.3992V43H47.1992V72H40.5992ZM56.2711 72L65.4711 37H76.9711L86.1711 72H79.3711L77.4711 64.3H64.9711L63.0711 72H56.2711ZM66.5211 58.2H75.9211L71.6711 41.15H70.7711L66.5211 58.2ZM90.3605 72V37H105.561C107.761 37 109.677 37.3833 111.311 38.15C112.944 38.9167 114.211 40 115.111 41.4C116.011 42.8 116.461 44.45 116.461 46.35V46.95C116.461 49.05 115.961 50.75 114.961 52.05C113.961 53.35 112.727 54.3 111.261 54.9V55.8C112.594 55.8667 113.627 56.3333 114.361 57.2C115.094 58.0333 115.461 59.15 115.461 60.55V72H108.861V61.5C108.861 60.7 108.644 60.05 108.211 59.55C107.811 59.05 107.127 58.8 106.161 58.8H96.9605V72H90.3605ZM96.9605 52.8H104.861C106.427 52.8 107.644 52.3833 108.511 51.55C109.411 50.6833 109.861 49.55 109.861 48.15V47.65C109.861 46.25 109.427 45.1333 108.561 44.3C107.694 43.4333 106.461 43 104.861 43H96.9605V52.8ZM129.466 72V43H119.266V37H146.266V43H136.066V72H129.466ZM150.761 72V37H157.361V72H150.761ZM163.945 72V37H176.495L183.445 67.5H184.345V37H190.845V72H178.295L171.345 41.5H170.445V72H163.945ZM209.541 72.7C207.141 72.7 204.957 72.1667 202.991 71.1C201.057 70 199.507 68.4167 198.341 66.35C197.207 64.25 196.641 61.7 196.641 58.7V50.3C196.641 45.8 197.907 42.35 200.441 39.95C202.974 37.5167 206.407 36.3 210.741 36.3C215.041 36.3 218.357 37.45 220.691 39.75C223.057 42.0167 224.241 45.1 224.241 49V49.2H217.741V48.8C217.741 47.5667 217.474 46.45 216.941 45.45C216.441 44.45 215.674 43.6667 214.641 43.1C213.607 42.5 212.307 42.2 210.741 42.2C208.407 42.2 206.574 42.9167 205.241 44.35C203.907 45.7833 203.241 47.7333 203.241 50.2V58.8C203.241 61.2333 203.907 63.2 205.241 64.7C206.574 66.1667 208.441 66.9 210.841 66.9C213.241 66.9 214.991 66.2667 216.091 65C217.191 63.7333 217.741 62.1333 217.741 60.2V59.7H209.441V54.1H224.241V72H218.141V68.65H217.241C217.007 69.2167 216.624 69.8167 216.091 70.45C215.591 71.0833 214.824 71.6167 213.791 72.05C212.757 72.4833 211.341 72.7 209.541 72.7ZM240.255 72L249.455 37H260.955L270.155 72H263.355L261.455 64.3H248.955L247.055 72H240.255ZM250.505 58.2H259.905L255.655 41.15H254.755L250.505 58.2ZM279.222 72V43H269.022V37H296.022V43H285.822V72H279.222ZM304.667 72.7C303.333 72.7 302.2 72.2667 301.267 71.4C300.367 70.5 299.917 69.35 299.917 67.95C299.917 66.55 300.367 65.4167 301.267 64.55C302.2 63.65 303.333 63.2 304.667 63.2C306.033 63.2 307.167 63.65 308.067 64.55C308.967 65.4167 309.417 66.55 309.417 67.95C309.417 69.35 308.967 70.5 308.067 71.4C307.167 72.2667 306.033 72.7 304.667 72.7ZM304.667 56C303.333 56 302.2 55.5667 301.267 54.7C300.367 53.8 299.917 52.65 299.917 51.25C299.917 49.85 300.367 48.7167 301.267 47.85C302.2 46.95 303.333 46.5 304.667 46.5C306.033 46.5 307.167 46.95 308.067 47.85C308.967 48.7167 309.417 49.85 309.417 51.25C309.417 52.65 308.967 53.8 308.067 54.7C307.167 55.5667 306.033 56 304.667 56Z" fill="#68CABF"/>
<path d="M8.3 71.25L7.87632 72.1558L8.3 71.25ZM3.45 67.1L4.28915 66.5561L4.28915 66.5561L3.45 67.1ZM1.7 59.2V58.2H0.7V59.2H1.7ZM8.2 59.2H9.2V58.2H8.2V59.2ZM10.15 65.35L9.51568 66.1231L9.52168 66.128L9.52776 66.1328L10.15 65.35ZM20.5 65.55L19.8781 64.7669L19.8724 64.7714L19.8668 64.776L20.5 65.55ZM21.35 59.75L20.6026 60.4144L20.6126 60.4256L20.623 60.4366L21.35 59.75ZM18.95 58.3L18.589 59.2326L18.6068 59.2395L18.6249 59.2457L18.95 58.3ZM15.15 57.2L15.3669 56.2238L15.3624 56.2228L15.15 57.2ZM14 56.95L13.7831 57.9262L13.7876 57.9272L14 56.95ZM7.8 54.95L7.35984 55.8479L7.37033 55.8531L7.38094 55.858L7.8 54.95ZM3.85 51.7L3.02115 52.2595L3.0259 52.2665L3.03077 52.2735L3.85 51.7ZM4 41.05L3.17072 40.4911L3.16795 40.4953L4 41.05ZM8.3 37.55L8.69996 38.4666L8.70765 38.4631L8.3 37.55ZM21.5 37.6L21.0909 38.5125L21.1004 38.5167L21.1099 38.5208L21.5 37.6ZM26.1 41.4L25.2604 41.9432L25.2666 41.9529L25.2731 41.9623L26.1 41.4ZM27.8 49.2V50.2H28.8V49.2H27.8ZM21.3 49.2H20.3V50.2H21.3V49.2ZM20.5 44.5L19.6425 45.0145L19.6548 45.0349L19.668 45.0547L20.5 44.5ZM18.3 42.7L17.9176 43.624L17.9314 43.6297L17.9453 43.635L18.3 42.7ZM10.4 43.25L11.0178 44.0363L11.0214 44.0335L10.4 43.25ZM9.65 48.5L8.83932 49.0855L8.84973 49.0999L8.86065 49.1139L9.65 48.5ZM11.7 50L12.1061 49.0862L11.7 50ZM15.15 51.05L15.3624 50.0728L15.3595 50.0722L15.15 51.05ZM16.3 51.3L16.0876 52.2772L16.0914 52.278L16.3 51.3ZM22.8 53.35L22.3862 54.2604L22.3924 54.2631L22.8 53.35ZM27.15 56.65L27.9477 56.0469L27.9477 56.0469L27.15 56.65ZM27.05 67.55L26.2206 66.9914L26.218 66.9953L27.05 67.55ZM22.45 71.35L22.8661 72.2593L22.8729 72.2562L22.45 71.35ZM15.45 71.7C12.8698 71.7 10.6356 71.2385 8.72369 70.3442L7.87632 72.1558C10.0977 73.1949 12.6302 73.7 15.45 73.7V71.7ZM8.72369 70.3442C6.81539 69.4516 5.34739 68.1888 4.28915 66.5561L2.61085 67.6439C3.88595 69.6112 5.65128 71.1151 7.87632 72.1558L8.72369 70.3442ZM4.28915 66.5561C3.24526 64.9455 2.7 62.9758 2.7 60.6H0.7C0.7 63.2908 1.32141 65.6545 2.61085 67.6439L4.28915 66.5561ZM2.7 60.6V59.2H0.7V60.6H2.7ZM1.7 60.2H8.2V58.2H1.7V60.2ZM7.2 59.2V60.6H9.2V59.2H7.2ZM7.2 60.6C7.2 62.9181 7.92789 64.8203 9.51568 66.1231L10.7843 64.5769C9.77211 63.7464 9.2 62.4819 9.2 60.6H7.2ZM9.52776 66.1328C11.0572 67.3485 13.0684 67.9 15.45 67.9V65.9C13.365 65.9 11.8428 65.4181 10.7722 64.5672L9.52776 66.1328ZM15.45 67.9C17.8188 67.9 19.7754 67.4349 21.1332 66.324L19.8668 64.776C19.0246 65.4651 17.6145 65.9 15.45 65.9V67.9ZM21.1219 66.3331C22.4847 65.2508 23.2 63.8168 23.2 62.1H21.2C21.2 63.1832 20.7819 64.0492 19.8781 64.7669L21.1219 66.3331ZM23.2 62.1C23.2 60.9248 22.8487 59.8804 22.077 59.0634L20.623 60.4366C20.9847 60.8196 21.2 61.3419 21.2 62.1H23.2ZM22.0974 59.0856C21.4128 58.3155 20.442 57.7554 19.2751 57.3543L18.6249 59.2457C19.5913 59.5779 20.2205 59.9845 20.6026 60.4144L22.0974 59.0856ZM19.311 57.3674C18.2168 56.9439 16.8987 56.5642 15.3669 56.2238L14.9331 58.1762C16.4013 58.5025 17.6165 58.8561 18.589 59.2326L19.311 57.3674ZM15.3624 56.2228L14.2124 55.9728L13.7876 57.9272L14.9376 58.1772L15.3624 56.2228ZM14.2169 55.9738C11.8678 55.4518 9.87224 54.805 8.21906 54.042L7.38094 55.858C9.19442 56.695 11.3322 57.3816 13.7831 57.9262L14.2169 55.9738ZM8.24016 54.0521C6.66696 53.2809 5.49088 52.3003 4.66923 51.1265L3.03077 52.2735C4.07578 53.7663 5.53304 54.9524 7.35984 55.8479L8.24016 54.0521ZM4.67885 51.1405C3.92149 50.0185 3.5 48.4979 3.5 46.5H1.5C1.5 48.7688 1.97851 50.7148 3.02115 52.2595L4.67885 51.1405ZM3.5 46.5C3.5 44.5272 3.96038 42.9122 4.83205 41.6047L3.16795 40.4953C2.03962 42.1878 1.5 44.2061 1.5 46.5H3.5ZM4.82927 41.6089C5.74769 40.246 7.02596 39.197 8.69994 38.4665L7.90006 36.6335C5.90737 37.503 4.31898 38.7873 3.17073 40.4911L4.82927 41.6089ZM8.70765 38.4631C10.4208 37.6983 12.4599 37.3 14.85 37.3V35.3C12.2401 35.3 9.91255 35.735 7.89235 36.6369L8.70765 38.4631ZM14.85 37.3C17.2341 37.3 19.3073 37.713 21.0909 38.5125L21.9091 36.6875C19.826 35.7537 17.4659 35.3 14.85 35.3V37.3ZM21.1099 38.5208C22.903 39.2806 24.2752 40.4207 25.2604 41.9432L26.9396 40.8567C25.7248 38.9793 24.0303 37.5861 21.8901 36.6792L21.1099 38.5208ZM25.2731 41.9623C26.2677 43.425 26.8 45.3156 26.8 47.7H28.8C28.8 45.0177 28.1989 42.7083 26.9269 40.8377L25.2731 41.9623ZM26.8 47.7V49.2H28.8V47.7H26.8ZM27.8 48.2H21.3V50.2H27.8V48.2ZM22.3 49.2V47.7H20.3V49.2H22.3ZM22.3 47.7C22.3 46.243 22.0097 44.9618 21.3321 43.9453L19.668 45.0547C20.057 45.6382 20.3 46.4903 20.3 47.7H22.3ZM21.3575 43.9855C20.7342 42.9467 19.817 42.2059 18.6547 41.765L17.9453 43.635C18.7163 43.9274 19.2658 44.3866 19.6425 45.0145L21.3575 43.9855ZM18.6824 41.776C17.5662 41.3141 16.28 41.1 14.85 41.1V43.1C16.0867 43.1 17.1005 43.2859 17.9176 43.624L18.6824 41.776ZM14.85 41.1C12.7543 41.1 11.0023 41.496 9.77861 42.4665L11.0214 44.0335C11.731 43.4707 12.9457 43.1 14.85 43.1V41.1ZM9.78218 42.4637C8.5824 43.4064 8 44.7266 8 46.3H10C10 45.2734 10.3509 44.5603 11.0178 44.0363L9.78218 42.4637ZM8 46.3C8 47.3398 8.26285 48.2873 8.83932 49.0855L10.4607 47.9145C10.1705 47.5127 10 46.9935 10 46.3H8ZM8.86065 49.1139C9.45391 49.8767 10.2866 50.4661 11.2939 50.9138L12.1061 49.0862C11.3134 48.7339 10.7794 48.3233 10.4394 47.8861L8.86065 49.1139ZM11.2939 50.9138C12.2784 51.3514 13.5004 51.7192 14.9405 52.0278L15.3595 50.0722C13.9996 49.7808 12.9216 49.4486 12.1061 49.0862L11.2939 50.9138ZM14.9376 52.0272L16.0876 52.2772L16.5124 50.3228L15.3624 50.0728L14.9376 52.0272ZM16.0914 52.278C18.5386 52.8001 20.6334 53.4636 22.3862 54.2604L23.2138 52.4396C21.2999 51.5697 19.0614 50.8666 16.5086 50.322L16.0914 52.278ZM22.3924 54.2631C24.1347 55.041 25.4387 56.0448 26.3523 57.2531L27.9477 56.0469C26.7946 54.5219 25.1987 53.3257 23.2077 52.4369L22.3924 54.2631ZM26.3523 57.2531C27.225 58.4073 27.7 59.9301 27.7 61.9H29.7C29.7 59.6033 29.1416 57.626 27.9477 56.0469L26.3523 57.2531ZM27.7 61.9C27.7 63.8517 27.2001 65.537 26.2206 66.9914L27.8794 68.1086C29.0999 66.2963 29.7 64.215 29.7 61.9H27.7ZM26.218 66.9953C25.2672 68.4214 23.8861 69.5763 22.0271 70.4438L22.8729 72.2562C25.0139 71.257 26.6995 69.8786 27.8821 68.1047L26.218 66.9953ZM22.0339 70.4407C20.226 71.268 18.041 71.7 15.45 71.7V73.7C18.259 73.7 20.7407 73.232 22.8661 72.2593L22.0339 70.4407ZM40.5992 72H39.5992V73H40.5992V72ZM40.5992 43H41.5992V42H40.5992V43ZM30.3992 43H29.3992V44H30.3992V43ZM30.3992 37V36H29.3992V37H30.3992ZM57.3992 37H58.3992V36H57.3992V37ZM57.3992 43V44H58.3992V43H57.3992ZM47.1992 43V42H46.1992V43H47.1992ZM47.1992 72V73H48.1992V72H47.1992ZM41.5992 72V43H39.5992V72H41.5992ZM40.5992 42H30.3992V44H40.5992V42ZM31.3992 43V37H29.3992V43H31.3992ZM30.3992 38H57.3992V36H30.3992V38ZM56.3992 37V43H58.3992V37H56.3992ZM57.3992 42H47.1992V44H57.3992V42ZM46.1992 43V72H48.1992V43H46.1992ZM47.1992 71H40.5992V73H47.1992V71ZM56.2711 72L55.3039 71.7458L54.9743 73H56.2711V72ZM65.4711 37V36H64.7L64.5039 36.7458L65.4711 37ZM76.9711 37L77.9382 36.7458L77.7422 36H76.9711V37ZM86.1711 72V73H87.4679L87.1382 71.7458L86.1711 72ZM79.3711 72L78.4002 72.2396L78.5879 73H79.3711V72ZM77.4711 64.3L78.442 64.0604L78.2543 63.3H77.4711V64.3ZM64.9711 64.3V63.3H64.1879L64.0002 64.0604L64.9711 64.3ZM63.0711 72V73H63.8543L64.042 72.2396L63.0711 72ZM66.5211 58.2L65.5508 57.9581L65.2412 59.2H66.5211V58.2ZM75.9211 58.2V59.2H77.201L76.8914 57.9581L75.9211 58.2ZM71.6711 41.15L72.6414 40.9081L72.4524 40.15H71.6711V41.15ZM70.7711 41.15V40.15H69.9898L69.8008 40.9081L70.7711 41.15ZM57.2382 72.2542L66.4382 37.2542L64.5039 36.7458L55.3039 71.7458L57.2382 72.2542ZM65.4711 38H76.9711V36H65.4711V38ZM76.0039 37.2542L85.204 72.2542L87.1382 71.7458L77.9382 36.7458L76.0039 37.2542ZM86.1711 71H79.3711V73H86.1711V71ZM80.342 71.7604L78.442 64.0604L76.5002 64.5396L78.4002 72.2396L80.342 71.7604ZM77.4711 63.3H64.9711V65.3H77.4711V63.3ZM64.0002 64.0604L62.1002 71.7604L64.042 72.2396L65.942 64.5396L64.0002 64.0604ZM63.0711 71H56.2711V73H63.0711V71ZM66.5211 59.2H75.9211V57.2H66.5211V59.2ZM76.8914 57.9581L72.6414 40.9081L70.7008 41.3919L74.9508 58.4419L76.8914 57.9581ZM71.6711 40.15H70.7711V42.15H71.6711V40.15ZM69.8008 40.9081L65.5508 57.9581L67.4914 58.4419L71.7414 41.3919L69.8008 40.9081ZM90.3605 72H89.3605V73H90.3605V72ZM90.3605 37V36H89.3605V37H90.3605ZM111.311 38.15L110.886 39.0552L110.886 39.0552L111.311 38.15ZM115.111 41.4L115.952 40.8592L115.952 40.8592L115.111 41.4ZM114.961 52.05L115.753 52.6597L115.753 52.6597L114.961 52.05ZM111.261 54.9L110.882 53.9745L110.261 54.2286V54.9H111.261ZM111.261 55.8H110.261V56.7512L111.211 56.7988L111.261 55.8ZM114.361 57.2L113.597 57.8459L113.603 57.8533L113.61 57.8606L114.361 57.2ZM115.461 72V73H116.461V72H115.461ZM108.861 72H107.861V73H108.861V72ZM108.211 59.55L107.43 60.1747L107.442 60.1901L107.455 60.2049L108.211 59.55ZM96.9605 58.8V57.8H95.9605V58.8H96.9605ZM96.9605 72V73H97.9605V72H96.9605ZM96.9605 52.8H95.9605V53.8H96.9605V52.8ZM108.511 51.55L109.204 52.2708L109.204 52.2703L108.511 51.55ZM108.561 44.3L107.853 45.0071L107.86 45.014L107.867 45.0208L108.561 44.3ZM96.9605 43V42H95.9605V43H96.9605ZM91.3605 72V37H89.3605V72H91.3605ZM90.3605 38H105.561V36H90.3605V38ZM105.561 38C107.645 38 109.411 38.3631 110.886 39.0552L111.735 37.2448C109.943 36.4035 107.876 36 105.561 36V38ZM110.886 39.0552C112.364 39.749 113.48 40.7123 114.269 41.9408L115.952 40.8592C114.941 39.2877 113.524 38.0844 111.735 37.2448L110.886 39.0552ZM114.269 41.9408C115.052 43.1575 115.461 44.6139 115.461 46.35H117.461C117.461 44.2861 116.97 42.4425 115.952 40.8592L114.269 41.9408ZM115.461 46.35V46.95H117.461V46.35H115.461ZM115.461 46.95C115.461 48.8919 115 50.3589 114.168 51.4403L115.753 52.6597C116.921 51.1411 117.461 49.2081 117.461 46.95H115.461ZM114.168 51.4403C113.272 52.6054 112.179 53.4437 110.882 53.9745L111.639 55.8255C113.275 55.1563 114.649 54.0946 115.753 52.6597L114.168 51.4403ZM110.261 54.9V55.8H112.261V54.9H110.261ZM111.211 56.7988C112.32 56.8542 113.074 57.2278 113.597 57.8459L115.124 56.5541C114.18 55.4388 112.867 54.8791 111.31 54.8012L111.211 56.7988ZM113.61 57.8606C114.144 58.4675 114.461 59.3276 114.461 60.55H116.461C116.461 58.9724 116.044 57.5992 115.111 56.5394L113.61 57.8606ZM114.461 60.55V72H116.461V60.55H114.461ZM115.461 71H108.861V73H115.461V71ZM109.861 72V61.5H107.861V72H109.861ZM109.861 61.5C109.861 60.512 109.588 59.613 108.966 58.8951L107.455 60.2049C107.699 60.487 107.861 60.888 107.861 61.5H109.861ZM108.991 58.9253C108.321 58.0872 107.273 57.8 106.161 57.8V59.8C106.982 59.8 107.3 60.0128 107.43 60.1747L108.991 58.9253ZM106.161 57.8H96.9605V59.8H106.161V57.8ZM95.9605 58.8V72H97.9605V58.8H95.9605ZM96.9605 71H90.3605V73H96.9605V71ZM96.9605 53.8H104.861V51.8H96.9605V53.8ZM104.861 53.8C106.605 53.8 108.099 53.3325 109.204 52.2708L107.817 50.8292C107.188 51.4341 106.25 51.8 104.861 51.8V53.8ZM109.204 52.2703C110.324 51.1916 110.861 49.7858 110.861 48.15H108.861C108.861 49.3142 108.497 50.1751 107.817 50.8297L109.204 52.2703ZM110.861 48.15V47.65H108.861V48.15H110.861ZM110.861 47.65C110.861 46.0266 110.349 44.6323 109.254 43.5792L107.867 45.0208C108.506 45.6344 108.861 46.4734 108.861 47.65H110.861ZM109.268 43.5929C108.161 42.4865 106.641 42 104.861 42V44C106.28 44 107.227 44.3802 107.853 45.0071L109.268 43.5929ZM104.861 42H96.9605V44H104.861V42ZM95.9605 43V52.8H97.9605V43H95.9605ZM129.466 72H128.466V73H129.466V72ZM129.466 43H130.466V42H129.466V43ZM119.266 43H118.266V44H119.266V43ZM119.266 37V36H118.266V37H119.266ZM146.266 37H147.266V36H146.266V37ZM146.266 43V44H147.266V43H146.266ZM136.066 43V42H135.066V43H136.066ZM136.066 72V73H137.066V72H136.066ZM130.466 72V43H128.466V72H130.466ZM129.466 42H119.266V44H129.466V42ZM120.266 43V37H118.266V43H120.266ZM119.266 38H146.266V36H119.266V38ZM145.266 37V43H147.266V37H145.266ZM146.266 42H136.066V44H146.266V42ZM135.066 43V72H137.066V43H135.066ZM136.066 71H129.466V73H136.066V71ZM150.761 72H149.761V73H150.761V72ZM150.761 37V36H149.761V37H150.761ZM157.361 37H158.361V36H157.361V37ZM157.361 72V73H158.361V72H157.361ZM151.761 72V37H149.761V72H151.761ZM150.761 38H157.361V36H150.761V38ZM156.361 37V72H158.361V37H156.361ZM157.361 71H150.761V73H157.361V71ZM163.945 72H162.945V73H163.945V72ZM163.945 37V36H162.945V37H163.945ZM176.495 37L177.47 36.7778L177.292 36H176.495V37ZM183.445 67.5L182.47 67.7222L182.647 68.5H183.445V67.5ZM184.345 67.5V68.5H185.345V67.5H184.345ZM184.345 37V36H183.345V37H184.345ZM190.845 37H191.845V36H190.845V37ZM190.845 72V73H191.845V72H190.845ZM178.295 72L177.32 72.2222L177.497 73H178.295V72ZM171.345 41.5L172.32 41.2778L172.142 40.5H171.345V41.5ZM170.445 41.5V40.5H169.445V41.5H170.445ZM170.445 72V73H171.445V72H170.445ZM164.945 72V37H162.945V72H164.945ZM163.945 38H176.495V36H163.945V38ZM175.52 37.2222L182.47 67.7222L184.42 67.2778L177.47 36.7778L175.52 37.2222ZM183.445 68.5H184.345V66.5H183.445V68.5ZM185.345 67.5V37H183.345V67.5H185.345ZM184.345 38H190.845V36H184.345V38ZM189.845 37V72H191.845V37H189.845ZM190.845 71H178.295V73H190.845V71ZM179.27 71.7778L172.32 41.2778L170.37 41.7222L177.32 72.2222L179.27 71.7778ZM171.345 40.5H170.445V42.5H171.345V40.5ZM169.445 41.5V72H171.445V41.5H169.445ZM170.445 71H163.945V73H170.445V71ZM202.991 71.1L202.496 71.9692L202.505 71.9742L202.514 71.979L202.991 71.1ZM198.341 66.35L197.461 66.8249L197.465 66.8333L197.47 66.8416L198.341 66.35ZM200.441 39.95L201.128 40.676L201.133 40.6712L200.441 39.95ZM220.691 39.75L219.989 40.4622L219.994 40.4672L219.999 40.4722L220.691 39.75ZM224.241 49.2V50.2H225.241V49.2H224.241ZM217.741 49.2H216.741V50.2H217.741V49.2ZM216.941 45.45L216.046 45.8972L216.052 45.909L216.058 45.9206L216.941 45.45ZM214.641 43.1L214.138 43.9648L214.149 43.9709L214.16 43.9768L214.641 43.1ZM205.241 64.7L204.493 65.3644L204.501 65.3727L205.241 64.7ZM216.091 65L215.336 64.3443L215.336 64.3443L216.091 65ZM217.741 59.7H218.741V58.7H217.741V59.7ZM209.441 59.7H208.441V60.7H209.441V59.7ZM209.441 54.1V53.1H208.441V54.1H209.441ZM224.241 54.1H225.241V53.1H224.241V54.1ZM224.241 72V73H225.241V72H224.241ZM218.141 72H217.141V73H218.141V72ZM218.141 68.65H219.141V67.65H218.141V68.65ZM217.241 68.65V67.65H216.571L216.316 68.2693L217.241 68.65ZM216.091 70.45L215.326 69.8059L215.316 69.818L215.306 69.8304L216.091 70.45ZM213.791 72.05L213.404 71.1278L213.404 71.1278L213.791 72.05ZM209.541 71.7C207.295 71.7 205.277 71.2025 203.467 70.221L202.514 71.979C204.637 73.1308 206.987 73.7 209.541 73.7V71.7ZM203.485 70.2308C201.72 69.2264 200.295 67.7784 199.211 65.8584L197.47 66.8416C198.719 69.0549 200.395 70.7736 202.496 71.9692L203.485 70.2308ZM199.221 65.8751C198.184 63.9538 197.641 61.576 197.641 58.7H195.641C195.641 61.824 196.231 64.5462 197.461 66.8249L199.221 65.8751ZM197.641 58.7V50.3H195.641V58.7H197.641ZM197.641 50.3C197.641 45.9908 198.848 42.8363 201.128 40.676L199.753 39.224C196.967 41.8637 195.641 45.6092 195.641 50.3H197.641ZM201.133 40.6712C203.439 38.4564 206.602 37.3 210.741 37.3V35.3C206.213 35.3 202.509 36.5769 199.748 39.2288L201.133 40.6712ZM210.741 37.3C214.863 37.3 217.895 38.3988 219.989 40.4622L221.393 39.0378C218.819 36.5012 215.218 35.3 210.741 35.3V37.3ZM219.999 40.4722C222.132 42.5147 223.241 45.3167 223.241 49H225.241C225.241 44.8833 223.983 41.5186 221.382 39.0278L219.999 40.4722ZM223.241 49V49.2H225.241V49H223.241ZM224.241 48.2H217.741V50.2H224.241V48.2ZM218.741 49.2V48.8H216.741V49.2H218.741ZM218.741 48.8C218.741 47.4173 218.44 46.1368 217.823 44.9794L216.058 45.9206C216.508 46.7632 216.741 47.716 216.741 48.8H218.741ZM217.835 45.0028C217.239 43.8107 216.323 42.8821 215.121 42.2232L214.16 43.9768C215.025 44.4513 215.642 45.0893 216.046 45.8972L217.835 45.0028ZM215.143 42.2352C213.917 41.5232 212.43 41.2 210.741 41.2V43.2C212.184 43.2 213.298 43.4768 214.138 43.9648L215.143 42.2352ZM210.741 41.2C208.187 41.2 206.067 41.9934 204.508 43.6689L205.973 45.0311C207.081 43.8399 208.627 43.2 210.741 43.2V41.2ZM204.508 43.6689C202.961 45.3319 202.241 47.5491 202.241 50.2H204.241C204.241 47.9176 204.853 46.2347 205.973 45.0311L204.508 43.6689ZM202.241 50.2V58.8H204.241V50.2H202.241ZM202.241 58.8C202.241 61.4237 202.964 63.6443 204.493 65.3644L205.988 64.0356C204.85 62.7557 204.241 61.043 204.241 58.8H202.241ZM204.501 65.3727C206.063 67.0911 208.223 67.9 210.841 67.9V65.9C208.658 65.9 207.085 65.2422 205.981 64.0273L204.501 65.3727ZM210.841 67.9C213.402 67.9 215.485 67.2223 216.846 65.6557L215.336 64.3443C214.496 65.3111 213.079 65.9 210.841 65.9V67.9ZM216.846 65.6557C218.127 64.1797 218.741 62.3353 218.741 60.2H216.741C216.741 61.9314 216.254 63.287 215.336 64.3443L216.846 65.6557ZM218.741 60.2V59.7H216.741V60.2H218.741ZM217.741 58.7H209.441V60.7H217.741V58.7ZM210.441 59.7V54.1H208.441V59.7H210.441ZM209.441 55.1H224.241V53.1H209.441V55.1ZM223.241 54.1V72H225.241V54.1H223.241ZM224.241 71H218.141V73H224.241V71ZM219.141 72V68.65H217.141V72H219.141ZM218.141 67.65H217.241V69.65H218.141V67.65ZM216.316 68.2693C216.133 68.7135 215.814 69.2257 215.326 69.8059L216.856 71.0941C217.434 70.4076 217.882 69.7198 218.165 69.0307L216.316 68.2693ZM215.306 69.8304C214.944 70.2891 214.339 70.7358 213.404 71.1278L214.177 72.9722C215.309 72.4975 216.238 71.8776 216.876 71.0696L215.306 69.8304ZM213.404 71.1278C212.545 71.488 211.279 71.7 209.541 71.7V73.7C211.402 73.7 212.97 73.4786 214.177 72.9722L213.404 71.1278ZM240.255 72L239.288 71.7458L238.959 73H240.255V72ZM249.455 37V36H248.684L248.488 36.7458L249.455 37ZM260.955 37L261.923 36.7458L261.727 36H260.955V37ZM270.155 72V73H271.452L271.123 71.7458L270.155 72ZM263.355 72L262.385 72.2396L262.572 73H263.355V72ZM261.455 64.3L262.426 64.0604L262.239 63.3H261.455V64.3ZM248.955 64.3V63.3H248.172L247.985 64.0604L248.955 64.3ZM247.055 72V73H247.839L248.026 72.2396L247.055 72ZM250.505 58.2L249.535 57.9581L249.226 59.2H250.505V58.2ZM259.905 58.2V59.2H261.185L260.876 57.9581L259.905 58.2ZM255.655 41.15L256.626 40.9081L256.437 40.15H255.655V41.15ZM254.755 41.15V40.15H253.974L253.785 40.9081L254.755 41.15ZM241.223 72.2542L250.423 37.2542L248.488 36.7458L239.288 71.7458L241.223 72.2542ZM249.455 38H260.955V36H249.455V38ZM259.988 37.2542L269.188 72.2542L271.123 71.7458L261.923 36.7458L259.988 37.2542ZM270.155 71H263.355V73H270.155V71ZM264.326 71.7604L262.426 64.0604L260.485 64.5396L262.385 72.2396L264.326 71.7604ZM261.455 63.3H248.955V65.3H261.455V63.3ZM247.985 64.0604L246.085 71.7604L248.026 72.2396L249.926 64.5396L247.985 64.0604ZM247.055 71H240.255V73H247.055V71ZM250.505 59.2H259.905V57.2H250.505V59.2ZM260.876 57.9581L256.626 40.9081L254.685 41.3919L258.935 58.4419L260.876 57.9581ZM255.655 40.15H254.755V42.15H255.655V40.15ZM253.785 40.9081L249.535 57.9581L251.476 58.4419L255.726 41.3919L253.785 40.9081ZM279.222 72H278.222V73H279.222V72ZM279.222 43H280.222V42H279.222V43ZM269.022 43H268.022V44H269.022V43ZM269.022 37V36H268.022V37H269.022ZM296.022 37H297.022V36H296.022V37ZM296.022 43V44H297.022V43H296.022ZM285.822 43V42H284.822V43H285.822ZM285.822 72V73H286.822V72H285.822ZM280.222 72V43H278.222V72H280.222ZM279.222 42H269.022V44H279.222V42ZM270.022 43V37H268.022V43H270.022ZM269.022 38H296.022V36H269.022V38ZM295.022 37V43H297.022V37H295.022ZM296.022 42H285.822V44H296.022V42ZM284.822 43V72H286.822V43H284.822ZM285.822 71H279.222V73H285.822V71ZM301.267 71.4L300.56 72.1071L300.573 72.1202L300.586 72.1328L301.267 71.4ZM301.267 64.55L301.96 65.2703L301.961 65.2698L301.267 64.55ZM308.067 64.55L307.36 65.2571L307.366 65.2638L307.373 65.2703L308.067 64.55ZM308.067 71.4L308.76 72.1203L308.767 72.1138L308.774 72.1071L308.067 71.4ZM301.267 54.7L300.56 55.4071L300.573 55.4202L300.586 55.4328L301.267 54.7ZM301.267 47.85L301.96 48.5703L301.961 48.5698L301.267 47.85ZM308.067 47.85L307.36 48.5571L307.366 48.5638L307.373 48.5703L308.067 47.85ZM308.067 54.7L308.76 55.4203L308.767 55.4138L308.774 55.4071L308.067 54.7ZM304.667 71.7C303.573 71.7 302.686 71.3535 301.947 70.6672L300.586 72.1328C301.714 73.1799 303.094 73.7 304.667 73.7V71.7ZM301.974 70.6929C301.281 70.0001 300.917 69.1139 300.917 67.95H298.917C298.917 69.5861 299.453 70.9999 300.56 72.1071L301.974 70.6929ZM300.917 67.95C300.917 66.7858 301.281 65.9249 301.96 65.2703L300.573 63.8297C299.453 64.9084 298.917 66.3142 298.917 67.95H300.917ZM301.961 65.2698C302.702 64.5552 303.584 64.2 304.667 64.2V62.2C303.083 62.2 301.698 62.7448 300.573 63.8302L301.961 65.2698ZM304.667 64.2C305.79 64.2 306.662 64.5594 307.36 65.2571L308.774 63.8429C307.672 62.7406 306.277 62.2 304.667 62.2V64.2ZM307.373 65.2703C308.053 65.9249 308.417 66.7858 308.417 67.95H310.417C310.417 66.3142 309.881 64.9084 308.76 63.8297L307.373 65.2703ZM308.417 67.95C308.417 69.1139 308.053 70.0001 307.36 70.6929L308.774 72.1071C309.881 70.9999 310.417 69.5861 310.417 67.95H308.417ZM307.373 70.6797C306.678 71.3493 305.801 71.7 304.667 71.7V73.7C306.266 73.7 307.656 73.184 308.76 72.1203L307.373 70.6797ZM304.667 55C303.573 55 302.686 54.6535 301.947 53.9672L300.586 55.4328C301.714 56.4799 303.094 57 304.667 57V55ZM301.974 53.9929C301.281 53.3001 300.917 52.4139 300.917 51.25H298.917C298.917 52.8861 299.453 54.2999 300.56 55.4071L301.974 53.9929ZM300.917 51.25C300.917 50.0858 301.281 49.2249 301.96 48.5703L300.573 47.1297C299.453 48.2084 298.917 49.6142 298.917 51.25H300.917ZM301.961 48.5698C302.702 47.8552 303.584 47.5 304.667 47.5V45.5C303.083 45.5 301.698 46.0448 300.573 47.1302L301.961 48.5698ZM304.667 47.5C305.79 47.5 306.662 47.8594 307.36 48.5571L308.774 47.1429C307.672 46.0406 306.277 45.5 304.667 45.5V47.5ZM307.373 48.5703C308.053 49.2249 308.417 50.0858 308.417 51.25H310.417C310.417 49.6142 309.881 48.2084 308.76 47.1297L307.373 48.5703ZM308.417 51.25C308.417 52.4139 308.053 53.3001 307.36 53.9929L308.774 55.4071C309.881 54.2999 310.417 52.8861 310.417 51.25H308.417ZM307.373 53.9797C306.678 54.6493 305.801 55 304.667 55V57C306.266 57 307.656 56.484 308.76 55.4203L307.373 53.9797Z" fill="black" mask="url(#path-5-outside-2_52_8)"/>
<path d="M504.2 81L518.9 36H525.2L510.5 81H504.2ZM527.885 71V46.2H534.085V48.9H534.985C535.418 48.0667 536.135 47.35 537.135 46.75C538.135 46.1167 539.451 45.8 541.085 45.8C542.851 45.8 544.268 46.15 545.335 46.85C546.401 47.5167 547.218 48.4 547.785 49.5H548.685C549.251 48.4333 550.051 47.55 551.085 46.85C552.118 46.15 553.585 45.8 555.485 45.8C557.018 45.8 558.401 46.1333 559.635 46.8C560.901 47.4333 561.901 48.4167 562.635 49.75C563.401 51.05 563.785 52.7 563.785 54.7V71H557.485V55.15C557.485 53.7833 557.135 52.7667 556.435 52.1C555.735 51.4 554.751 51.05 553.485 51.05C552.051 51.05 550.935 51.5167 550.135 52.45C549.368 53.35 548.985 54.65 548.985 56.35V71H542.685V55.15C542.685 53.7833 542.335 52.7667 541.635 52.1C540.935 51.4 539.951 51.05 538.685 51.05C537.251 51.05 536.135 51.5167 535.335 52.45C534.568 53.35 534.185 54.65 534.185 56.35V71H527.885ZM579.377 71C577.744 71 576.41 70.5 575.377 69.5C574.377 68.4667 573.877 67.1 573.877 65.4V51.4H567.677V46.2H573.877V38.5H580.177V46.2H586.977V51.4H580.177V64.3C580.177 65.3 580.644 65.8 581.577 65.8H586.377V71H579.377Z" fill="black"/>
<mask id="path-8-outside-3_52_8" maskUnits="userSpaceOnUse" x="498" y="35" width="86" height="47" fill="black">
<rect fill="white" x="498" y="35" width="86" height="47"/>
<path d="M500.2 81L514.9 36H521.2L506.5 81H500.2ZM523.885 71V46.2H530.085V48.9H530.985C531.418 48.0667 532.135 47.35 533.135 46.75C534.135 46.1167 535.451 45.8 537.085 45.8C538.851 45.8 540.268 46.15 541.335 46.85C542.401 47.5167 543.218 48.4 543.785 49.5H544.685C545.251 48.4333 546.051 47.55 547.085 46.85C548.118 46.15 549.585 45.8 551.485 45.8C553.018 45.8 554.401 46.1333 555.635 46.8C556.901 47.4333 557.901 48.4167 558.635 49.75C559.401 51.05 559.785 52.7 559.785 54.7V71H553.485V55.15C553.485 53.7833 553.135 52.7667 552.435 52.1C551.735 51.4 550.751 51.05 549.485 51.05C548.051 51.05 546.935 51.5167 546.135 52.45C545.368 53.35 544.985 54.65 544.985 56.35V71H538.685V55.15C538.685 53.7833 538.335 52.7667 537.635 52.1C536.935 51.4 535.951 51.05 534.685 51.05C533.251 51.05 532.135 51.5167 531.335 52.45C530.568 53.35 530.185 54.65 530.185 56.35V71H523.885ZM575.377 71C573.744 71 572.41 70.5 571.377 69.5C570.377 68.4667 569.877 67.1 569.877 65.4V51.4H563.677V46.2H569.877V38.5H576.177V46.2H582.977V51.4H576.177V64.3C576.177 65.3 576.644 65.8 577.577 65.8H582.377V71H575.377Z"/>
</mask>
<path d="M500.2 81L514.9 36H521.2L506.5 81H500.2ZM523.885 71V46.2H530.085V48.9H530.985C531.418 48.0667 532.135 47.35 533.135 46.75C534.135 46.1167 535.451 45.8 537.085 45.8C538.851 45.8 540.268 46.15 541.335 46.85C542.401 47.5167 543.218 48.4 543.785 49.5H544.685C545.251 48.4333 546.051 47.55 547.085 46.85C548.118 46.15 549.585 45.8 551.485 45.8C553.018 45.8 554.401 46.1333 555.635 46.8C556.901 47.4333 557.901 48.4167 558.635 49.75C559.401 51.05 559.785 52.7 559.785 54.7V71H553.485V55.15C553.485 53.7833 553.135 52.7667 552.435 52.1C551.735 51.4 550.751 51.05 549.485 51.05C548.051 51.05 546.935 51.5167 546.135 52.45C545.368 53.35 544.985 54.65 544.985 56.35V71H538.685V55.15C538.685 53.7833 538.335 52.7667 537.635 52.1C536.935 51.4 535.951 51.05 534.685 51.05C533.251 51.05 532.135 51.5167 531.335 52.45C530.568 53.35 530.185 54.65 530.185 56.35V71H523.885ZM575.377 71C573.744 71 572.41 70.5 571.377 69.5C570.377 68.4667 569.877 67.1 569.877 65.4V51.4H563.677V46.2H569.877V38.5H576.177V46.2H582.977V51.4H576.177V64.3C576.177 65.3 576.644 65.8 577.577 65.8H582.377V71H575.377Z" fill="#68CABF"/>
<path d="M500.2 81L499.249 80.6895L498.821 82H500.2V81ZM514.9 36V35H514.175L513.949 35.6895L514.9 36ZM521.2 36L522.151 36.3105L522.579 35H521.2V36ZM506.5 81V82H507.225L507.451 81.3105L506.5 81ZM501.151 81.3105L515.851 36.3105L513.949 35.6895L499.249 80.6895L501.151 81.3105ZM514.9 37H521.2V35H514.9V37ZM520.249 35.6895L505.549 80.6895L507.451 81.3105L522.151 36.3105L520.249 35.6895ZM506.5 80H500.2V82H506.5V80ZM523.885 71H522.885V72H523.885V71ZM523.885 46.2V45.2H522.885V46.2H523.885ZM530.085 46.2H531.085V45.2H530.085V46.2ZM530.085 48.9H529.085V49.9H530.085V48.9ZM530.985 48.9V49.9H531.592L531.872 49.3614L530.985 48.9ZM533.135 46.75L533.649 47.6075L533.66 47.6013L533.67 47.5948L533.135 46.75ZM541.335 46.85L540.786 47.686L540.795 47.6921L540.805 47.698L541.335 46.85ZM543.785 49.5L542.896 49.958L543.175 50.5H543.785V49.5ZM544.685 49.5V50.5H545.286L545.568 49.9692L544.685 49.5ZM547.085 46.85L547.646 47.6779L547.646 47.6779L547.085 46.85ZM555.635 46.8L555.159 47.6797L555.173 47.6873L555.188 47.6944L555.635 46.8ZM558.635 49.75L557.759 50.2319L557.766 50.2451L557.773 50.258L558.635 49.75ZM559.785 71V72H560.785V71H559.785ZM553.485 71H552.485V72H553.485V71ZM552.435 52.1L551.728 52.8071L551.736 52.8157L551.745 52.8241L552.435 52.1ZM546.135 52.45L545.376 51.7992L545.374 51.8015L546.135 52.45ZM544.985 71V72H545.985V71H544.985ZM538.685 71H537.685V72H538.685V71ZM537.635 52.1L536.928 52.8071L536.936 52.8157L536.945 52.8241L537.635 52.1ZM531.335 52.45L530.576 51.7992L530.574 51.8015L531.335 52.45ZM530.185 71V72H531.185V71H530.185ZM524.885 71V46.2H522.885V71H524.885ZM523.885 47.2H530.085V45.2H523.885V47.2ZM529.085 46.2V48.9H531.085V46.2H529.085ZM530.085 49.9H530.985V47.9H530.085V49.9ZM531.872 49.3614C532.202 48.7274 532.77 48.1353 533.649 47.6075L532.62 45.8925C531.5 46.5647 530.635 47.406 530.098 48.4386L531.872 49.3614ZM533.67 47.5948C534.46 47.0945 535.572 46.8 537.085 46.8V44.8C535.331 44.8 533.81 45.1389 532.6 45.9052L533.67 47.5948ZM537.085 46.8C538.729 46.8 539.934 47.1268 540.786 47.686L541.883 46.014C540.602 45.1732 538.974 44.8 537.085 44.8V46.8ZM540.805 47.698C541.722 48.271 542.413 49.0207 542.896 49.958L544.674 49.042C544.023 47.7793 543.081 46.7624 541.865 46.002L540.805 47.698ZM543.785 50.5H544.685V48.5H543.785V50.5ZM545.568 49.9692C546.055 49.0515 546.743 48.2896 547.646 47.6779L546.524 46.0221C545.36 46.8104 544.447 47.8152 543.802 49.0308L545.568 49.9692ZM547.646 47.6779C548.448 47.1345 549.687 46.8 551.485 46.8V44.8C549.482 44.8 547.788 45.1655 546.524 46.0221L547.646 47.6779ZM551.485 46.8C552.868 46.8 554.085 47.0992 555.159 47.6797L556.11 45.9203C554.718 45.1674 553.168 44.8 551.485 44.8V46.8ZM555.188 47.6944C556.259 48.2301 557.115 49.0625 557.759 50.2319L559.511 49.2681C558.687 47.7708 557.544 46.6365 556.082 45.9056L555.188 47.6944ZM557.773 50.258C558.424 51.3619 558.785 52.8223 558.785 54.7H560.785C560.785 52.5777 560.378 50.7381 559.496 49.242L557.773 50.258ZM558.785 54.7V71H560.785V54.7H558.785ZM559.785 70H553.485V72H559.785V70ZM554.485 71V55.15H552.485V71H554.485ZM554.485 55.15C554.485 53.625 554.093 52.2983 553.124 51.3759L551.745 52.8241C552.177 53.235 552.485 53.9416 552.485 55.15H554.485ZM553.142 51.3929C552.206 50.4568 550.939 50.05 549.485 50.05V52.05C550.564 52.05 551.264 52.3432 551.728 52.8071L553.142 51.3929ZM549.485 50.05C547.813 50.05 546.398 50.6065 545.376 51.7992L546.894 53.1008C547.472 52.4269 548.29 52.05 549.485 52.05V50.05ZM545.374 51.8015C544.397 52.9474 543.985 54.5145 543.985 56.35H545.985C545.985 54.7855 546.339 53.7526 546.896 53.0985L545.374 51.8015ZM543.985 56.35V71H545.985V56.35H543.985ZM544.985 70H538.685V72H544.985V70ZM539.685 71V55.15H537.685V71H539.685ZM539.685 55.15C539.685 53.625 539.293 52.2983 538.324 51.3759L536.945 52.8241C537.377 53.235 537.685 53.9416 537.685 55.15H539.685ZM538.342 51.3929C537.406 50.4568 536.139 50.05 534.685 50.05V52.05C535.764 52.05 536.464 52.3432 536.928 52.8071L538.342 51.3929ZM534.685 50.05C533.013 50.05 531.598 50.6065 530.576 51.7992L532.094 53.1008C532.672 52.4269 533.49 52.05 534.685 52.05V50.05ZM530.574 51.8015C529.597 52.9474 529.185 54.5145 529.185 56.35H531.185C531.185 54.7855 531.539 53.7526 532.096 53.0985L530.574 51.8015ZM529.185 56.35V71H531.185V56.35H529.185ZM530.185 70H523.885V72H530.185V70ZM571.377 69.5L570.658 70.1954L570.67 70.2072L570.682 70.2186L571.377 69.5ZM569.877 51.4H570.877V50.4H569.877V51.4ZM563.677 51.4H562.677V52.4H563.677V51.4ZM563.677 46.2V45.2H562.677V46.2H563.677ZM569.877 46.2V47.2H570.877V46.2H569.877ZM569.877 38.5V37.5H568.877V38.5H569.877ZM576.177 38.5H577.177V37.5H576.177V38.5ZM576.177 46.2H575.177V47.2H576.177V46.2ZM582.977 46.2H583.977V45.2H582.977V46.2ZM582.977 51.4V52.4H583.977V51.4H582.977ZM576.177 51.4V50.4H575.177V51.4H576.177ZM582.377 65.8H583.377V64.8H582.377V65.8ZM582.377 71V72H583.377V71H582.377ZM575.377 70C573.965 70 572.893 69.576 572.072 68.7814L570.682 70.2186C571.927 71.424 573.522 72 575.377 72V70ZM572.096 68.8046C571.308 67.9912 570.877 66.8911 570.877 65.4H568.877C568.877 67.3089 569.445 68.9421 570.658 70.1954L572.096 68.8046ZM570.877 65.4V51.4H568.877V65.4H570.877ZM569.877 50.4H563.677V52.4H569.877V50.4ZM564.677 51.4V46.2H562.677V51.4H564.677ZM563.677 47.2H569.877V45.2H563.677V47.2ZM570.877 46.2V38.5H568.877V46.2H570.877ZM569.877 39.5H576.177V37.5H569.877V39.5ZM575.177 38.5V46.2H577.177V38.5H575.177ZM576.177 47.2H582.977V45.2H576.177V47.2ZM581.977 46.2V51.4H583.977V46.2H581.977ZM582.977 50.4H576.177V52.4H582.977V50.4ZM575.177 51.4V64.3H577.177V51.4H575.177ZM575.177 64.3C575.177 64.9376 575.324 65.6021 575.796 66.1073C576.28 66.6255 576.938 66.8 577.577 66.8V64.8C577.43 64.8 577.344 64.78 577.301 64.7645C577.28 64.7571 577.269 64.7507 577.265 64.7479C577.26 64.7452 577.259 64.7437 577.258 64.7427C577.257 64.7416 577.253 64.7369 577.246 64.7255C577.24 64.7136 577.23 64.6927 577.219 64.6592C577.198 64.59 577.177 64.4754 577.177 64.3H575.177ZM577.577 66.8H582.377V64.8H577.577V66.8ZM581.377 65.8V71H583.377V65.8H581.377ZM582.377 70H575.377V72H582.377V70Z" fill="black" mask="url(#path-8-outside-3_52_8)"/>
</svg>
