<svg width="911" height="699" viewBox="0 0 911 699" fill="none" xmlns="http://www.w3.org/2000/svg">
<circle cx="459.5" cy="349.5" r="349" fill="#AEEFFF" stroke="black"/>
<rect x="266.226" y="226.004" width="393.774" height="253.696" fill="black"/>
<rect x="259" y="218" width="391.105" height="253.522" fill="white" stroke="black" stroke-width="2"/>
<rect x="260" y="219" width="389.105" height="53.8262" fill="#68CABF"/>
<path d="M360.275 109C357.588 109 355.227 108.523 353.19 107.57C351.197 106.573 349.637 105.165 348.51 103.345C347.383 101.482 346.82 99.2717 346.82 96.715C346.82 94.8517 347.145 93.2267 347.795 91.84C348.488 90.4533 349.42 89.305 350.59 88.395C351.76 87.485 353.06 86.8133 354.49 86.38V85.47C352.323 84.82 350.547 83.6933 349.16 82.09C347.773 80.4867 347.08 78.3633 347.08 75.72C347.08 73.0767 347.665 70.845 348.835 69.025C350.005 67.205 351.587 65.84 353.58 64.93C355.617 63.9767 357.935 63.5 360.535 63.5H367.62V70.26H362.03C360.08 70.26 358.455 70.78 357.155 71.82C355.898 72.86 355.27 74.3983 355.27 76.435C355.27 77.865 355.573 79.035 356.18 79.945C356.83 80.855 357.653 81.5267 358.65 81.96C359.69 82.3933 360.817 82.61 362.03 82.61H368.335V76.76H376.525V82.61H382.505V89.37H376.525V109H360.275ZM361.77 102.24H368.335V89.37H361.77C359.863 89.37 358.26 89.9117 356.96 90.995C355.66 92.0783 355.01 93.6817 355.01 95.805C355.01 97.9717 355.682 99.5967 357.025 100.68C358.412 101.72 359.993 102.24 361.77 102.24ZM404.197 109V63.5H420.122L427.987 103.15H429.157L437.022 63.5H452.947V109H444.627V69.805H443.457L435.657 109H421.487L413.687 69.805H412.517V109H404.197ZM479.197 109.91C473.477 109.91 468.927 108.35 465.547 105.23C462.167 102.067 460.477 97.56 460.477 91.71V80.79C460.477 74.94 462.167 70.455 465.547 67.335C468.927 64.1717 473.477 62.59 479.197 62.59C484.917 62.59 489.467 64.1717 492.847 67.335C496.227 70.455 497.917 74.94 497.917 80.79V91.71C497.917 97.56 496.227 102.067 492.847 105.23C489.467 108.35 484.917 109.91 479.197 109.91ZM479.197 102.24C482.403 102.24 484.895 101.308 486.672 99.445C488.448 97.5817 489.337 95.09 489.337 91.97V80.53C489.337 77.41 488.448 74.9183 486.672 73.055C484.895 71.1917 482.403 70.26 479.197 70.26C476.033 70.26 473.542 71.1917 471.722 73.055C469.945 74.9183 469.057 77.41 469.057 80.53V91.97C469.057 95.09 469.945 97.5817 471.722 99.445C473.542 101.308 476.033 102.24 479.197 102.24ZM505.442 109V63.5H525.202C528.062 63.5 530.554 63.9983 532.677 64.995C534.801 65.9917 536.447 67.4 537.617 69.22C538.787 71.04 539.372 73.185 539.372 75.655V76.435C539.372 79.165 538.722 81.375 537.422 83.065C536.122 84.755 534.519 85.99 532.612 86.77V87.94C534.346 88.0267 535.689 88.6333 536.642 89.76C537.596 90.8433 538.072 92.295 538.072 94.115V109H529.492V95.35C529.492 94.31 529.211 93.465 528.647 92.815C528.127 92.165 527.239 91.84 525.982 91.84H514.022V109H505.442ZM514.022 84.04H524.292C526.329 84.04 527.911 83.4983 529.037 82.415C530.207 81.2883 530.792 79.815 530.792 77.995V77.345C530.792 75.525 530.229 74.0733 529.102 72.99C527.976 71.8633 526.372 71.3 524.292 71.3H514.022V84.04ZM546.512 109V63.5H575.762V71.3H555.092V82.155H573.942V89.955H555.092V101.2H576.152V109H546.512Z" fill="black"/>
<mask id="path-6-outside-1_38_4" maskUnits="userSpaceOnUse" x="340" y="58" width="233" height="50" fill="black">
<rect fill="white" x="340" y="58" width="233" height="50"/>
<path d="M355.275 106C352.588 106 350.227 105.523 348.19 104.57C346.197 103.573 344.637 102.165 343.51 100.345C342.383 98.4817 341.82 96.2717 341.82 93.715C341.82 91.8517 342.145 90.2267 342.795 88.84C343.488 87.4533 344.42 86.305 345.59 85.395C346.76 84.485 348.06 83.8133 349.49 83.38V82.47C347.323 81.82 345.547 80.6933 344.16 79.09C342.773 77.4867 342.08 75.3633 342.08 72.72C342.08 70.0767 342.665 67.845 343.835 66.025C345.005 64.205 346.587 62.84 348.58 61.93C350.617 60.9767 352.935 60.5 355.535 60.5H362.62V67.26H357.03C355.08 67.26 353.455 67.78 352.155 68.82C350.898 69.86 350.27 71.3983 350.27 73.435C350.27 74.865 350.573 76.035 351.18 76.945C351.83 77.855 352.653 78.5267 353.65 78.96C354.69 79.3933 355.817 79.61 357.03 79.61H363.335V73.76H371.525V79.61H377.505V86.37H371.525V106H355.275ZM356.77 99.24H363.335V86.37H356.77C354.863 86.37 353.26 86.9117 351.96 87.995C350.66 89.0783 350.01 90.6817 350.01 92.805C350.01 94.9717 350.682 96.5967 352.025 97.68C353.412 98.72 354.993 99.24 356.77 99.24ZM399.197 106V60.5H415.122L422.987 100.15H424.157L432.022 60.5H447.947V106H439.627V66.805H438.457L430.657 106H416.487L408.687 66.805H407.517V106H399.197ZM474.197 106.91C468.477 106.91 463.927 105.35 460.547 102.23C457.167 99.0667 455.477 94.56 455.477 88.71V77.79C455.477 71.94 457.167 67.455 460.547 64.335C463.927 61.1717 468.477 59.59 474.197 59.59C479.917 59.59 484.467 61.1717 487.847 64.335C491.227 67.455 492.917 71.94 492.917 77.79V88.71C492.917 94.56 491.227 99.0667 487.847 102.23C484.467 105.35 479.917 106.91 474.197 106.91ZM474.197 99.24C477.403 99.24 479.895 98.3083 481.672 96.445C483.448 94.5817 484.337 92.09 484.337 88.97V77.53C484.337 74.41 483.448 71.9183 481.672 70.055C479.895 68.1917 477.403 67.26 474.197 67.26C471.033 67.26 468.542 68.1917 466.722 70.055C464.945 71.9183 464.057 74.41 464.057 77.53V88.97C464.057 92.09 464.945 94.5817 466.722 96.445C468.542 98.3083 471.033 99.24 474.197 99.24ZM500.442 106V60.5H520.202C523.062 60.5 525.554 60.9983 527.677 61.995C529.801 62.9917 531.447 64.4 532.617 66.22C533.787 68.04 534.372 70.185 534.372 72.655V73.435C534.372 76.165 533.722 78.375 532.422 80.065C531.122 81.755 529.519 82.99 527.612 83.77V84.94C529.346 85.0267 530.689 85.6333 531.642 86.76C532.596 87.8433 533.072 89.295 533.072 91.115V106H524.492V92.35C524.492 91.31 524.211 90.465 523.647 89.815C523.127 89.165 522.239 88.84 520.982 88.84H509.022V106H500.442ZM509.022 81.04H519.292C521.329 81.04 522.911 80.4983 524.037 79.415C525.207 78.2883 525.792 76.815 525.792 74.995V74.345C525.792 72.525 525.229 71.0733 524.102 69.99C522.976 68.8633 521.372 68.3 519.292 68.3H509.022V81.04ZM541.512 106V60.5H570.762V68.3H550.092V79.155H568.942V86.955H550.092V98.2H571.152V106H541.512Z"/>
</mask>
<path d="M355.275 106C352.588 106 350.227 105.523 348.19 104.57C346.197 103.573 344.637 102.165 343.51 100.345C342.383 98.4817 341.82 96.2717 341.82 93.715C341.82 91.8517 342.145 90.2267 342.795 88.84C343.488 87.4533 344.42 86.305 345.59 85.395C346.76 84.485 348.06 83.8133 349.49 83.38V82.47C347.323 81.82 345.547 80.6933 344.16 79.09C342.773 77.4867 342.08 75.3633 342.08 72.72C342.08 70.0767 342.665 67.845 343.835 66.025C345.005 64.205 346.587 62.84 348.58 61.93C350.617 60.9767 352.935 60.5 355.535 60.5H362.62V67.26H357.03C355.08 67.26 353.455 67.78 352.155 68.82C350.898 69.86 350.27 71.3983 350.27 73.435C350.27 74.865 350.573 76.035 351.18 76.945C351.83 77.855 352.653 78.5267 353.65 78.96C354.69 79.3933 355.817 79.61 357.03 79.61H363.335V73.76H371.525V79.61H377.505V86.37H371.525V106H355.275ZM356.77 99.24H363.335V86.37H356.77C354.863 86.37 353.26 86.9117 351.96 87.995C350.66 89.0783 350.01 90.6817 350.01 92.805C350.01 94.9717 350.682 96.5967 352.025 97.68C353.412 98.72 354.993 99.24 356.77 99.24ZM399.197 106V60.5H415.122L422.987 100.15H424.157L432.022 60.5H447.947V106H439.627V66.805H438.457L430.657 106H416.487L408.687 66.805H407.517V106H399.197ZM474.197 106.91C468.477 106.91 463.927 105.35 460.547 102.23C457.167 99.0667 455.477 94.56 455.477 88.71V77.79C455.477 71.94 457.167 67.455 460.547 64.335C463.927 61.1717 468.477 59.59 474.197 59.59C479.917 59.59 484.467 61.1717 487.847 64.335C491.227 67.455 492.917 71.94 492.917 77.79V88.71C492.917 94.56 491.227 99.0667 487.847 102.23C484.467 105.35 479.917 106.91 474.197 106.91ZM474.197 99.24C477.403 99.24 479.895 98.3083 481.672 96.445C483.448 94.5817 484.337 92.09 484.337 88.97V77.53C484.337 74.41 483.448 71.9183 481.672 70.055C479.895 68.1917 477.403 67.26 474.197 67.26C471.033 67.26 468.542 68.1917 466.722 70.055C464.945 71.9183 464.057 74.41 464.057 77.53V88.97C464.057 92.09 464.945 94.5817 466.722 96.445C468.542 98.3083 471.033 99.24 474.197 99.24ZM500.442 106V60.5H520.202C523.062 60.5 525.554 60.9983 527.677 61.995C529.801 62.9917 531.447 64.4 532.617 66.22C533.787 68.04 534.372 70.185 534.372 72.655V73.435C534.372 76.165 533.722 78.375 532.422 80.065C531.122 81.755 529.519 82.99 527.612 83.77V84.94C529.346 85.0267 530.689 85.6333 531.642 86.76C532.596 87.8433 533.072 89.295 533.072 91.115V106H524.492V92.35C524.492 91.31 524.211 90.465 523.647 89.815C523.127 89.165 522.239 88.84 520.982 88.84H509.022V106H500.442ZM509.022 81.04H519.292C521.329 81.04 522.911 80.4983 524.037 79.415C525.207 78.2883 525.792 76.815 525.792 74.995V74.345C525.792 72.525 525.229 71.0733 524.102 69.99C522.976 68.8633 521.372 68.3 519.292 68.3H509.022V81.04ZM541.512 106V60.5H570.762V68.3H550.092V79.155H568.942V86.955H550.092V98.2H571.152V106H541.512Z" fill="#68CABF"/>
<path d="M348.19 104.57L347.743 105.464L347.754 105.47L347.766 105.476L348.19 104.57ZM343.51 100.345L342.654 100.862L342.66 100.871L343.51 100.345ZM342.795 88.84L341.901 88.3928L341.895 88.4041L341.89 88.4156L342.795 88.84ZM345.59 85.395L346.204 86.1844L346.204 86.1844L345.59 85.395ZM349.49 83.38L349.78 84.337L350.49 84.1219V83.38H349.49ZM349.49 82.47H350.49V81.726L349.777 81.5122L349.49 82.47ZM344.16 79.09L344.916 78.4358L344.916 78.4358L344.16 79.09ZM343.835 66.025L344.676 66.5658L344.676 66.5658L343.835 66.025ZM348.58 61.93L348.995 62.8397L349.004 62.8357L348.58 61.93ZM362.62 60.5H363.62V59.5H362.62V60.5ZM362.62 67.26V68.26H363.62V67.26H362.62ZM352.155 68.82L351.53 68.0391L351.524 68.0443L351.517 68.0496L352.155 68.82ZM351.18 76.945L350.348 77.4997L350.357 77.5131L350.366 77.5262L351.18 76.945ZM353.65 78.96L353.251 79.8771L353.258 79.8801L353.265 79.8831L353.65 78.96ZM363.335 79.61V80.61H364.335V79.61H363.335ZM363.335 73.76V72.76H362.335V73.76H363.335ZM371.525 73.76H372.525V72.76H371.525V73.76ZM371.525 79.61H370.525V80.61H371.525V79.61ZM377.505 79.61H378.505V78.61H377.505V79.61ZM377.505 86.37V87.37H378.505V86.37H377.505ZM371.525 86.37V85.37H370.525V86.37H371.525ZM371.525 106V107H372.525V106H371.525ZM363.335 99.24V100.24H364.335V99.24H363.335ZM363.335 86.37H364.335V85.37H363.335V86.37ZM352.025 97.68L351.397 98.4584L351.411 98.4695L351.425 98.48L352.025 97.68ZM355.275 105C352.707 105 350.495 104.545 348.614 103.664L347.766 105.476C349.959 106.502 352.47 107 355.275 107V105ZM348.637 103.676C346.803 102.758 345.385 101.474 344.36 99.8186L342.66 100.871C343.888 102.856 345.591 104.388 347.743 105.464L348.637 103.676ZM344.366 99.8276C343.349 98.1457 342.82 96.1214 342.82 93.715H340.82C340.82 96.4219 341.418 98.8176 342.654 100.862L344.366 99.8276ZM342.82 93.715C342.82 91.9672 343.125 90.4927 343.7 89.2644L341.89 88.4156C341.165 89.9607 340.82 91.7362 340.82 93.715H342.82ZM343.689 89.2872C344.319 88.0278 345.157 86.9984 346.204 86.1844L344.976 84.6056C343.683 85.6116 342.658 86.8789 341.901 88.3928L343.689 89.2872ZM346.204 86.1844C347.276 85.3502 348.466 84.7351 349.78 84.337L349.2 82.423C347.654 82.8916 346.244 83.6197 344.976 84.6056L346.204 86.1844ZM350.49 83.38V82.47H348.49V83.38H350.49ZM349.777 81.5122C347.78 80.9129 346.17 79.8857 344.916 78.4358L343.404 79.7441C344.923 81.501 346.867 82.7271 349.203 83.4278L349.777 81.5122ZM344.916 78.4358C343.723 77.0558 343.08 75.1845 343.08 72.72H341.08C341.08 75.5422 341.824 77.9175 343.404 79.7441L344.916 78.4358ZM343.08 72.72C343.08 70.2257 343.631 68.1919 344.676 66.5658L342.994 65.4842C341.699 67.4981 341.08 69.9277 341.08 72.72H343.08ZM344.676 66.5658C345.741 64.9092 347.174 63.6712 348.995 62.8397L348.165 61.0203C345.999 62.0088 344.269 63.5008 342.994 65.4842L344.676 66.5658ZM349.004 62.8357C350.889 61.9535 353.059 61.5 355.535 61.5V59.5C352.811 59.5 350.345 59.9999 348.156 61.0243L349.004 62.8357ZM355.535 61.5H362.62V59.5H355.535V61.5ZM361.62 60.5V67.26H363.62V60.5H361.62ZM362.62 66.26H357.03V68.26H362.62V66.26ZM357.03 66.26C354.894 66.26 353.037 66.8338 351.53 68.0391L352.78 69.6009C353.873 68.7262 355.266 68.26 357.03 68.26V66.26ZM351.517 68.0496C349.976 69.3257 349.27 71.1811 349.27 73.435H351.27C351.27 71.6155 351.821 70.3943 352.793 69.5904L351.517 68.0496ZM349.27 73.435C349.27 75.0025 349.603 76.3818 350.348 77.4997L352.012 76.3903C351.544 75.6882 351.27 74.7275 351.27 73.435H349.27ZM350.366 77.5262C351.118 78.5792 352.083 79.3693 353.251 79.8771L354.049 78.0429C353.223 77.684 352.542 77.1308 351.994 76.3638L350.366 77.5262ZM353.265 79.8831C354.436 80.371 355.695 80.61 357.03 80.61V78.61C355.938 78.61 354.944 78.4157 354.035 78.0369L353.265 79.8831ZM357.03 80.61H363.335V78.61H357.03V80.61ZM364.335 79.61V73.76H362.335V79.61H364.335ZM363.335 74.76H371.525V72.76H363.335V74.76ZM370.525 73.76V79.61H372.525V73.76H370.525ZM371.525 80.61H377.505V78.61H371.525V80.61ZM376.505 79.61V86.37H378.505V79.61H376.505ZM377.505 85.37H371.525V87.37H377.505V85.37ZM370.525 86.37V106H372.525V86.37H370.525ZM371.525 105H355.275V107H371.525V105ZM356.77 100.24H363.335V98.24H356.77V100.24ZM364.335 99.24V86.37H362.335V99.24H364.335ZM363.335 85.37H356.77V87.37H363.335V85.37ZM356.77 85.37C354.661 85.37 352.822 85.9747 351.32 87.2268L352.6 88.7632C353.698 87.8486 355.066 87.37 356.77 87.37V85.37ZM351.32 87.2268C349.735 88.5471 349.01 90.4671 349.01 92.805H351.01C351.01 90.8962 351.585 89.6096 352.6 88.7632L351.32 87.2268ZM349.01 92.805C349.01 95.1896 349.76 97.1379 351.397 98.4584L352.653 96.9016C351.604 96.0554 351.01 94.7537 351.01 92.805H349.01ZM351.425 98.48C352.989 99.6533 354.783 100.24 356.77 100.24V98.24C355.204 98.24 353.834 97.7867 352.625 96.88L351.425 98.48ZM399.197 106H398.197V107H399.197V106ZM399.197 60.5V59.5H398.197V60.5H399.197ZM415.122 60.5L416.103 60.3054L415.943 59.5H415.122V60.5ZM422.987 100.15L422.006 100.345L422.166 101.15H422.987V100.15ZM424.157 100.15V101.15H424.978L425.138 100.345L424.157 100.15ZM432.022 60.5V59.5H431.201L431.041 60.3054L432.022 60.5ZM447.947 60.5H448.947V59.5H447.947V60.5ZM447.947 106V107H448.947V106H447.947ZM439.627 106H438.627V107H439.627V106ZM439.627 66.805H440.627V65.805H439.627V66.805ZM438.457 66.805V65.805H437.637L437.476 66.6098L438.457 66.805ZM430.657 106V107H431.478L431.638 106.195L430.657 106ZM416.487 106L415.506 106.195L415.667 107H416.487V106ZM408.687 66.805L409.668 66.6098L409.508 65.805H408.687V66.805ZM407.517 66.805V65.805H406.517V66.805H407.517ZM407.517 106V107H408.517V106H407.517ZM400.197 106V60.5H398.197V106H400.197ZM399.197 61.5H415.122V59.5H399.197V61.5ZM414.141 60.6946L422.006 100.345L423.968 99.9554L416.103 60.3054L414.141 60.6946ZM422.987 101.15H424.157V99.15H422.987V101.15ZM425.138 100.345L433.003 60.6946L431.041 60.3054L423.176 99.9554L425.138 100.345ZM432.022 61.5H447.947V59.5H432.022V61.5ZM446.947 60.5V106H448.947V60.5H446.947ZM447.947 105H439.627V107H447.947V105ZM440.627 106V66.805H438.627V106H440.627ZM439.627 65.805H438.457V67.805H439.627V65.805ZM437.476 66.6098L429.676 105.805L431.638 106.195L439.438 67.0002L437.476 66.6098ZM430.657 105H416.487V107H430.657V105ZM417.468 105.805L409.668 66.6098L407.706 67.0002L415.506 106.195L417.468 105.805ZM408.687 65.805H407.517V67.805H408.687V65.805ZM406.517 66.805V106H408.517V66.805H406.517ZM407.517 105H399.197V107H407.517V105ZM460.547 102.23L459.863 102.96L459.868 102.965L460.547 102.23ZM460.547 64.335L461.225 65.0698L461.23 65.0651L460.547 64.335ZM487.847 64.335L487.163 65.0651L487.168 65.0698L487.847 64.335ZM487.847 102.23L488.525 102.965L488.53 102.96L487.847 102.23ZM481.672 96.445L480.948 95.7549L480.948 95.7549L481.672 96.445ZM481.672 70.055L480.948 70.7451L480.948 70.7451L481.672 70.055ZM466.722 70.055L466.006 69.3562L465.998 69.3649L466.722 70.055ZM466.722 96.445L465.998 97.1351L466.006 97.1437L466.722 96.445ZM474.197 105.91C468.664 105.91 464.378 104.406 461.225 101.495L459.868 102.965C463.475 106.294 468.289 107.91 474.197 107.91V105.91ZM461.23 101.5C458.102 98.5728 456.477 94.3609 456.477 88.71H454.477C454.477 94.7591 456.231 99.5605 459.863 102.96L461.23 101.5ZM456.477 88.71V77.79H454.477V88.71H456.477ZM456.477 77.79C456.477 72.1384 458.103 67.9519 461.225 65.0698L459.868 63.6002C456.231 66.9581 454.477 71.7416 454.477 77.79H456.477ZM461.23 65.0651C464.383 62.1138 468.668 60.59 474.197 60.59V58.59C468.286 58.59 463.47 60.2296 459.863 63.6049L461.23 65.0651ZM474.197 60.59C479.726 60.59 484.01 62.1138 487.163 65.0651L488.53 63.6049C484.923 60.2296 480.108 58.59 474.197 58.59V60.59ZM487.168 65.0698C490.291 67.9519 491.917 72.1384 491.917 77.79H493.917C493.917 71.7416 492.163 66.9581 488.525 63.6002L487.168 65.0698ZM491.917 77.79V88.71H493.917V77.79H491.917ZM491.917 88.71C491.917 94.3609 490.291 98.5728 487.163 101.5L488.53 102.96C492.162 99.5605 493.917 94.7591 493.917 88.71H491.917ZM487.168 101.495C484.015 104.406 479.729 105.91 474.197 105.91V107.91C480.104 107.91 484.918 106.294 488.525 102.965L487.168 101.495ZM474.197 100.24C477.605 100.24 480.386 99.2427 482.395 97.1351L480.948 95.7549C479.404 97.3739 477.201 98.24 474.197 98.24V100.24ZM482.395 97.1351C484.385 95.0478 485.337 92.2893 485.337 88.97H483.337C483.337 91.8907 482.511 94.1155 480.948 95.7549L482.395 97.1351ZM485.337 88.97V77.53H483.337V88.97H485.337ZM485.337 77.53C485.337 74.2107 484.385 71.4522 482.395 69.3649L480.948 70.7451C482.511 72.3845 483.337 74.6093 483.337 77.53H485.337ZM482.395 69.3649C480.386 67.2573 477.605 66.26 474.197 66.26V68.26C477.201 68.26 479.404 69.1261 480.948 70.7451L482.395 69.3649ZM474.197 66.26C470.826 66.26 468.054 67.2601 466.006 69.3563L467.437 70.7537C469.03 69.1232 471.241 68.26 474.197 68.26V66.26ZM465.998 69.3649C464.008 71.4522 463.057 74.2107 463.057 77.53H465.057C465.057 74.6093 465.882 72.3845 467.445 70.7451L465.998 69.3649ZM463.057 77.53V88.97H465.057V77.53H463.057ZM463.057 88.97C463.057 92.2893 464.008 95.0478 465.998 97.1351L467.445 95.7549C465.882 94.1155 465.057 91.8907 465.057 88.97H463.057ZM466.006 97.1437C468.054 99.2399 470.826 100.24 474.197 100.24V98.24C471.241 98.24 469.03 97.3768 467.437 95.7463L466.006 97.1437ZM500.442 106H499.442V107H500.442V106ZM500.442 60.5V59.5H499.442V60.5H500.442ZM527.677 61.995L527.252 62.9002L527.252 62.9002L527.677 61.995ZM532.617 66.22L533.459 65.6792L533.459 65.6792L532.617 66.22ZM532.422 80.065L533.215 80.6747L533.215 80.6747L532.422 80.065ZM527.612 83.77L527.234 82.8445L526.612 83.0986V83.77H527.612ZM527.612 84.94H526.612V85.8912L527.562 85.9388L527.612 84.94ZM531.642 86.76L530.879 87.4059L530.885 87.4133L530.892 87.4206L531.642 86.76ZM533.072 106V107H534.072V106H533.072ZM524.492 106H523.492V107H524.492V106ZM523.647 89.815L522.866 90.4397L522.879 90.4551L522.892 90.4699L523.647 89.815ZM509.022 88.84V87.84H508.022V88.84H509.022ZM509.022 106V107H510.022V106H509.022ZM509.022 81.04H508.022V82.04H509.022V81.04ZM524.037 79.415L524.73 80.1358L524.731 80.1353L524.037 79.415ZM524.102 69.99L523.395 70.6971L523.402 70.704L523.409 70.7108L524.102 69.99ZM509.022 68.3V67.3H508.022V68.3H509.022ZM501.442 106V60.5H499.442V106H501.442ZM500.442 61.5H520.202V59.5H500.442V61.5ZM520.202 61.5C522.947 61.5 525.288 61.9781 527.252 62.9002L528.102 61.0898C525.82 60.0185 523.178 59.5 520.202 59.5V61.5ZM527.252 62.9002C529.22 63.824 530.716 65.1123 531.776 66.7608L533.459 65.6792C532.178 63.6877 530.381 62.1594 528.102 61.0898L527.252 62.9002ZM531.776 66.7608C532.828 68.3975 533.372 70.3489 533.372 72.655H535.372C535.372 70.0211 534.746 67.6825 533.459 65.6792L531.776 66.7608ZM533.372 72.655V73.435H535.372V72.655H533.372ZM533.372 73.435C533.372 76.0069 532.762 77.9839 531.63 79.4553L533.215 80.6747C534.683 78.7661 535.372 76.3231 535.372 73.435H533.372ZM531.63 79.4553C530.433 81.0104 528.971 82.1337 527.234 82.8445L527.991 84.6955C530.067 83.8463 531.811 82.4996 533.215 80.6747L531.63 79.4553ZM526.612 83.77V84.94H528.612V83.77H526.612ZM527.562 85.9388C529.072 86.0142 530.136 86.5278 530.879 87.4059L532.406 86.1141C531.242 84.7388 529.619 84.0391 527.662 83.9412L527.562 85.9388ZM530.892 87.4206C531.646 88.2775 532.072 89.4726 532.072 91.115H534.072C534.072 89.1174 533.546 87.4092 532.393 86.0994L530.892 87.4206ZM532.072 91.115V106H534.072V91.115H532.072ZM533.072 105H524.492V107H533.072V105ZM525.492 106V92.35H523.492V106H525.492ZM525.492 92.35C525.492 91.122 525.155 90.028 524.403 89.1601L522.892 90.4699C523.266 90.902 523.492 91.498 523.492 92.35H525.492ZM524.428 89.1903C523.638 88.2022 522.385 87.84 520.982 87.84V89.84C522.093 89.84 522.617 90.1278 522.866 90.4397L524.428 89.1903ZM520.982 87.84H509.022V89.84H520.982V87.84ZM508.022 88.84V106H510.022V88.84H508.022ZM509.022 105H500.442V107H509.022V105ZM509.022 82.04H519.292V80.04H509.022V82.04ZM519.292 82.04C521.506 82.04 523.366 81.4475 524.73 80.1358L523.344 78.6942C522.455 79.5491 521.152 80.04 519.292 80.04V82.04ZM524.731 80.1353C526.121 78.7966 526.792 77.0508 526.792 74.995H524.792C524.792 76.5792 524.293 77.7801 523.344 78.6947L524.731 80.1353ZM526.792 74.995V74.345H524.792V74.995H526.792ZM526.792 74.345C526.792 72.3016 526.151 70.5723 524.795 69.2692L523.409 70.7108C524.307 71.5744 524.792 72.7484 524.792 74.345H526.792ZM524.809 69.2829C523.443 67.9165 521.553 67.3 519.292 67.3V69.3C521.191 69.3 522.508 69.8102 523.395 70.6971L524.809 69.2829ZM519.292 67.3H509.022V69.3H519.292V67.3ZM508.022 68.3V81.04H510.022V68.3H508.022ZM541.512 106H540.512V107H541.512V106ZM541.512 60.5V59.5H540.512V60.5H541.512ZM570.762 60.5H571.762V59.5H570.762V60.5ZM570.762 68.3V69.3H571.762V68.3H570.762ZM550.092 68.3V67.3H549.092V68.3H550.092ZM550.092 79.155H549.092V80.155H550.092V79.155ZM568.942 79.155H569.942V78.155H568.942V79.155ZM568.942 86.955V87.955H569.942V86.955H568.942ZM550.092 86.955V85.955H549.092V86.955H550.092ZM550.092 98.2H549.092V99.2H550.092V98.2ZM571.152 98.2H572.152V97.2H571.152V98.2ZM571.152 106V107H572.152V106H571.152ZM542.512 106V60.5H540.512V106H542.512ZM541.512 61.5H570.762V59.5H541.512V61.5ZM569.762 60.5V68.3H571.762V60.5H569.762ZM570.762 67.3H550.092V69.3H570.762V67.3ZM549.092 68.3V79.155H551.092V68.3H549.092ZM550.092 80.155H568.942V78.155H550.092V80.155ZM567.942 79.155V86.955H569.942V79.155H567.942ZM568.942 85.955H550.092V87.955H568.942V85.955ZM549.092 86.955V98.2H551.092V86.955H549.092ZM550.092 99.2H571.152V97.2H550.092V99.2ZM570.152 98.2V106H572.152V98.2H570.152ZM571.152 105H541.512V107H571.152V105Z" fill="black" mask="url(#path-6-outside-1_38_4)"/>
<rect x="636" y="545" width="200" height="133.333" fill="#68CABF"/>
<rect x="96" y="545" width="200" height="133.333" fill="#68CABF"/>
<rect x="630.5" y="539.5" width="197" height="130.333" fill="white" stroke="black" stroke-width="3"/>
<line x1="629" y1="553" x2="829" y2="553" stroke="black" stroke-width="2"/>
<rect x="635.667" y="544.667" width="4" height="4" fill="black"/>
<rect x="642.333" y="544.667" width="4" height="4" fill="black"/>
<rect x="649" y="544.667" width="4" height="4" fill="black"/>
<line x1="730" y1="558" x2="730" y2="664.667" stroke="black" stroke-width="2"/>
<line x1="653" y1="650.333" x2="713" y2="650.333" stroke="black" stroke-width="2"/>
<line x1="658.333" y1="655.667" x2="706.333" y2="655.667" stroke="black" stroke-width="2"/>
<line x1="747.667" y1="649" x2="807.667" y2="649" stroke="black" stroke-width="2"/>
<line x1="754.333" y1="655.667" x2="802.333" y2="655.667" stroke="black" stroke-width="2"/>
<line x1="776.324" y1="570.263" x2="778.921" y2="567.883" stroke="black" stroke-width="2"/>
<line x1="776.755" y1="585.486" x2="791.755" y2="570.486" stroke="black" stroke-width="2"/>
<line x1="776.29" y1="578.295" x2="785.32" y2="569.202" stroke="black" stroke-width="2"/>
<line x1="777.603" y1="592.357" x2="796.901" y2="573.059" stroke="black" stroke-width="2"/>
<line x1="776.737" y1="567.333" x2="776.737" y2="593.064" stroke="black" stroke-width="2"/>
<line x1="786.371" y1="610.136" x2="810.55" y2="618.937" stroke="black" stroke-width="2"/>
<circle cx="776.38" cy="604" r="36.3801" stroke="black" stroke-width="2"/>
<line x1="782.749" y1="594.93" x2="800.761" y2="576.919" stroke="black" stroke-width="2"/>
<line x1="786.609" y1="598.79" x2="804.62" y2="580.778" stroke="black" stroke-width="2"/>
<line x1="789.164" y1="611.293" x2="810.164" y2="590.293" stroke="black" stroke-width="2"/>
<line x1="795.614" y1="612.942" x2="811.615" y2="596.942" stroke="black" stroke-width="2"/>
<line x1="800.761" y1="615.515" x2="812.761" y2="603.515" stroke="black" stroke-width="2"/>
<path d="M806.293 617.293L811.293 612.293" stroke="black" stroke-width="2" stroke-linecap="round"/>
<line x1="788.293" y1="604.591" x2="807.591" y2="585.293" stroke="black" stroke-width="2"/>
<circle cx="777.023" cy="604.643" r="11.2924" stroke="black" stroke-width="2"/>
<line x1="647.333" y1="568.667" x2="647.333" y2="642" stroke="black" stroke-width="2"/>
<line x1="646.333" y1="641" x2="719.667" y2="641" stroke="black" stroke-width="2"/>
<rect x="668.667" y="595" width="11.3333" height="46" stroke="black" stroke-width="2"/>
<rect x="684.667" y="600.333" width="11.3333" height="40.6667" stroke="black" stroke-width="2"/>
<rect x="700.667" y="585.667" width="11.3333" height="55.3333" stroke="black" stroke-width="2"/>
<rect x="652.667" y="607" width="11.3333" height="34" stroke="black" stroke-width="2"/>
<line x1="654.333" y1="618.333" x2="662.333" y2="618.333" stroke="black" stroke-width="2"/>
<line x1="670.333" y1="626.333" x2="678.333" y2="626.333" stroke="black" stroke-width="2"/>
<line x1="702.333" y1="605" x2="710.333" y2="605" stroke="black" stroke-width="2"/>
<line x1="686.333" y1="630.333" x2="694.333" y2="630.333" stroke="black" stroke-width="2"/>
<line x1="702.333" y1="626.333" x2="710.333" y2="626.333" stroke="black" stroke-width="2"/>
<line x1="686.333" y1="618.333" x2="694.333" y2="618.333" stroke="black" stroke-width="2"/>
<rect x="90.5" y="539.5" width="197" height="130.333" fill="white" stroke="black" stroke-width="3"/>
<line x1="89" y1="553" x2="289" y2="553" stroke="black" stroke-width="2"/>
<rect x="95.6667" y="544.667" width="4" height="4" fill="black"/>
<rect x="102.333" y="544.667" width="4" height="4" fill="black"/>
<rect x="109" y="544.667" width="4" height="4" fill="black"/>
<rect x="101" y="563" width="31" height="68" fill="white" stroke="black" stroke-width="2"/>
<line x1="102" y1="593" x2="131" y2="593" stroke="black" stroke-width="2"/>
<path d="M116.498 588C112.867 588 108 583.004 108 577.894C108 572.825 111.652 569 116.498 569C121.345 569 125 572.825 125 577.894C125 583.004 120.131 588 116.498 588ZM116.498 571.375C112.98 571.375 110.428 574.116 110.428 577.894C110.428 581.967 114.55 585.625 116.498 585.625C118.497 585.625 122.572 582.046 122.572 577.894C122.572 574.116 120.017 571.375 116.498 571.375Z" fill="black"/>
<path d="M131.395 590.489C131.326 590.49 131.257 590.483 131.189 590.47C120.592 588.558 120.592 587.794 120.592 586.739C120.592 586.482 120.668 586.232 120.809 586.021C120.951 585.811 121.151 585.651 121.383 585.564C121.615 585.476 121.867 585.465 122.105 585.532C122.343 585.599 122.555 585.741 122.713 585.939C123.705 586.407 127.985 587.354 131.597 588.009C131.752 588.036 131.901 588.096 132.034 588.183C132.167 588.271 132.282 588.385 132.373 588.519C132.464 588.653 132.529 588.804 132.563 588.964C132.598 589.124 132.601 589.29 132.574 589.451C132.527 589.741 132.382 590.004 132.166 590.194C131.951 590.384 131.678 590.488 131.395 590.489Z" fill="black"/>
<path d="M121.778 587.832C121.617 587.832 121.458 587.804 121.31 587.75C121.161 587.695 121.027 587.615 120.913 587.515C120.8 587.414 120.71 587.294 120.648 587.163C120.587 587.031 120.555 586.89 120.555 586.748V584.084C120.555 583.485 121.102 584.597 121.778 584.597C122.453 584.597 122.751 583.485 122.751 584.084L123 586.748C123 586.89 122.969 587.031 122.907 587.163C122.846 587.294 122.756 587.414 122.642 587.515C122.529 587.615 122.394 587.695 122.246 587.75C122.097 587.804 121.938 587.832 121.778 587.832ZM102.219 590C101.931 589.999 101.653 589.909 101.434 589.744C101.214 589.58 101.067 589.352 101.018 589.1C100.991 588.96 100.994 588.816 101.03 588.678C101.065 588.539 101.13 588.408 101.223 588.291C101.315 588.175 101.433 588.076 101.568 588C101.704 587.924 101.855 587.873 102.013 587.849C105.692 587.281 110.051 586.458 111.061 586.053C111.222 585.883 111.258 584.058 111.5 584C111.742 583.942 111.764 584.424 112 584.5C112.236 584.576 112.856 585.944 113 586.126C113.144 586.308 113.222 586.525 113.222 586.748C113.222 587.662 113.222 588.325 102.429 589.983C102.36 589.996 102.288 590 102.219 590Z" fill="black"/>
<rect x="144" y="596" width="28" height="28" fill="white" stroke="black" stroke-width="2"/>
<path d="M157.998 619C154.58 619 150 614.267 150 609.426C150 604.623 153.437 601 157.998 601C162.56 601 166 604.623 166 609.426C166 614.267 161.417 619 157.998 619ZM157.998 603.25C154.688 603.25 152.286 605.847 152.286 609.426C152.286 613.285 156.165 616.75 157.998 616.75C159.879 616.75 163.714 613.359 163.714 609.426C163.714 605.847 161.31 603.25 157.998 603.25Z" fill="black"/>
<path d="M171.903 621C171.84 621.001 171.776 620.994 171.714 620.981C162 619.069 162 618.305 162 617.25C162 616.993 162.069 616.743 162.199 616.532C162.329 616.322 162.512 616.162 162.725 616.075C162.938 615.987 163.169 615.976 163.387 616.043C163.605 616.11 163.8 616.252 163.944 616.45C164.853 616.918 168.777 617.865 172.088 618.52C172.23 618.547 172.366 618.607 172.488 618.694C172.61 618.782 172.716 618.896 172.799 619.03C172.883 619.164 172.942 619.315 172.973 619.475C173.005 619.635 173.008 619.801 172.984 619.962C172.94 620.252 172.807 620.515 172.61 620.705C172.412 620.895 172.162 620.999 171.903 621Z" fill="black"/>
<path d="M162.889 618.221C162.743 618.221 162.598 618.198 162.463 618.153C162.329 618.109 162.206 618.043 162.103 617.96C162 617.878 161.918 617.78 161.862 617.672C161.806 617.564 161.777 617.448 161.778 617.331V615.145C161.778 614.654 162.275 615.566 162.889 615.566C163.503 615.566 163.773 614.654 163.773 615.145L164 617.331C164 617.448 163.971 617.564 163.916 617.672C163.86 617.78 163.778 617.878 163.675 617.96C163.571 618.043 163.449 618.109 163.314 618.153C163.179 618.198 163.035 618.221 162.889 618.221ZM145.108 620C144.847 619.999 144.594 619.925 144.394 619.79C144.195 619.655 144.061 619.468 144.017 619.262C143.991 619.147 143.995 619.029 144.027 618.915C144.059 618.801 144.119 618.693 144.203 618.598C144.287 618.502 144.393 618.421 144.517 618.359C144.64 618.297 144.778 618.255 144.921 618.235C148.266 617.769 152.229 617.093 153.147 616.762C153.293 616.621 153.325 615.124 153.545 615.076C153.766 615.029 153.785 615.424 154 615.487C154.215 615.549 154.778 616.671 154.909 616.821C155.04 616.97 155.111 617.149 155.111 617.331C155.111 618.082 155.111 618.626 145.299 619.986C145.236 619.996 145.171 620 145.108 620Z" fill="black"/>
<rect x="144" y="629" width="28" height="28" fill="white" stroke="black" stroke-width="2"/>
<path d="M157.998 652C154.58 652 150 647.267 150 642.426C150 637.623 153.437 634 157.998 634C162.56 634 166 637.623 166 642.426C166 647.267 161.417 652 157.998 652ZM157.998 636.25C154.688 636.25 152.286 638.847 152.286 642.426C152.286 646.285 156.165 649.75 157.998 649.75C159.879 649.75 163.714 646.359 163.714 642.426C163.714 638.847 161.31 636.25 157.998 636.25Z" fill="black"/>
<path d="M171.903 654C171.84 654.001 171.776 653.994 171.714 653.981C162 652.069 162 651.305 162 650.25C162 649.993 162.069 649.743 162.199 649.532C162.329 649.322 162.512 649.162 162.725 649.075C162.938 648.987 163.169 648.976 163.387 649.043C163.605 649.11 163.8 649.252 163.944 649.45C164.853 649.918 168.777 650.865 172.088 651.52C172.23 651.547 172.366 651.607 172.488 651.694C172.61 651.782 172.716 651.896 172.799 652.03C172.883 652.164 172.942 652.315 172.973 652.475C173.005 652.635 173.008 652.801 172.984 652.962C172.94 653.252 172.807 653.515 172.61 653.705C172.412 653.895 172.162 653.999 171.903 654Z" fill="black"/>
<path d="M162.889 651.221C162.743 651.221 162.598 651.198 162.463 651.153C162.329 651.109 162.206 651.043 162.103 650.96C162 650.878 161.918 650.78 161.862 650.672C161.806 650.564 161.777 650.448 161.778 650.331V648.145C161.778 647.654 162.275 648.566 162.889 648.566C163.503 648.566 163.773 647.654 163.773 648.145L164 650.331C164 650.448 163.971 650.564 163.916 650.672C163.86 650.78 163.778 650.878 163.675 650.96C163.571 651.043 163.449 651.109 163.314 651.153C163.179 651.198 163.035 651.221 162.889 651.221ZM145.108 653C144.847 652.999 144.594 652.925 144.394 652.79C144.195 652.655 144.061 652.468 144.017 652.262C143.991 652.147 143.995 652.029 144.027 651.915C144.059 651.801 144.119 651.693 144.203 651.598C144.287 651.502 144.393 651.421 144.517 651.359C144.64 651.297 144.778 651.255 144.921 651.235C148.266 650.769 152.229 650.093 153.147 649.762C153.293 649.621 153.325 648.124 153.545 648.076C153.766 648.029 153.785 648.424 154 648.487C154.215 648.549 154.778 649.671 154.909 649.821C155.04 649.97 155.111 650.149 155.111 650.331C155.111 651.082 155.111 651.626 145.299 652.986C145.236 652.996 145.171 653 145.108 653Z" fill="black"/>
<line x1="104" y1="603" x2="109" y2="603" stroke="black" stroke-width="2"/>
<line x1="112" y1="603" x2="128" y2="603" stroke="black" stroke-width="2"/>
<line x1="104" y1="609" x2="109" y2="609" stroke="black" stroke-width="2"/>
<line x1="112" y1="609" x2="128" y2="609" stroke="black" stroke-width="2"/>
<line x1="104" y1="615" x2="109" y2="615" stroke="black" stroke-width="2"/>
<line x1="112" y1="615" x2="128" y2="615" stroke="black" stroke-width="2"/>
<line x1="104" y1="621" x2="109" y2="621" stroke="black" stroke-width="2"/>
<line x1="112" y1="621" x2="128" y2="621" stroke="black" stroke-width="2"/>
<rect x="144" y="563" width="131" height="28" fill="white" stroke="black" stroke-width="2"/>
<line x1="149" y1="569" x2="232" y2="569" stroke="black" stroke-width="2"/>
<line x1="149" y1="574" x2="220" y2="574" stroke="black" stroke-width="2"/>
<line x1="149" y1="579" x2="239" y2="579" stroke="black" stroke-width="2"/>
<line x1="149" y1="584" x2="200" y2="584" stroke="black" stroke-width="2"/>
<line x1="178" y1="600" x2="249" y2="600" stroke="black" stroke-width="2"/>
<line x1="178" y1="605" x2="268" y2="605" stroke="black" stroke-width="2"/>
<line x1="178" y1="610" x2="185" y2="610" stroke="black" stroke-width="2"/>
<line x1="189" y1="610" x2="208" y2="610" stroke="black" stroke-width="2"/>
<line x1="178" y1="633" x2="249" y2="633" stroke="black" stroke-width="2"/>
<line x1="178" y1="638" x2="268" y2="638" stroke="black" stroke-width="2"/>
<line x1="178" y1="643" x2="185" y2="643" stroke="black" stroke-width="2"/>
<line x1="189" y1="643" x2="208" y2="643" stroke="black" stroke-width="2"/>
<circle cx="823.5" cy="222.5" r="86" fill="#68CABF" stroke="#68CABF" stroke-width="3"/>
<circle cx="889.125" cy="156.875" r="20.375" fill="#68CABF" stroke="#68CABF" stroke-width="3"/>
<circle cx="889.125" cy="288.125" r="20.375" fill="#68CABF" stroke="#68CABF" stroke-width="3"/>
<circle cx="757.875" cy="156.875" r="20.375" fill="#68CABF" stroke="#68CABF" stroke-width="3"/>
<circle cx="757.875" cy="288.125" r="20.375" fill="#68CABF" stroke="#68CABF" stroke-width="3"/>
<path d="M767.154 298.625H757.674C757.519 298.625 757.365 298.595 757.221 298.536C757.077 298.478 756.947 298.392 756.837 298.283L754.814 296.292H752.935C752.779 296.292 752.625 296.262 752.481 296.203C752.337 296.145 752.207 296.059 752.097 295.95C751.987 295.842 751.899 295.713 751.84 295.572C751.78 295.43 751.75 295.278 751.75 295.125V288.125C751.75 287.972 751.781 287.82 751.84 287.678C751.9 287.537 751.987 287.408 752.097 287.3C752.207 287.192 752.338 287.106 752.481 287.047C752.625 286.989 752.779 286.959 752.935 286.959C752.927 286.959 754.532 286.87 756.912 284.898C759.465 282.784 761.299 278.398 761.316 278.352C761.405 278.137 761.557 277.953 761.752 277.824C761.948 277.694 762.178 277.625 762.414 277.625H764.784C764.94 277.625 765.094 277.655 765.237 277.714C765.381 277.772 765.512 277.858 765.622 277.967C765.732 278.075 765.819 278.204 765.879 278.345C765.938 278.487 765.969 278.638 765.969 278.792V284.625H767.154C767.469 284.625 767.769 284.748 767.992 284.967C770.836 287.767 770.836 295.483 767.992 298.283C767.882 298.392 767.751 298.478 767.607 298.536C767.464 298.595 767.31 298.625 767.154 298.625ZM758.165 296.292H766.609C768.12 294.22 768.12 289.03 766.609 286.958H764.784C764.628 286.958 764.474 286.928 764.33 286.87C764.187 286.811 764.056 286.725 763.946 286.617C763.836 286.508 763.749 286.38 763.689 286.238C763.63 286.096 763.599 285.945 763.599 285.791V279.958H763.188C762.502 281.426 760.779 284.744 758.437 286.685C756.617 288.191 755.101 288.829 754.12 289.098V293.958H755.305C755.619 293.958 755.92 294.082 756.142 294.3L758.165 296.292Z" fill="#68CABF"/>
<path d="M753.172 298.625H745.953C745.795 298.625 745.639 298.595 745.493 298.536C745.347 298.478 745.214 298.392 745.102 298.284C744.99 298.175 744.902 298.047 744.841 297.905C744.781 297.763 744.75 297.612 744.75 297.458V285.792C744.75 285.638 744.781 285.487 744.841 285.345C744.902 285.204 744.99 285.075 745.102 284.967C745.214 284.858 745.347 284.772 745.493 284.714C745.639 284.655 745.795 284.625 745.953 284.625H753.172C753.33 284.625 753.486 284.655 753.632 284.714C753.778 284.772 753.911 284.858 754.023 284.967C754.135 285.075 754.223 285.204 754.284 285.345C754.344 285.487 754.375 285.638 754.375 285.792V297.458C754.375 297.612 754.344 297.763 754.284 297.905C754.223 298.047 754.135 298.175 754.023 298.284C753.911 298.392 753.778 298.478 753.632 298.536C753.486 298.595 753.33 298.625 753.172 298.625ZM747.156 296.292H751.969V286.959H747.156V296.292Z" fill="#68CABF"/>
<path d="M889.125 167.375C888.954 167.375 888.785 167.339 888.628 167.271C888.147 167.059 876.875 161.982 876.875 152.791C876.875 148.771 880.172 145.5 884.225 145.5C886.038 145.495 887.786 146.165 889.125 147.377C890.464 146.165 892.212 145.495 894.025 145.5C898.078 145.5 901.375 148.771 901.375 152.791C901.375 161.982 890.103 167.059 889.622 167.271C889.466 167.339 889.296 167.375 889.125 167.375ZM884.225 147.931C881.524 147.931 879.325 150.112 879.325 152.791C879.325 159.437 887.063 163.772 889.125 164.809C891.183 163.769 898.926 159.421 898.926 152.791C898.926 150.112 896.727 147.931 894.026 147.931C892.478 147.931 891.05 148.65 890.109 149.905C889.645 150.522 888.607 150.522 888.143 149.905C887.201 148.65 885.773 147.931 884.225 147.931Z" fill="#68CABF"/>
<path d="M757.875 165.625C751.603 165.625 746.5 160.523 746.5 154.25C746.5 147.976 751.603 142.875 757.875 142.875C764.147 142.875 769.25 147.976 769.25 154.25C769.25 160.523 764.146 165.625 757.875 165.625ZM757.875 145.719C753.17 145.719 749.344 149.546 749.344 154.25C749.344 158.954 753.171 162.781 757.875 162.781C762.579 162.781 766.406 158.954 766.406 154.25C766.406 149.546 762.579 145.719 757.875 145.719Z" fill="#68CABF"/>
<path d="M757.875 170.875C751.603 170.875 746.5 165.643 746.5 159.208C746.5 158.402 747.136 157.75 747.922 157.75C748.708 157.75 749.344 158.402 749.344 159.208C749.344 164.033 753.171 167.958 757.875 167.958C762.579 167.958 766.406 164.033 766.406 159.208C766.406 159.017 766.443 158.827 766.514 158.65C766.586 158.473 766.69 158.312 766.822 158.177C766.954 158.041 767.111 157.934 767.284 157.861C767.456 157.787 767.641 157.75 767.828 157.75C768.015 157.75 768.2 157.788 768.372 157.861C768.545 157.934 768.702 158.041 768.834 158.177C768.966 158.312 769.071 158.473 769.142 158.65C769.213 158.827 769.25 159.017 769.25 159.208C769.25 165.643 764.146 170.875 757.875 170.875Z" fill="#68CABF"/>
<path d="M747.812 161.25C747.64 161.25 747.469 161.212 747.31 161.139C747.151 161.066 747.006 160.958 746.884 160.823C746.762 160.688 746.666 160.527 746.6 160.35C746.534 160.173 746.5 159.983 746.5 159.791V153.958C746.5 153.152 747.087 152.5 747.812 152.5C748.538 152.5 749.125 153.152 749.125 153.958V159.791C749.125 159.983 749.091 160.173 749.025 160.35C748.959 160.527 748.863 160.687 748.741 160.823C748.619 160.958 748.474 161.066 748.315 161.139C748.155 161.212 747.985 161.25 747.812 161.25Z" fill="#68CABF"/>
<path d="M767.938 161.25C767.765 161.25 767.594 161.213 767.435 161.139C767.276 161.066 767.131 160.959 767.009 160.823C766.887 160.688 766.791 160.527 766.725 160.35C766.659 160.173 766.625 159.983 766.625 159.791V153.958C766.625 153.767 766.659 153.577 766.725 153.4C766.791 153.223 766.887 153.062 767.009 152.927C767.131 152.791 767.276 152.684 767.435 152.611C767.595 152.537 767.765 152.5 767.938 152.5C768.11 152.5 768.281 152.538 768.44 152.611C768.599 152.684 768.744 152.791 768.866 152.927C768.988 153.062 769.084 153.223 769.15 153.4C769.216 153.577 769.25 153.767 769.25 153.958V159.791C769.25 159.983 769.216 160.173 769.15 160.35C769.084 160.527 768.988 160.688 768.866 160.823C768.744 160.958 768.599 161.066 768.44 161.139C768.281 161.212 768.11 161.25 767.938 161.25Z" fill="#68CABF"/>
<line x1="758.125" y1="148.125" x2="758.125" y2="160.375" stroke="#68CABF" stroke-width="4"/>
<line x1="751.75" y1="154" x2="764" y2="154" stroke="#68CABF" stroke-width="4"/>
<path d="M899.875 291.625C899.875 296.434 895.429 300.625 889.562 300.625C883.696 300.625 879.25 296.434 879.25 291.625C879.25 286.816 883.696 282.625 889.562 282.625C895.429 282.625 899.875 286.816 899.875 291.625Z" fill="#68CABF" stroke="#68CABF" stroke-width="3"/>
<rect x="874.25" y="279.375" width="28.875" height="12.25" fill="#68CABF"/>
<circle cx="883.875" cy="282.875" r="1.75" fill="#68CABF"/>
<circle cx="895.25" cy="282.875" r="1.75" fill="#68CABF"/>
<path d="M801.397 248.235C787.318 240.385 778.575 225.395 778.575 209.118C778.575 184.491 798.413 164.45 822.804 164.45L801.397 248.235ZM801.397 248.235C801.644 248.374 801.922 248.447 802.205 248.447M801.397 248.235L822.804 167.823C800.264 167.823 781.92 186.344 781.92 209.118C781.92 224.171 790.005 238.029 803.017 245.285C803.209 245.392 803.378 245.536 803.515 245.709C803.652 245.882 803.754 246.08 803.815 246.293C803.875 246.505 803.894 246.728 803.869 246.948C803.845 247.167 803.777 247.379 803.671 247.573C803.528 247.837 803.316 248.059 803.058 248.213C802.8 248.366 802.506 248.447 802.205 248.447M802.205 248.447C802.205 248.447 802.205 248.447 802.205 248.447L802.206 248.147L802.206 248.447C802.206 248.447 802.206 248.447 802.205 248.447ZM824.477 166.136C824.477 165.915 824.434 165.696 824.35 165.492C824.266 165.288 824.143 165.102 823.988 164.945C823.833 164.788 823.648 164.664 823.445 164.579C823.242 164.494 823.024 164.45 822.804 164.45V167.823C823.024 167.823 823.242 167.779 823.445 167.694C823.648 167.609 823.833 167.485 823.988 167.328C824.143 167.171 824.266 166.985 824.35 166.781C824.434 166.576 824.477 166.358 824.477 166.136ZM824.477 166.136C824.477 166.136 824.477 166.136 824.477 166.136L824.177 166.136L824.477 166.137C824.477 166.137 824.477 166.137 824.477 166.136Z" fill="#68CABF" stroke="#68CABF" stroke-width="0.6"/>
<path d="M844.086 248.164C843.787 248.164 843.493 248.084 843.235 247.93C842.978 247.777 842.766 247.557 842.622 247.293M844.086 248.164L842.886 247.149M844.086 248.164C844.086 248.164 844.086 248.164 844.085 248.164L844.087 247.864L844.086 248.164ZM844.086 248.164C844.37 248.165 844.649 248.092 844.896 247.953C844.896 247.953 844.896 247.953 844.896 247.953L844.086 248.164ZM842.622 247.293C842.622 247.293 842.622 247.293 842.622 247.292L842.886 247.149M842.622 247.293C842.623 247.293 842.623 247.293 842.623 247.294L842.886 247.149M842.622 247.293C842.516 247.1 842.449 246.888 842.425 246.669C842.4 246.45 842.419 246.228 842.48 246.016C842.541 245.804 842.642 245.606 842.78 245.433C842.917 245.261 843.086 245.117 843.279 245.01M842.886 247.149C842.798 246.99 842.743 246.816 842.723 246.636C842.703 246.455 842.718 246.273 842.768 246.098C842.818 245.924 842.902 245.762 843.014 245.62C843.127 245.478 843.266 245.36 843.424 245.273M843.279 245.01C843.279 245.011 843.279 245.011 843.278 245.011L843.424 245.273M843.279 245.01L843.424 245.273M843.279 245.01C856.289 237.78 864.374 223.969 864.374 208.968C864.374 186.273 846.032 167.814 823.492 167.814L843.424 245.273M821.819 166.132C821.818 166.352 821.861 166.571 821.945 166.775C822.029 166.979 822.152 167.164 822.308 167.321C822.463 167.477 822.647 167.601 822.851 167.686C823.054 167.77 823.271 167.814 823.491 167.814V164.75L823.492 164.45C823.492 164.45 823.491 164.45 823.491 164.45C823.271 164.45 823.054 164.493 822.851 164.578C822.647 164.663 822.463 164.787 822.308 164.943C822.152 165.099 822.029 165.285 821.945 165.489C821.861 165.693 821.818 165.911 821.819 166.132ZM821.819 166.132C821.819 166.132 821.819 166.132 821.819 166.132L822.119 166.132L821.819 166.132C821.819 166.132 821.819 166.132 821.819 166.132ZM802.258 269.94L802.373 269.663L802.258 269.94C802.461 270.024 802.679 270.068 802.899 270.068L802.899 269.768L802.899 270.068C803.119 270.068 803.336 270.024 803.54 269.94C803.743 269.855 803.927 269.731 804.083 269.575L803.87 269.363L804.083 269.575C804.238 269.419 804.361 269.233 804.445 269.029C804.529 268.825 804.572 268.607 804.572 268.386V246.482C804.572 245.555 803.825 244.8 802.899 244.8C801.973 244.8 801.226 245.555 801.226 246.482L801.226 268.386C801.226 268.386 801.226 268.386 801.226 268.386C801.226 268.607 801.269 268.825 801.353 269.029C801.437 269.233 801.56 269.418 801.715 269.575C801.87 269.731 802.055 269.855 802.258 269.94Z" fill="#68CABF" stroke="#68CABF" stroke-width="0.6"/>
<path d="M844.254 270.068C844.016 270.068 843.779 270.026 843.558 269.944C843.337 269.862 843.134 269.74 842.961 269.585C842.788 269.431 842.65 269.245 842.554 269.038C842.459 268.831 842.409 268.608 842.409 268.382M844.254 270.068L842.709 246.444H842.409L842.409 246.444L842.409 268.382M844.254 270.068C844.492 270.068 844.728 270.026 844.949 269.944C845.171 269.862 845.374 269.74 845.546 269.585L845.346 269.362L845.546 269.585C845.719 269.431 845.858 269.245 845.953 269.038L845.681 268.912L845.953 269.038C846.049 268.831 846.098 268.608 846.098 268.382M844.254 270.068C844.254 270.068 844.254 270.068 844.254 270.068L844.254 269.768L844.254 270.068C844.254 270.068 844.254 270.068 844.254 270.068ZM844.254 270.068L846.098 268.382M842.409 268.382V268.382H842.709L842.409 268.382C842.409 268.382 842.409 268.382 842.409 268.382ZM846.098 246.444C846.098 246.218 846.049 245.995 845.953 245.788C845.858 245.581 845.719 245.395 845.546 245.24L845.346 245.464L846.098 246.444ZM846.098 246.444V268.382M846.098 246.444V268.382" fill="#68CABF" stroke="#68CABF" stroke-width="0.6"/>
<path d="M802.91 253.366H844.414H844.415V253.066C844.596 253.066 844.776 253.029 844.944 252.957C845.112 252.885 845.265 252.78 845.393 252.647C845.522 252.514 845.624 252.356 845.693 252.183C845.763 252.009 845.798 251.823 845.798 251.636L802.91 253.366ZM802.91 253.366C802.687 253.366 802.467 253.32 802.262 253.233C802.057 253.145 801.871 253.017 801.716 252.856C801.56 252.694 801.437 252.504 801.353 252.294C801.269 252.085 801.226 251.861 801.226 251.636C801.226 251.41 801.269 251.186 801.353 250.977C801.436 250.767 801.56 250.577 801.715 250.416C801.871 250.254 802.057 250.126 802.262 250.038C802.467 249.951 802.687 249.906 802.91 249.906M802.91 253.366L844.414 249.906M844.414 249.906C844.637 249.906 844.857 249.951 845.062 250.038C845.267 250.126 845.453 250.254 845.609 250.416L845.393 250.624L845.609 250.416C845.765 250.577 845.888 250.767 845.972 250.977C846.055 251.186 846.098 251.41 846.098 251.636L844.414 249.906ZM844.414 249.906L844.415 249.906V250.206L844.414 249.906ZM844.414 249.906L802.91 249.906M802.91 249.906H802.91V250.206L802.91 249.906C802.91 249.906 802.91 249.906 802.91 249.906ZM808.444 276.245C808.221 276.245 808.001 276.2 807.796 276.112C807.591 276.025 807.406 275.896 807.25 275.735L808.444 276.245ZM808.444 276.245H838.879M808.444 276.245L804.104 267.576L809.144 272.785H838.18L843.22 267.576C843.879 266.895 844.95 266.895 845.608 267.576C846.261 268.251 846.261 269.34 845.608 270.015C845.608 270.015 845.608 270.015 845.608 270.015L840.074 275.735C839.918 275.896 839.733 276.025 839.527 276.113C839.322 276.2 839.102 276.246 838.879 276.245M838.879 276.245L838.88 275.945M838.879 276.245H838.88V275.945M838.88 275.945C839.062 275.946 839.241 275.909 839.409 275.837C839.577 275.765 839.73 275.659 839.858 275.526M838.88 275.945L839.858 275.526M839.858 275.526L845.392 269.807C845.933 269.248 845.933 268.343 845.392 267.785C844.852 267.226 843.977 267.226 843.436 267.785L839.858 275.526ZM801.716 270.015L807.25 275.735L804.103 267.576C803.948 267.415 803.762 267.286 803.557 267.199C803.352 267.111 803.132 267.065 802.91 267.065C802.687 267.065 802.467 267.111 802.262 267.199C802.057 267.286 801.872 267.415 801.716 267.576C801.56 267.737 801.437 267.928 801.353 268.137C801.269 268.346 801.226 268.57 801.226 268.796C801.226 269.022 801.269 269.245 801.353 269.455C801.437 269.664 801.56 269.854 801.716 270.015C801.716 270.015 801.716 270.015 801.716 270.015Z" fill="#68CABF" stroke="#68CABF" stroke-width="0.6"/>
<path d="M811.705 274.982L811.705 274.982C811.85 275.262 815.109 281.393 823.149 281.393C831.188 281.393 834.445 275.261 834.59 274.983L834.591 274.981C834.795 274.585 834.829 274.125 834.685 273.703C834.541 273.282 834.232 272.936 833.828 272.738L833.828 272.738L833.827 272.738C833.422 272.542 832.956 272.509 832.527 272.645C832.098 272.781 831.738 273.076 831.529 273.47L831.529 273.47C831.441 273.637 829.046 278.048 823.149 278.048C817.267 278.048 814.87 273.664 814.768 273.471C814.341 272.651 813.316 272.323 812.474 272.733C811.628 273.144 811.275 274.148 811.705 274.982Z" fill="#68CABF" stroke="#68CABF" stroke-width="0.6"/>
<line x1="842.968" y1="256.121" x2="803.937" y2="262.035" stroke="#68CABF" stroke-width="3"/>
<line x1="842.968" y1="263.218" x2="803.937" y2="269.132" stroke="#68CABF" stroke-width="3"/>
<circle cx="816.5" cy="215.5" r="86" fill="white" stroke="black" stroke-width="3"/>
<circle cx="882.125" cy="149.875" r="20.375" fill="white" stroke="black" stroke-width="3"/>
<circle cx="882.125" cy="281.125" r="20.375" fill="white" stroke="black" stroke-width="3"/>
<circle cx="750.875" cy="149.875" r="20.375" fill="white" stroke="black" stroke-width="3"/>
<circle cx="750.875" cy="281.125" r="20.375" fill="white" stroke="black" stroke-width="3"/>
<path d="M760.154 291.625H750.674C750.519 291.625 750.365 291.595 750.221 291.536C750.077 291.478 749.947 291.392 749.837 291.283L747.814 289.292H745.935C745.779 289.292 745.625 289.262 745.481 289.203C745.337 289.145 745.207 289.059 745.097 288.95C744.987 288.842 744.899 288.713 744.84 288.572C744.78 288.43 744.75 288.278 744.75 288.125V281.125C744.75 280.972 744.781 280.82 744.84 280.678C744.9 280.537 744.987 280.408 745.097 280.3C745.207 280.192 745.338 280.106 745.481 280.047C745.625 279.989 745.779 279.959 745.935 279.959C745.927 279.959 747.532 279.87 749.912 277.898C752.465 275.784 754.299 271.398 754.316 271.352C754.405 271.137 754.557 270.953 754.752 270.824C754.948 270.694 755.178 270.625 755.414 270.625H757.784C757.94 270.625 758.094 270.655 758.237 270.714C758.381 270.772 758.512 270.858 758.622 270.967C758.732 271.075 758.819 271.204 758.879 271.345C758.938 271.487 758.969 271.638 758.969 271.792V277.625H760.154C760.469 277.625 760.769 277.748 760.992 277.967C763.836 280.767 763.836 288.483 760.992 291.283C760.882 291.392 760.751 291.478 760.607 291.536C760.464 291.595 760.31 291.625 760.154 291.625ZM751.165 289.292H759.609C761.12 287.22 761.12 282.03 759.609 279.958H757.784C757.628 279.958 757.474 279.928 757.33 279.87C757.187 279.811 757.056 279.725 756.946 279.617C756.836 279.508 756.749 279.38 756.689 279.238C756.63 279.096 756.599 278.945 756.599 278.791V272.958H756.188C755.502 274.426 753.779 277.744 751.437 279.685C749.617 281.191 748.101 281.829 747.12 282.098V286.958H748.305C748.619 286.958 748.92 287.082 749.142 287.3L751.165 289.292Z" fill="black"/>
<path d="M746.172 291.625H738.953C738.795 291.625 738.639 291.595 738.493 291.536C738.347 291.478 738.214 291.392 738.102 291.284C737.99 291.175 737.902 291.047 737.841 290.905C737.781 290.763 737.75 290.612 737.75 290.458V278.792C737.75 278.638 737.781 278.487 737.841 278.345C737.902 278.204 737.99 278.075 738.102 277.967C738.214 277.858 738.347 277.772 738.493 277.714C738.639 277.655 738.795 277.625 738.953 277.625H746.172C746.33 277.625 746.486 277.655 746.632 277.714C746.778 277.772 746.911 277.858 747.023 277.967C747.135 278.075 747.223 278.204 747.284 278.345C747.344 278.487 747.375 278.638 747.375 278.792V290.458C747.375 290.612 747.344 290.763 747.284 290.905C747.223 291.047 747.135 291.175 747.023 291.284C746.911 291.392 746.778 291.478 746.632 291.536C746.486 291.595 746.33 291.625 746.172 291.625ZM740.156 289.292H744.969V279.959H740.156V289.292Z" fill="black"/>
<path d="M882.125 160.375C881.954 160.375 881.785 160.339 881.628 160.271C881.147 160.059 869.875 154.982 869.875 145.791C869.875 141.771 873.172 138.5 877.225 138.5C879.038 138.495 880.786 139.165 882.125 140.377C883.464 139.165 885.212 138.495 887.025 138.5C891.078 138.5 894.375 141.771 894.375 145.791C894.375 154.982 883.103 160.059 882.622 160.271C882.466 160.339 882.296 160.375 882.125 160.375ZM877.225 140.931C874.524 140.931 872.325 143.112 872.325 145.791C872.325 152.437 880.063 156.772 882.125 157.809C884.183 156.769 891.926 152.421 891.926 145.791C891.926 143.112 889.727 140.931 887.026 140.931C885.478 140.931 884.05 141.65 883.109 142.905C882.645 143.522 881.607 143.522 881.143 142.905C880.201 141.65 878.773 140.931 877.225 140.931Z" fill="black"/>
<path d="M750.875 158.625C744.603 158.625 739.5 153.523 739.5 147.25C739.5 140.976 744.603 135.875 750.875 135.875C757.147 135.875 762.25 140.976 762.25 147.25C762.25 153.523 757.146 158.625 750.875 158.625ZM750.875 138.719C746.17 138.719 742.344 142.546 742.344 147.25C742.344 151.954 746.171 155.781 750.875 155.781C755.579 155.781 759.406 151.954 759.406 147.25C759.406 142.546 755.579 138.719 750.875 138.719Z" fill="black"/>
<path d="M750.875 163.875C744.603 163.875 739.5 158.643 739.5 152.208C739.5 151.402 740.136 150.75 740.922 150.75C741.708 150.75 742.344 151.402 742.344 152.208C742.344 157.033 746.171 160.958 750.875 160.958C755.579 160.958 759.406 157.033 759.406 152.208C759.406 152.017 759.443 151.827 759.514 151.65C759.586 151.473 759.69 151.312 759.822 151.177C759.954 151.041 760.111 150.934 760.284 150.861C760.456 150.787 760.641 150.75 760.828 150.75C761.015 150.75 761.2 150.788 761.372 150.861C761.545 150.934 761.702 151.041 761.834 151.177C761.966 151.312 762.071 151.473 762.142 151.65C762.213 151.827 762.25 152.017 762.25 152.208C762.25 158.643 757.146 163.875 750.875 163.875Z" fill="black"/>
<path d="M740.812 154.25C740.64 154.25 740.469 154.212 740.31 154.139C740.151 154.066 740.006 153.958 739.884 153.823C739.762 153.688 739.666 153.527 739.6 153.35C739.534 153.173 739.5 152.983 739.5 152.791V146.958C739.5 146.152 740.087 145.5 740.812 145.5C741.538 145.5 742.125 146.152 742.125 146.958V152.791C742.125 152.983 742.091 153.173 742.025 153.35C741.959 153.527 741.863 153.687 741.741 153.823C741.619 153.958 741.474 154.066 741.315 154.139C741.155 154.212 740.985 154.25 740.812 154.25Z" fill="black"/>
<path d="M760.938 154.25C760.765 154.25 760.594 154.213 760.435 154.139C760.276 154.066 760.131 153.959 760.009 153.823C759.887 153.688 759.791 153.527 759.725 153.35C759.659 153.173 759.625 152.983 759.625 152.791V146.958C759.625 146.767 759.659 146.577 759.725 146.4C759.791 146.223 759.887 146.062 760.009 145.927C760.131 145.791 760.276 145.684 760.435 145.611C760.595 145.537 760.765 145.5 760.938 145.5C761.11 145.5 761.281 145.538 761.44 145.611C761.599 145.684 761.744 145.791 761.866 145.927C761.988 146.062 762.084 146.223 762.15 146.4C762.216 146.577 762.25 146.767 762.25 146.958V152.791C762.25 152.983 762.216 153.173 762.15 153.35C762.084 153.527 761.988 153.688 761.866 153.823C761.744 153.958 761.599 154.066 761.44 154.139C761.281 154.212 761.11 154.25 760.938 154.25Z" fill="black"/>
<line x1="751.125" y1="141.125" x2="751.125" y2="153.375" stroke="black" stroke-width="4"/>
<line x1="744.75" y1="147" x2="757" y2="147" stroke="black" stroke-width="4"/>
<path d="M892.875 284.625C892.875 289.434 888.429 293.625 882.562 293.625C876.696 293.625 872.25 289.434 872.25 284.625C872.25 279.816 876.696 275.625 882.562 275.625C888.429 275.625 892.875 279.816 892.875 284.625Z" fill="white" stroke="black" stroke-width="3"/>
<rect x="867.25" y="272.375" width="28.875" height="12.25" fill="white"/>
<circle cx="876.875" cy="275.875" r="1.75" fill="black"/>
<circle cx="888.25" cy="275.875" r="1.75" fill="black"/>
<circle cx="94.5" cy="222.5" r="86" fill="#68CABF" stroke="#68CABF" stroke-width="3"/>
<circle cx="160.125" cy="156.875" r="20.375" fill="#68CABF" stroke="#68CABF" stroke-width="3"/>
<circle cx="160.125" cy="288.125" r="20.375" fill="#68CABF" stroke="#68CABF" stroke-width="3"/>
<circle cx="28.875" cy="156.875" r="20.375" fill="#68CABF" stroke="#68CABF" stroke-width="3"/>
<circle cx="28.875" cy="288.125" r="20.375" fill="#68CABF" stroke="#68CABF" stroke-width="3"/>
<path d="M38.154 298.625H28.6744C28.5188 298.625 28.3647 298.595 28.221 298.536C28.0772 298.478 27.9466 298.392 27.8366 298.283L25.814 296.292H23.9349C23.7792 296.292 23.6251 296.262 23.4813 296.203C23.3375 296.145 23.2068 296.059 23.0968 295.95C22.9867 295.842 22.8995 295.713 22.84 295.572C22.7805 295.43 22.7499 295.278 22.75 295.125V288.125C22.7499 287.972 22.7805 287.82 22.84 287.678C22.8996 287.537 22.9868 287.408 23.0969 287.3C23.2069 287.192 23.3376 287.106 23.4814 287.047C23.6252 286.989 23.7793 286.959 23.9349 286.959C23.9269 286.959 25.5318 286.87 27.9119 284.898C30.4646 282.784 32.2987 278.398 32.3159 278.352C32.4048 278.137 32.5569 277.953 32.7525 277.824C32.9481 277.694 33.1785 277.625 33.4142 277.625H35.7839C35.9396 277.625 36.0937 277.655 36.2375 277.714C36.3813 277.772 36.5119 277.858 36.6219 277.967C36.732 278.075 36.8193 278.204 36.8788 278.345C36.9383 278.487 36.9689 278.638 36.9688 278.792V284.625H38.154C38.4688 284.625 38.7694 284.748 38.9917 284.967C41.8361 287.767 41.8361 295.483 38.9917 298.283C38.8818 298.392 38.7512 298.478 38.6074 298.536C38.4637 298.595 38.3096 298.625 38.154 298.625ZM29.1653 296.292H37.6088C39.1201 294.22 39.1201 289.03 37.6088 286.958H35.7839C35.6283 286.958 35.4742 286.928 35.3303 286.87C35.1865 286.811 35.0559 286.725 34.9458 286.617C34.8358 286.508 34.7485 286.38 34.689 286.238C34.6295 286.096 34.5989 285.945 34.5991 285.791V279.958H34.1882C33.5019 281.426 31.779 284.744 29.4368 286.685C27.6167 288.191 26.101 288.829 25.1198 289.098V293.958H26.3046C26.6195 293.958 26.9203 294.082 27.1424 294.3L29.1653 296.292Z" fill="#68CABF"/>
<path d="M24.1719 298.625H16.9531C16.7951 298.625 16.6386 298.595 16.4925 298.536C16.3465 298.478 16.2139 298.392 16.1021 298.284C15.9904 298.175 15.9018 298.047 15.8413 297.905C15.7809 297.763 15.7499 297.612 15.75 297.458V285.792C15.7499 285.638 15.781 285.487 15.8414 285.345C15.9019 285.204 15.9905 285.075 16.1022 284.967C16.2139 284.858 16.3466 284.772 16.4926 284.714C16.6386 284.655 16.7951 284.625 16.9531 284.625H24.1719C24.3299 284.625 24.4864 284.655 24.6324 284.714C24.7784 284.772 24.9111 284.858 25.0228 284.967C25.1345 285.075 25.2231 285.204 25.2836 285.345C25.344 285.487 25.3751 285.638 25.375 285.792V297.458C25.3751 297.612 25.3441 297.763 25.2837 297.905C25.2232 298.047 25.1346 298.175 25.0229 298.284C24.9111 298.392 24.7785 298.478 24.6325 298.536C24.4864 298.595 24.3299 298.625 24.1719 298.625ZM18.1562 296.292H22.9688V286.959H18.1562V296.292Z" fill="#68CABF"/>
<path d="M160.125 167.375C159.954 167.375 159.785 167.339 159.628 167.271C159.147 167.059 147.875 161.982 147.875 152.791C147.875 148.771 151.172 145.5 155.225 145.5C157.038 145.495 158.786 146.165 160.125 147.377C161.464 146.165 163.212 145.495 165.025 145.5C169.078 145.5 172.375 148.771 172.375 152.791C172.375 161.982 161.103 167.059 160.622 167.271C160.466 167.339 160.296 167.375 160.125 167.375ZM155.225 147.931C152.524 147.931 150.325 150.112 150.325 152.791C150.325 159.437 158.063 163.772 160.125 164.809C162.183 163.769 169.926 159.421 169.926 152.791C169.926 150.112 167.727 147.931 165.026 147.931C163.478 147.931 162.05 148.65 161.109 149.905C160.645 150.522 159.607 150.522 159.143 149.905C158.201 148.65 156.773 147.931 155.225 147.931Z" fill="#68CABF"/>
<path d="M28.8748 165.625C22.6028 165.625 17.5 160.523 17.5 154.25C17.5 147.976 22.6028 142.875 28.8748 142.875C35.1469 142.875 40.25 147.976 40.25 154.25C40.25 160.523 35.1465 165.625 28.8748 165.625ZM28.8748 145.719C24.1704 145.719 20.344 149.546 20.344 154.25C20.344 158.954 24.1708 162.781 28.8748 162.781C33.5792 162.781 37.406 158.954 37.406 154.25C37.4057 149.546 33.5792 145.719 28.8748 145.719Z" fill="#68CABF"/>
<path d="M28.8748 170.875C22.6028 170.875 17.5 165.643 17.5 159.208C17.5 158.402 18.136 157.75 18.9218 157.75C19.7076 157.75 20.344 158.402 20.344 159.208C20.344 164.033 24.1708 167.958 28.8748 167.958C33.5792 167.958 37.406 164.033 37.406 159.208C37.4059 159.017 37.4427 158.827 37.5141 158.65C37.5855 158.473 37.6903 158.312 37.8224 158.177C37.9545 158.041 38.1113 157.934 38.2839 157.861C38.4565 157.787 38.6414 157.75 38.8282 157.75C39.0149 157.75 39.1999 157.788 39.3724 157.861C39.5449 157.934 39.7017 158.041 39.8338 158.177C39.9658 158.312 40.0705 158.473 40.142 158.65C40.2134 158.827 40.2501 159.017 40.25 159.208C40.2496 165.643 35.1465 170.875 28.8748 170.875Z" fill="#68CABF"/>
<path d="M18.8123 161.25C18.6399 161.25 18.4692 161.212 18.3099 161.139C18.1507 161.066 18.0059 160.958 17.8841 160.823C17.7622 160.688 17.6655 160.527 17.5996 160.35C17.5337 160.173 17.4999 159.983 17.5 159.791V153.958C17.5 153.152 18.0871 152.5 18.8123 152.5C19.5376 152.5 20.125 153.152 20.125 153.958V159.791C20.125 159.983 20.0911 160.173 20.0252 160.35C19.9592 160.527 19.8625 160.687 19.7406 160.823C19.6187 160.958 19.474 161.066 19.3147 161.139C19.1554 161.212 18.9847 161.25 18.8123 161.25Z" fill="#68CABF"/>
<path d="M38.9377 161.25C38.7652 161.25 38.5945 161.213 38.4352 161.139C38.2759 161.066 38.1311 160.959 38.0092 160.823C37.8873 160.688 37.7906 160.527 37.7247 160.35C37.6587 160.173 37.6249 159.983 37.625 159.791V153.958C37.6249 153.767 37.6588 153.577 37.7248 153.4C37.7907 153.223 37.8874 153.062 38.0093 152.927C38.1312 152.791 38.276 152.684 38.4353 152.611C38.5945 152.537 38.7653 152.5 38.9377 152.5C39.11 152.5 39.2807 152.538 39.44 152.611C39.5992 152.684 39.7439 152.791 39.8658 152.927C39.9877 153.062 40.0844 153.223 40.1503 153.4C40.2162 153.577 40.2501 153.767 40.25 153.958V159.791C40.2501 159.983 40.2163 160.173 40.1504 160.35C40.0845 160.527 39.9878 160.688 39.8659 160.823C39.7441 160.958 39.5993 161.066 39.4401 161.139C39.2808 161.212 39.1101 161.25 38.9377 161.25Z" fill="#68CABF"/>
<line x1="29.125" y1="148.125" x2="29.125" y2="160.375" stroke="#68CABF" stroke-width="4"/>
<line x1="22.75" y1="154" x2="35" y2="154" stroke="#68CABF" stroke-width="4"/>
<path d="M170.875 291.625C170.875 296.434 166.429 300.625 160.562 300.625C154.696 300.625 150.25 296.434 150.25 291.625C150.25 286.816 154.696 282.625 160.562 282.625C166.429 282.625 170.875 286.816 170.875 291.625Z" fill="#68CABF" stroke="#68CABF" stroke-width="3"/>
<rect x="145.25" y="279.375" width="28.875" height="12.25" fill="#68CABF"/>
<circle cx="154.875" cy="282.875" r="1.75" fill="#68CABF"/>
<circle cx="166.25" cy="282.875" r="1.75" fill="#68CABF"/>
<path d="M72.3967 248.235C58.3184 240.385 49.575 225.395 49.575 209.118C49.575 184.491 69.4134 164.45 93.8039 164.45L72.3967 248.235ZM72.3967 248.235C72.6437 248.374 72.9222 248.447 73.2054 248.447M72.3967 248.235L93.8039 167.823C71.2639 167.823 52.9205 186.344 52.9205 209.118C52.9205 224.171 61.0054 238.029 74.0166 245.285C74.209 245.392 74.3784 245.536 74.5153 245.709C74.6522 245.882 74.7538 246.08 74.8145 246.293C74.8752 246.505 74.8937 246.728 74.8691 246.948C74.8445 247.167 74.7774 247.379 74.6715 247.573C74.528 247.837 74.3162 248.059 74.0582 248.213C73.8001 248.366 73.5055 248.447 73.2054 248.447M73.2054 248.447C73.2052 248.447 73.2049 248.447 73.2046 248.447L73.2056 248.147L73.2065 248.447C73.2061 248.447 73.2058 248.447 73.2054 248.447ZM95.4768 166.136C95.4769 165.915 95.4339 165.696 95.3501 165.492C95.2663 165.288 95.1434 165.102 94.9881 164.945C94.8329 164.788 94.6485 164.664 94.4452 164.579C94.2421 164.494 94.0242 164.45 93.8041 164.45V167.823C94.0242 167.823 94.2421 167.779 94.4452 167.694C94.6485 167.609 94.8329 167.485 94.9881 167.328C95.1434 167.171 95.2663 166.985 95.3501 166.781C95.4339 166.576 95.4769 166.358 95.4768 166.136ZM95.4768 166.136C95.4768 166.136 95.4768 166.136 95.4768 166.136L95.1768 166.136L95.4768 166.137C95.4768 166.137 95.4768 166.137 95.4768 166.136Z" fill="#68CABF" stroke="#68CABF" stroke-width="0.6"/>
<path d="M115.086 248.164C114.787 248.164 114.493 248.084 114.235 247.93C113.978 247.777 113.766 247.557 113.622 247.293M115.086 248.164L113.886 247.149M115.086 248.164C115.086 248.164 115.086 248.164 115.085 248.164L115.087 247.864L115.086 248.164ZM115.086 248.164C115.37 248.165 115.649 248.092 115.896 247.953C115.896 247.953 115.896 247.953 115.896 247.953L115.086 248.164ZM113.622 247.293C113.622 247.293 113.622 247.293 113.622 247.292L113.886 247.149M113.622 247.293C113.623 247.293 113.623 247.293 113.623 247.294L113.886 247.149M113.622 247.293C113.516 247.1 113.449 246.888 113.425 246.669C113.4 246.45 113.419 246.228 113.48 246.016C113.541 245.804 113.642 245.606 113.78 245.433C113.917 245.261 114.086 245.117 114.279 245.01M113.886 247.149C113.798 246.99 113.743 246.816 113.723 246.636C113.703 246.455 113.718 246.273 113.768 246.098C113.818 245.924 113.902 245.762 114.014 245.62C114.127 245.478 114.266 245.36 114.424 245.273M114.279 245.01C114.279 245.011 114.279 245.011 114.278 245.011L114.424 245.273M114.279 245.01L114.424 245.273M114.279 245.01C127.289 237.78 135.374 223.969 135.374 208.968C135.374 186.273 117.032 167.814 94.4916 167.814L114.424 245.273M92.8186 166.132C92.8184 166.352 92.8615 166.571 92.9453 166.775C93.0292 166.979 93.1522 167.164 93.3075 167.321C93.4628 167.477 93.6473 167.601 93.8505 167.686C94.0536 167.77 94.2714 167.814 94.4914 167.814V164.75L94.4916 164.45C94.4916 164.45 94.4914 164.45 94.4914 164.45C94.2714 164.45 94.0537 164.493 93.8505 164.578C93.6473 164.663 93.4628 164.787 93.3075 164.943C93.1522 165.099 93.0292 165.285 92.9453 165.489C92.8615 165.693 92.8184 165.911 92.8186 166.132ZM92.8186 166.132C92.8186 166.132 92.8186 166.132 92.8186 166.132L93.1186 166.132L92.8186 166.132C92.8186 166.132 92.8186 166.132 92.8186 166.132ZM73.2579 269.94L73.3733 269.663L73.2579 269.94C73.4611 270.024 73.6789 270.068 73.8989 270.068L73.8987 269.768L73.8986 270.068C74.1186 270.068 74.3364 270.024 74.5396 269.94C74.7428 269.855 74.9273 269.731 75.0826 269.575L74.8698 269.363L75.0826 269.575C75.2379 269.419 75.3609 269.233 75.4449 269.029C75.5288 268.825 75.5719 268.607 75.5719 268.386V246.482C75.5719 245.555 74.8249 244.8 73.8987 244.8C72.9725 244.8 72.2259 245.555 72.2259 246.482L72.2259 268.386C72.2259 268.386 72.2259 268.386 72.2259 268.386C72.2258 268.607 72.2689 268.825 72.3528 269.029C72.4367 269.233 72.5597 269.418 72.715 269.575C72.8703 269.731 73.0547 269.855 73.2579 269.94Z" fill="#68CABF" stroke="#68CABF" stroke-width="0.6"/>
<path d="M115.254 270.068C115.016 270.068 114.779 270.026 114.558 269.944C114.337 269.862 114.134 269.74 113.961 269.585C113.788 269.431 113.65 269.245 113.554 269.038C113.459 268.831 113.409 268.608 113.409 268.382M115.254 270.068L113.709 246.444H113.409L113.409 246.444L113.409 268.382M115.254 270.068C115.492 270.068 115.728 270.026 115.949 269.944C116.171 269.862 116.374 269.74 116.546 269.585L116.346 269.362L116.546 269.585C116.719 269.431 116.858 269.245 116.953 269.038L116.681 268.912L116.953 269.038C117.049 268.831 117.098 268.608 117.098 268.382M115.254 270.068C115.254 270.068 115.254 270.068 115.254 270.068L115.254 269.768L115.254 270.068C115.254 270.068 115.254 270.068 115.254 270.068ZM115.254 270.068L117.098 268.382M113.409 268.382V268.382H113.709L113.409 268.382C113.409 268.382 113.409 268.382 113.409 268.382ZM117.098 246.444C117.098 246.218 117.049 245.995 116.953 245.788C116.858 245.581 116.719 245.395 116.546 245.24L116.346 245.464L117.098 246.444ZM117.098 246.444V268.382M117.098 246.444V268.382" fill="#68CABF" stroke="#68CABF" stroke-width="0.6"/>
<path d="M73.9098 253.366H115.414H115.415V253.066C115.596 253.066 115.776 253.029 115.944 252.957C116.112 252.885 116.265 252.78 116.393 252.647C116.522 252.514 116.624 252.356 116.693 252.183C116.763 252.009 116.798 251.823 116.798 251.636L73.9098 253.366ZM73.9098 253.366C73.6873 253.366 73.4672 253.32 73.2621 253.233C73.0571 253.145 72.8715 253.017 72.7156 252.856C72.5597 252.694 72.4366 252.504 72.3528 252.294C72.269 252.085 72.2261 251.861 72.2262 251.636C72.226 251.41 72.2689 251.186 72.3527 250.977C72.4365 250.767 72.5596 250.577 72.7155 250.416C72.8714 250.254 73.0571 250.126 73.2621 250.038C73.4672 249.951 73.6873 249.906 73.9098 249.906M73.9098 253.366L115.414 249.906M115.414 249.906C115.637 249.906 115.857 249.951 116.062 250.038C116.267 250.126 116.453 250.254 116.609 250.416L116.393 250.624L116.609 250.416C116.765 250.577 116.888 250.767 116.972 250.977C117.055 251.186 117.098 251.41 117.098 251.636L115.414 249.906ZM115.414 249.906L115.415 249.906V250.206L115.414 249.906ZM115.414 249.906L73.9098 249.906M73.9098 249.906H73.9097V250.206L73.9099 249.906C73.9099 249.906 73.9098 249.906 73.9098 249.906ZM79.444 276.245C79.2214 276.245 79.0013 276.2 78.7962 276.112C78.5913 276.025 78.4058 275.896 78.25 275.735L79.444 276.245ZM79.444 276.245H109.879M79.444 276.245L75.1036 267.576L80.1442 272.785H109.18L114.22 267.576C114.879 266.895 115.95 266.895 116.608 267.576C117.261 268.251 117.261 269.34 116.608 270.015C116.608 270.015 116.608 270.015 116.608 270.015L111.074 275.735C110.918 275.896 110.733 276.025 110.527 276.113C110.322 276.2 110.102 276.246 109.879 276.245M109.879 276.245L109.88 275.945M109.879 276.245H109.88V275.945M109.88 275.945C110.062 275.946 110.241 275.909 110.409 275.837C110.577 275.765 110.73 275.659 110.858 275.526M109.88 275.945L110.858 275.526M110.858 275.526L116.392 269.807C116.933 269.248 116.933 268.343 116.392 267.785C115.852 267.226 114.977 267.226 114.436 267.785L110.858 275.526ZM72.716 270.015L78.2498 275.735L75.1035 267.576C74.9477 267.415 74.7622 267.286 74.5573 267.199C74.3523 267.111 74.1322 267.065 73.9097 267.065C73.6872 267.065 73.4671 267.111 73.2621 267.199C73.0572 267.286 72.8718 267.415 72.716 267.576C72.56 267.737 72.4368 267.928 72.3529 268.137C72.269 268.346 72.2259 268.57 72.2259 268.796C72.2259 269.022 72.269 269.245 72.3529 269.455C72.4368 269.664 72.56 269.854 72.7159 270.015C72.7159 270.015 72.716 270.015 72.716 270.015Z" fill="#68CABF" stroke="#68CABF" stroke-width="0.6"/>
<path d="M82.7051 274.982L82.7052 274.982C82.8496 275.262 86.1095 281.393 94.1494 281.393C102.188 281.393 105.445 275.261 105.59 274.983L105.591 274.981C105.795 274.585 105.829 274.125 105.685 273.703C105.541 273.282 105.232 272.936 104.828 272.738L104.828 272.738L104.827 272.738C104.422 272.542 103.956 272.509 103.527 272.645C103.098 272.781 102.738 273.076 102.529 273.47L102.529 273.47C102.441 273.637 100.046 278.048 94.1494 278.048C88.2674 278.048 85.8698 273.664 85.7676 273.471C85.3407 272.651 84.3157 272.323 83.4739 272.733C82.6278 273.144 82.2752 274.148 82.7051 274.982Z" fill="#68CABF" stroke="#68CABF" stroke-width="0.6"/>
<line x1="113.968" y1="256.121" x2="74.9373" y2="262.035" stroke="#68CABF" stroke-width="3"/>
<line x1="113.968" y1="263.218" x2="74.9373" y2="269.132" stroke="#68CABF" stroke-width="3"/>
<circle cx="87.5" cy="215.5" r="86" fill="white" stroke="black" stroke-width="3"/>
<circle cx="153.125" cy="149.875" r="20.375" fill="white" stroke="black" stroke-width="3"/>
<circle cx="153.125" cy="281.125" r="20.375" fill="white" stroke="black" stroke-width="3"/>
<circle cx="21.875" cy="149.875" r="20.375" fill="white" stroke="black" stroke-width="3"/>
<circle cx="21.875" cy="281.125" r="20.375" fill="white" stroke="black" stroke-width="3"/>
<rect x="138.25" y="272.375" width="28.875" height="12.25" fill="white"/>
<rect x="141" y="274" width="23.8064" height="14.7742" fill="white" stroke="black" stroke-width="2"/>
<path d="M145.446 280.557C144.196 280.557 143.179 279.54 143.179 278.29C143.179 277.04 144.196 276.023 145.446 276.023C146.696 276.023 147.713 277.04 147.713 278.29C147.713 279.54 146.696 280.557 145.446 280.557ZM145.446 277.534C145.029 277.534 144.69 277.873 144.69 278.29C144.69 278.706 145.029 279.046 145.446 279.046C145.863 279.046 146.201 278.706 146.201 278.29C146.201 277.873 145.863 277.534 145.446 277.534Z" fill="black"/>
<path d="M148.179 288.613L150.968 283.482L153.756 288.613H148.179Z" fill="white" stroke="black" stroke-width="2"/>
<path d="M153.049 288.29L157.742 280.161L162.435 288.29H153.049Z" fill="white" stroke="black" stroke-width="2"/>
<rect x="141" y="142" width="23.8064" height="14.7742" fill="white" stroke="black" stroke-width="2"/>
<rect x="10" y="274" width="23.8064" height="14.7742" fill="white" stroke="black" stroke-width="2"/>
<path d="M157 149L151 152.464L151 145.536L157 149Z" fill="black"/>
<path d="M12.0395 288.25L22 276.543L31.9605 288.25H12.0395Z" fill="white" stroke="black" stroke-width="2"/>
<path d="M31.0995 275L22 281.755L12.9005 275H31.0995Z" fill="white" stroke="black" stroke-width="2"/>
<path d="M32.625 151.25C32.625 156.059 28.1789 160.25 22.3125 160.25C16.4461 160.25 12 156.059 12 151.25C12 146.441 16.4461 142.25 22.3125 142.25C28.1789 142.25 32.625 146.441 32.625 151.25Z" fill="white" stroke="black" stroke-width="3"/>
<rect x="7" y="139" width="28.875" height="12.25" fill="white"/>
<circle cx="16.625" cy="142.5" r="1.75" fill="black"/>
<circle cx="28" cy="142.5" r="1.75" fill="black"/>
<rect x="112.934" y="169.45" width="4.81109" height="64.25" transform="rotate(-10.2146 112.934 169.45)" fill="white" stroke="black" stroke-width="2.75"/>
<rect x="112.934" y="169.45" width="4.81109" height="64.25" transform="rotate(-10.2146 112.934 169.45)" fill="white" stroke="black" stroke-width="2.75"/>
<rect x="98.7531" y="191.625" width="12.8014" height="28.3448" transform="rotate(-10.2146 98.7531 191.625)" fill="white" stroke="black" stroke-width="2.75"/>
<rect x="97.1018" y="174.538" width="19.2474" height="60.4511" transform="rotate(-10.21 97.1018 174.538)" fill="white"/>
<rect x="53.9838" y="197.548" width="27.9055" height="34.4283" transform="rotate(-10.22 53.9838 197.548)" fill="white" stroke="black" stroke-width="2.75"/>
<line x1="113.763" y1="171.144" x2="80.7627" y2="193.144" stroke="black" stroke-width="2.75"/>
<line x1="87.1841" y1="226.637" x2="124.184" y2="231.637" stroke="black" stroke-width="2.75"/>
<path d="M59.6582 229.085L50.7255 221.64L48.5107 209.453L54.3398 199.819L59.6582 229.085Z" fill="white" stroke="black" stroke-width="2.75"/>
<path d="M59.8012 229.871L46.7269 222.231L44.5602 210.308L54.2062 199.084L59.8012 229.871Z" fill="white" stroke="black" stroke-width="2.75"/>
<rect x="1.10922" y="-1.59715" width="20.1067" height="5.16654" transform="matrix(0.984134 -0.177428 -0.177428 -0.984134 64.1797 235.101)" fill="white" stroke="black" stroke-width="2.75"/>
<line x1="82.3398" y1="233.691" x2="88.3398" y2="259.691" stroke="black" stroke-width="2.75"/>
<line x1="70.3423" y1="235.702" x2="76.3423" y2="262.702" stroke="black" stroke-width="2.75"/>
<line x1="71.756" y1="263.266" x2="91.8285" y2="259.647" stroke="black" stroke-width="2.75"/>
<circle cx="816.5" cy="203.5" r="43" fill="white" stroke="black" stroke-width="3"/>
<rect x="796.5" y="242.5" width="40" height="20" fill="white" stroke="black" stroke-width="3"/>
<rect x="798" y="221" width="37" height="23" fill="white"/>
<rect x="798" y="241" width="37" height="27" rx="1" fill="white"/>
<line x1="798" y1="246.5" x2="835" y2="246.5" stroke="black" stroke-width="3"/>
<line x1="796.139" y1="263.024" x2="802.139" y2="270.024" stroke="black" stroke-width="3"/>
<line x1="801" y1="269.5" x2="832" y2="269.5" stroke="black" stroke-width="3"/>
<line y1="-1.5" x2="9.21954" y2="-1.5" transform="matrix(0.650791 -0.759257 0.532879 0.846192 832 271)" stroke="black" stroke-width="3"/>
<line x1="797.654" y1="258.54" x2="835.654" y2="249.54" stroke="black" stroke-width="3"/>
<line x1="797.654" y1="265.54" x2="835.654" y2="256.54" stroke="black" stroke-width="3"/>
</svg>
