<svg width="646" height="67" viewBox="0 0 646 67" fill="none" xmlns="http://www.w3.org/2000/svg">
<path d="M20.9 52.7C16.5 52.7 13 51.5 10.4 49.1C7.8 46.6667 6.5 43.2 6.5 38.7V30.3C6.5 25.8 7.8 22.35 10.4 19.95C13 17.5167 16.5 16.3 20.9 16.3C25.3 16.3 28.8 17.5167 31.4 19.95C34 22.35 35.3 25.8 35.3 30.3V38.7C35.3 43.2 34 46.6667 31.4 49.1C28.8 51.5 25.3 52.7 20.9 52.7ZM20.9 46.8C23.3667 46.8 25.2833 46.0833 26.65 44.65C28.0167 43.2167 28.7 41.3 28.7 38.9V30.1C28.7 27.7 28.0167 25.7833 26.65 24.35C25.2833 22.9167 23.3667 22.2 20.9 22.2C18.4667 22.2 16.55 22.9167 15.15 24.35C13.7833 25.7833 13.1 27.7 13.1 30.1V38.9C13.1 41.3 13.7833 43.2167 15.15 44.65C16.55 46.0833 18.4667 46.8 20.9 46.8ZM47.773 52V23H37.573V17H64.573V23H54.373V52H47.773ZM69.0676 52V17H75.6676V31.45H88.6676V17H95.2676V52H88.6676V37.45H75.6676V52H69.0676ZM101.88 52V17H124.38V23H108.48V31.35H122.98V37.35H108.48V46H124.68V52H101.88ZM129.566 52V17H144.766C146.966 17 148.882 17.3833 150.516 18.15C152.149 18.9167 153.416 20 154.316 21.4C155.216 22.8 155.666 24.45 155.666 26.35V26.95C155.666 29.05 155.166 30.75 154.166 32.05C153.166 33.35 151.932 34.3 150.466 34.9V35.8C151.799 35.8667 152.832 36.3333 153.566 37.2C154.299 38.0333 154.666 39.15 154.666 40.55V52H148.066V41.5C148.066 40.7 147.849 40.05 147.416 39.55C147.016 39.05 146.332 38.8 145.366 38.8H136.166V52H129.566ZM136.166 32.8H144.066C145.632 32.8 146.849 32.3833 147.716 31.55C148.616 30.6833 149.066 29.55 149.066 28.15V27.65C149.066 26.25 148.632 25.1333 147.766 24.3C146.899 23.4333 145.666 23 144.066 23H136.166V32.8ZM169.753 62L184.453 17H190.753L176.053 62H169.753ZM205.933 52V17H218.183L224.233 47.5H225.133L231.183 17H243.433V52H237.033V21.85H236.133L230.133 52H219.233L213.233 21.85H212.333V52H205.933ZM263.625 52.7C259.225 52.7 255.725 51.5 253.125 49.1C250.525 46.6667 249.225 43.2 249.225 38.7V30.3C249.225 25.8 250.525 22.35 253.125 19.95C255.725 17.5167 259.225 16.3 263.625 16.3C268.025 16.3 271.525 17.5167 274.125 19.95C276.725 22.35 278.025 25.8 278.025 30.3V38.7C278.025 43.2 276.725 46.6667 274.125 49.1C271.525 51.5 268.025 52.7 263.625 52.7ZM263.625 46.8C266.091 46.8 268.008 46.0833 269.375 44.65C270.741 43.2167 271.425 41.3 271.425 38.9V30.1C271.425 27.7 270.741 25.7833 269.375 24.35C268.008 22.9167 266.091 22.2 263.625 22.2C261.191 22.2 259.275 22.9167 257.875 24.35C256.508 25.7833 255.825 27.7 255.825 30.1V38.9C255.825 41.3 256.508 43.2167 257.875 44.65C259.275 46.0833 261.191 46.8 263.625 46.8ZM283.814 52V17H299.014C301.214 17 303.13 17.3833 304.764 18.15C306.397 18.9167 307.664 20 308.564 21.4C309.464 22.8 309.914 24.45 309.914 26.35V26.95C309.914 29.05 309.414 30.75 308.414 32.05C307.414 33.35 306.18 34.3 304.714 34.9V35.8C306.047 35.8667 307.08 36.3333 307.814 37.2C308.547 38.0333 308.914 39.15 308.914 40.55V52H302.314V41.5C302.314 40.7 302.097 40.05 301.664 39.55C301.264 39.05 300.58 38.8 299.614 38.8H290.414V52H283.814ZM290.414 32.8H298.314C299.88 32.8 301.097 32.3833 301.964 31.55C302.864 30.6833 303.314 29.55 303.314 28.15V27.65C303.314 26.25 302.88 25.1333 302.014 24.3C301.147 23.4333 299.914 23 298.314 23H290.414V32.8ZM315.405 52V17H337.905V23H322.005V31.35H336.505V37.35H322.005V46H338.205V52H315.405ZM369.386 52.7C364.986 52.7 361.486 51.5 358.886 49.1C356.286 46.6667 354.986 43.2 354.986 38.7V30.3C354.986 25.8 356.286 22.35 358.886 19.95C361.486 17.5167 364.986 16.3 369.386 16.3C373.786 16.3 377.286 17.5167 379.886 19.95C382.486 22.35 383.786 25.8 383.786 30.3V38.7C383.786 43.2 382.486 46.6667 379.886 49.1C377.286 51.5 373.786 52.7 369.386 52.7ZM369.386 46.8C371.853 46.8 373.77 46.0833 375.136 44.65C376.503 43.2167 377.186 41.3 377.186 38.9V30.1C377.186 27.7 376.503 25.7833 375.136 24.35C373.77 22.9167 371.853 22.2 369.386 22.2C366.953 22.2 365.036 22.9167 363.636 24.35C362.27 25.7833 361.586 27.7 361.586 30.1V38.9C361.586 41.3 362.27 43.2167 363.636 44.65C365.036 46.0833 366.953 46.8 369.386 46.8ZM371.686 61C370.053 61 368.72 60.4833 367.686 59.45C366.686 58.45 366.186 57.1 366.186 55.4V52H372.586V54.4C372.586 55.4 373.053 55.9 373.986 55.9H376.936V61H371.686ZM403.075 52.7C400.209 52.7 397.742 52.1833 395.675 51.15C393.642 50.0833 392.075 48.5833 390.975 46.65C389.909 44.6833 389.375 42.3667 389.375 39.7V17H395.975V39.9C395.975 42.0333 396.575 43.7167 397.775 44.95C399.009 46.1833 400.775 46.8 403.075 46.8C405.375 46.8 407.125 46.1833 408.325 44.95C409.559 43.7167 410.175 42.0333 410.175 39.9V17H416.775V39.7C416.775 42.3667 416.225 44.6833 415.125 46.65C414.059 48.5833 412.492 50.0833 410.425 51.15C408.392 52.1833 405.942 52.7 403.075 52.7ZM423.169 52V17H445.669V23H429.769V31.35H444.269V37.35H429.769V46H445.969V52H423.169ZM463.005 52.7C460.305 52.7 457.921 52.2167 455.855 51.25C453.788 50.2833 452.171 48.9 451.005 47.1C449.838 45.3 449.255 43.1333 449.255 40.6V39.2H455.755V40.6C455.755 42.7 456.405 44.2833 457.705 45.35C459.005 46.3833 460.771 46.9 463.005 46.9C465.271 46.9 466.955 46.45 468.055 45.55C469.188 44.65 469.755 43.5 469.755 42.1C469.755 41.1333 469.471 40.35 468.905 39.75C468.371 39.15 467.571 38.6667 466.505 38.3C465.471 37.9 464.205 37.5333 462.705 37.2L461.555 36.95C459.155 36.4167 457.088 35.75 455.355 34.95C453.655 34.1167 452.338 33.0333 451.405 31.7C450.505 30.3667 450.055 28.6333 450.055 26.5C450.055 24.3667 450.555 22.55 451.555 21.05C452.588 19.5167 454.021 18.35 455.855 17.55C457.721 16.7167 459.905 16.3 462.405 16.3C464.905 16.3 467.121 16.7333 469.055 17.6C471.021 18.4333 472.555 19.7 473.655 21.4C474.788 23.0667 475.355 25.1667 475.355 27.7V29.2H468.855V27.7C468.855 26.3667 468.588 25.3 468.055 24.5C467.555 23.6667 466.821 23.0667 465.855 22.7C464.888 22.3 463.738 22.1 462.405 22.1C460.405 22.1 458.921 22.4833 457.955 23.25C457.021 23.9833 456.555 25 456.555 26.3C456.555 27.1667 456.771 27.9 457.205 28.5C457.671 29.1 458.355 29.6 459.255 30C460.155 30.4 461.305 30.75 462.705 31.05L463.855 31.3C466.355 31.8333 468.521 32.5167 470.355 33.35C472.221 34.1833 473.671 35.2833 474.705 36.65C475.738 38.0167 476.255 39.7667 476.255 41.9C476.255 44.0333 475.705 45.9167 474.605 47.55C473.538 49.15 472.005 50.4167 470.005 51.35C468.038 52.25 465.705 52.7 463.005 52.7ZM488.154 52V23H477.954V17H504.954V23H494.754V52H488.154ZM509.448 52V17H516.048V52H509.448ZM536.232 52.7C531.832 52.7 528.332 51.5 525.732 49.1C523.132 46.6667 521.832 43.2 521.832 38.7V30.3C521.832 25.8 523.132 22.35 525.732 19.95C528.332 17.5167 531.832 16.3 536.232 16.3C540.632 16.3 544.132 17.5167 546.732 19.95C549.332 22.35 550.632 25.8 550.632 30.3V38.7C550.632 43.2 549.332 46.6667 546.732 49.1C544.132 51.5 540.632 52.7 536.232 52.7ZM536.232 46.8C538.699 46.8 540.615 46.0833 541.982 44.65C543.349 43.2167 544.032 41.3 544.032 38.9V30.1C544.032 27.7 543.349 25.7833 541.982 24.35C540.615 22.9167 538.699 22.2 536.232 22.2C533.799 22.2 531.882 22.9167 530.482 24.35C529.115 25.7833 528.432 27.7 528.432 30.1V38.9C528.432 41.3 529.115 43.2167 530.482 44.65C531.882 46.0833 533.799 46.8 536.232 46.8ZM556.421 52V17H568.971L575.921 47.5H576.821V17H583.321V52H570.771L563.821 21.5H562.921V52H556.421ZM602.067 52.7C599.367 52.7 596.984 52.2167 594.917 51.25C592.851 50.2833 591.234 48.9 590.067 47.1C588.901 45.3 588.317 43.1333 588.317 40.6V39.2H594.817V40.6C594.817 42.7 595.467 44.2833 596.767 45.35C598.067 46.3833 599.834 46.9 602.067 46.9C604.334 46.9 606.017 46.45 607.117 45.55C608.251 44.65 608.817 43.5 608.817 42.1C608.817 41.1333 608.534 40.35 607.967 39.75C607.434 39.15 606.634 38.6667 605.567 38.3C604.534 37.9 603.267 37.5333 601.767 37.2L600.617 36.95C598.217 36.4167 596.151 35.75 594.417 34.95C592.717 34.1167 591.401 33.0333 590.467 31.7C589.567 30.3667 589.117 28.6333 589.117 26.5C589.117 24.3667 589.617 22.55 590.617 21.05C591.651 19.5167 593.084 18.35 594.917 17.55C596.784 16.7167 598.967 16.3 601.467 16.3C603.967 16.3 606.184 16.7333 608.117 17.6C610.084 18.4333 611.617 19.7 612.717 21.4C613.851 23.0667 614.417 25.1667 614.417 27.7V29.2H607.917V27.7C607.917 26.3667 607.651 25.3 607.117 24.5C606.617 23.6667 605.884 23.0667 604.917 22.7C603.951 22.3 602.801 22.1 601.467 22.1C599.467 22.1 597.984 22.4833 597.017 23.25C596.084 23.9833 595.617 25 595.617 26.3C595.617 27.1667 595.834 27.9 596.267 28.5C596.734 29.1 597.417 29.6 598.317 30C599.217 30.4 600.367 30.75 601.767 31.05L602.917 31.3C605.417 31.8333 607.584 32.5167 609.417 33.35C611.284 34.1833 612.734 35.2833 613.767 36.65C614.801 38.0167 615.317 39.7667 615.317 41.9C615.317 44.0333 614.767 45.9167 613.667 47.55C612.601 49.15 611.067 50.4167 609.067 51.35C607.101 52.25 604.767 52.7 602.067 52.7ZM627.389 40.5V39.3C627.389 37.6 627.723 36.2 628.389 35.1C629.089 34 630.206 33.0833 631.739 32.35L632.589 31.95C634.089 31.25 635.239 30.5 636.039 29.7C636.839 28.9 637.239 27.8333 637.239 26.5C637.239 25.5333 636.989 24.7167 636.489 24.05C636.023 23.35 635.356 22.8167 634.489 22.45C633.623 22.0833 632.606 21.9 631.439 21.9C630.239 21.9 629.156 22.1 628.189 22.5C627.256 22.9 626.506 23.5 625.939 24.3C625.406 25.1 625.139 26.1 625.139 27.3V28.4H618.639V27.4C618.639 25.1 619.206 23.1167 620.339 21.45C621.473 19.7833 623.006 18.5167 624.939 17.65C626.873 16.75 629.039 16.3 631.439 16.3C633.806 16.3 635.906 16.7333 637.739 17.6C639.606 18.4667 641.073 19.6667 642.139 21.2C643.206 22.7333 643.739 24.5 643.739 26.5C643.739 28.5 643.373 30.15 642.639 31.45C641.906 32.7167 640.973 33.75 639.839 34.55C638.739 35.3167 637.606 35.9833 636.439 36.55L635.589 36.95C634.989 37.2167 634.573 37.55 634.339 37.95C634.106 38.3167 633.989 38.8667 633.989 39.6V40.5H627.389ZM630.889 52.7C629.556 52.7 628.423 52.2667 627.489 51.4C626.589 50.5 626.139 49.35 626.139 47.95C626.139 46.55 626.589 45.4167 627.489 44.55C628.423 43.65 629.556 43.2 630.889 43.2C632.256 43.2 633.389 43.65 634.289 44.55C635.189 45.4167 635.639 46.55 635.639 47.95C635.639 49.35 635.189 50.5 634.289 51.4C633.389 52.2667 632.256 52.7 630.889 52.7Z" fill="black"/>
<mask id="path-2-outside-1_67_508" maskUnits="userSpaceOnUse" x="1" y="12" width="640" height="48" fill="black">
<rect fill="white" x="1" y="12" width="640" height="48"/>
<path d="M16.9 49.7C12.5 49.7 9 48.5 6.4 46.1C3.8 43.6667 2.5 40.2 2.5 35.7V27.3C2.5 22.8 3.8 19.35 6.4 16.95C9 14.5167 12.5 13.3 16.9 13.3C21.3 13.3 24.8 14.5167 27.4 16.95C30 19.35 31.3 22.8 31.3 27.3V35.7C31.3 40.2 30 43.6667 27.4 46.1C24.8 48.5 21.3 49.7 16.9 49.7ZM16.9 43.8C19.3667 43.8 21.2833 43.0833 22.65 41.65C24.0167 40.2167 24.7 38.3 24.7 35.9V27.1C24.7 24.7 24.0167 22.7833 22.65 21.35C21.2833 19.9167 19.3667 19.2 16.9 19.2C14.4667 19.2 12.55 19.9167 11.15 21.35C9.78333 22.7833 9.1 24.7 9.1 27.1V35.9C9.1 38.3 9.78333 40.2167 11.15 41.65C12.55 43.0833 14.4667 43.8 16.9 43.8ZM43.773 49V20H33.573V14H60.573V20H50.373V49H43.773ZM65.0676 49V14H71.6676V28.45H84.6676V14H91.2676V49H84.6676V34.45H71.6676V49H65.0676ZM97.8801 49V14H120.38V20H104.48V28.35H118.98V34.35H104.48V43H120.68V49H97.8801ZM125.566 49V14H140.766C142.966 14 144.882 14.3833 146.516 15.15C148.149 15.9167 149.416 17 150.316 18.4C151.216 19.8 151.666 21.45 151.666 23.35V23.95C151.666 26.05 151.166 27.75 150.166 29.05C149.166 30.35 147.932 31.3 146.466 31.9V32.8C147.799 32.8667 148.832 33.3333 149.566 34.2C150.299 35.0333 150.666 36.15 150.666 37.55V49H144.066V38.5C144.066 37.7 143.849 37.05 143.416 36.55C143.016 36.05 142.332 35.8 141.366 35.8H132.166V49H125.566ZM132.166 29.8H140.066C141.632 29.8 142.849 29.3833 143.716 28.55C144.616 27.6833 145.066 26.55 145.066 25.15V24.65C145.066 23.25 144.632 22.1333 143.766 21.3C142.899 20.4333 141.666 20 140.066 20H132.166V29.8ZM165.753 59L180.453 14H186.753L172.053 59H165.753ZM201.933 49V14H214.183L220.233 44.5H221.133L227.183 14H239.433V49H233.033V18.85H232.133L226.133 49H215.233L209.233 18.85H208.333V49H201.933ZM259.625 49.7C255.225 49.7 251.725 48.5 249.125 46.1C246.525 43.6667 245.225 40.2 245.225 35.7V27.3C245.225 22.8 246.525 19.35 249.125 16.95C251.725 14.5167 255.225 13.3 259.625 13.3C264.025 13.3 267.525 14.5167 270.125 16.95C272.725 19.35 274.025 22.8 274.025 27.3V35.7C274.025 40.2 272.725 43.6667 270.125 46.1C267.525 48.5 264.025 49.7 259.625 49.7ZM259.625 43.8C262.091 43.8 264.008 43.0833 265.375 41.65C266.741 40.2167 267.425 38.3 267.425 35.9V27.1C267.425 24.7 266.741 22.7833 265.375 21.35C264.008 19.9167 262.091 19.2 259.625 19.2C257.191 19.2 255.275 19.9167 253.875 21.35C252.508 22.7833 251.825 24.7 251.825 27.1V35.9C251.825 38.3 252.508 40.2167 253.875 41.65C255.275 43.0833 257.191 43.8 259.625 43.8ZM279.814 49V14H295.014C297.214 14 299.13 14.3833 300.764 15.15C302.397 15.9167 303.664 17 304.564 18.4C305.464 19.8 305.914 21.45 305.914 23.35V23.95C305.914 26.05 305.414 27.75 304.414 29.05C303.414 30.35 302.18 31.3 300.714 31.9V32.8C302.047 32.8667 303.08 33.3333 303.814 34.2C304.547 35.0333 304.914 36.15 304.914 37.55V49H298.314V38.5C298.314 37.7 298.097 37.05 297.664 36.55C297.264 36.05 296.58 35.8 295.614 35.8H286.414V49H279.814ZM286.414 29.8H294.314C295.88 29.8 297.097 29.3833 297.964 28.55C298.864 27.6833 299.314 26.55 299.314 25.15V24.65C299.314 23.25 298.88 22.1333 298.014 21.3C297.147 20.4333 295.914 20 294.314 20H286.414V29.8ZM311.405 49V14H333.905V20H318.005V28.35H332.505V34.35H318.005V43H334.205V49H311.405ZM623.389 37.5V36.3C623.389 34.6 623.723 33.2 624.389 32.1C625.089 31 626.206 30.0833 627.739 29.35L628.589 28.95C630.089 28.25 631.239 27.5 632.039 26.7C632.839 25.9 633.239 24.8333 633.239 23.5C633.239 22.5333 632.989 21.7167 632.489 21.05C632.023 20.35 631.356 19.8167 630.489 19.45C629.623 19.0833 628.606 18.9 627.439 18.9C626.239 18.9 625.156 19.1 624.189 19.5C623.256 19.9 622.506 20.5 621.939 21.3C621.406 22.1 621.139 23.1 621.139 24.3V25.4H614.639V24.4C614.639 22.1 615.206 20.1167 616.339 18.45C617.473 16.7833 619.006 15.5167 620.939 14.65C622.873 13.75 625.039 13.3 627.439 13.3C629.806 13.3 631.906 13.7333 633.739 14.6C635.606 15.4667 637.073 16.6667 638.139 18.2C639.206 19.7333 639.739 21.5 639.739 23.5C639.739 25.5 639.373 27.15 638.639 28.45C637.906 29.7167 636.973 30.75 635.839 31.55C634.739 32.3167 633.606 32.9833 632.439 33.55L631.589 33.95C630.989 34.2167 630.573 34.55 630.339 34.95C630.106 35.3167 629.989 35.8667 629.989 36.6V37.5H623.389ZM626.889 49.7C625.556 49.7 624.423 49.2667 623.489 48.4C622.589 47.5 622.139 46.35 622.139 44.95C622.139 43.55 622.589 42.4167 623.489 41.55C624.423 40.65 625.556 40.2 626.889 40.2C628.256 40.2 629.389 40.65 630.289 41.55C631.189 42.4167 631.639 43.55 631.639 44.95C631.639 46.35 631.189 47.5 630.289 48.4C629.389 49.2667 628.256 49.7 626.889 49.7Z"/>
<path d="M365.386 49.7C360.986 49.7 357.486 48.5 354.886 46.1C352.286 43.6667 350.986 40.2 350.986 35.7V27.3C350.986 22.8 352.286 19.35 354.886 16.95C357.486 14.5167 360.986 13.3 365.386 13.3C369.786 13.3 373.286 14.5167 375.886 16.95C378.486 19.35 379.786 22.8 379.786 27.3V35.7C379.786 40.2 378.486 43.6667 375.886 46.1C373.286 48.5 369.786 49.7 365.386 49.7ZM365.386 43.8C367.853 43.8 369.77 43.0833 371.136 41.65C372.503 40.2167 373.186 38.3 373.186 35.9V27.1C373.186 24.7 372.503 22.7833 371.136 21.35C369.77 19.9167 367.853 19.2 365.386 19.2C362.953 19.2 361.036 19.9167 359.636 21.35C358.27 22.7833 357.586 24.7 357.586 27.1V35.9C357.586 38.3 358.27 40.2167 359.636 41.65C361.036 43.0833 362.953 43.8 365.386 43.8ZM367.686 58C366.053 58 364.72 57.4833 363.686 56.45C362.686 55.45 362.186 54.1 362.186 52.4V49H368.586V51.4C368.586 52.4 369.053 52.9 369.986 52.9H372.936V58H367.686ZM399.075 49.7C396.209 49.7 393.742 49.1833 391.675 48.15C389.642 47.0833 388.075 45.5833 386.975 43.65C385.909 41.6833 385.375 39.3667 385.375 36.7V14H391.975V36.9C391.975 39.0333 392.575 40.7167 393.775 41.95C395.009 43.1833 396.775 43.8 399.075 43.8C401.375 43.8 403.125 43.1833 404.325 41.95C405.559 40.7167 406.175 39.0333 406.175 36.9V14H412.775V36.7C412.775 39.3667 412.225 41.6833 411.125 43.65C410.059 45.5833 408.492 47.0833 406.425 48.15C404.392 49.1833 401.942 49.7 399.075 49.7ZM419.169 49V14H441.669V20H425.769V28.35H440.269V34.35H425.769V43H441.969V49H419.169ZM459.005 49.7C456.305 49.7 453.921 49.2167 451.855 48.25C449.788 47.2833 448.171 45.9 447.005 44.1C445.838 42.3 445.255 40.1333 445.255 37.6V36.2H451.755V37.6C451.755 39.7 452.405 41.2833 453.705 42.35C455.005 43.3833 456.771 43.9 459.005 43.9C461.271 43.9 462.955 43.45 464.055 42.55C465.188 41.65 465.755 40.5 465.755 39.1C465.755 38.1333 465.471 37.35 464.905 36.75C464.371 36.15 463.571 35.6667 462.505 35.3C461.471 34.9 460.205 34.5333 458.705 34.2L457.555 33.95C455.155 33.4167 453.088 32.75 451.355 31.95C449.655 31.1167 448.338 30.0333 447.405 28.7C446.505 27.3667 446.055 25.6333 446.055 23.5C446.055 21.3667 446.555 19.55 447.555 18.05C448.588 16.5167 450.021 15.35 451.855 14.55C453.721 13.7167 455.905 13.3 458.405 13.3C460.905 13.3 463.121 13.7333 465.055 14.6C467.021 15.4333 468.555 16.7 469.655 18.4C470.788 20.0667 471.355 22.1667 471.355 24.7V26.2H464.855V24.7C464.855 23.3667 464.588 22.3 464.055 21.5C463.555 20.6667 462.821 20.0667 461.855 19.7C460.888 19.3 459.738 19.1 458.405 19.1C456.405 19.1 454.921 19.4833 453.955 20.25C453.021 20.9833 452.555 22 452.555 23.3C452.555 24.1667 452.771 24.9 453.205 25.5C453.671 26.1 454.355 26.6 455.255 27C456.155 27.4 457.305 27.75 458.705 28.05L459.855 28.3C462.355 28.8333 464.521 29.5167 466.355 30.35C468.221 31.1833 469.671 32.2833 470.705 33.65C471.738 35.0167 472.255 36.7667 472.255 38.9C472.255 41.0333 471.705 42.9167 470.605 44.55C469.538 46.15 468.005 47.4167 466.005 48.35C464.038 49.25 461.705 49.7 459.005 49.7ZM484.154 49V20H473.954V14H500.954V20H490.754V49H484.154ZM505.448 49V14H512.048V49H505.448ZM532.232 49.7C527.832 49.7 524.332 48.5 521.732 46.1C519.132 43.6667 517.832 40.2 517.832 35.7V27.3C517.832 22.8 519.132 19.35 521.732 16.95C524.332 14.5167 527.832 13.3 532.232 13.3C536.632 13.3 540.132 14.5167 542.732 16.95C545.332 19.35 546.632 22.8 546.632 27.3V35.7C546.632 40.2 545.332 43.6667 542.732 46.1C540.132 48.5 536.632 49.7 532.232 49.7ZM532.232 43.8C534.699 43.8 536.615 43.0833 537.982 41.65C539.349 40.2167 540.032 38.3 540.032 35.9V27.1C540.032 24.7 539.349 22.7833 537.982 21.35C536.615 19.9167 534.699 19.2 532.232 19.2C529.799 19.2 527.882 19.9167 526.482 21.35C525.115 22.7833 524.432 24.7 524.432 27.1V35.9C524.432 38.3 525.115 40.2167 526.482 41.65C527.882 43.0833 529.799 43.8 532.232 43.8ZM552.421 49V14H564.971L571.921 44.5H572.821V14H579.321V49H566.771L559.821 18.5H558.921V49H552.421ZM598.067 49.7C595.367 49.7 592.984 49.2167 590.917 48.25C588.851 47.2833 587.234 45.9 586.067 44.1C584.901 42.3 584.317 40.1333 584.317 37.6V36.2H590.817V37.6C590.817 39.7 591.467 41.2833 592.767 42.35C594.067 43.3833 595.834 43.9 598.067 43.9C600.334 43.9 602.017 43.45 603.117 42.55C604.251 41.65 604.817 40.5 604.817 39.1C604.817 38.1333 604.534 37.35 603.967 36.75C603.434 36.15 602.634 35.6667 601.567 35.3C600.534 34.9 599.267 34.5333 597.767 34.2L596.617 33.95C594.217 33.4167 592.151 32.75 590.417 31.95C588.717 31.1167 587.401 30.0333 586.467 28.7C585.567 27.3667 585.117 25.6333 585.117 23.5C585.117 21.3667 585.617 19.55 586.617 18.05C587.651 16.5167 589.084 15.35 590.917 14.55C592.784 13.7167 594.967 13.3 597.467 13.3C599.967 13.3 602.184 13.7333 604.117 14.6C606.084 15.4333 607.617 16.7 608.717 18.4C609.851 20.0667 610.417 22.1667 610.417 24.7V26.2H603.917V24.7C603.917 23.3667 603.651 22.3 603.117 21.5C602.617 20.6667 601.884 20.0667 600.917 19.7C599.951 19.3 598.801 19.1 597.467 19.1C595.467 19.1 593.984 19.4833 593.017 20.25C592.084 20.9833 591.617 22 591.617 23.3C591.617 24.1667 591.834 24.9 592.267 25.5C592.734 26.1 593.417 26.6 594.317 27C595.217 27.4 596.367 27.75 597.767 28.05L598.917 28.3C601.417 28.8333 603.584 29.5167 605.417 30.35C607.284 31.1833 608.734 32.2833 609.767 33.65C610.801 35.0167 611.317 36.7667 611.317 38.9C611.317 41.0333 610.767 42.9167 609.667 44.55C608.601 46.15 607.067 47.4167 605.067 48.35C603.101 49.25 600.767 49.7 598.067 49.7Z"/>
</mask>
<path d="M16.9 49.7C12.5 49.7 9 48.5 6.4 46.1C3.8 43.6667 2.5 40.2 2.5 35.7V27.3C2.5 22.8 3.8 19.35 6.4 16.95C9 14.5167 12.5 13.3 16.9 13.3C21.3 13.3 24.8 14.5167 27.4 16.95C30 19.35 31.3 22.8 31.3 27.3V35.7C31.3 40.2 30 43.6667 27.4 46.1C24.8 48.5 21.3 49.7 16.9 49.7ZM16.9 43.8C19.3667 43.8 21.2833 43.0833 22.65 41.65C24.0167 40.2167 24.7 38.3 24.7 35.9V27.1C24.7 24.7 24.0167 22.7833 22.65 21.35C21.2833 19.9167 19.3667 19.2 16.9 19.2C14.4667 19.2 12.55 19.9167 11.15 21.35C9.78333 22.7833 9.1 24.7 9.1 27.1V35.9C9.1 38.3 9.78333 40.2167 11.15 41.65C12.55 43.0833 14.4667 43.8 16.9 43.8ZM43.773 49V20H33.573V14H60.573V20H50.373V49H43.773ZM65.0676 49V14H71.6676V28.45H84.6676V14H91.2676V49H84.6676V34.45H71.6676V49H65.0676ZM97.8801 49V14H120.38V20H104.48V28.35H118.98V34.35H104.48V43H120.68V49H97.8801ZM125.566 49V14H140.766C142.966 14 144.882 14.3833 146.516 15.15C148.149 15.9167 149.416 17 150.316 18.4C151.216 19.8 151.666 21.45 151.666 23.35V23.95C151.666 26.05 151.166 27.75 150.166 29.05C149.166 30.35 147.932 31.3 146.466 31.9V32.8C147.799 32.8667 148.832 33.3333 149.566 34.2C150.299 35.0333 150.666 36.15 150.666 37.55V49H144.066V38.5C144.066 37.7 143.849 37.05 143.416 36.55C143.016 36.05 142.332 35.8 141.366 35.8H132.166V49H125.566ZM132.166 29.8H140.066C141.632 29.8 142.849 29.3833 143.716 28.55C144.616 27.6833 145.066 26.55 145.066 25.15V24.65C145.066 23.25 144.632 22.1333 143.766 21.3C142.899 20.4333 141.666 20 140.066 20H132.166V29.8ZM165.753 59L180.453 14H186.753L172.053 59H165.753ZM201.933 49V14H214.183L220.233 44.5H221.133L227.183 14H239.433V49H233.033V18.85H232.133L226.133 49H215.233L209.233 18.85H208.333V49H201.933ZM259.625 49.7C255.225 49.7 251.725 48.5 249.125 46.1C246.525 43.6667 245.225 40.2 245.225 35.7V27.3C245.225 22.8 246.525 19.35 249.125 16.95C251.725 14.5167 255.225 13.3 259.625 13.3C264.025 13.3 267.525 14.5167 270.125 16.95C272.725 19.35 274.025 22.8 274.025 27.3V35.7C274.025 40.2 272.725 43.6667 270.125 46.1C267.525 48.5 264.025 49.7 259.625 49.7ZM259.625 43.8C262.091 43.8 264.008 43.0833 265.375 41.65C266.741 40.2167 267.425 38.3 267.425 35.9V27.1C267.425 24.7 266.741 22.7833 265.375 21.35C264.008 19.9167 262.091 19.2 259.625 19.2C257.191 19.2 255.275 19.9167 253.875 21.35C252.508 22.7833 251.825 24.7 251.825 27.1V35.9C251.825 38.3 252.508 40.2167 253.875 41.65C255.275 43.0833 257.191 43.8 259.625 43.8ZM279.814 49V14H295.014C297.214 14 299.13 14.3833 300.764 15.15C302.397 15.9167 303.664 17 304.564 18.4C305.464 19.8 305.914 21.45 305.914 23.35V23.95C305.914 26.05 305.414 27.75 304.414 29.05C303.414 30.35 302.18 31.3 300.714 31.9V32.8C302.047 32.8667 303.08 33.3333 303.814 34.2C304.547 35.0333 304.914 36.15 304.914 37.55V49H298.314V38.5C298.314 37.7 298.097 37.05 297.664 36.55C297.264 36.05 296.58 35.8 295.614 35.8H286.414V49H279.814ZM286.414 29.8H294.314C295.88 29.8 297.097 29.3833 297.964 28.55C298.864 27.6833 299.314 26.55 299.314 25.15V24.65C299.314 23.25 298.88 22.1333 298.014 21.3C297.147 20.4333 295.914 20 294.314 20H286.414V29.8ZM311.405 49V14H333.905V20H318.005V28.35H332.505V34.35H318.005V43H334.205V49H311.405ZM623.389 37.5V36.3C623.389 34.6 623.723 33.2 624.389 32.1C625.089 31 626.206 30.0833 627.739 29.35L628.589 28.95C630.089 28.25 631.239 27.5 632.039 26.7C632.839 25.9 633.239 24.8333 633.239 23.5C633.239 22.5333 632.989 21.7167 632.489 21.05C632.023 20.35 631.356 19.8167 630.489 19.45C629.623 19.0833 628.606 18.9 627.439 18.9C626.239 18.9 625.156 19.1 624.189 19.5C623.256 19.9 622.506 20.5 621.939 21.3C621.406 22.1 621.139 23.1 621.139 24.3V25.4H614.639V24.4C614.639 22.1 615.206 20.1167 616.339 18.45C617.473 16.7833 619.006 15.5167 620.939 14.65C622.873 13.75 625.039 13.3 627.439 13.3C629.806 13.3 631.906 13.7333 633.739 14.6C635.606 15.4667 637.073 16.6667 638.139 18.2C639.206 19.7333 639.739 21.5 639.739 23.5C639.739 25.5 639.373 27.15 638.639 28.45C637.906 29.7167 636.973 30.75 635.839 31.55C634.739 32.3167 633.606 32.9833 632.439 33.55L631.589 33.95C630.989 34.2167 630.573 34.55 630.339 34.95C630.106 35.3167 629.989 35.8667 629.989 36.6V37.5H623.389ZM626.889 49.7C625.556 49.7 624.423 49.2667 623.489 48.4C622.589 47.5 622.139 46.35 622.139 44.95C622.139 43.55 622.589 42.4167 623.489 41.55C624.423 40.65 625.556 40.2 626.889 40.2C628.256 40.2 629.389 40.65 630.289 41.55C631.189 42.4167 631.639 43.55 631.639 44.95C631.639 46.35 631.189 47.5 630.289 48.4C629.389 49.2667 628.256 49.7 626.889 49.7Z" fill="#68CABF"/>
<path d="M365.386 49.7C360.986 49.7 357.486 48.5 354.886 46.1C352.286 43.6667 350.986 40.2 350.986 35.7V27.3C350.986 22.8 352.286 19.35 354.886 16.95C357.486 14.5167 360.986 13.3 365.386 13.3C369.786 13.3 373.286 14.5167 375.886 16.95C378.486 19.35 379.786 22.8 379.786 27.3V35.7C379.786 40.2 378.486 43.6667 375.886 46.1C373.286 48.5 369.786 49.7 365.386 49.7ZM365.386 43.8C367.853 43.8 369.77 43.0833 371.136 41.65C372.503 40.2167 373.186 38.3 373.186 35.9V27.1C373.186 24.7 372.503 22.7833 371.136 21.35C369.77 19.9167 367.853 19.2 365.386 19.2C362.953 19.2 361.036 19.9167 359.636 21.35C358.27 22.7833 357.586 24.7 357.586 27.1V35.9C357.586 38.3 358.27 40.2167 359.636 41.65C361.036 43.0833 362.953 43.8 365.386 43.8ZM367.686 58C366.053 58 364.72 57.4833 363.686 56.45C362.686 55.45 362.186 54.1 362.186 52.4V49H368.586V51.4C368.586 52.4 369.053 52.9 369.986 52.9H372.936V58H367.686ZM399.075 49.7C396.209 49.7 393.742 49.1833 391.675 48.15C389.642 47.0833 388.075 45.5833 386.975 43.65C385.909 41.6833 385.375 39.3667 385.375 36.7V14H391.975V36.9C391.975 39.0333 392.575 40.7167 393.775 41.95C395.009 43.1833 396.775 43.8 399.075 43.8C401.375 43.8 403.125 43.1833 404.325 41.95C405.559 40.7167 406.175 39.0333 406.175 36.9V14H412.775V36.7C412.775 39.3667 412.225 41.6833 411.125 43.65C410.059 45.5833 408.492 47.0833 406.425 48.15C404.392 49.1833 401.942 49.7 399.075 49.7ZM419.169 49V14H441.669V20H425.769V28.35H440.269V34.35H425.769V43H441.969V49H419.169ZM459.005 49.7C456.305 49.7 453.921 49.2167 451.855 48.25C449.788 47.2833 448.171 45.9 447.005 44.1C445.838 42.3 445.255 40.1333 445.255 37.6V36.2H451.755V37.6C451.755 39.7 452.405 41.2833 453.705 42.35C455.005 43.3833 456.771 43.9 459.005 43.9C461.271 43.9 462.955 43.45 464.055 42.55C465.188 41.65 465.755 40.5 465.755 39.1C465.755 38.1333 465.471 37.35 464.905 36.75C464.371 36.15 463.571 35.6667 462.505 35.3C461.471 34.9 460.205 34.5333 458.705 34.2L457.555 33.95C455.155 33.4167 453.088 32.75 451.355 31.95C449.655 31.1167 448.338 30.0333 447.405 28.7C446.505 27.3667 446.055 25.6333 446.055 23.5C446.055 21.3667 446.555 19.55 447.555 18.05C448.588 16.5167 450.021 15.35 451.855 14.55C453.721 13.7167 455.905 13.3 458.405 13.3C460.905 13.3 463.121 13.7333 465.055 14.6C467.021 15.4333 468.555 16.7 469.655 18.4C470.788 20.0667 471.355 22.1667 471.355 24.7V26.2H464.855V24.7C464.855 23.3667 464.588 22.3 464.055 21.5C463.555 20.6667 462.821 20.0667 461.855 19.7C460.888 19.3 459.738 19.1 458.405 19.1C456.405 19.1 454.921 19.4833 453.955 20.25C453.021 20.9833 452.555 22 452.555 23.3C452.555 24.1667 452.771 24.9 453.205 25.5C453.671 26.1 454.355 26.6 455.255 27C456.155 27.4 457.305 27.75 458.705 28.05L459.855 28.3C462.355 28.8333 464.521 29.5167 466.355 30.35C468.221 31.1833 469.671 32.2833 470.705 33.65C471.738 35.0167 472.255 36.7667 472.255 38.9C472.255 41.0333 471.705 42.9167 470.605 44.55C469.538 46.15 468.005 47.4167 466.005 48.35C464.038 49.25 461.705 49.7 459.005 49.7ZM484.154 49V20H473.954V14H500.954V20H490.754V49H484.154ZM505.448 49V14H512.048V49H505.448ZM532.232 49.7C527.832 49.7 524.332 48.5 521.732 46.1C519.132 43.6667 517.832 40.2 517.832 35.7V27.3C517.832 22.8 519.132 19.35 521.732 16.95C524.332 14.5167 527.832 13.3 532.232 13.3C536.632 13.3 540.132 14.5167 542.732 16.95C545.332 19.35 546.632 22.8 546.632 27.3V35.7C546.632 40.2 545.332 43.6667 542.732 46.1C540.132 48.5 536.632 49.7 532.232 49.7ZM532.232 43.8C534.699 43.8 536.615 43.0833 537.982 41.65C539.349 40.2167 540.032 38.3 540.032 35.9V27.1C540.032 24.7 539.349 22.7833 537.982 21.35C536.615 19.9167 534.699 19.2 532.232 19.2C529.799 19.2 527.882 19.9167 526.482 21.35C525.115 22.7833 524.432 24.7 524.432 27.1V35.9C524.432 38.3 525.115 40.2167 526.482 41.65C527.882 43.0833 529.799 43.8 532.232 43.8ZM552.421 49V14H564.971L571.921 44.5H572.821V14H579.321V49H566.771L559.821 18.5H558.921V49H552.421ZM598.067 49.7C595.367 49.7 592.984 49.2167 590.917 48.25C588.851 47.2833 587.234 45.9 586.067 44.1C584.901 42.3 584.317 40.1333 584.317 37.6V36.2H590.817V37.6C590.817 39.7 591.467 41.2833 592.767 42.35C594.067 43.3833 595.834 43.9 598.067 43.9C600.334 43.9 602.017 43.45 603.117 42.55C604.251 41.65 604.817 40.5 604.817 39.1C604.817 38.1333 604.534 37.35 603.967 36.75C603.434 36.15 602.634 35.6667 601.567 35.3C600.534 34.9 599.267 34.5333 597.767 34.2L596.617 33.95C594.217 33.4167 592.151 32.75 590.417 31.95C588.717 31.1167 587.401 30.0333 586.467 28.7C585.567 27.3667 585.117 25.6333 585.117 23.5C585.117 21.3667 585.617 19.55 586.617 18.05C587.651 16.5167 589.084 15.35 590.917 14.55C592.784 13.7167 594.967 13.3 597.467 13.3C599.967 13.3 602.184 13.7333 604.117 14.6C606.084 15.4333 607.617 16.7 608.717 18.4C609.851 20.0667 610.417 22.1667 610.417 24.7V26.2H603.917V24.7C603.917 23.3667 603.651 22.3 603.117 21.5C602.617 20.6667 601.884 20.0667 600.917 19.7C599.951 19.3 598.801 19.1 597.467 19.1C595.467 19.1 593.984 19.4833 593.017 20.25C592.084 20.9833 591.617 22 591.617 23.3C591.617 24.1667 591.834 24.9 592.267 25.5C592.734 26.1 593.417 26.6 594.317 27C595.217 27.4 596.367 27.75 597.767 28.05L598.917 28.3C601.417 28.8333 603.584 29.5167 605.417 30.35C607.284 31.1833 608.734 32.2833 609.767 33.65C610.801 35.0167 611.317 36.7667 611.317 38.9C611.317 41.0333 610.767 42.9167 609.667 44.55C608.601 46.15 607.067 47.4167 605.067 48.35C603.101 49.25 600.767 49.7 598.067 49.7Z" fill="#AEEFFF"/>
<path d="M6.4 46.1L5.71667 46.8301L5.72172 46.8348L6.4 46.1ZM6.4 16.95L7.0783 17.6848L7.08332 17.6801L6.4 16.95ZM27.4 16.95L26.7167 17.6801L26.7217 17.6848L27.4 16.95ZM27.4 46.1L28.0783 46.8348L28.0833 46.8301L27.4 46.1ZM22.65 41.65L21.9263 40.9599L21.9263 40.9599L22.65 41.65ZM22.65 21.35L21.9263 22.0401L21.9263 22.0401L22.65 21.35ZM11.15 21.35L10.4346 20.6512L10.4263 20.6599L11.15 21.35ZM11.15 41.65L10.4262 42.3401L10.4346 42.3487L11.15 41.65ZM16.9 48.7C12.6874 48.7 9.45138 47.5557 7.07828 45.3652L5.72172 46.8348C8.54863 49.4443 12.3126 50.7 16.9 50.7V48.7ZM7.08332 45.3699C4.73577 43.1728 3.5 40.0009 3.5 35.7H1.5C1.5 40.3991 2.86423 44.1605 5.71668 46.8301L7.08332 45.3699ZM3.5 35.7V27.3H1.5V35.7H3.5ZM3.5 27.3C3.5 22.9984 4.73596 19.8469 7.07828 17.6848L5.72172 16.2152C2.86404 18.8531 1.5 22.6016 1.5 27.3H3.5ZM7.08332 17.6801C9.45681 15.4588 12.691 14.3 16.9 14.3V12.3C12.309 12.3 8.54319 13.5746 5.71668 16.2199L7.08332 17.6801ZM16.9 14.3C21.109 14.3 24.3432 15.4588 26.7167 17.6801L28.0833 16.2199C25.2568 13.5746 21.491 12.3 16.9 12.3V14.3ZM26.7217 17.6848C29.064 19.8469 30.3 22.9984 30.3 27.3H32.3C32.3 22.6016 30.936 18.8531 28.0783 16.2152L26.7217 17.6848ZM30.3 27.3V35.7H32.3V27.3H30.3ZM30.3 35.7C30.3 40.0009 29.0642 43.1728 26.7167 45.3699L28.0833 46.8301C30.9358 44.1605 32.3 40.3991 32.3 35.7H30.3ZM26.7217 45.3652C24.3486 47.5557 21.1126 48.7 16.9 48.7V50.7C21.4874 50.7 25.2514 49.4443 28.0783 46.8348L26.7217 45.3652ZM16.9 44.8C19.5686 44.8 21.7741 44.0177 23.3737 42.3401L21.9263 40.9599C20.7926 42.1489 19.1647 42.8 16.9 42.8V44.8ZM23.3737 42.3401C24.9539 40.6828 25.7 38.4993 25.7 35.9H23.7C23.7 38.1007 23.0794 39.7505 21.9263 40.9599L23.3737 42.3401ZM25.7 35.9V27.1H23.7V35.9H25.7ZM25.7 27.1C25.7 24.5007 24.9539 22.3172 23.3737 20.6599L21.9263 22.0401C23.0794 23.2495 23.7 24.8993 23.7 27.1H25.7ZM23.3737 20.6599C21.7741 18.9823 19.5686 18.2 16.9 18.2V20.2C19.1647 20.2 20.7926 20.8511 21.9263 22.0401L23.3737 20.6599ZM16.9 18.2C14.2592 18.2 12.062 18.9851 10.4346 20.6513L11.8654 22.0487C13.038 20.8482 14.6742 20.2 16.9 20.2V18.2ZM10.4263 20.6599C8.84611 22.3172 8.1 24.5007 8.1 27.1H10.1C10.1 24.8993 10.7206 23.2495 11.8737 22.0401L10.4263 20.6599ZM8.1 27.1V35.9H10.1V27.1H8.1ZM8.1 35.9C8.1 38.4993 8.84611 40.6828 10.4263 42.3401L11.8737 40.9599C10.7206 39.7505 10.1 38.1007 10.1 35.9H8.1ZM10.4346 42.3487C12.062 44.0149 14.2592 44.8 16.9 44.8V42.8C14.6742 42.8 13.038 42.1518 11.8654 40.9513L10.4346 42.3487ZM43.773 49H42.773V50H43.773V49ZM43.773 20H44.773V19H43.773V20ZM33.573 20H32.573V21H33.573V20ZM33.573 14V13H32.573V14H33.573ZM60.573 14H61.573V13H60.573V14ZM60.573 20V21H61.573V20H60.573ZM50.373 20V19H49.373V20H50.373ZM50.373 49V50H51.373V49H50.373ZM44.773 49V20H42.773V49H44.773ZM43.773 19H33.573V21H43.773V19ZM34.573 20V14H32.573V20H34.573ZM33.573 15H60.573V13H33.573V15ZM59.573 14V20H61.573V14H59.573ZM60.573 19H50.373V21H60.573V19ZM49.373 20V49H51.373V20H49.373ZM50.373 48H43.773V50H50.373V48ZM65.0676 49H64.0676V50H65.0676V49ZM65.0676 14V13H64.0676V14H65.0676ZM71.6676 14H72.6676V13H71.6676V14ZM71.6676 28.45H70.6676V29.45H71.6676V28.45ZM84.6676 28.45V29.45H85.6676V28.45H84.6676ZM84.6676 14V13H83.6676V14H84.6676ZM91.2676 14H92.2676V13H91.2676V14ZM91.2676 49V50H92.2676V49H91.2676ZM84.6676 49H83.6676V50H84.6676V49ZM84.6676 34.45H85.6676V33.45H84.6676V34.45ZM71.6676 34.45V33.45H70.6676V34.45H71.6676ZM71.6676 49V50H72.6676V49H71.6676ZM66.0676 49V14H64.0676V49H66.0676ZM65.0676 15H71.6676V13H65.0676V15ZM70.6676 14V28.45H72.6676V14H70.6676ZM71.6676 29.45H84.6676V27.45H71.6676V29.45ZM85.6676 28.45V14H83.6676V28.45H85.6676ZM84.6676 15H91.2676V13H84.6676V15ZM90.2676 14V49H92.2676V14H90.2676ZM91.2676 48H84.6676V50H91.2676V48ZM85.6676 49V34.45H83.6676V49H85.6676ZM84.6676 33.45H71.6676V35.45H84.6676V33.45ZM70.6676 34.45V49H72.6676V34.45H70.6676ZM71.6676 48H65.0676V50H71.6676V48ZM97.8801 49H96.8801V50H97.8801V49ZM97.8801 14V13H96.8801V14H97.8801ZM120.38 14H121.38V13H120.38V14ZM120.38 20V21H121.38V20H120.38ZM104.48 20V19H103.48V20H104.48ZM104.48 28.35H103.48V29.35H104.48V28.35ZM118.98 28.35H119.98V27.35H118.98V28.35ZM118.98 34.35V35.35H119.98V34.35H118.98ZM104.48 34.35V33.35H103.48V34.35H104.48ZM104.48 43H103.48V44H104.48V43ZM120.68 43H121.68V42H120.68V43ZM120.68 49V50H121.68V49H120.68ZM98.8801 49V14H96.8801V49H98.8801ZM97.8801 15H120.38V13H97.8801V15ZM119.38 14V20H121.38V14H119.38ZM120.38 19H104.48V21H120.38V19ZM103.48 20V28.35H105.48V20H103.48ZM104.48 29.35H118.98V27.35H104.48V29.35ZM117.98 28.35V34.35H119.98V28.35H117.98ZM118.98 33.35H104.48V35.35H118.98V33.35ZM103.48 34.35V43H105.48V34.35H103.48ZM104.48 44H120.68V42H104.48V44ZM119.68 43V49H121.68V43H119.68ZM120.68 48H97.8801V50H120.68V48ZM125.566 49H124.566V50H125.566V49ZM125.566 14V13H124.566V14H125.566ZM146.516 15.15L146.091 16.0552L146.091 16.0552L146.516 15.15ZM150.316 18.4L151.157 17.8592L151.157 17.8592L150.316 18.4ZM150.166 29.05L150.958 29.6597L150.958 29.6597L150.166 29.05ZM146.466 31.9L146.087 30.9745L145.466 31.2286V31.9H146.466ZM146.466 32.8H145.466V33.7512L146.416 33.7988L146.466 32.8ZM149.566 34.2L148.802 34.8459L148.809 34.8533L148.815 34.8606L149.566 34.2ZM150.666 49V50H151.666V49H150.666ZM144.066 49H143.066V50H144.066V49ZM143.416 36.55L142.635 37.1747L142.647 37.1901L142.66 37.2049L143.416 36.55ZM132.166 35.8V34.8H131.166V35.8H132.166ZM132.166 49V50H133.166V49H132.166ZM132.166 29.8H131.166V30.8H132.166V29.8ZM143.716 28.55L144.409 29.2708L144.409 29.2703L143.716 28.55ZM143.766 21.3L143.059 22.0071L143.065 22.014L143.073 22.0208L143.766 21.3ZM132.166 20V19H131.166V20H132.166ZM126.566 49V14H124.566V49H126.566ZM125.566 15H140.766V13H125.566V15ZM140.766 15C142.85 15 144.616 15.3631 146.091 16.0552L146.941 14.2448C145.148 13.4035 143.081 13 140.766 13V15ZM146.091 16.0552C147.569 16.749 148.685 17.7123 149.474 18.9408L151.157 17.8592C150.147 16.2877 148.729 15.0844 146.941 14.2448L146.091 16.0552ZM149.474 18.9408C150.257 20.1575 150.666 21.6139 150.666 23.35H152.666C152.666 21.2861 152.175 19.4425 151.157 17.8592L149.474 18.9408ZM150.666 23.35V23.95H152.666V23.35H150.666ZM150.666 23.95C150.666 25.8919 150.205 27.3589 149.373 28.4403L150.958 29.6597C152.126 28.1411 152.666 26.2081 152.666 23.95H150.666ZM149.373 28.4403C148.477 29.6054 147.384 30.4437 146.087 30.9745L146.844 32.8255C148.48 32.1563 149.855 31.0946 150.958 29.6597L149.373 28.4403ZM145.466 31.9V32.8H147.466V31.9H145.466ZM146.416 33.7988C147.526 33.8542 148.279 34.2278 148.802 34.8459L150.329 33.5541C149.385 32.4388 148.072 31.8791 146.516 31.8012L146.416 33.7988ZM148.815 34.8606C149.349 35.4675 149.666 36.3276 149.666 37.55H151.666C151.666 35.9724 151.249 34.5992 150.316 33.5394L148.815 34.8606ZM149.666 37.55V49H151.666V37.55H149.666ZM150.666 48H144.066V50H150.666V48ZM145.066 49V38.5H143.066V49H145.066ZM145.066 38.5C145.066 37.512 144.794 36.613 144.171 35.8951L142.66 37.2049C142.904 37.487 143.066 37.888 143.066 38.5H145.066ZM144.196 35.9253C143.526 35.0872 142.478 34.8 141.366 34.8V36.8C142.187 36.8 142.505 37.0128 142.635 37.1747L144.196 35.9253ZM141.366 34.8H132.166V36.8H141.366V34.8ZM131.166 35.8V49H133.166V35.8H131.166ZM132.166 48H125.566V50H132.166V48ZM132.166 30.8H140.066V28.8H132.166V30.8ZM140.066 30.8C141.81 30.8 143.305 30.3325 144.409 29.2708L143.023 27.8292C142.393 28.4341 141.455 28.8 140.066 28.8V30.8ZM144.409 29.2703C145.53 28.1916 146.066 26.7858 146.066 25.15H144.066C144.066 26.3142 143.702 27.1751 143.022 27.8297L144.409 29.2703ZM146.066 25.15V24.65H144.066V25.15H146.066ZM146.066 24.65C146.066 23.0266 145.554 21.6323 144.459 20.5792L143.073 22.0208C143.711 22.6344 144.066 23.4734 144.066 24.65H146.066ZM144.473 20.5929C143.366 19.4865 141.847 19 140.066 19V21C141.485 21 142.432 21.3802 143.059 22.0071L144.473 20.5929ZM140.066 19H132.166V21H140.066V19ZM131.166 20V29.8H133.166V20H131.166ZM165.753 59L164.802 58.6895L164.374 60H165.753V59ZM180.453 14V13H179.727L179.502 13.6895L180.453 14ZM186.753 14L187.703 14.3105L188.131 13H186.753V14ZM172.053 59V60H172.778L173.003 59.3105L172.053 59ZM166.703 59.3105L181.403 14.3105L179.502 13.6895L164.802 58.6895L166.703 59.3105ZM180.453 15H186.753V13H180.453V15ZM185.802 13.6895L171.102 58.6895L173.003 59.3105L187.703 14.3105L185.802 13.6895ZM172.053 58H165.753V60H172.053V58ZM201.933 49H200.933V50H201.933V49ZM201.933 14V13H200.933V14H201.933ZM214.183 14L215.164 13.8054L215.004 13H214.183V14ZM220.233 44.5L219.252 44.6946L219.412 45.5H220.233V44.5ZM221.133 44.5V45.5H221.954L222.114 44.6946L221.133 44.5ZM227.183 14V13H226.362L226.202 13.8054L227.183 14ZM239.433 14H240.433V13H239.433V14ZM239.433 49V50H240.433V49H239.433ZM233.033 49H232.033V50H233.033V49ZM233.033 18.85H234.033V17.85H233.033V18.85ZM232.133 18.85V17.85H231.312L231.152 18.6548L232.133 18.85ZM226.133 49V50H226.953L227.114 49.1952L226.133 49ZM215.233 49L214.252 49.1952L214.412 50H215.233V49ZM209.233 18.85L210.214 18.6548L210.053 17.85H209.233V18.85ZM208.333 18.85V17.85H207.333V18.85H208.333ZM208.333 49V50H209.333V49H208.333ZM202.933 49V14H200.933V49H202.933ZM201.933 15H214.183V13H201.933V15ZM213.202 14.1946L219.252 44.6946L221.214 44.3054L215.164 13.8054L213.202 14.1946ZM220.233 45.5H221.133V43.5H220.233V45.5ZM222.114 44.6946L228.164 14.1946L226.202 13.8054L220.152 44.3054L222.114 44.6946ZM227.183 15H239.433V13H227.183V15ZM238.433 14V49H240.433V14H238.433ZM239.433 48H233.033V50H239.433V48ZM234.033 49V18.85H232.033V49H234.033ZM233.033 17.85H232.133V19.85H233.033V17.85ZM231.152 18.6548L225.152 48.8048L227.114 49.1952L233.114 19.0452L231.152 18.6548ZM226.133 48H215.233V50H226.133V48ZM216.214 48.8048L210.214 18.6548L208.252 19.0452L214.252 49.1952L216.214 48.8048ZM209.233 17.85H208.333V19.85H209.233V17.85ZM207.333 18.85V49H209.333V18.85H207.333ZM208.333 48H201.933V50H208.333V48ZM249.125 46.1L248.441 46.8301L248.446 46.8348L249.125 46.1ZM249.125 16.95L249.803 17.6848L249.808 17.6801L249.125 16.95ZM270.125 16.95L269.441 17.6801L269.446 17.6848L270.125 16.95ZM270.125 46.1L270.803 46.8348L270.808 46.8301L270.125 46.1ZM265.375 41.65L264.651 40.9599L264.651 40.9599L265.375 41.65ZM265.375 21.35L264.651 22.0401L264.651 22.0401L265.375 21.35ZM253.875 21.35L253.159 20.6512L253.151 20.6599L253.875 21.35ZM253.875 41.65L253.151 42.3401L253.159 42.3487L253.875 41.65ZM259.625 48.7C255.412 48.7 252.176 47.5557 249.803 45.3652L248.446 46.8348C251.273 49.4443 255.037 50.7 259.625 50.7V48.7ZM249.808 45.3699C247.46 43.1728 246.225 40.0009 246.225 35.7H244.225C244.225 40.3991 245.589 44.1605 248.441 46.8301L249.808 45.3699ZM246.225 35.7V27.3H244.225V35.7H246.225ZM246.225 27.3C246.225 22.9984 247.461 19.8469 249.803 17.6848L248.446 16.2152C245.589 18.8531 244.225 22.6016 244.225 27.3H246.225ZM249.808 17.6801C252.181 15.4588 255.416 14.3 259.625 14.3V12.3C255.034 12.3 251.268 13.5746 248.441 16.2199L249.808 17.6801ZM259.625 14.3C263.834 14.3 267.068 15.4588 269.441 17.6801L270.808 16.2199C267.981 13.5746 264.216 12.3 259.625 12.3V14.3ZM269.446 17.6848C271.789 19.8469 273.025 22.9984 273.025 27.3H275.025C275.025 22.6016 273.661 18.8531 270.803 16.2152L269.446 17.6848ZM273.025 27.3V35.7H275.025V27.3H273.025ZM273.025 35.7C273.025 40.0009 271.789 43.1728 269.441 45.3699L270.808 46.8301C273.66 44.1605 275.025 40.3991 275.025 35.7H273.025ZM269.446 45.3652C267.073 47.5557 263.837 48.7 259.625 48.7V50.7C264.212 50.7 267.976 49.4443 270.803 46.8348L269.446 45.3652ZM259.625 44.8C262.293 44.8 264.499 44.0177 266.098 42.3401L264.651 40.9599C263.517 42.1489 261.889 42.8 259.625 42.8V44.8ZM266.098 42.3401C267.679 40.6828 268.425 38.4993 268.425 35.9H266.425C266.425 38.1007 265.804 39.7505 264.651 40.9599L266.098 42.3401ZM268.425 35.9V27.1H266.425V35.9H268.425ZM268.425 27.1C268.425 24.5007 267.679 22.3172 266.098 20.6599L264.651 22.0401C265.804 23.2495 266.425 24.8993 266.425 27.1H268.425ZM266.098 20.6599C264.499 18.9823 262.293 18.2 259.625 18.2V20.2C261.889 20.2 263.517 20.8511 264.651 22.0401L266.098 20.6599ZM259.625 18.2C256.984 18.2 254.787 18.9851 253.159 20.6513L254.59 22.0487C255.763 20.8482 257.399 20.2 259.625 20.2V18.2ZM253.151 20.6599C251.571 22.3172 250.825 24.5007 250.825 27.1H252.825C252.825 24.8993 253.445 23.2495 254.598 22.0401L253.151 20.6599ZM250.825 27.1V35.9H252.825V27.1H250.825ZM250.825 35.9C250.825 38.4993 251.571 40.6828 253.151 42.3401L254.598 40.9599C253.445 39.7505 252.825 38.1007 252.825 35.9H250.825ZM253.159 42.3487C254.787 44.0149 256.984 44.8 259.625 44.8V42.8C257.399 42.8 255.763 42.1518 254.59 40.9513L253.159 42.3487ZM279.814 49H278.814V50H279.814V49ZM279.814 14V13H278.814V14H279.814ZM300.764 15.15L300.339 16.0552L300.339 16.0552L300.764 15.15ZM304.564 18.4L305.405 17.8592L305.405 17.8592L304.564 18.4ZM304.414 29.05L305.206 29.6597L305.206 29.6597L304.414 29.05ZM300.714 31.9L300.335 30.9745L299.714 31.2286V31.9H300.714ZM300.714 32.8H299.714V33.7512L300.664 33.7988L300.714 32.8ZM303.814 34.2L303.05 34.8459L303.057 34.8533L303.063 34.8606L303.814 34.2ZM304.914 49V50H305.914V49H304.914ZM298.314 49H297.314V50H298.314V49ZM297.664 36.55L296.883 37.1747L296.895 37.1901L296.908 37.2049L297.664 36.55ZM286.414 35.8V34.8H285.414V35.8H286.414ZM286.414 49V50H287.414V49H286.414ZM286.414 29.8H285.414V30.8H286.414V29.8ZM297.964 28.55L298.657 29.2708L298.657 29.2703L297.964 28.55ZM298.014 21.3L297.307 22.0071L297.313 22.014L297.321 22.0208L298.014 21.3ZM286.414 20V19H285.414V20H286.414ZM280.814 49V14H278.814V49H280.814ZM279.814 15H295.014V13H279.814V15ZM295.014 15C297.098 15 298.864 15.3631 300.339 16.0552L301.189 14.2448C299.396 13.4035 297.329 13 295.014 13V15ZM300.339 16.0552C301.817 16.749 302.933 17.7123 303.722 18.9408L305.405 17.8592C304.395 16.2877 302.977 15.0844 301.189 14.2448L300.339 16.0552ZM303.722 18.9408C304.505 20.1575 304.914 21.6139 304.914 23.35H306.914C306.914 21.2861 306.423 19.4425 305.405 17.8592L303.722 18.9408ZM304.914 23.35V23.95H306.914V23.35H304.914ZM304.914 23.95C304.914 25.8919 304.453 27.3589 303.621 28.4403L305.206 29.6597C306.374 28.1411 306.914 26.2081 306.914 23.95H304.914ZM303.621 28.4403C302.725 29.6054 301.632 30.4437 300.335 30.9745L301.092 32.8255C302.728 32.1563 304.103 31.0946 305.206 29.6597L303.621 28.4403ZM299.714 31.9V32.8H301.714V31.9H299.714ZM300.664 33.7988C301.774 33.8542 302.527 34.2278 303.05 34.8459L304.577 33.5541C303.633 32.4388 302.32 31.8791 300.764 31.8012L300.664 33.7988ZM303.063 34.8606C303.597 35.4675 303.914 36.3276 303.914 37.55H305.914C305.914 35.9724 305.497 34.5992 304.564 33.5394L303.063 34.8606ZM303.914 37.55V49H305.914V37.55H303.914ZM304.914 48H298.314V50H304.914V48ZM299.314 49V38.5H297.314V49H299.314ZM299.314 38.5C299.314 37.512 299.042 36.613 298.419 35.8951L296.908 37.2049C297.152 37.487 297.314 37.888 297.314 38.5H299.314ZM298.445 35.9253C297.774 35.0872 296.726 34.8 295.614 34.8V36.8C296.435 36.8 296.753 37.0128 296.883 37.1747L298.445 35.9253ZM295.614 34.8H286.414V36.8H295.614V34.8ZM285.414 35.8V49H287.414V35.8H285.414ZM286.414 48H279.814V50H286.414V48ZM286.414 30.8H294.314V28.8H286.414V30.8ZM294.314 30.8C296.058 30.8 297.553 30.3325 298.657 29.2708L297.271 27.8292C296.641 28.4341 295.703 28.8 294.314 28.8V30.8ZM298.657 29.2703C299.778 28.1916 300.314 26.7858 300.314 25.15H298.314C298.314 26.3142 297.95 27.1751 297.27 27.8297L298.657 29.2703ZM300.314 25.15V24.65H298.314V25.15H300.314ZM300.314 24.65C300.314 23.0266 299.802 21.6323 298.707 20.5792L297.321 22.0208C297.959 22.6344 298.314 23.4734 298.314 24.65H300.314ZM298.721 20.5929C297.614 19.4865 296.095 19 294.314 19V21C295.733 21 296.68 21.3802 297.307 22.0071L298.721 20.5929ZM294.314 19H286.414V21H294.314V19ZM285.414 20V29.8H287.414V20H285.414ZM311.405 49H310.405V50H311.405V49ZM311.405 14V13H310.405V14H311.405ZM333.905 14H334.905V13H333.905V14ZM333.905 20V21H334.905V20H333.905ZM318.005 20V19H317.005V20H318.005ZM318.005 28.35H317.005V29.35H318.005V28.35ZM332.505 28.35H333.505V27.35H332.505V28.35ZM332.505 34.35V35.35H333.505V34.35H332.505ZM318.005 34.35V33.35H317.005V34.35H318.005ZM318.005 43H317.005V44H318.005V43ZM334.205 43H335.205V42H334.205V43ZM334.205 49V50H335.205V49H334.205ZM312.405 49V14H310.405V49H312.405ZM311.405 15H333.905V13H311.405V15ZM332.905 14V20H334.905V14H332.905ZM333.905 19H318.005V21H333.905V19ZM317.005 20V28.35H319.005V20H317.005ZM318.005 29.35H332.505V27.35H318.005V29.35ZM331.505 28.35V34.35H333.505V28.35H331.505ZM332.505 33.35H318.005V35.35H332.505V33.35ZM317.005 34.35V43H319.005V34.35H317.005ZM318.005 44H334.205V42H318.005V44ZM333.205 43V49H335.205V43H333.205ZM334.205 48H311.405V50H334.205V48ZM354.886 46.1L354.203 46.8301L354.208 46.8348L354.886 46.1ZM354.886 16.95L355.565 17.6848L355.57 17.6801L354.886 16.95ZM375.886 16.95L375.203 17.6801L375.208 17.6848L375.886 16.95ZM375.886 46.1L376.565 46.8348L376.57 46.8301L375.886 46.1ZM371.136 41.65L370.413 40.9599L370.413 40.9599L371.136 41.65ZM371.136 21.35L370.413 22.0401L370.413 22.0401L371.136 21.35ZM359.636 21.35L358.921 20.6512L358.913 20.6599L359.636 21.35ZM359.636 41.65L358.913 42.3401L358.921 42.3487L359.636 41.65ZM363.686 56.45L364.393 55.7429L364.393 55.7429L363.686 56.45ZM362.186 49V48H361.186V49H362.186ZM368.586 49H369.586V48H368.586V49ZM372.936 52.9H373.936V51.9H372.936V52.9ZM372.936 58V59H373.936V58H372.936ZM365.386 48.7C361.174 48.7 357.938 47.5557 355.565 45.3652L354.208 46.8348C357.035 49.4443 360.799 50.7 365.386 50.7V48.7ZM355.57 45.3699C353.222 43.1728 351.986 40.0009 351.986 35.7H349.986C349.986 40.3991 351.351 44.1605 354.203 46.8301L355.57 45.3699ZM351.986 35.7V27.3H349.986V35.7H351.986ZM351.986 27.3C351.986 22.9984 353.222 19.8469 355.565 17.6848L354.208 16.2152C351.35 18.8531 349.986 22.6016 349.986 27.3H351.986ZM355.57 17.6801C357.943 15.4588 361.177 14.3 365.386 14.3V12.3C360.795 12.3 357.03 13.5746 354.203 16.2199L355.57 17.6801ZM365.386 14.3C369.595 14.3 372.83 15.4588 375.203 17.6801L376.57 16.2199C373.743 13.5746 369.977 12.3 365.386 12.3V14.3ZM375.208 17.6848C377.55 19.8469 378.786 22.9984 378.786 27.3H380.786C380.786 22.6016 379.422 18.8531 376.565 16.2152L375.208 17.6848ZM378.786 27.3V35.7H380.786V27.3H378.786ZM378.786 35.7C378.786 40.0009 377.551 43.1728 375.203 45.3699L376.57 46.8301C379.422 44.1605 380.786 40.3991 380.786 35.7H378.786ZM375.208 45.3652C372.835 47.5557 369.599 48.7 365.386 48.7V50.7C369.974 50.7 373.738 49.4443 376.565 46.8348L375.208 45.3652ZM365.386 44.8C368.055 44.8 370.26 44.0177 371.86 42.3401L370.413 40.9599C369.279 42.1489 367.651 42.8 365.386 42.8V44.8ZM371.86 42.3401C373.44 40.6828 374.186 38.4993 374.186 35.9H372.186C372.186 38.1007 371.566 39.7505 370.413 40.9599L371.86 42.3401ZM374.186 35.9V27.1H372.186V35.9H374.186ZM374.186 27.1C374.186 24.5007 373.44 22.3172 371.86 20.6599L370.413 22.0401C371.566 23.2495 372.186 24.8993 372.186 27.1H374.186ZM371.86 20.6599C370.26 18.9823 368.055 18.2 365.386 18.2V20.2C367.651 20.2 369.279 20.8511 370.413 22.0401L371.86 20.6599ZM365.386 18.2C362.746 18.2 360.548 18.9851 358.921 20.6513L360.352 22.0487C361.524 20.8482 363.16 20.2 365.386 20.2V18.2ZM358.913 20.6599C357.332 22.3172 356.586 24.5007 356.586 27.1H358.586C358.586 24.8993 359.207 23.2495 360.36 22.0401L358.913 20.6599ZM356.586 27.1V35.9H358.586V27.1H356.586ZM356.586 35.9C356.586 38.4993 357.332 40.6828 358.913 42.3401L360.36 40.9599C359.207 39.7505 358.586 38.1007 358.586 35.9H356.586ZM358.921 42.3487C360.548 44.0149 362.746 44.8 365.386 44.8V42.8C363.16 42.8 361.524 42.1518 360.352 40.9513L358.921 42.3487ZM367.686 57C366.284 57 365.216 56.5659 364.393 55.7429L362.979 57.1571C364.223 58.4008 365.822 59 367.686 59V57ZM364.393 55.7429C363.618 54.9674 363.186 53.8921 363.186 52.4H361.186C361.186 54.3079 361.755 55.9326 362.979 57.1571L364.393 55.7429ZM363.186 52.4V49H361.186V52.4H363.186ZM362.186 50H368.586V48H362.186V50ZM367.586 49V51.4H369.586V49H367.586ZM367.586 51.4C367.586 52.0376 367.734 52.7021 368.205 53.2073C368.689 53.7255 369.347 53.9 369.986 53.9V51.9C369.84 51.9 369.754 51.88 369.71 51.8645C369.689 51.8571 369.678 51.8507 369.674 51.8479C369.67 51.8452 369.668 51.8437 369.667 51.8427C369.666 51.8416 369.662 51.8369 369.656 51.8255C369.649 51.8136 369.639 51.7927 369.629 51.7592C369.607 51.69 369.586 51.5754 369.586 51.4H367.586ZM369.986 53.9H372.936V51.9H369.986V53.9ZM371.936 52.9V58H373.936V52.9H371.936ZM372.936 57H367.686V59H372.936V57ZM391.675 48.15L391.211 49.0355L391.219 49.0401L391.228 49.0444L391.675 48.15ZM386.975 43.65L386.096 44.1268L386.101 44.1357L386.106 44.1445L386.975 43.65ZM385.375 14V13H384.375V14H385.375ZM391.975 14H392.975V13H391.975V14ZM393.775 41.95L393.059 42.6474L393.068 42.6571L393.775 41.95ZM404.325 41.95L403.618 41.2428L403.609 41.2526L404.325 41.95ZM406.175 14V13H405.175V14H406.175ZM412.775 14H413.775V13H412.775V14ZM411.125 43.65L410.253 43.1618L410.25 43.1669L411.125 43.65ZM406.425 48.15L406.878 49.0415L406.884 49.0386L406.425 48.15ZM399.075 48.7C396.327 48.7 394.021 48.2048 392.123 47.2556L391.228 49.0444C393.463 50.1619 396.09 50.7 399.075 50.7V48.7ZM392.14 47.2645C390.27 46.2837 388.847 44.9169 387.845 43.1555L386.106 44.1445C387.304 46.2498 389.014 47.883 391.211 49.0355L392.14 47.2645ZM387.854 43.1732C386.881 41.3786 386.375 39.232 386.375 36.7H384.375C384.375 39.5013 384.936 41.988 386.096 44.1268L387.854 43.1732ZM386.375 36.7V14H384.375V36.7H386.375ZM385.375 15H391.975V13H385.375V15ZM390.975 14V36.9H392.975V14H390.975ZM390.975 36.9C390.975 39.2279 391.636 41.1849 393.059 42.6474L394.492 41.2526C393.515 40.2484 392.975 38.8387 392.975 36.9H390.975ZM393.068 42.6571C394.543 44.132 396.598 44.8 399.075 44.8V42.8C396.953 42.8 395.474 42.2347 394.482 41.2429L393.068 42.6571ZM399.075 44.8C401.551 44.8 403.597 44.1326 405.042 42.6474L403.609 41.2526C402.654 42.234 401.2 42.8 399.075 42.8V44.8ZM405.032 42.6571C406.494 41.196 407.175 39.2356 407.175 36.9H405.175C405.175 38.8311 404.624 40.2374 403.618 41.2429L405.032 42.6571ZM407.175 36.9V14H405.175V36.9H407.175ZM406.175 15H412.775V13H406.175V15ZM411.775 14V36.7H413.775V14H411.775ZM411.775 36.7C411.775 39.2272 411.255 41.3696 410.253 43.1618L411.998 44.1382C413.196 41.9971 413.775 39.5062 413.775 36.7H411.775ZM410.25 43.1669C409.284 44.9173 407.867 46.2805 405.967 47.2614L406.884 49.0386C409.117 47.8862 410.833 46.2494 412.001 44.1331L410.25 43.1669ZM405.972 47.2585C404.111 48.2046 401.824 48.7 399.075 48.7V50.7C402.06 50.7 404.673 50.1621 406.878 49.0415L405.972 47.2585ZM419.169 49H418.169V50H419.169V49ZM419.169 14V13H418.169V14H419.169ZM441.669 14H442.669V13H441.669V14ZM441.669 20V21H442.669V20H441.669ZM425.769 20V19H424.769V20H425.769ZM425.769 28.35H424.769V29.35H425.769V28.35ZM440.269 28.35H441.269V27.35H440.269V28.35ZM440.269 34.35V35.35H441.269V34.35H440.269ZM425.769 34.35V33.35H424.769V34.35H425.769ZM425.769 43H424.769V44H425.769V43ZM441.969 43H442.969V42H441.969V43ZM441.969 49V50H442.969V49H441.969ZM420.169 49V14H418.169V49H420.169ZM419.169 15H441.669V13H419.169V15ZM440.669 14V20H442.669V14H440.669ZM441.669 19H425.769V21H441.669V19ZM424.769 20V28.35H426.769V20H424.769ZM425.769 29.35H440.269V27.35H425.769V29.35ZM439.269 28.35V34.35H441.269V28.35H439.269ZM440.269 33.35H425.769V35.35H440.269V33.35ZM424.769 34.35V43H426.769V34.35H424.769ZM425.769 44H441.969V42H425.769V44ZM440.969 43V49H442.969V43H440.969ZM441.969 48H419.169V50H441.969V48ZM451.855 48.25L451.431 49.1558L451.855 48.25ZM447.005 44.1L447.844 43.5561L447.844 43.5561L447.005 44.1ZM445.255 36.2V35.2H444.255V36.2H445.255ZM451.755 36.2H452.755V35.2H451.755V36.2ZM453.705 42.35L453.07 43.1231L453.076 43.128L453.082 43.1328L453.705 42.35ZM464.055 42.55L463.433 41.7669L463.427 41.7714L463.421 41.776L464.055 42.55ZM464.905 36.75L464.157 37.4144L464.167 37.4256L464.178 37.4366L464.905 36.75ZM462.505 35.3L462.144 36.2326L462.162 36.2395L462.18 36.2457L462.505 35.3ZM458.705 34.2L458.922 33.2238L458.917 33.2228L458.705 34.2ZM457.555 33.95L457.338 34.9262L457.342 34.9272L457.555 33.95ZM451.355 31.95L450.915 32.8479L450.925 32.8531L450.936 32.858L451.355 31.95ZM447.405 28.7L446.576 29.2595L446.581 29.2665L446.585 29.2735L447.405 28.7ZM447.555 18.05L446.725 17.4911L446.723 17.4953L447.555 18.05ZM451.855 14.55L452.255 15.4666L452.262 15.4631L451.855 14.55ZM465.055 14.6L464.646 15.5125L464.655 15.5167L464.665 15.5208L465.055 14.6ZM469.655 18.4L468.815 18.9432L468.821 18.9529L468.828 18.9623L469.655 18.4ZM471.355 26.2V27.2H472.355V26.2H471.355ZM464.855 26.2H463.855V27.2H464.855V26.2ZM464.055 21.5L463.197 22.0145L463.209 22.0349L463.223 22.0547L464.055 21.5ZM461.855 19.7L461.472 20.624L461.486 20.6297L461.5 20.635L461.855 19.7ZM453.955 20.25L454.573 21.0363L454.576 21.0335L453.955 20.25ZM453.205 25.5L452.394 26.0855L452.404 26.0999L452.415 26.1139L453.205 25.5ZM455.255 27L455.661 26.0862L455.255 27ZM458.705 28.05L458.917 27.0728L458.914 27.0722L458.705 28.05ZM459.855 28.3L459.642 29.2772L459.646 29.278L459.855 28.3ZM466.355 30.35L465.941 31.2604L465.947 31.2631L466.355 30.35ZM470.705 33.65L471.502 33.0469L471.502 33.0469L470.705 33.65ZM470.605 44.55L469.775 43.9914L469.773 43.9953L470.605 44.55ZM466.005 48.35L466.421 49.2593L466.428 49.2562L466.005 48.35ZM459.005 48.7C456.425 48.7 454.19 48.2385 452.278 47.3442L451.431 49.1558C453.652 50.1949 456.185 50.7 459.005 50.7V48.7ZM452.278 47.3442C450.37 46.4516 448.902 45.1888 447.844 43.5561L446.166 44.6439C447.441 46.6112 449.206 48.1151 451.431 49.1558L452.278 47.3442ZM447.844 43.5561C446.8 41.9455 446.255 39.9758 446.255 37.6H444.255C444.255 40.2908 444.876 42.6545 446.166 44.6439L447.844 43.5561ZM446.255 37.6V36.2H444.255V37.6H446.255ZM445.255 37.2H451.755V35.2H445.255V37.2ZM450.755 36.2V37.6H452.755V36.2H450.755ZM450.755 37.6C450.755 39.9181 451.483 41.8203 453.07 43.1231L454.339 41.5769C453.327 40.7464 452.755 39.4819 452.755 37.6H450.755ZM453.082 43.1328C454.612 44.3485 456.623 44.9 459.005 44.9V42.9C456.92 42.9 455.398 42.4181 454.327 41.5672L453.082 43.1328ZM459.005 44.9C461.374 44.9 463.33 44.4349 464.688 43.324L463.421 41.776C462.579 42.4651 461.169 42.9 459.005 42.9V44.9ZM464.677 43.3331C466.039 42.2508 466.755 40.8168 466.755 39.1H464.755C464.755 40.1832 464.337 41.0492 463.433 41.7669L464.677 43.3331ZM466.755 39.1C466.755 37.9248 466.403 36.8804 465.632 36.0634L464.178 37.4366C464.539 37.8196 464.755 38.3419 464.755 39.1H466.755ZM465.652 36.0856C464.968 35.3155 463.997 34.7554 462.83 34.3543L462.18 36.2457C463.146 36.5779 463.775 36.9845 464.157 37.4144L465.652 36.0856ZM462.866 34.3674C461.771 33.9439 460.453 33.5642 458.922 33.2238L458.488 35.1762C459.956 35.5025 461.171 35.8561 462.144 36.2326L462.866 34.3674ZM458.917 33.2228L457.767 32.9728L457.342 34.9272L458.492 35.1772L458.917 33.2228ZM457.772 32.9738C455.422 32.4518 453.427 31.805 451.774 31.042L450.936 32.858C452.749 33.695 454.887 34.3816 457.338 34.9262L457.772 32.9738ZM451.795 31.0521C450.222 30.2809 449.046 29.3003 448.224 28.1265L446.585 29.2735C447.63 30.7663 449.088 31.9524 450.915 32.8479L451.795 31.0521ZM448.234 28.1405C447.476 27.0185 447.055 25.4979 447.055 23.5H445.055C445.055 25.7688 445.533 27.7148 446.576 29.2595L448.234 28.1405ZM447.055 23.5C447.055 21.5272 447.515 19.9122 448.387 18.6047L446.723 17.4953C445.594 19.1878 445.055 21.2061 445.055 23.5H447.055ZM448.384 18.6089C449.302 17.246 450.581 16.197 452.255 15.4665L451.455 13.6335C449.462 14.503 447.874 15.7873 446.725 17.4911L448.384 18.6089ZM452.262 15.4631C453.975 14.6983 456.015 14.3 458.405 14.3V12.3C455.795 12.3 453.467 12.735 451.447 13.6369L452.262 15.4631ZM458.405 14.3C460.789 14.3 462.862 14.713 464.646 15.5125L465.464 13.6875C463.381 12.7537 461.021 12.3 458.405 12.3V14.3ZM464.665 15.5208C466.458 16.2806 467.83 17.4207 468.815 18.9432L470.494 17.8567C469.279 15.9793 467.585 14.5861 465.445 13.6792L464.665 15.5208ZM468.828 18.9623C469.822 20.425 470.355 22.3156 470.355 24.7H472.355C472.355 22.0177 471.754 19.7083 470.482 17.8377L468.828 18.9623ZM470.355 24.7V26.2H472.355V24.7H470.355ZM471.355 25.2H464.855V27.2H471.355V25.2ZM465.855 26.2V24.7H463.855V26.2H465.855ZM465.855 24.7C465.855 23.243 465.564 21.9618 464.887 20.9453L463.223 22.0547C463.612 22.6382 463.855 23.4903 463.855 24.7H465.855ZM464.912 20.9855C464.289 19.9467 463.372 19.2059 462.209 18.765L461.5 20.635C462.271 20.9274 462.82 21.3866 463.197 22.0145L464.912 20.9855ZM462.237 18.776C461.121 18.3141 459.835 18.1 458.405 18.1V20.1C459.641 20.1 460.655 20.2859 461.472 20.624L462.237 18.776ZM458.405 18.1C456.309 18.1 454.557 18.496 453.333 19.4665L454.576 21.0335C455.286 20.4707 456.5 20.1 458.405 20.1V18.1ZM453.337 19.4637C452.137 20.4064 451.555 21.7266 451.555 23.3H453.555C453.555 22.2734 453.906 21.5603 454.573 21.0363L453.337 19.4637ZM451.555 23.3C451.555 24.3398 451.818 25.2873 452.394 26.0855L454.015 24.9145C453.725 24.5127 453.555 23.9935 453.555 23.3H451.555ZM452.415 26.1139C453.009 26.8767 453.841 27.4661 454.849 27.9138L455.661 26.0862C454.868 25.7339 454.334 25.3233 453.994 24.8861L452.415 26.1139ZM454.849 27.9138C455.833 28.3514 457.055 28.7192 458.495 29.0278L458.914 27.0722C457.554 26.7808 456.476 26.4486 455.661 26.0862L454.849 27.9138ZM458.492 29.0272L459.642 29.2772L460.067 27.3228L458.917 27.0728L458.492 29.0272ZM459.646 29.278C462.093 29.8001 464.188 30.4636 465.941 31.2604L466.768 29.4396C464.855 28.5697 462.616 27.8666 460.063 27.322L459.646 29.278ZM465.947 31.2631C467.689 32.041 468.993 33.0448 469.907 34.2531L471.502 33.0469C470.349 31.5219 468.753 30.3257 466.762 29.4369L465.947 31.2631ZM469.907 34.2531C470.78 35.4073 471.255 36.9301 471.255 38.9H473.255C473.255 36.6033 472.696 34.626 471.502 33.0469L469.907 34.2531ZM471.255 38.9C471.255 40.8517 470.755 42.537 469.775 43.9914L471.434 45.1086C472.655 43.2963 473.255 41.215 473.255 38.9H471.255ZM469.773 43.9953C468.822 45.4214 467.441 46.5763 465.582 47.4438L466.428 49.2562C468.569 48.257 470.254 46.8786 471.437 45.1047L469.773 43.9953ZM465.589 47.4407C463.781 48.268 461.596 48.7 459.005 48.7V50.7C461.814 50.7 464.295 50.232 466.421 49.2593L465.589 47.4407ZM484.154 49H483.154V50H484.154V49ZM484.154 20H485.154V19H484.154V20ZM473.954 20H472.954V21H473.954V20ZM473.954 14V13H472.954V14H473.954ZM500.954 14H501.954V13H500.954V14ZM500.954 20V21H501.954V20H500.954ZM490.754 20V19H489.754V20H490.754ZM490.754 49V50H491.754V49H490.754ZM485.154 49V20H483.154V49H485.154ZM484.154 19H473.954V21H484.154V19ZM474.954 20V14H472.954V20H474.954ZM473.954 15H500.954V13H473.954V15ZM499.954 14V20H501.954V14H499.954ZM500.954 19H490.754V21H500.954V19ZM489.754 20V49H491.754V20H489.754ZM490.754 48H484.154V50H490.754V48ZM505.448 49H504.448V50H505.448V49ZM505.448 14V13H504.448V14H505.448ZM512.048 14H513.048V13H512.048V14ZM512.048 49V50H513.048V49H512.048ZM506.448 49V14H504.448V49H506.448ZM505.448 15H512.048V13H505.448V15ZM511.048 14V49H513.048V14H511.048ZM512.048 48H505.448V50H512.048V48ZM521.732 46.1L521.049 46.8301L521.054 46.8348L521.732 46.1ZM521.732 16.95L522.41 17.6848L522.415 17.6801L521.732 16.95ZM542.732 16.95L542.049 17.6801L542.054 17.6848L542.732 16.95ZM542.732 46.1L543.41 46.8348L543.415 46.8301L542.732 46.1ZM537.982 41.65L537.258 40.9599L537.258 40.9599L537.982 41.65ZM537.982 21.35L537.258 22.0401L537.258 22.0401L537.982 21.35ZM526.482 21.35L525.767 20.6512L525.758 20.6599L526.482 21.35ZM526.482 41.65L525.758 42.3401L525.767 42.3487L526.482 41.65ZM532.232 48.7C528.019 48.7 524.783 47.5557 522.41 45.3652L521.054 46.8348C523.881 49.4443 527.645 50.7 532.232 50.7V48.7ZM522.415 45.3699C520.068 43.1728 518.832 40.0009 518.832 35.7H516.832C516.832 40.3991 518.196 44.1605 521.049 46.8301L522.415 45.3699ZM518.832 35.7V27.3H516.832V35.7H518.832ZM518.832 27.3C518.832 22.9984 520.068 19.8469 522.41 17.6848L521.054 16.2152C518.196 18.8531 516.832 22.6016 516.832 27.3H518.832ZM522.415 17.6801C524.789 15.4588 528.023 14.3 532.232 14.3V12.3C527.641 12.3 523.875 13.5746 521.049 16.2199L522.415 17.6801ZM532.232 14.3C536.441 14.3 539.675 15.4588 542.049 17.6801L543.415 16.2199C540.589 13.5746 536.823 12.3 532.232 12.3V14.3ZM542.054 17.6848C544.396 19.8469 545.632 22.9984 545.632 27.3H547.632C547.632 22.6016 546.268 18.8531 543.41 16.2152L542.054 17.6848ZM545.632 27.3V35.7H547.632V27.3H545.632ZM545.632 35.7C545.632 40.0009 544.396 43.1728 542.049 45.3699L543.415 46.8301C546.268 44.1605 547.632 40.3991 547.632 35.7H545.632ZM542.054 45.3652C539.681 47.5557 536.445 48.7 532.232 48.7V50.7C536.819 50.7 540.583 49.4443 543.41 46.8348L542.054 45.3652ZM532.232 44.8C534.901 44.8 537.106 44.0177 538.706 42.3401L537.258 40.9599C536.125 42.1489 534.497 42.8 532.232 42.8V44.8ZM538.706 42.3401C540.286 40.6828 541.032 38.4993 541.032 35.9H539.032C539.032 38.1007 538.411 39.7505 537.258 40.9599L538.706 42.3401ZM541.032 35.9V27.1H539.032V35.9H541.032ZM541.032 27.1C541.032 24.5007 540.286 22.3172 538.706 20.6599L537.258 22.0401C538.411 23.2495 539.032 24.8993 539.032 27.1H541.032ZM538.706 20.6599C537.106 18.9823 534.901 18.2 532.232 18.2V20.2C534.497 20.2 536.125 20.8511 537.258 22.0401L538.706 20.6599ZM532.232 18.2C529.591 18.2 527.394 18.9851 525.767 20.6513L527.197 22.0487C528.37 20.8482 530.006 20.2 532.232 20.2V18.2ZM525.758 20.6599C524.178 22.3172 523.432 24.5007 523.432 27.1H525.432C525.432 24.8993 526.053 23.2495 527.206 22.0401L525.758 20.6599ZM523.432 27.1V35.9H525.432V27.1H523.432ZM523.432 35.9C523.432 38.4993 524.178 40.6828 525.758 42.3401L527.206 40.9599C526.053 39.7505 525.432 38.1007 525.432 35.9H523.432ZM525.767 42.3487C527.394 44.0149 529.591 44.8 532.232 44.8V42.8C530.006 42.8 528.37 42.1518 527.197 40.9513L525.767 42.3487ZM552.421 49H551.421V50H552.421V49ZM552.421 14V13H551.421V14H552.421ZM564.971 14L565.946 13.7778L565.769 13H564.971V14ZM571.921 44.5L570.946 44.7222L571.123 45.5H571.921V44.5ZM572.821 44.5V45.5H573.821V44.5H572.821ZM572.821 14V13H571.821V14H572.821ZM579.321 14H580.321V13H579.321V14ZM579.321 49V50H580.321V49H579.321ZM566.771 49L565.796 49.2222L565.973 50H566.771V49ZM559.821 18.5L560.796 18.2778L560.619 17.5H559.821V18.5ZM558.921 18.5V17.5H557.921V18.5H558.921ZM558.921 49V50H559.921V49H558.921ZM553.421 49V14H551.421V49H553.421ZM552.421 15H564.971V13H552.421V15ZM563.996 14.2222L570.946 44.7222L572.896 44.2778L565.946 13.7778L563.996 14.2222ZM571.921 45.5H572.821V43.5H571.921V45.5ZM573.821 44.5V14H571.821V44.5H573.821ZM572.821 15H579.321V13H572.821V15ZM578.321 14V49H580.321V14H578.321ZM579.321 48H566.771V50H579.321V48ZM567.746 48.7778L560.796 18.2778L558.846 18.7222L565.796 49.2222L567.746 48.7778ZM559.821 17.5H558.921V19.5H559.821V17.5ZM557.921 18.5V49H559.921V18.5H557.921ZM558.921 48H552.421V50H558.921V48ZM590.917 48.25L590.494 49.1558L590.917 48.25ZM586.067 44.1L586.906 43.5561L586.906 43.5561L586.067 44.1ZM584.317 36.2V35.2H583.317V36.2H584.317ZM590.817 36.2H591.817V35.2H590.817V36.2ZM592.767 42.35L592.133 43.1231L592.139 43.128L592.145 43.1328L592.767 42.35ZM603.117 42.55L602.495 41.7669L602.49 41.7714L602.484 41.776L603.117 42.55ZM603.967 36.75L603.22 37.4144L603.23 37.4256L603.24 37.4366L603.967 36.75ZM601.567 35.3L601.206 36.2326L601.224 36.2395L601.242 36.2457L601.567 35.3ZM597.767 34.2L597.984 33.2238L597.98 33.2228L597.767 34.2ZM596.617 33.95L596.4 34.9262L596.405 34.9272L596.617 33.95ZM590.417 31.95L589.977 32.8479L589.988 32.8531L589.998 32.858L590.417 31.95ZM586.467 28.7L585.638 29.2595L585.643 29.2665L585.648 29.2735L586.467 28.7ZM586.617 18.05L585.788 17.4911L585.785 17.4953L586.617 18.05ZM590.917 14.55L591.317 15.4666L591.325 15.4631L590.917 14.55ZM604.117 14.6L603.708 15.5125L603.718 15.5167L603.727 15.5208L604.117 14.6ZM608.717 18.4L607.878 18.9432L607.884 18.9529L607.89 18.9623L608.717 18.4ZM610.417 26.2V27.2H611.417V26.2H610.417ZM603.917 26.2H602.917V27.2H603.917V26.2ZM603.117 21.5L602.26 22.0145L602.272 22.0349L602.285 22.0547L603.117 21.5ZM600.917 19.7L600.535 20.624L600.549 20.6297L600.563 20.635L600.917 19.7ZM593.017 20.25L593.635 21.0363L593.639 21.0335L593.017 20.25ZM592.267 25.5L591.457 26.0855L591.467 26.0999L591.478 26.1139L592.267 25.5ZM594.317 27L594.723 26.0862L594.317 27ZM597.767 28.05L597.98 27.0728L597.977 27.0722L597.767 28.05ZM598.917 28.3L598.705 29.2772L598.709 29.278L598.917 28.3ZM605.417 30.35L605.003 31.2604L605.01 31.2631L605.417 30.35ZM609.767 33.65L610.565 33.0469L610.565 33.0469L609.767 33.65ZM609.667 44.55L608.838 43.9914L608.835 43.9953L609.667 44.55ZM605.067 48.35L605.483 49.2593L605.49 49.2562L605.067 48.35ZM598.067 48.7C595.487 48.7 593.253 48.2385 591.341 47.3442L590.494 49.1558C592.715 50.1949 595.247 50.7 598.067 50.7V48.7ZM591.341 47.3442C589.433 46.4516 587.965 45.1888 586.906 43.5561L585.228 44.6439C586.503 46.6112 588.268 48.1151 590.494 49.1558L591.341 47.3442ZM586.906 43.5561C585.862 41.9455 585.317 39.9758 585.317 37.6H583.317C583.317 40.2908 583.939 42.6545 585.228 44.6439L586.906 43.5561ZM585.317 37.6V36.2H583.317V37.6H585.317ZM584.317 37.2H590.817V35.2H584.317V37.2ZM589.817 36.2V37.6H591.817V36.2H589.817ZM589.817 37.6C589.817 39.9181 590.545 41.8203 592.133 43.1231L593.402 41.5769C592.389 40.7464 591.817 39.4819 591.817 37.6H589.817ZM592.145 43.1328C593.674 44.3485 595.686 44.9 598.067 44.9V42.9C595.982 42.9 594.46 42.4181 593.389 41.5672L592.145 43.1328ZM598.067 44.9C600.436 44.9 602.393 44.4349 603.75 43.324L602.484 41.776C601.642 42.4651 600.232 42.9 598.067 42.9V44.9ZM603.739 43.3331C605.102 42.2508 605.817 40.8168 605.817 39.1H603.817C603.817 40.1832 603.399 41.0492 602.495 41.7669L603.739 43.3331ZM605.817 39.1C605.817 37.9248 605.466 36.8804 604.694 36.0634L603.24 37.4366C603.602 37.8196 603.817 38.3419 603.817 39.1H605.817ZM604.715 36.0856C604.03 35.3155 603.059 34.7554 601.892 34.3543L601.242 36.2457C602.209 36.5779 602.838 36.9845 603.22 37.4144L604.715 36.0856ZM601.928 34.3674C600.834 33.9439 599.516 33.5642 597.984 33.2238L597.55 35.1762C599.018 35.5025 600.234 35.8561 601.206 36.2326L601.928 34.3674ZM597.98 33.2228L596.83 32.9728L596.405 34.9272L597.555 35.1772L597.98 33.2228ZM596.834 32.9738C594.485 32.4518 592.489 31.805 590.836 31.042L589.998 32.858C591.812 33.695 593.949 34.3816 596.4 34.9262L596.834 32.9738ZM590.857 31.0521C589.284 30.2809 588.108 29.3003 587.286 28.1265L585.648 29.2735C586.693 30.7663 588.15 31.9524 589.977 32.8479L590.857 31.0521ZM587.296 28.1405C586.539 27.0185 586.117 25.4979 586.117 23.5H584.117C584.117 25.7688 584.596 27.7148 585.638 29.2595L587.296 28.1405ZM586.117 23.5C586.117 21.5272 586.578 19.9122 587.449 18.6047L585.785 17.4953C584.657 19.1878 584.117 21.2061 584.117 23.5H586.117ZM587.446 18.6089C588.365 17.246 589.643 16.197 591.317 15.4665L590.517 13.6335C588.525 14.503 586.936 15.7873 585.788 17.4911L587.446 18.6089ZM591.325 15.4631C593.038 14.6983 595.077 14.3 597.467 14.3V12.3C594.857 12.3 592.53 12.735 590.51 13.6369L591.325 15.4631ZM597.467 14.3C599.851 14.3 601.925 14.713 603.708 15.5125L604.526 13.6875C602.443 12.7537 600.083 12.3 597.467 12.3V14.3ZM603.727 15.5208C605.52 16.2806 606.892 17.4207 607.878 18.9432L609.557 17.8567C608.342 15.9793 606.648 14.5861 604.507 13.6792L603.727 15.5208ZM607.89 18.9623C608.885 20.425 609.417 22.3156 609.417 24.7H611.417C611.417 22.0177 610.816 19.7083 609.544 17.8377L607.89 18.9623ZM609.417 24.7V26.2H611.417V24.7H609.417ZM610.417 25.2H603.917V27.2H610.417V25.2ZM604.917 26.2V24.7H602.917V26.2H604.917ZM604.917 24.7C604.917 23.243 604.627 21.9618 603.949 20.9453L602.285 22.0547C602.674 22.6382 602.917 23.4903 602.917 24.7H604.917ZM603.975 20.9855C603.351 19.9467 602.434 19.2059 601.272 18.765L600.563 20.635C601.333 20.9274 601.883 21.3866 602.26 22.0145L603.975 20.9855ZM601.3 18.776C600.183 18.3141 598.897 18.1 597.467 18.1V20.1C598.704 20.1 599.718 20.2859 600.535 20.624L601.3 18.776ZM597.467 18.1C595.371 18.1 593.619 18.496 592.396 19.4665L593.639 21.0335C594.348 20.4707 595.563 20.1 597.467 20.1V18.1ZM592.399 19.4637C591.2 20.4064 590.617 21.7266 590.617 23.3H592.617C592.617 22.2734 592.968 21.5603 593.635 21.0363L592.399 19.4637ZM590.617 23.3C590.617 24.3398 590.88 25.2873 591.457 26.0855L593.078 24.9145C592.788 24.5127 592.617 23.9935 592.617 23.3H590.617ZM591.478 26.1139C592.071 26.8767 592.904 27.4661 593.911 27.9138L594.723 26.0862C593.931 25.7339 593.397 25.3233 593.057 24.8861L591.478 26.1139ZM593.911 27.9138C594.896 28.3514 596.118 28.7192 597.558 29.0278L597.977 27.0722C596.617 26.7808 595.539 26.4486 594.723 26.0862L593.911 27.9138ZM597.555 29.0272L598.705 29.2772L599.13 27.3228L597.98 27.0728L597.555 29.0272ZM598.709 29.278C601.156 29.8001 603.251 30.4636 605.003 31.2604L605.831 29.4396C603.917 28.5697 601.679 27.8666 599.126 27.322L598.709 29.278ZM605.01 31.2631C606.752 32.041 608.056 33.0448 608.97 34.2531L610.565 33.0469C609.412 31.5219 607.816 30.3257 605.825 29.4369L605.01 31.2631ZM608.97 34.2531C609.842 35.4073 610.317 36.9301 610.317 38.9H612.317C612.317 36.6033 611.759 34.626 610.565 33.0469L608.97 34.2531ZM610.317 38.9C610.317 40.8517 609.817 42.537 608.838 43.9914L610.497 45.1086C611.717 43.2963 612.317 41.215 612.317 38.9H610.317ZM608.835 43.9953C607.884 45.4214 606.503 46.5763 604.644 47.4438L605.49 49.2562C607.631 48.257 609.317 46.8786 610.499 45.1047L608.835 43.9953ZM604.651 47.4407C602.843 48.268 600.658 48.7 598.067 48.7V50.7C600.876 50.7 603.358 50.232 605.483 49.2593L604.651 47.4407ZM623.389 37.5H622.389V38.5H623.389V37.5ZM624.389 32.1L623.546 31.5631L623.54 31.5723L623.534 31.5817L624.389 32.1ZM627.739 29.35L627.314 28.4452L627.308 28.4479L627.739 29.35ZM628.589 28.95L628.167 28.0438L628.164 28.0452L628.589 28.95ZM632.039 26.7L632.747 27.4071L632.747 27.4071L632.039 26.7ZM632.489 21.05L631.657 21.6047L631.673 21.6278L631.689 21.65L632.489 21.05ZM630.489 19.45L630.1 20.371L630.1 20.371L630.489 19.45ZM624.189 19.5L623.807 18.5759L623.796 18.5809L624.189 19.5ZM621.939 21.3L621.123 20.722L621.115 20.7335L621.107 20.7453L621.939 21.3ZM621.139 25.4V26.4H622.139V25.4H621.139ZM614.639 25.4H613.639V26.4H614.639V25.4ZM616.339 18.45L617.166 19.0123L617.166 19.0123L616.339 18.45ZM620.939 14.65L621.349 15.5625L621.355 15.5596L621.361 15.5566L620.939 14.65ZM633.739 14.6L633.312 15.5041L633.318 15.507L633.739 14.6ZM638.139 18.2L637.319 18.7711L637.319 18.7711L638.139 18.2ZM638.639 28.45L639.505 28.9511L639.51 28.9413L638.639 28.45ZM635.839 31.55L636.411 32.3704L636.416 32.367L635.839 31.55ZM632.439 33.55L632.865 34.4549L632.876 34.4495L632.439 33.55ZM631.589 33.95L631.996 34.8638L632.005 34.8594L632.015 34.8548L631.589 33.95ZM630.339 34.95L631.183 35.4869L631.193 35.4706L631.203 35.4539L630.339 34.95ZM629.989 37.5V38.5H630.989V37.5H629.989ZM623.489 48.4L622.782 49.1071L622.795 49.1202L622.809 49.1328L623.489 48.4ZM623.489 41.55L624.183 42.2703L624.184 42.2698L623.489 41.55ZM630.289 41.55L629.582 42.2571L629.589 42.2638L629.596 42.2703L630.289 41.55ZM630.289 48.4L630.983 49.1203L630.99 49.1138L630.997 49.1071L630.289 48.4ZM624.389 37.5V36.3H622.389V37.5H624.389ZM624.389 36.3C624.389 34.7255 624.699 33.5194 625.245 32.6183L623.534 31.5817C622.747 32.8806 622.389 34.4745 622.389 36.3H624.389ZM625.233 32.6369C625.806 31.736 626.756 30.9288 628.171 30.2521L627.308 28.4479C625.656 29.2379 624.373 30.264 623.546 31.5631L625.233 32.6369ZM628.165 30.2548L629.015 29.8548L628.164 28.0452L627.314 28.4452L628.165 30.2548ZM629.012 29.8562C630.574 29.1276 631.835 28.3182 632.747 27.4071L631.332 25.9929C630.643 26.6818 629.605 27.3724 628.167 28.0438L629.012 29.8562ZM632.747 27.4071C633.767 26.3864 634.239 25.0476 634.239 23.5H632.239C632.239 24.6191 631.912 25.4136 631.332 25.9929L632.747 27.4071ZM634.239 23.5C634.239 22.3529 633.939 21.3165 633.289 20.45L631.689 21.65C632.04 22.1168 632.239 22.7137 632.239 23.5H634.239ZM633.322 20.4953C632.734 19.6137 631.904 18.9625 630.879 18.529L630.1 20.371C630.808 20.6708 631.312 21.0863 631.657 21.6047L633.322 20.4953ZM630.879 18.529C629.863 18.0993 628.709 17.9 627.439 17.9V19.9C628.503 19.9 629.382 20.0673 630.1 20.371L630.879 18.529ZM627.439 17.9C626.127 17.9 624.912 18.119 623.807 18.576L624.572 20.424C625.401 20.081 626.352 19.9 627.439 19.9V17.9ZM623.796 18.5809C622.699 19.0508 621.801 19.766 621.123 20.722L622.755 21.878C623.212 21.234 623.813 20.7492 624.583 20.4191L623.796 18.5809ZM621.107 20.7453C620.44 21.7461 620.139 22.9517 620.139 24.3H622.139C622.139 23.2483 622.372 22.4539 622.772 21.8547L621.107 20.7453ZM620.139 24.3V25.4H622.139V24.3H620.139ZM621.139 24.4H614.639V26.4H621.139V24.4ZM615.639 25.4V24.4H613.639V25.4H615.639ZM615.639 24.4C615.639 22.2713 616.161 20.4905 617.166 19.0123L615.513 17.8877C614.251 19.7428 613.639 21.9287 613.639 24.4H615.639ZM617.166 19.0123C618.19 17.5068 619.575 16.3575 621.349 15.5625L620.53 13.7375C618.437 14.6759 616.755 16.0598 615.513 17.8877L617.166 19.0123ZM621.361 15.5566C623.147 14.7254 625.167 14.3 627.439 14.3V12.3C624.912 12.3 622.599 12.7746 620.517 13.7434L621.361 15.5566ZM627.439 14.3C629.683 14.3 631.633 14.7103 633.312 15.5041L634.167 13.6959C632.179 12.7564 629.929 12.3 627.439 12.3V14.3ZM633.318 15.507C635.041 16.3069 636.363 17.3976 637.319 18.7711L638.96 17.6289C637.782 15.9357 636.171 14.6264 634.161 13.693L633.318 15.507ZM637.319 18.7711C638.26 20.1247 638.739 21.6889 638.739 23.5H640.739C640.739 21.311 640.152 19.342 638.96 17.6289L637.319 18.7711ZM638.739 23.5C638.739 25.3842 638.393 26.8511 637.768 27.9587L639.51 28.9413C640.352 27.4489 640.739 25.6158 640.739 23.5H638.739ZM637.774 27.949C637.109 29.0977 636.272 30.0208 635.263 30.733L636.416 32.367C637.674 31.4792 638.703 30.3356 639.505 28.951L637.774 27.949ZM635.268 30.7296C634.209 31.4674 633.121 32.1074 632.003 32.6505L632.876 34.4495C634.092 33.8593 635.27 33.1659 636.411 32.3704L635.268 30.7296ZM632.014 32.6452L631.164 33.0452L632.015 34.8548L632.865 34.4548L632.014 32.6452ZM631.183 33.0362C630.469 33.3537 629.851 33.8033 629.476 34.4461L631.203 35.4539C631.295 35.2967 631.51 35.0797 631.996 34.8638L631.183 33.0362ZM629.496 34.4131C629.112 35.0161 628.989 35.7928 628.989 36.6H630.989C630.989 35.9405 631.1 35.6172 631.183 35.4869L629.496 34.4131ZM628.989 36.6V37.5H630.989V36.6H628.989ZM629.989 36.5H623.389V38.5H629.989V36.5ZM626.889 48.7C625.796 48.7 624.909 48.3535 624.17 47.6672L622.809 49.1328C623.937 50.1799 625.317 50.7 626.889 50.7V48.7ZM624.197 47.6929C623.504 47.0001 623.139 46.1139 623.139 44.95H621.139C621.139 46.5861 621.675 47.9999 622.782 49.1071L624.197 47.6929ZM623.139 44.95C623.139 43.7858 623.503 42.9249 624.183 42.2703L622.796 40.8297C621.676 41.9084 621.139 43.3142 621.139 44.95H623.139ZM624.184 42.2698C624.925 41.5552 625.807 41.2 626.889 41.2V39.2C625.305 39.2 623.921 39.7448 622.795 40.8302L624.184 42.2698ZM626.889 41.2C628.013 41.2 628.885 41.5594 629.582 42.2571L630.997 40.8429C629.894 39.7406 628.5 39.2 626.889 39.2V41.2ZM629.596 42.2703C630.276 42.9249 630.639 43.7858 630.639 44.95H632.639C632.639 43.3142 632.103 41.9084 630.983 40.8297L629.596 42.2703ZM630.639 44.95C630.639 46.1139 630.275 47.0001 629.582 47.6929L630.997 49.1071C632.104 47.9999 632.639 46.5861 632.639 44.95H630.639ZM629.596 47.6797C628.9 48.3493 628.024 48.7 626.889 48.7V50.7C628.488 50.7 629.878 50.184 630.983 49.1203L629.596 47.6797Z" fill="black" mask="url(#path-2-outside-1_67_508)"/>
</svg>
