<svg width="1387" height="1024" viewBox="0 0 1387 1024" fill="none" xmlns="http://www.w3.org/2000/svg">
<rect x="25" y="1" width="1361" height="1022" fill="#EDDFA1" stroke="black" stroke-width="2"/>
<rect x="55" y="31" width="1300" height="992" fill="#DFC071" stroke="black" stroke-width="2"/>
<rect x="56" y="652" width="1298" height="370" fill="#5B503E"/>
<rect x="86" y="31" width="400" height="310" fill="#F9E785" stroke="black" stroke-width="2"/>
<rect x="505" y="31" width="400" height="311" fill="#F9E785" stroke="black" stroke-width="2"/>
<rect x="923" y="31" width="400" height="311" fill="#F9E785" stroke="black" stroke-width="2"/>
<rect x="55" y="608" width="1300" height="43" fill="#E3B9B1" stroke="black" stroke-width="2"/>
<mask id="path-8-outside-1_97_226" maskUnits="userSpaceOnUse" x="181" y="61" width="210" height="249" fill="black">
<rect fill="white" x="181" y="61" width="210" height="249"/>
<path d="M303.5 308V258.3H183.1V206.5L267.8 63H348.3V218.4H388.9V258.3H348.3V308H303.5ZM225.8 218.4H303.5V91.7H297.2L225.8 212.8V218.4Z"/>
</mask>
<path d="M303.5 308V258.3H183.1V206.5L267.8 63H348.3V218.4H388.9V258.3H348.3V308H303.5ZM225.8 218.4H303.5V91.7H297.2L225.8 212.8V218.4Z" fill="#E34C20"/>
<path d="M303.5 308H301.5V310H303.5V308ZM303.5 258.3H305.5V256.3H303.5V258.3ZM183.1 258.3H181.1V260.3H183.1V258.3ZM183.1 206.5L181.378 205.483L181.1 205.954V206.5H183.1ZM267.8 63V61H266.658L266.078 61.9834L267.8 63ZM348.3 63H350.3V61H348.3V63ZM348.3 218.4H346.3V220.4H348.3V218.4ZM388.9 218.4H390.9V216.4H388.9V218.4ZM388.9 258.3V260.3H390.9V258.3H388.9ZM348.3 258.3V256.3H346.3V258.3H348.3ZM348.3 308V310H350.3V308H348.3ZM225.8 218.4H223.8V220.4H225.8V218.4ZM303.5 218.4V220.4H305.5V218.4H303.5ZM303.5 91.7H305.5V89.7H303.5V91.7ZM297.2 91.7V89.7H296.057L295.477 90.6842L297.2 91.7ZM225.8 212.8L224.077 211.784L223.8 212.254V212.8H225.8ZM305.5 308V258.3H301.5V308H305.5ZM303.5 256.3H183.1V260.3H303.5V256.3ZM185.1 258.3V206.5H181.1V258.3H185.1ZM184.822 207.517L269.522 64.0166L266.078 61.9834L181.378 205.483L184.822 207.517ZM267.8 65H348.3V61H267.8V65ZM346.3 63V218.4H350.3V63H346.3ZM348.3 220.4H388.9V216.4H348.3V220.4ZM386.9 218.4V258.3H390.9V218.4H386.9ZM388.9 256.3H348.3V260.3H388.9V256.3ZM346.3 258.3V308H350.3V258.3H346.3ZM348.3 306H303.5V310H348.3V306ZM225.8 220.4H303.5V216.4H225.8V220.4ZM305.5 218.4V91.7H301.5V218.4H305.5ZM303.5 89.7H297.2V93.7H303.5V89.7ZM295.477 90.6842L224.077 211.784L227.523 213.816L298.923 92.7158L295.477 90.6842ZM223.8 212.8V218.4H227.8V212.8H223.8Z" fill="black" mask="url(#path-8-outside-1_97_226)"/>
<mask id="path-10-outside-2_97_226" maskUnits="userSpaceOnUse" x="1018" y="61" width="210" height="249" fill="black">
<rect fill="white" x="1018" y="61" width="210" height="249"/>
<path d="M1140.5 308V258.3H1020.1V206.5L1104.8 63H1185.3V218.4H1225.9V258.3H1185.3V308H1140.5ZM1062.8 218.4H1140.5V91.7H1134.2L1062.8 212.8V218.4Z"/>
</mask>
<path d="M1140.5 308V258.3H1020.1V206.5L1104.8 63H1185.3V218.4H1225.9V258.3H1185.3V308H1140.5ZM1062.8 218.4H1140.5V91.7H1134.2L1062.8 212.8V218.4Z" fill="#E34C20"/>
<path d="M1140.5 308H1138.5V310H1140.5V308ZM1140.5 258.3H1142.5V256.3H1140.5V258.3ZM1020.1 258.3H1018.1V260.3H1020.1V258.3ZM1020.1 206.5L1018.38 205.483L1018.1 205.954V206.5H1020.1ZM1104.8 63V61H1103.66L1103.08 61.9834L1104.8 63ZM1185.3 63H1187.3V61H1185.3V63ZM1185.3 218.4H1183.3V220.4H1185.3V218.4ZM1225.9 218.4H1227.9V216.4H1225.9V218.4ZM1225.9 258.3V260.3H1227.9V258.3H1225.9ZM1185.3 258.3V256.3H1183.3V258.3H1185.3ZM1185.3 308V310H1187.3V308H1185.3ZM1062.8 218.4H1060.8V220.4H1062.8V218.4ZM1140.5 218.4V220.4H1142.5V218.4H1140.5ZM1140.5 91.7H1142.5V89.7H1140.5V91.7ZM1134.2 91.7V89.7H1133.06L1132.48 90.6842L1134.2 91.7ZM1062.8 212.8L1061.08 211.784L1060.8 212.254V212.8H1062.8ZM1142.5 308V258.3H1138.5V308H1142.5ZM1140.5 256.3H1020.1V260.3H1140.5V256.3ZM1022.1 258.3V206.5H1018.1V258.3H1022.1ZM1021.82 207.517L1106.52 64.0166L1103.08 61.9834L1018.38 205.483L1021.82 207.517ZM1104.8 65H1185.3V61H1104.8V65ZM1183.3 63V218.4H1187.3V63H1183.3ZM1185.3 220.4H1225.9V216.4H1185.3V220.4ZM1223.9 218.4V258.3H1227.9V218.4H1223.9ZM1225.9 256.3H1185.3V260.3H1225.9V256.3ZM1183.3 258.3V308H1187.3V258.3H1183.3ZM1185.3 306H1140.5V310H1185.3V306ZM1062.8 220.4H1140.5V216.4H1062.8V220.4ZM1142.5 218.4V91.7H1138.5V218.4H1142.5ZM1140.5 89.7H1134.2V93.7H1140.5V89.7ZM1132.48 90.6842L1061.08 211.784L1064.52 213.816L1135.92 92.7158L1132.48 90.6842ZM1060.8 212.8V218.4H1064.8V212.8H1060.8Z" fill="black" mask="url(#path-10-outside-2_97_226)"/>
<mask id="path-12-outside-3_97_226" maskUnits="userSpaceOnUse" x="606" y="56" width="197" height="259" fill="black">
<rect fill="white" x="606" y="56" width="197" height="259"/>
<path d="M704.4 312.9C675.467 312.9 652.25 304.967 634.75 289.1C617.25 273 608.5 248.733 608.5 216.3V154.7C608.5 123.2 617.25 99.2833 634.75 82.95C652.25 66.3833 675.467 58.1 704.4 58.1C733.567 58.1 756.783 66.3833 774.05 82.95C791.55 99.2833 800.3 123.2 800.3 154.7V216.3C800.3 248.733 791.55 273 774.05 289.1C756.783 304.967 733.567 312.9 704.4 312.9ZM704.4 273C721.9 273 734.733 268.217 742.9 258.65C751.3 249.083 755.5 235.433 755.5 217.7V152.6C755.5 134.633 750.833 121.1 741.5 112C732.4 102.667 720.033 98 704.4 98C688.3 98 675.7 102.783 666.6 112.35C657.733 121.917 653.3 135.333 653.3 152.6V217.7C653.3 236.133 657.5 250.017 665.9 259.35C674.533 268.45 687.367 273 704.4 273Z"/>
</mask>
<path d="M704.4 312.9C675.467 312.9 652.25 304.967 634.75 289.1C617.25 273 608.5 248.733 608.5 216.3V154.7C608.5 123.2 617.25 99.2833 634.75 82.95C652.25 66.3833 675.467 58.1 704.4 58.1C733.567 58.1 756.783 66.3833 774.05 82.95C791.55 99.2833 800.3 123.2 800.3 154.7V216.3C800.3 248.733 791.55 273 774.05 289.1C756.783 304.967 733.567 312.9 704.4 312.9ZM704.4 273C721.9 273 734.733 268.217 742.9 258.65C751.3 249.083 755.5 235.433 755.5 217.7V152.6C755.5 134.633 750.833 121.1 741.5 112C732.4 102.667 720.033 98 704.4 98C688.3 98 675.7 102.783 666.6 112.35C657.733 121.917 653.3 135.333 653.3 152.6V217.7C653.3 236.133 657.5 250.017 665.9 259.35C674.533 268.45 687.367 273 704.4 273Z" fill="#E34C20"/>
<path d="M634.75 289.1L633.396 290.572L633.401 290.577L633.407 290.582L634.75 289.1ZM634.75 82.95L636.115 84.4121L636.12 84.4073L636.125 84.4024L634.75 82.95ZM774.05 82.95L772.665 84.3932L772.675 84.4027L772.685 84.4121L774.05 82.95ZM774.05 289.1L775.403 290.573L775.404 290.572L774.05 289.1ZM742.9 258.65L741.397 257.33L741.388 257.341L741.379 257.351L742.9 258.65ZM741.5 112L740.068 113.396L740.086 113.414L740.104 113.432L741.5 112ZM666.6 112.35L665.151 110.972L665.142 110.981L665.133 110.99L666.6 112.35ZM665.9 259.35L664.413 260.688L664.431 260.707L664.449 260.727L665.9 259.35ZM704.4 310.9C675.846 310.9 653.147 303.08 636.093 287.618L633.407 290.582C651.353 306.853 675.087 314.9 704.4 314.9V310.9ZM636.104 287.628C619.149 272.03 610.5 248.385 610.5 216.3H606.5C606.5 249.081 615.351 273.97 633.396 290.572L636.104 287.628ZM610.5 216.3V154.7H606.5V216.3H610.5ZM610.5 154.7C610.5 123.571 619.137 100.258 636.115 84.4121L633.385 81.4879C615.363 98.3089 606.5 122.829 606.5 154.7H610.5ZM636.125 84.4024C653.181 68.2557 675.869 60.1 704.4 60.1V56.1C675.064 56.1 651.319 64.5109 633.375 81.4976L636.125 84.4024ZM704.4 60.1C733.17 60.1 755.849 68.2588 772.665 84.3932L775.435 81.5068C757.717 64.5078 733.963 56.1 704.4 56.1V60.1ZM772.685 84.4121C789.663 100.258 798.3 123.571 798.3 154.7H802.3C802.3 122.829 793.437 98.3089 775.415 81.4879L772.685 84.4121ZM798.3 154.7V216.3H802.3V154.7H798.3ZM798.3 216.3C798.3 248.385 789.651 272.03 772.696 287.628L775.404 290.572C793.449 273.97 802.3 249.081 802.3 216.3H798.3ZM772.697 287.627C755.883 303.077 733.193 310.9 704.4 310.9V314.9C733.94 314.9 757.683 306.856 775.403 290.573L772.697 287.627ZM704.4 275C722.246 275 735.743 270.115 744.421 259.949L741.379 257.351C733.724 266.319 721.554 271 704.4 271V275ZM744.403 259.97C753.23 249.917 757.5 235.729 757.5 217.7H753.5C753.5 235.138 749.37 248.25 741.397 257.33L744.403 259.97ZM757.5 217.7V152.6H753.5V217.7H757.5ZM757.5 152.6C757.5 134.303 752.743 120.169 742.896 110.568L740.104 113.432C748.923 122.031 753.5 134.963 753.5 152.6H757.5ZM742.932 110.604C733.382 100.809 720.457 96 704.4 96V100C719.61 100 731.418 104.524 740.068 113.396L742.932 110.604ZM704.4 96C687.881 96 674.709 100.923 665.151 110.972L668.049 113.728C676.691 104.643 688.719 100 704.4 100V96ZM665.133 110.99C655.825 121.034 651.3 134.996 651.3 152.6H655.3C655.3 135.67 659.642 122.8 668.067 113.71L665.133 110.99ZM651.3 152.6V217.7H655.3V152.6H651.3ZM651.3 217.7C651.3 236.4 655.557 250.848 664.413 260.688L667.387 258.012C659.443 249.185 655.3 235.866 655.3 217.7H651.3ZM664.449 260.727C673.58 270.351 687.021 275 704.4 275V271C687.712 271 675.486 266.549 667.351 257.973L664.449 260.727Z" fill="black" mask="url(#path-12-outside-3_97_226)"/>
<rect x="1116" y="770.062" width="14" height="234.88" fill="#D9D9D9" stroke="black" stroke-width="2"/>
<rect x="1051.5" y="741.944" width="142" height="12.8091" rx="5.5" fill="#DCB244" stroke="black"/>
<rect x="1051.5" y="748.317" width="142" height="22.3693" fill="black" stroke="black"/>
<path d="M1059.16 1020.88L1115.12 1006.94H1130.88L1186.84 1020.88H1059.16Z" fill="black" stroke="black" stroke-width="2"/>
<rect x="907" y="770.062" width="14" height="234.88" fill="#D9D9D9" stroke="black" stroke-width="2"/>
<rect x="842.5" y="741.944" width="142" height="12.8091" rx="5.5" fill="#DCB244" stroke="black"/>
<rect x="842.5" y="748.317" width="142" height="22.3693" fill="black" stroke="black"/>
<path d="M850.156 1020.88L906.123 1006.94H921.877L977.844 1020.88H850.156Z" fill="black" stroke="black" stroke-width="2"/>
<rect x="698" y="770.062" width="14" height="234.88" fill="#D9D9D9" stroke="black" stroke-width="2"/>
<rect x="633.5" y="741.944" width="142" height="12.8091" rx="5.5" fill="#DCB244" stroke="black"/>
<rect x="633.5" y="748.317" width="142" height="22.3693" fill="black" stroke="black"/>
<path d="M641.156 1020.88L697.123 1006.94H712.877L768.844 1020.88H641.156Z" fill="black" stroke="black" stroke-width="2"/>
<rect x="489" y="770.062" width="14" height="234.88" fill="#D9D9D9" stroke="black" stroke-width="2"/>
<rect x="424.5" y="741.944" width="142" height="12.8091" rx="5.5" fill="#DCB244" stroke="black"/>
<rect x="424.5" y="748.317" width="142" height="22.3693" fill="black" stroke="black"/>
<path d="M432.156 1020.88L488.123 1006.94H503.877L559.844 1020.88H432.156Z" fill="black" stroke="black" stroke-width="2"/>
<rect x="270" y="770.062" width="14" height="234.88" fill="#D9D9D9" stroke="black" stroke-width="2"/>
<rect x="205.5" y="741.944" width="142" height="12.8091" rx="5.5" fill="#DCB244" stroke="black"/>
<rect x="205.5" y="748.317" width="142" height="22.3693" fill="black" stroke="black"/>
<path d="M213.156 1020.88L269.123 1006.94H284.877L340.844 1020.88H213.156Z" fill="black" stroke="black" stroke-width="2"/>
<rect x="101" y="21" width="8" height="135" fill="black"/>
<circle cx="105" cy="15" r="9" fill="black"/>
<rect x="70.5" y="153.5" width="67" height="13" fill="#A3653E" stroke="black"/>
<rect x="70.5" y="476.5" width="67" height="13" fill="#A3653E" stroke="black"/>
<path d="M0 226.818H208V417.182H0V226.818Z" fill="black"/>
<path d="M208 415.664C208 452.852 161.438 483 104 483C46.5624 483 0 452.852 0 415.664C0 378.475 46.5624 348.327 104 348.327C161.438 348.327 208 378.475 208 415.664Z" fill="black"/>
<path d="M208 228.336C208 265.525 161.438 295.673 104 295.673C46.5624 295.673 0 265.525 0 228.336C0 191.148 46.5624 161 104 161C161.438 161 208 191.148 208 228.336Z" fill="black"/>
<path d="M2 228H206V416H2V228Z" fill="#FCFEF8"/>
<path d="M206 414.5C206 451.227 160.333 481 104 481C47.667 481 2 451.227 2 414.5C2 377.773 47.667 348 104 348C160.333 348 206 377.773 206 414.5Z" fill="#FCFEF8"/>
<path d="M206 229.5C206 266.227 160.333 296 104 296C47.667 296 2 266.227 2 229.5C2 192.773 47.667 163 104 163C160.333 163 206 192.773 206 229.5Z" fill="#FCFEF8"/>
<path d="M56.6 280V268.64H29.08V256.8L48.44 224H66.84V259.52H76.12V268.64H66.84V280H56.6ZM38.84 259.52H56.6V230.56H55.16L38.84 258.24V259.52ZM103.779 281.12C97.166 281.12 91.8594 279.307 87.8594 275.68C83.8594 272 81.8594 266.453 81.8594 259.04V244.96C81.8594 237.76 83.8594 232.293 87.8594 228.56C91.8594 224.773 97.166 222.88 103.779 222.88C110.446 222.88 115.753 224.773 119.699 228.56C123.699 232.293 125.699 237.76 125.699 244.96V259.04C125.699 266.453 123.699 272 119.699 275.68C115.753 279.307 110.446 281.12 103.779 281.12ZM103.779 272C107.779 272 110.713 270.907 112.579 268.72C114.499 266.533 115.459 263.413 115.459 259.36V244.48C115.459 240.373 114.393 237.28 112.259 235.2C110.179 233.067 107.353 232 103.779 232C100.099 232 97.2194 233.093 95.1394 235.28C93.1127 237.467 92.0994 240.533 92.0994 244.48V259.36C92.0994 263.573 93.0594 266.747 94.9794 268.88C96.9527 270.96 99.886 272 103.779 272ZM159.334 280V268.64H131.814V256.8L151.174 224H169.574V259.52H178.854V268.64H169.574V280H159.334ZM141.574 259.52H159.334V230.56H157.894L141.574 258.24V259.52Z" fill="black"/>
<path d="M60.3 361V326H72.85L79.8 356.5H80.7V326H87.2V361H74.65L67.7 330.5H66.8V361H60.3ZM107.396 361.7C102.996 361.7 99.4961 360.5 96.8961 358.1C94.2961 355.667 92.9961 352.2 92.9961 347.7V339.3C92.9961 334.8 94.2961 331.35 96.8961 328.95C99.4961 326.517 102.996 325.3 107.396 325.3C111.796 325.3 115.296 326.517 117.896 328.95C120.496 331.35 121.796 334.8 121.796 339.3V347.7C121.796 352.2 120.496 355.667 117.896 358.1C115.296 360.5 111.796 361.7 107.396 361.7ZM107.396 355.8C109.863 355.8 111.779 355.083 113.146 353.65C114.513 352.217 115.196 350.3 115.196 347.9V339.1C115.196 336.7 114.513 334.783 113.146 333.35C111.779 331.917 109.863 331.2 107.396 331.2C104.963 331.2 103.046 331.917 101.646 333.35C100.279 334.783 99.5961 336.7 99.5961 339.1V347.9C99.5961 350.3 100.279 352.217 101.646 353.65C103.046 355.083 104.963 355.8 107.396 355.8ZM134.269 361V332H124.069V326H151.069V332H140.869V361H134.269Z" fill="black"/>
<path d="M27.3 414V379H49.3V385H33.9V393.45H48.1V399.45H33.9V414H27.3ZM67.316 414.7C62.916 414.7 59.416 413.5 56.816 411.1C54.216 408.667 52.916 405.2 52.916 400.7V392.3C52.916 387.8 54.216 384.35 56.816 381.95C59.416 379.517 62.916 378.3 67.316 378.3C71.716 378.3 75.216 379.517 77.816 381.95C80.416 384.35 81.716 387.8 81.716 392.3V400.7C81.716 405.2 80.416 408.667 77.816 411.1C75.216 413.5 71.716 414.7 67.316 414.7ZM67.316 408.8C69.7827 408.8 71.6994 408.083 73.066 406.65C74.4327 405.217 75.116 403.3 75.116 400.9V392.1C75.116 389.7 74.4327 387.783 73.066 386.35C71.6994 384.917 69.7827 384.2 67.316 384.2C64.8827 384.2 62.966 384.917 61.566 386.35C60.1993 387.783 59.516 389.7 59.516 392.1V400.9C59.516 403.3 60.1993 405.217 61.566 406.65C62.966 408.083 64.8827 408.8 67.316 408.8ZM101.005 414.7C98.1384 414.7 95.6717 414.183 93.6051 413.15C91.5717 412.083 90.0051 410.583 88.9051 408.65C87.8384 406.683 87.3051 404.367 87.3051 401.7V379H93.9051V401.9C93.9051 404.033 94.5051 405.717 95.7051 406.95C96.9384 408.183 98.7051 408.8 101.005 408.8C103.305 408.8 105.055 408.183 106.255 406.95C107.488 405.717 108.105 404.033 108.105 401.9V379H114.705V401.7C114.705 404.367 114.155 406.683 113.055 408.65C111.988 410.583 110.422 412.083 108.355 413.15C106.322 414.183 103.872 414.7 101.005 414.7ZM121.099 414V379H133.649L140.599 409.5H141.499V379H147.999V414H135.449L128.499 383.5H127.599V414H121.099ZM153.595 414V408.2H158.195V384.8H153.595V379H167.995C172.695 379 176.262 380.2 178.695 382.6C181.162 384.967 182.395 388.5 182.395 393.2V399.8C182.395 404.5 181.162 408.05 178.695 410.45C176.262 412.817 172.695 414 167.995 414H153.595ZM164.795 408H168.095C170.762 408 172.712 407.3 173.945 405.9C175.178 404.5 175.795 402.533 175.795 400V393C175.795 390.433 175.178 388.467 173.945 387.1C172.712 385.7 170.762 385 168.095 385H164.795V408Z" fill="black"/>
<path d="M1269.27 572.376C1268.98 572.294 1268.71 572.157 1268.46 571.963C1267.44 571.158 1267.26 569.677 1268.06 568.652L1310.51 514.596C1311.31 513.571 1312.8 513.395 1313.82 514.197C1314.84 515.001 1315.02 516.483 1314.21 517.508L1271.77 571.564C1271.16 572.34 1270.16 572.632 1269.27 572.376Z" stroke="black"/>
<path d="M1306.37 552.723C1298.96 584.226 1278.44 599.705 1269.99 604.886C1267.78 606.244 1265.24 606.943 1262.65 606.943H1218.08C1215.49 606.943 1212.95 606.244 1210.73 604.886C1202.29 599.705 1181.77 584.226 1174.36 552.723" stroke="black"/>
<path d="M1268.77 570.853C1268.25 570.705 1267.78 570.381 1267.46 569.898C1266.73 568.816 1267.02 567.352 1268.11 566.628L1319.67 532.128C1320.75 531.406 1322.21 531.693 1322.94 532.776C1323.66 533.858 1323.37 535.323 1322.29 536.046L1270.73 570.546C1270.13 570.948 1269.41 571.037 1268.77 570.853Z" stroke="black"/>
<path d="M1306.37 552.723H1174.36C1181.77 584.226 1202.29 599.705 1210.73 604.886C1212.95 606.244 1215.49 606.943 1218.08 606.943H1243.22C1242.12 606.943 1241.03 606.535 1240.08 605.728C1235.66 601.993 1222.92 589.265 1216.45 562.699C1216.09 561.223 1217.23 559.795 1218.75 559.795H1304.38C1305.11 557.524 1305.79 555.187 1306.37 552.723Z" stroke="black"/>
<path d="M1306.37 555.08H1174.36C1173.05 555.08 1172 554.024 1172 552.723C1172 551.421 1173.05 550.365 1174.36 550.365H1306.37C1307.67 550.365 1308.73 551.421 1308.73 552.723C1308.73 554.024 1307.67 555.08 1306.37 555.08Z" stroke="black"/>
<path d="M1268.77 571.57L1268.77 571.57C1267.96 570.935 1267.82 569.768 1268.46 568.961L1268.46 568.961L1310.9 514.904L1310.9 514.904C1311.53 514.097 1312.71 513.959 1313.51 514.59L1313.51 514.59C1314.31 515.224 1314.46 516.392 1313.82 517.199L1313.82 517.199L1271.38 571.255C1271.38 571.255 1271.38 571.255 1271.38 571.255C1270.9 571.867 1270.11 572.097 1269.4 571.895C1269.18 571.831 1268.96 571.723 1268.77 571.57Z" fill="#803030" stroke="black"/>
<path d="M1269.27 572.376C1268.98 572.294 1268.71 572.157 1268.46 571.963C1267.44 571.158 1267.26 569.677 1268.06 568.652L1310.51 514.596C1311.31 513.571 1312.8 513.395 1313.82 514.197C1314.84 515.001 1315.02 516.483 1314.21 517.508L1271.77 571.564C1271.16 572.34 1270.16 572.632 1269.27 572.376Z" stroke="black"/>
<path d="M1268.77 571.57L1268.77 571.57C1267.96 570.935 1267.82 569.768 1268.46 568.961L1268.46 568.961L1310.9 514.904L1310.9 514.904C1311.53 514.097 1312.71 513.959 1313.51 514.59L1313.51 514.59C1314.31 515.224 1314.46 516.392 1313.82 517.199L1313.82 517.199L1271.38 571.255C1271.38 571.255 1271.38 571.255 1271.38 571.255C1270.9 571.867 1270.11 572.097 1269.4 571.895C1269.18 571.831 1268.96 571.723 1268.77 571.57Z" fill="#803030" stroke="black"/>
<path d="M1267.87 569.62L1267.88 569.621C1268.13 570.001 1268.5 570.256 1268.9 570.372C1269.41 570.518 1269.98 570.447 1270.45 570.131L1267.87 569.62ZM1267.87 569.62C1267.3 568.768 1267.53 567.614 1268.38 567.043L1319.94 532.544M1267.87 569.62L1319.94 532.544M1319.94 532.544C1319.94 532.544 1319.94 532.544 1319.94 532.544C1320.8 531.974 1321.95 532.201 1322.52 533.054L1322.52 533.055C1323.09 533.907 1322.86 535.061 1322.01 535.631C1322.01 535.631 1322.01 535.631 1322.01 535.631L1270.45 570.131L1319.94 532.544Z" fill="#803030" stroke="black"/>
<mask id="path-52-inside-4_97_226" fill="white">
<path d="M1306.37 552.723C1298.96 584.226 1278.44 599.705 1269.99 604.886C1267.78 606.244 1265.24 606.943 1262.65 606.943H1218.08C1215.49 606.943 1212.95 606.244 1210.73 604.886C1202.29 599.705 1181.77 584.226 1174.36 552.723"/>
</mask>
<path d="M1306.37 552.723C1298.96 584.226 1278.44 599.705 1269.99 604.886C1267.78 606.244 1265.24 606.943 1262.65 606.943H1218.08C1215.49 606.943 1212.95 606.244 1210.73 604.886C1202.29 599.705 1181.77 584.226 1174.36 552.723" fill="#FFF5F5"/>
<path d="M1269.99 604.886L1270.52 605.738L1270.52 605.738L1269.99 604.886ZM1210.73 604.886L1211.26 604.034L1211.26 604.034L1210.73 604.886ZM1305.4 552.494C1298.07 583.643 1277.78 598.932 1269.47 604.034L1270.52 605.738C1279.09 600.478 1299.85 584.809 1307.34 552.952L1305.4 552.494ZM1269.47 604.034C1267.42 605.292 1265.06 605.943 1262.65 605.943V607.943C1265.42 607.943 1268.14 607.195 1270.52 605.738L1269.47 604.034ZM1262.65 605.943H1218.08V607.943H1262.65V605.943ZM1218.08 605.943C1215.67 605.943 1213.31 605.293 1211.26 604.034L1210.21 605.738C1212.58 607.195 1215.31 607.943 1218.08 607.943V605.943ZM1211.26 604.034C1202.94 598.932 1182.66 583.643 1175.33 552.494L1173.38 552.952C1180.88 584.809 1201.64 600.478 1210.21 605.738L1211.26 604.034Z" fill="black" mask="url(#path-52-inside-4_97_226)"/>
<path d="M1211 604.46C1213.13 605.768 1215.58 606.443 1218.08 606.443H1240.19C1240.04 606.34 1239.9 606.228 1239.76 606.109C1235.27 602.318 1222.46 589.502 1215.97 562.817L1215.97 562.817C1215.53 561.021 1216.92 559.295 1218.75 559.295H1304.02C1304.64 557.332 1305.22 555.322 1305.74 553.223H1174.99C1182.48 584.136 1202.67 599.352 1211 604.46ZM1211 604.46L1210.73 604.886L1211 604.46Z" fill="#AEEFFF" stroke="black"/>
<path d="M1306.37 554.58H1174.36C1173.33 554.58 1172.5 553.748 1172.5 552.723C1172.5 551.697 1173.33 550.865 1174.36 550.865H1306.37C1307.4 550.865 1308.23 551.697 1308.23 552.723C1308.23 553.748 1307.4 554.58 1306.37 554.58Z" fill="#FFF5F5" stroke="black"/>
<path d="M715.471 543.792C715.141 543.792 714.807 543.73 714.485 543.598C713.148 543.053 712.505 541.528 713.051 540.191L741.799 469.628C742.342 468.29 743.874 467.65 745.203 468.193C746.541 468.739 747.184 470.263 746.638 471.601L717.89 542.164C717.477 543.177 716.502 543.792 715.471 543.792Z" stroke="black"/>
<path d="M720.697 564.698C730.801 564.698 738.992 556.507 738.992 546.404C738.992 536.3 730.801 528.11 720.697 528.11C710.594 528.11 702.403 536.3 702.403 546.404C702.403 556.507 710.594 564.698 720.697 564.698Z" stroke="black"/>
<path d="M720.697 559.471C727.914 559.471 733.765 553.621 733.765 546.404C733.765 539.187 727.914 533.337 720.697 533.337C713.481 533.337 707.63 539.187 707.63 546.404C707.63 553.621 713.481 559.471 720.697 559.471Z" stroke="black"/>
<path d="M678.882 575.152C694.759 575.152 707.63 562.281 707.63 546.404C707.63 530.527 694.759 517.656 678.882 517.656C663.005 517.656 650.134 530.527 650.134 546.404C650.134 562.281 663.005 575.152 678.882 575.152Z" stroke="black"/>
<path d="M678.882 569.925C691.872 569.925 702.403 559.394 702.403 546.404C702.403 533.414 691.872 522.883 678.882 522.883C665.892 522.883 655.361 533.414 655.361 546.404C655.361 559.394 665.892 569.925 678.882 569.925Z" stroke="black"/>
<path d="M678.882 564.698C688.986 564.698 697.176 556.507 697.176 546.404C697.176 536.3 688.986 528.11 678.882 528.11C668.779 528.11 660.588 536.3 660.588 546.404C660.588 556.507 668.779 564.698 678.882 564.698Z" stroke="black"/>
<path d="M678.882 559.471C686.099 559.471 691.949 553.621 691.949 546.404C691.949 539.187 686.099 533.337 678.882 533.337C671.665 533.337 665.815 539.187 665.815 546.404C665.815 553.621 671.665 559.471 678.882 559.471Z" stroke="black"/>
<path d="M678.882 554.244C683.212 554.244 686.723 550.734 686.723 546.404C686.723 542.074 683.212 538.564 678.882 538.564C674.552 538.564 671.042 542.074 671.042 546.404C671.042 550.734 674.552 554.244 678.882 554.244Z" stroke="black"/>
<path d="M720.697 554.244C725.028 554.244 728.538 550.734 728.538 546.404C728.538 542.074 725.028 538.564 720.697 538.564C716.367 538.564 712.857 542.074 712.857 546.404C712.857 550.734 716.367 554.244 720.697 554.244Z" stroke="black"/>
<path d="M772.966 546.405C764.749 581.329 741.996 598.49 732.639 604.234C730.186 605.739 727.369 606.514 724.491 606.514H675.089C672.211 606.514 669.394 605.739 666.941 604.234C657.583 598.49 634.831 581.329 626.614 546.405" stroke="black"/>
<path d="M723.308 549.018C722.714 549.018 722.114 548.815 721.624 548.399C720.521 547.467 720.383 545.818 721.315 544.716L765.744 492.217C766.678 491.117 768.324 490.976 769.426 491.91C770.529 492.842 770.667 494.491 769.735 495.593L725.306 548.093C724.789 548.704 724.051 549.018 723.308 549.018Z" stroke="black"/>
<path d="M772.966 546.405H626.614C634.831 581.33 657.583 598.49 666.941 604.234C669.394 605.739 672.211 606.514 675.089 606.514H702.957C701.736 606.514 700.533 606.062 699.473 605.167C694.576 601.027 680.448 586.917 673.28 557.464C672.882 555.828 674.148 554.245 675.831 554.245H770.761C771.568 551.727 772.324 549.136 772.966 546.405Z" stroke="black"/>
<path d="M772.966 549.018H626.614C625.169 549.018 624 547.848 624 546.404C624 544.961 625.169 543.791 626.614 543.791H772.966C774.411 543.791 775.58 544.961 775.58 546.404C775.58 547.848 774.411 549.018 772.966 549.018Z" stroke="black"/>
<path d="M714.674 543.135L714.674 543.135C713.592 542.694 713.072 541.461 713.514 540.38L713.514 540.38L742.262 469.817L742.262 469.816C742.701 468.735 743.94 468.217 745.014 468.656L745.015 468.657C746.097 469.098 746.616 470.33 746.175 471.412L746.175 471.412L717.427 541.975C717.427 541.975 717.427 541.975 717.427 541.975C717.093 542.795 716.305 543.292 715.471 543.292C715.205 543.292 714.935 543.242 714.674 543.135Z" fill="#803030" stroke="black"/>
<path d="M738.492 546.404C738.492 556.231 730.525 564.198 720.697 564.198C710.87 564.198 702.903 556.231 702.903 546.404C702.903 536.577 710.87 528.61 720.697 528.61C730.525 528.61 738.492 536.577 738.492 546.404Z" fill="#FFDC78" stroke="black"/>
<path d="M733.265 546.404C733.265 553.345 727.638 558.971 720.697 558.971C713.757 558.971 708.13 553.345 708.13 546.404C708.13 539.463 713.757 533.837 720.697 533.837C727.638 533.837 733.265 539.463 733.265 546.404Z" fill="#FFCF65" stroke="black"/>
<path d="M707.13 546.404C707.13 562.005 694.483 574.652 678.882 574.652C663.281 574.652 650.634 562.005 650.634 546.404C650.634 530.803 663.281 518.156 678.882 518.156C694.483 518.156 707.13 530.803 707.13 546.404Z" fill="#FFDC78" stroke="black"/>
<path d="M701.903 546.404C701.903 559.118 691.596 569.425 678.882 569.425C666.168 569.425 655.861 559.118 655.861 546.404C655.861 533.69 666.168 523.383 678.882 523.383C691.596 523.383 701.903 533.69 701.903 546.404Z" fill="#FFCF65" stroke="black"/>
<path d="M696.676 546.404C696.676 556.231 688.71 564.198 678.882 564.198C669.055 564.198 661.088 556.231 661.088 546.404C661.088 536.577 669.055 528.61 678.882 528.61C688.71 528.61 696.676 536.577 696.676 546.404Z" fill="#FFDC78" stroke="black"/>
<path d="M691.449 546.404C691.449 553.345 685.823 558.971 678.882 558.971C671.941 558.971 666.315 553.345 666.315 546.404C666.315 539.463 671.941 533.837 678.882 533.837C685.823 533.837 691.449 539.463 691.449 546.404Z" fill="#FFCF65" stroke="black"/>
<path d="M686.223 546.404C686.223 550.458 682.936 553.744 678.882 553.744C674.828 553.744 671.542 550.458 671.542 546.404C671.542 542.35 674.828 539.064 678.882 539.064C682.936 539.064 686.223 542.35 686.223 546.404Z" fill="#FFDC78" stroke="black"/>
<path d="M728.038 546.404C728.038 550.458 724.751 553.744 720.697 553.744C716.643 553.744 713.357 550.458 713.357 546.404C713.357 542.35 716.643 539.064 720.697 539.064C724.751 539.064 728.038 542.35 728.038 546.404Z" fill="#FFDC78" stroke="black"/>
<mask id="path-78-inside-5_97_226" fill="white">
<path d="M772.966 546.405C764.749 581.329 741.996 598.49 732.639 604.234C730.186 605.739 727.369 606.514 724.491 606.514H675.089C672.211 606.514 669.394 605.739 666.941 604.234C657.583 598.49 634.831 581.329 626.614 546.405"/>
</mask>
<path d="M772.966 546.405C764.749 581.329 741.996 598.49 732.639 604.234C730.186 605.739 727.369 606.514 724.491 606.514H675.089C672.211 606.514 669.394 605.739 666.941 604.234C657.583 598.49 634.831 581.329 626.614 546.405" fill="#FFF5F5"/>
<path d="M732.639 604.234L733.162 605.086L733.162 605.086L732.639 604.234ZM666.941 604.234L667.464 603.381L667.464 603.381L666.941 604.234ZM771.993 546.175C763.858 580.747 741.345 597.717 732.115 603.381L733.162 605.086C742.648 599.263 765.639 581.912 773.94 546.634L771.993 546.175ZM732.115 603.381C729.824 604.788 727.189 605.514 724.491 605.514V607.514C727.549 607.514 730.547 606.69 733.162 605.086L732.115 603.381ZM724.491 605.514H675.089V607.514H724.491V605.514ZM675.089 605.514C672.39 605.514 669.756 604.788 667.464 603.381L666.418 605.086C669.032 606.691 672.031 607.514 675.089 607.514V605.514ZM667.464 603.381C658.235 597.717 635.721 580.747 627.587 546.175L625.64 546.634C633.941 581.912 656.932 599.263 666.418 605.086L667.464 603.381Z" fill="black" mask="url(#path-78-inside-5_97_226)"/>
<path d="M721.948 548.018L721.947 548.017C721.055 547.264 720.944 545.93 721.697 545.039L766.125 492.54C766.125 492.54 766.125 492.54 766.125 492.54C766.882 491.649 768.212 491.537 769.103 492.292L769.103 492.292C769.995 493.045 770.106 494.379 769.353 495.27L724.925 547.77C724.925 547.77 724.925 547.77 724.925 547.77C724.506 548.264 723.911 548.518 723.308 548.518C722.827 548.518 722.344 548.354 721.948 548.018Z" fill="#803030" stroke="black"/>
<path d="M699.768 606.014H675.089C672.301 606.014 669.575 605.263 667.203 603.807C657.964 598.137 635.543 581.24 627.247 546.905H772.332C771.757 549.271 771.098 551.536 770.396 553.745H675.831C673.83 553.745 672.319 555.626 672.794 557.582L672.794 557.582C679.991 587.154 694.186 601.352 699.151 605.549C699.351 605.718 699.557 605.873 699.768 606.014Z" fill="#AEEFFF" stroke="black"/>
<path d="M772.966 548.518H626.614C625.445 548.518 624.5 547.572 624.5 546.404C624.5 545.237 625.445 544.291 626.614 544.291H772.966C774.135 544.291 775.08 545.237 775.08 546.404C775.08 547.572 774.135 548.518 772.966 548.518Z" fill="#FFF5F5" stroke="black"/>
<rect x="348" y="259" width="725" height="181" fill="black"/>
<rect x="335.5" y="252.5" width="729" height="180" fill="white" stroke="black"/>
<path d="M417.257 303.42C415.637 303.42 414.207 303.13 412.967 302.55C411.727 301.97 410.757 301.14 410.057 300.06C409.357 298.98 409.007 297.68 409.007 296.16V295.32H412.907V296.16C412.907 297.42 413.297 298.37 414.077 299.01C414.857 299.63 415.917 299.94 417.257 299.94C418.617 299.94 419.627 299.67 420.287 299.13C420.967 298.59 421.307 297.9 421.307 297.06C421.307 296.48 421.137 296.01 420.797 295.65C420.477 295.29 419.997 295 419.357 294.78C418.737 294.54 417.977 294.32 417.077 294.12L416.387 293.97C414.947 293.65 413.707 293.25 412.667 292.77C411.647 292.27 410.857 291.62 410.297 290.82C409.757 290.02 409.487 288.98 409.487 287.7C409.487 286.42 409.787 285.33 410.387 284.43C411.007 283.51 411.867 282.81 412.967 282.33C414.087 281.83 415.397 281.58 416.897 281.58C418.397 281.58 419.727 281.84 420.887 282.36C422.067 282.86 422.987 283.62 423.647 284.64C424.327 285.64 424.667 286.9 424.667 288.42V289.32H420.767V288.42C420.767 287.62 420.607 286.98 420.287 286.5C419.987 286 419.547 285.64 418.967 285.42C418.387 285.18 417.697 285.06 416.897 285.06C415.697 285.06 414.807 285.29 414.227 285.75C413.667 286.19 413.387 286.8 413.387 287.58C413.387 288.1 413.517 288.54 413.777 288.9C414.057 289.26 414.467 289.56 415.007 289.8C415.547 290.04 416.237 290.25 417.077 290.43L417.767 290.58C419.267 290.9 420.567 291.31 421.667 291.81C422.787 292.31 423.657 292.97 424.277 293.79C424.897 294.61 425.207 295.66 425.207 296.94C425.207 298.22 424.877 299.35 424.217 300.33C423.577 301.29 422.657 302.05 421.457 302.61C420.277 303.15 418.877 303.42 417.257 303.42ZM435.361 303.42C433.881 303.42 432.551 303.12 431.371 302.52C430.191 301.92 429.261 301.05 428.581 299.91C427.901 298.77 427.561 297.4 427.561 295.8V295.32C427.561 293.72 427.901 292.35 428.581 291.21C429.261 290.07 430.191 289.2 431.371 288.6C432.551 288 433.881 287.7 435.361 287.7C436.841 287.7 438.171 288 439.351 288.6C440.531 289.2 441.461 290.07 442.141 291.21C442.821 292.35 443.161 293.72 443.161 295.32V295.8C443.161 297.4 442.821 298.77 442.141 299.91C441.461 301.05 440.531 301.92 439.351 302.52C438.171 303.12 436.841 303.42 435.361 303.42ZM435.361 300.06C436.521 300.06 437.481 299.69 438.241 298.95C439.001 298.19 439.381 297.11 439.381 295.71V295.41C439.381 294.01 439.001 292.94 438.241 292.2C437.501 291.44 436.541 291.06 435.361 291.06C434.201 291.06 433.241 291.44 432.481 292.2C431.721 292.94 431.341 294.01 431.341 295.41V295.71C431.341 297.11 431.721 298.19 432.481 298.95C433.241 299.69 434.201 300.06 435.361 300.06ZM446.65 303V288.12H450.37V289.8H450.91C451.13 289.2 451.49 288.76 451.99 288.48C452.51 288.2 453.11 288.06 453.79 288.06H455.59V291.42H453.73C452.77 291.42 451.98 291.68 451.36 292.2C450.74 292.7 450.43 293.48 450.43 294.54V303H446.65ZM458.544 303V288.12H462.264V289.8H462.804C463.024 289.2 463.384 288.76 463.884 288.48C464.404 288.2 465.004 288.06 465.684 288.06H467.484V291.42H465.624C464.664 291.42 463.874 291.68 463.254 292.2C462.634 292.7 462.324 293.48 462.324 294.54V303H458.544ZM472.059 309V305.7H480.159C480.719 305.7 480.999 305.4 480.999 304.8V301.05H480.459C480.299 301.39 480.049 301.73 479.709 302.07C479.369 302.41 478.909 302.69 478.329 302.91C477.749 303.13 477.009 303.24 476.109 303.24C474.949 303.24 473.929 302.98 473.049 302.46C472.189 301.92 471.519 301.18 471.039 300.24C470.559 299.3 470.319 298.22 470.319 297V288.12H474.099V296.7C474.099 297.82 474.369 298.66 474.909 299.22C475.469 299.78 476.259 300.06 477.279 300.06C478.439 300.06 479.339 299.68 479.979 298.92C480.619 298.14 480.939 297.06 480.939 295.68V288.12H484.719V305.64C484.719 306.66 484.419 307.47 483.819 308.07C483.219 308.69 482.419 309 481.419 309H472.059ZM489.195 307.41V305.37H490.365C491.285 305.37 491.745 304.91 491.745 303.99V303.03H491.235C490.435 303.03 489.765 302.79 489.225 302.31C488.705 301.83 488.445 301.22 488.445 300.48C488.445 299.68 488.705 299.03 489.225 298.53C489.765 298.03 490.435 297.78 491.235 297.78C492.055 297.78 492.725 298.04 493.245 298.56C493.765 299.06 494.025 299.74 494.025 300.6V304.05C494.025 306.29 492.905 307.41 490.665 307.41H489.195ZM505.653 303L503.553 288.12H507.303L508.623 300.45H509.163L511.083 288.12H517.143L519.063 300.45H519.603L520.923 288.12H524.673L522.573 303H516.303L514.383 290.67H513.843L511.923 303H505.653ZM534.699 303.42C533.219 303.42 531.909 303.11 530.769 302.49C529.649 301.85 528.769 300.96 528.129 299.82C527.509 298.66 527.199 297.3 527.199 295.74V295.38C527.199 293.82 527.509 292.47 528.129 291.33C528.749 290.17 529.619 289.28 530.739 288.66C531.859 288.02 533.159 287.7 534.639 287.7C536.099 287.7 537.369 288.03 538.449 288.69C539.529 289.33 540.369 290.23 540.969 291.39C541.569 292.53 541.869 293.86 541.869 295.38V296.67H531.039C531.079 297.69 531.459 298.52 532.179 299.16C532.899 299.8 533.779 300.12 534.819 300.12C535.879 300.12 536.659 299.89 537.159 299.43C537.659 298.97 538.039 298.46 538.299 297.9L541.389 299.52C541.109 300.04 540.699 300.61 540.159 301.23C539.639 301.83 538.939 302.35 538.059 302.79C537.179 303.21 536.059 303.42 534.699 303.42ZM531.069 293.85H538.029C537.949 292.99 537.599 292.3 536.979 291.78C536.379 291.26 535.589 291 534.609 291C533.589 291 532.779 291.26 532.179 291.78C531.579 292.3 531.209 292.99 531.069 293.85ZM558.851 303.42C557.671 303.42 556.561 303.13 555.521 302.55C554.501 301.95 553.681 301.08 553.061 299.94C552.441 298.8 552.131 297.42 552.131 295.8V295.32C552.131 293.7 552.441 292.32 553.061 291.18C553.681 290.04 554.501 289.18 555.521 288.6C556.541 288 557.651 287.7 558.851 287.7C559.751 287.7 560.501 287.81 561.101 288.03C561.721 288.23 562.221 288.49 562.601 288.81C562.981 289.13 563.271 289.47 563.471 289.83H564.011V282H567.791V303H564.071V301.2H563.531C563.191 301.76 562.661 302.27 561.941 302.73C561.241 303.19 560.211 303.42 558.851 303.42ZM559.991 300.12C561.151 300.12 562.121 299.75 562.901 299.01C563.681 298.25 564.071 297.15 564.071 295.71V295.41C564.071 293.97 563.681 292.88 562.901 292.14C562.141 291.38 561.171 291 559.991 291C558.831 291 557.861 291.38 557.081 292.14C556.301 292.88 555.911 293.97 555.911 295.41V295.71C555.911 297.15 556.301 298.25 557.081 299.01C557.861 299.75 558.831 300.12 559.991 300.12ZM571.982 303V288.12H575.762V303H571.982ZM573.872 286.38C573.192 286.38 572.612 286.16 572.132 285.72C571.672 285.28 571.442 284.7 571.442 283.98C571.442 283.26 571.672 282.68 572.132 282.24C572.612 281.8 573.192 281.58 573.872 281.58C574.572 281.58 575.152 281.8 575.612 282.24C576.072 282.68 576.302 283.26 576.302 283.98C576.302 284.7 576.072 285.28 575.612 285.72C575.152 286.16 574.572 286.38 573.872 286.38ZM585.951 303.42C584.771 303.42 583.661 303.13 582.621 302.55C581.601 301.95 580.781 301.08 580.161 299.94C579.541 298.8 579.231 297.42 579.231 295.8V295.32C579.231 293.7 579.541 292.32 580.161 291.18C580.781 290.04 581.601 289.18 582.621 288.6C583.641 288 584.751 287.7 585.951 287.7C586.851 287.7 587.601 287.81 588.201 288.03C588.821 288.23 589.321 288.49 589.701 288.81C590.081 289.13 590.371 289.47 590.571 289.83H591.111V282H594.891V303H591.171V301.2H590.631C590.291 301.76 589.761 302.27 589.041 302.73C588.341 303.19 587.311 303.42 585.951 303.42ZM587.091 300.12C588.251 300.12 589.221 299.75 590.001 299.01C590.781 298.25 591.171 297.15 591.171 295.71V295.41C591.171 293.97 590.781 292.88 590.001 292.14C589.241 291.38 588.271 291 587.091 291C585.931 291 584.961 291.38 584.181 292.14C583.401 292.88 583.011 293.97 583.011 295.41V295.71C583.011 297.15 583.401 298.25 584.181 299.01C584.961 299.75 585.931 300.12 587.091 300.12ZM606.699 303V288.12H610.419V290.07H610.959C611.199 289.55 611.649 289.06 612.309 288.6C612.969 288.12 613.969 287.88 615.309 287.88C616.469 287.88 617.479 288.15 618.339 288.69C619.219 289.21 619.899 289.94 620.379 290.88C620.859 291.8 621.099 292.88 621.099 294.12V303H617.319V294.42C617.319 293.3 617.039 292.46 616.479 291.9C615.939 291.34 615.159 291.06 614.139 291.06C612.979 291.06 612.079 291.45 611.439 292.23C610.799 292.99 610.479 294.06 610.479 295.44V303H606.699ZM632.265 303.42C630.785 303.42 629.455 303.12 628.275 302.52C627.095 301.92 626.165 301.05 625.485 299.91C624.805 298.77 624.465 297.4 624.465 295.8V295.32C624.465 293.72 624.805 292.35 625.485 291.21C626.165 290.07 627.095 289.2 628.275 288.6C629.455 288 630.785 287.7 632.265 287.7C633.745 287.7 635.075 288 636.255 288.6C637.435 289.2 638.365 290.07 639.045 291.21C639.725 292.35 640.065 293.72 640.065 295.32V295.8C640.065 297.4 639.725 298.77 639.045 299.91C638.365 301.05 637.435 301.92 636.255 302.52C635.075 303.12 633.745 303.42 632.265 303.42ZM632.265 300.06C633.425 300.06 634.385 299.69 635.145 298.95C635.905 298.19 636.285 297.11 636.285 295.71V295.41C636.285 294.01 635.905 292.94 635.145 292.2C634.405 291.44 633.445 291.06 632.265 291.06C631.105 291.06 630.145 291.44 629.385 292.2C628.625 292.94 628.245 294.01 628.245 295.41V295.71C628.245 297.11 628.625 298.19 629.385 298.95C630.145 299.69 631.105 300.06 632.265 300.06ZM648.756 303C647.776 303 646.976 302.7 646.356 302.1C645.756 301.48 645.456 300.66 645.456 299.64V291.24H641.736V288.12H645.456V283.5H649.236V288.12H653.316V291.24H649.236V298.98C649.236 299.58 649.516 299.88 650.076 299.88H652.956V303H648.756ZM666.815 303V291.24H663.035V288.12H666.815V285.36C666.815 284.34 667.115 283.53 667.715 282.93C668.335 282.31 669.135 282 670.115 282H673.715V285.12H671.435C670.875 285.12 670.595 285.42 670.595 286.02V288.12H676.595V291.24H670.595V303H666.815ZM676.595 303V288.12H680.375V303H676.595ZM678.485 286.5C677.805 286.5 677.225 286.28 676.745 285.84C676.285 285.4 676.055 284.82 676.055 284.1C676.055 283.38 676.285 282.8 676.745 282.36C677.225 281.92 677.805 281.7 678.485 281.7C679.185 281.7 679.765 281.92 680.225 282.36C680.685 282.8 680.915 283.38 680.915 284.1C680.915 284.82 680.685 285.4 680.225 285.84C679.765 286.28 679.185 286.5 678.485 286.5ZM684.57 303V288.12H688.29V290.07H688.83C689.07 289.55 689.52 289.06 690.18 288.6C690.84 288.12 691.84 287.88 693.18 287.88C694.34 287.88 695.35 288.15 696.21 288.69C697.09 289.21 697.77 289.94 698.25 290.88C698.73 291.8 698.97 292.88 698.97 294.12V303H695.19V294.42C695.19 293.3 694.91 292.46 694.35 291.9C693.81 291.34 693.03 291.06 692.01 291.06C690.85 291.06 689.95 291.45 689.31 292.23C688.67 292.99 688.35 294.06 688.35 295.44V303H684.57ZM709.056 303.42C707.876 303.42 706.766 303.13 705.726 302.55C704.706 301.95 703.886 301.08 703.266 299.94C702.646 298.8 702.336 297.42 702.336 295.8V295.32C702.336 293.7 702.646 292.32 703.266 291.18C703.886 290.04 704.706 289.18 705.726 288.6C706.746 288 707.856 287.7 709.056 287.7C709.956 287.7 710.706 287.81 711.306 288.03C711.926 288.23 712.426 288.49 712.806 288.81C713.186 289.13 713.476 289.47 713.676 289.83H714.216V282H717.996V303H714.276V301.2H713.736C713.396 301.76 712.866 302.27 712.146 302.73C711.446 303.19 710.416 303.42 709.056 303.42ZM710.196 300.12C711.356 300.12 712.326 299.75 713.106 299.01C713.886 298.25 714.276 297.15 714.276 295.71V295.41C714.276 293.97 713.886 292.88 713.106 292.14C712.346 291.38 711.376 291 710.196 291C709.036 291 708.066 291.38 707.286 292.14C706.506 292.88 706.116 293.97 706.116 295.41V295.71C706.116 297.15 706.506 298.25 707.286 299.01C708.066 299.75 709.036 300.12 710.196 300.12ZM735.504 303C734.524 303 733.724 302.7 733.104 302.1C732.504 301.48 732.204 300.66 732.204 299.64V291.24H728.484V288.12H732.204V283.5H735.984V288.12H740.064V291.24H735.984V298.98C735.984 299.58 736.264 299.88 736.824 299.88H739.704V303H735.504ZM743.486 303V282H747.266V289.95H747.806C747.966 289.63 748.216 289.31 748.556 288.99C748.896 288.67 749.346 288.41 749.906 288.21C750.486 287.99 751.216 287.88 752.096 287.88C753.256 287.88 754.266 288.15 755.126 288.69C756.006 289.21 756.686 289.94 757.166 290.88C757.646 291.8 757.886 292.88 757.886 294.12V303H754.106V294.42C754.106 293.3 753.826 292.46 753.266 291.9C752.726 291.34 751.946 291.06 750.926 291.06C749.766 291.06 748.866 291.45 748.226 292.23C747.586 292.99 747.266 294.06 747.266 295.44V303H743.486ZM768.752 303.42C767.272 303.42 765.962 303.11 764.822 302.49C763.702 301.85 762.822 300.96 762.182 299.82C761.562 298.66 761.252 297.3 761.252 295.74V295.38C761.252 293.82 761.562 292.47 762.182 291.33C762.802 290.17 763.672 289.28 764.792 288.66C765.912 288.02 767.212 287.7 768.692 287.7C770.152 287.7 771.422 288.03 772.502 288.69C773.582 289.33 774.422 290.23 775.022 291.39C775.622 292.53 775.922 293.86 775.922 295.38V296.67H765.092C765.132 297.69 765.512 298.52 766.232 299.16C766.952 299.8 767.832 300.12 768.872 300.12C769.932 300.12 770.712 299.89 771.212 299.43C771.712 298.97 772.092 298.46 772.352 297.9L775.442 299.52C775.162 300.04 774.752 300.61 774.212 301.23C773.692 301.83 772.992 302.35 772.112 302.79C771.232 303.21 770.112 303.42 768.752 303.42ZM765.122 293.85H772.082C772.002 292.99 771.652 292.3 771.032 291.78C770.432 291.26 769.642 291 768.662 291C767.642 291 766.832 291.26 766.232 291.78C765.632 292.3 765.262 292.99 765.122 293.85ZM793.084 303.42C791.144 303.42 789.554 303 788.314 302.16C787.074 301.32 786.324 300.12 786.064 298.56L789.544 297.66C789.684 298.36 789.914 298.91 790.234 299.31C790.574 299.71 790.984 300 791.464 300.18C791.964 300.34 792.504 300.42 793.084 300.42C793.964 300.42 794.614 300.27 795.034 299.97C795.454 299.65 795.664 299.26 795.664 298.8C795.664 298.34 795.464 297.99 795.064 297.75C794.664 297.49 794.024 297.28 793.144 297.12L792.304 296.97C791.264 296.77 790.314 296.5 789.454 296.16C788.594 295.8 787.904 295.31 787.384 294.69C786.864 294.07 786.604 293.27 786.604 292.29C786.604 290.81 787.144 289.68 788.224 288.9C789.304 288.1 790.724 287.7 792.484 287.7C794.144 287.7 795.524 288.07 796.624 288.81C797.724 289.55 798.444 290.52 798.784 291.72L795.274 292.8C795.114 292.04 794.784 291.5 794.284 291.18C793.804 290.86 793.204 290.7 792.484 290.7C791.764 290.7 791.214 290.83 790.834 291.09C790.454 291.33 790.264 291.67 790.264 292.11C790.264 292.59 790.464 292.95 790.864 293.19C791.264 293.41 791.804 293.58 792.484 293.7L793.324 293.85C794.444 294.05 795.454 294.32 796.354 294.66C797.274 294.98 797.994 295.45 798.514 296.07C799.054 296.67 799.324 297.49 799.324 298.53C799.324 300.09 798.754 301.3 797.614 302.16C796.494 303 794.984 303.42 793.084 303.42ZM802.636 303V288.12H806.416V303H802.636ZM804.526 286.38C803.846 286.38 803.266 286.16 802.786 285.72C802.326 285.28 802.096 284.7 802.096 283.98C802.096 283.26 802.326 282.68 802.786 282.24C803.266 281.8 803.846 281.58 804.526 281.58C805.226 281.58 805.806 281.8 806.266 282.24C806.726 282.68 806.956 283.26 806.956 283.98C806.956 284.7 806.726 285.28 806.266 285.72C805.806 286.16 805.226 286.38 804.526 286.38ZM816.305 303C815.325 303 814.525 302.7 813.905 302.1C813.305 301.48 813.005 300.66 813.005 299.64V291.24H809.285V288.12H813.005V283.5H816.785V288.12H820.865V291.24H816.785V298.98C816.785 299.58 817.065 299.88 817.625 299.88H820.505V303H816.305ZM830.539 303.42C829.059 303.42 827.749 303.11 826.609 302.49C825.489 301.85 824.609 300.96 823.969 299.82C823.349 298.66 823.039 297.3 823.039 295.74V295.38C823.039 293.82 823.349 292.47 823.969 291.33C824.589 290.17 825.459 289.28 826.579 288.66C827.699 288.02 828.999 287.7 830.479 287.7C831.939 287.7 833.209 288.03 834.289 288.69C835.369 289.33 836.209 290.23 836.809 291.39C837.409 292.53 837.709 293.86 837.709 295.38V296.67H826.879C826.919 297.69 827.299 298.52 828.019 299.16C828.739 299.8 829.619 300.12 830.659 300.12C831.719 300.12 832.499 299.89 832.999 299.43C833.499 298.97 833.879 298.46 834.139 297.9L837.229 299.52C836.949 300.04 836.539 300.61 835.999 301.23C835.479 301.83 834.779 302.35 833.899 302.79C833.019 303.21 831.899 303.42 830.539 303.42ZM826.909 293.85H833.869C833.789 292.99 833.439 292.3 832.819 291.78C832.219 291.26 831.429 291 830.449 291C829.429 291 828.619 291.26 828.019 291.78C827.419 292.3 827.049 292.99 826.909 293.85ZM850.311 309V305.7H858.411C858.971 305.7 859.251 305.4 859.251 304.8V301.05H858.711C858.551 301.39 858.301 301.73 857.961 302.07C857.621 302.41 857.161 302.69 856.581 302.91C856.001 303.13 855.261 303.24 854.361 303.24C853.201 303.24 852.181 302.98 851.301 302.46C850.441 301.92 849.771 301.18 849.291 300.24C848.811 299.3 848.571 298.22 848.571 297V288.12H852.351V296.7C852.351 297.82 852.621 298.66 853.161 299.22C853.721 299.78 854.511 300.06 855.531 300.06C856.691 300.06 857.591 299.68 858.231 298.92C858.871 298.14 859.191 297.06 859.191 295.68V288.12H862.971V305.64C862.971 306.66 862.671 307.47 862.071 308.07C861.471 308.69 860.671 309 859.671 309H850.311ZM874.257 303.42C872.777 303.42 871.447 303.12 870.267 302.52C869.087 301.92 868.157 301.05 867.477 299.91C866.797 298.77 866.457 297.4 866.457 295.8V295.32C866.457 293.72 866.797 292.35 867.477 291.21C868.157 290.07 869.087 289.2 870.267 288.6C871.447 288 872.777 287.7 874.257 287.7C875.737 287.7 877.067 288 878.247 288.6C879.427 289.2 880.357 290.07 881.037 291.21C881.717 292.35 882.057 293.72 882.057 295.32V295.8C882.057 297.4 881.717 298.77 881.037 299.91C880.357 301.05 879.427 301.92 878.247 302.52C877.067 303.12 875.737 303.42 874.257 303.42ZM874.257 300.06C875.417 300.06 876.377 299.69 877.137 298.95C877.897 298.19 878.277 297.11 878.277 295.71V295.41C878.277 294.01 877.897 292.94 877.137 292.2C876.397 291.44 875.437 291.06 874.257 291.06C873.097 291.06 872.137 291.44 871.377 292.2C870.617 292.94 870.237 294.01 870.237 295.41V295.71C870.237 297.11 870.617 298.19 871.377 298.95C872.137 299.69 873.097 300.06 874.257 300.06ZM891.216 303.24C890.056 303.24 889.036 302.98 888.156 302.46C887.296 301.92 886.626 301.18 886.146 300.24C885.666 299.3 885.426 298.22 885.426 297V288.12H889.206V296.7C889.206 297.82 889.476 298.66 890.016 299.22C890.576 299.78 891.366 300.06 892.386 300.06C893.546 300.06 894.446 299.68 895.086 298.92C895.726 298.14 896.046 297.06 896.046 295.68V288.12H899.826V303H896.106V301.05H895.566C895.326 301.55 894.876 302.04 894.216 302.52C893.556 303 892.556 303.24 891.216 303.24ZM912.85 303L910.75 288.12H914.5L915.82 300.45H916.36L918.28 288.12H924.34L926.26 300.45H926.8L928.12 288.12H931.87L929.77 303H923.5L921.58 290.67H921.04L919.12 303H912.85ZM941.897 303.42C940.417 303.42 939.107 303.11 937.967 302.49C936.847 301.85 935.967 300.96 935.327 299.82C934.707 298.66 934.397 297.3 934.397 295.74V295.38C934.397 293.82 934.707 292.47 935.327 291.33C935.947 290.17 936.817 289.28 937.937 288.66C939.057 288.02 940.357 287.7 941.837 287.7C943.297 287.7 944.567 288.03 945.647 288.69C946.727 289.33 947.567 290.23 948.167 291.39C948.767 292.53 949.067 293.86 949.067 295.38V296.67H938.237C938.277 297.69 938.657 298.52 939.377 299.16C940.097 299.8 940.977 300.12 942.017 300.12C943.077 300.12 943.857 299.89 944.357 299.43C944.857 298.97 945.237 298.46 945.497 297.9L948.587 299.52C948.307 300.04 947.897 300.61 947.357 301.23C946.837 301.83 946.137 302.35 945.257 302.79C944.377 303.21 943.257 303.42 941.897 303.42ZM938.267 293.85H945.227C945.147 292.99 944.797 292.3 944.177 291.78C943.577 291.26 942.787 291 941.807 291C940.787 291 939.977 291.26 939.377 291.78C938.777 292.3 938.407 292.99 938.267 293.85ZM952.431 303V288.12H956.151V289.8H956.691C956.911 289.2 957.271 288.76 957.771 288.48C958.291 288.2 958.891 288.06 959.571 288.06H961.371V291.42H959.511C958.551 291.42 957.761 291.68 957.141 292.2C956.521 292.7 956.211 293.48 956.211 294.54V303H952.431ZM970.578 303.42C969.098 303.42 967.788 303.11 966.648 302.49C965.528 301.85 964.648 300.96 964.008 299.82C963.388 298.66 963.078 297.3 963.078 295.74V295.38C963.078 293.82 963.388 292.47 964.008 291.33C964.628 290.17 965.498 289.28 966.618 288.66C967.738 288.02 969.038 287.7 970.518 287.7C971.978 287.7 973.248 288.03 974.328 288.69C975.408 289.33 976.248 290.23 976.848 291.39C977.448 292.53 977.748 293.86 977.748 295.38V296.67H966.918C966.958 297.69 967.338 298.52 968.058 299.16C968.778 299.8 969.658 300.12 970.698 300.12C971.758 300.12 972.538 299.89 973.038 299.43C973.538 298.97 973.918 298.46 974.178 297.9L977.268 299.52C976.988 300.04 976.578 300.61 976.038 301.23C975.518 301.83 974.818 302.35 973.938 302.79C973.058 303.21 971.938 303.42 970.578 303.42ZM966.948 293.85H973.908C973.828 292.99 973.478 292.3 972.858 291.78C972.258 291.26 971.468 291 970.488 291C969.468 291 968.658 291.26 968.058 291.78C967.458 292.3 967.088 292.99 966.948 293.85ZM613.496 341V320H617.276V341H613.496ZM628.544 341.42C627.064 341.42 625.734 341.12 624.554 340.52C623.374 339.92 622.444 339.05 621.764 337.91C621.084 336.77 620.744 335.4 620.744 333.8V333.32C620.744 331.72 621.084 330.35 621.764 329.21C622.444 328.07 623.374 327.2 624.554 326.6C625.734 326 627.064 325.7 628.544 325.7C630.024 325.7 631.354 326 632.534 326.6C633.714 327.2 634.644 328.07 635.324 329.21C636.004 330.35 636.344 331.72 636.344 333.32V333.8C636.344 335.4 636.004 336.77 635.324 337.91C634.644 339.05 633.714 339.92 632.534 340.52C631.354 341.12 630.024 341.42 628.544 341.42ZM628.544 338.06C629.704 338.06 630.664 337.69 631.424 336.95C632.184 336.19 632.564 335.11 632.564 333.71V333.41C632.564 332.01 632.184 330.94 631.424 330.2C630.684 329.44 629.724 329.06 628.544 329.06C627.384 329.06 626.424 329.44 625.664 330.2C624.904 330.94 624.524 332.01 624.524 333.41V333.71C624.524 335.11 624.904 336.19 625.664 336.95C626.424 337.69 627.384 338.06 628.544 338.06ZM646.913 341.42C645.433 341.42 644.103 341.12 642.923 340.52C641.743 339.92 640.813 339.05 640.133 337.91C639.453 336.77 639.113 335.4 639.113 333.8V333.32C639.113 331.72 639.453 330.35 640.133 329.21C640.813 328.07 641.743 327.2 642.923 326.6C644.103 326 645.433 325.7 646.913 325.7C648.393 325.7 649.723 326 650.903 326.6C652.083 327.2 653.013 328.07 653.693 329.21C654.373 330.35 654.713 331.72 654.713 333.32V333.8C654.713 335.4 654.373 336.77 653.693 337.91C653.013 339.05 652.083 339.92 650.903 340.52C649.723 341.12 648.393 341.42 646.913 341.42ZM646.913 338.06C648.073 338.06 649.033 337.69 649.793 336.95C650.553 336.19 650.933 335.11 650.933 333.71V333.41C650.933 332.01 650.553 330.94 649.793 330.2C649.053 329.44 648.093 329.06 646.913 329.06C645.753 329.06 644.793 329.44 644.033 330.2C643.273 330.94 642.893 332.01 642.893 333.41V333.71C642.893 335.11 643.273 336.19 644.033 336.95C644.793 337.69 645.753 338.06 646.913 338.06ZM658.203 341V320H661.983V331.61H662.523L667.443 326.12H672.363L665.493 333.32L672.603 341H667.743L662.523 335.09H661.983V341H658.203ZM675.136 341V326.12H678.916V341H675.136ZM677.026 324.38C676.346 324.38 675.766 324.16 675.286 323.72C674.826 323.28 674.596 322.7 674.596 321.98C674.596 321.26 674.826 320.68 675.286 320.24C675.766 319.8 676.346 319.58 677.026 319.58C677.726 319.58 678.306 319.8 678.766 320.24C679.226 320.68 679.456 321.26 679.456 321.98C679.456 322.7 679.226 323.28 678.766 323.72C678.306 324.16 677.726 324.38 677.026 324.38ZM683.105 341V326.12H686.825V328.07H687.365C687.605 327.55 688.055 327.06 688.715 326.6C689.375 326.12 690.375 325.88 691.715 325.88C692.875 325.88 693.885 326.15 694.745 326.69C695.625 327.21 696.305 327.94 696.785 328.88C697.265 329.8 697.505 330.88 697.505 332.12V341H693.725V332.42C693.725 331.3 693.445 330.46 692.885 329.9C692.345 329.34 691.565 329.06 690.545 329.06C689.385 329.06 688.485 329.45 687.845 330.23C687.205 330.99 686.885 332.06 686.885 333.44V341H683.105ZM700.871 333.62V333.14C700.871 331.58 701.181 330.25 701.801 329.15C702.421 328.03 703.241 327.18 704.261 326.6C705.301 326 706.431 325.7 707.651 325.7C709.011 325.7 710.041 325.94 710.741 326.42C711.441 326.9 711.951 327.4 712.271 327.92H712.811V326.12H716.531V343.64C716.531 344.66 716.231 345.47 715.631 346.07C715.031 346.69 714.231 347 713.231 347H703.271V343.7H711.911C712.471 343.7 712.751 343.4 712.751 342.8V338.93H712.211C712.011 339.25 711.731 339.58 711.371 339.92C711.011 340.24 710.531 340.51 709.931 340.73C709.331 340.95 708.571 341.06 707.651 341.06C706.431 341.06 705.301 340.77 704.261 340.19C703.241 339.59 702.421 338.74 701.801 337.64C701.181 336.52 700.871 335.18 700.871 333.62ZM708.731 337.76C709.891 337.76 710.861 337.39 711.641 336.65C712.421 335.91 712.811 334.87 712.811 333.53V333.23C712.811 331.87 712.421 330.83 711.641 330.11C710.881 329.37 709.911 329 708.731 329C707.571 329 706.601 329.37 705.821 330.11C705.041 330.83 704.651 331.87 704.651 333.23V333.53C704.651 334.87 705.041 335.91 705.821 336.65C706.601 337.39 707.571 337.76 708.731 337.76ZM730.799 341V329.24H727.019V326.12H730.799V323.36C730.799 322.34 731.099 321.53 731.699 320.93C732.319 320.31 733.119 320 734.099 320H737.999V323.12H735.419C734.859 323.12 734.579 323.42 734.579 324.02V326.12H738.479V329.24H734.579V341H730.799ZM747.988 341.42C746.508 341.42 745.178 341.12 743.998 340.52C742.818 339.92 741.888 339.05 741.208 337.91C740.528 336.77 740.188 335.4 740.188 333.8V333.32C740.188 331.72 740.528 330.35 741.208 329.21C741.888 328.07 742.818 327.2 743.998 326.6C745.178 326 746.508 325.7 747.988 325.7C749.468 325.7 750.798 326 751.978 326.6C753.158 327.2 754.088 328.07 754.768 329.21C755.448 330.35 755.788 331.72 755.788 333.32V333.8C755.788 335.4 755.448 336.77 754.768 337.91C754.088 339.05 753.158 339.92 751.978 340.52C750.798 341.12 749.468 341.42 747.988 341.42ZM747.988 338.06C749.148 338.06 750.108 337.69 750.868 336.95C751.628 336.19 752.008 335.11 752.008 333.71V333.41C752.008 332.01 751.628 330.94 750.868 330.2C750.128 329.44 749.168 329.06 747.988 329.06C746.828 329.06 745.868 329.44 745.108 330.2C744.348 330.94 743.968 332.01 743.968 333.41V333.71C743.968 335.11 744.348 336.19 745.108 336.95C745.868 337.69 746.828 338.06 747.988 338.06ZM759.277 341V326.12H762.997V327.8H763.537C763.757 327.2 764.117 326.76 764.617 326.48C765.137 326.2 765.737 326.06 766.417 326.06H768.217V329.42H766.357C765.397 329.42 764.607 329.68 763.987 330.2C763.367 330.7 763.057 331.48 763.057 332.54V341H759.277ZM771.139 341.42C770.339 341.42 769.659 341.16 769.099 340.64C768.559 340.1 768.289 339.41 768.289 338.57C768.289 337.73 768.559 337.05 769.099 336.53C769.659 335.99 770.339 335.72 771.139 335.72C771.959 335.72 772.639 335.99 773.179 336.53C773.719 337.05 773.989 337.73 773.989 338.57C773.989 339.41 773.719 340.1 773.179 340.64C772.639 341.16 771.959 341.42 771.139 341.42ZM393.385 417V396H397.345V404.67H405.145V396H409.105V417H405.145V408.27H397.345V417H393.385ZM417.813 417.42C416.753 417.42 415.803 417.24 414.963 416.88C414.123 416.5 413.453 415.96 412.953 415.26C412.473 414.54 412.233 413.67 412.233 412.65C412.233 411.63 412.473 410.78 412.953 410.1C413.453 409.4 414.133 408.88 414.993 408.54C415.873 408.18 416.873 408 417.993 408H422.073V407.16C422.073 406.46 421.853 405.89 421.413 405.45C420.973 404.99 420.273 404.76 419.313 404.76C418.373 404.76 417.673 404.98 417.213 405.42C416.753 405.84 416.453 406.39 416.313 407.07L412.833 405.9C413.073 405.14 413.453 404.45 413.973 403.83C414.513 403.19 415.223 402.68 416.103 402.3C417.003 401.9 418.093 401.7 419.373 401.7C421.333 401.7 422.883 402.19 424.023 403.17C425.163 404.15 425.733 405.57 425.733 407.43V412.98C425.733 413.58 426.013 413.88 426.573 413.88H427.773V417H425.253C424.513 417 423.903 416.82 423.423 416.46C422.943 416.1 422.703 415.62 422.703 415.02V414.99H422.133C422.053 415.23 421.873 415.55 421.593 415.95C421.313 416.33 420.873 416.67 420.273 416.97C419.673 417.27 418.853 417.42 417.813 417.42ZM418.473 414.36C419.533 414.36 420.393 414.07 421.053 413.49C421.733 412.89 422.073 412.1 422.073 411.12V410.82H418.263C417.563 410.82 417.013 410.97 416.613 411.27C416.213 411.57 416.013 411.99 416.013 412.53C416.013 413.07 416.223 413.51 416.643 413.85C417.063 414.19 417.673 414.36 418.473 414.36ZM432.807 417L428.067 402.12H432.087L435.537 414.24H436.077L439.527 402.12H443.547L438.807 417H432.807ZM452.463 417.42C450.983 417.42 449.673 417.11 448.533 416.49C447.413 415.85 446.533 414.96 445.893 413.82C445.273 412.66 444.963 411.3 444.963 409.74V409.38C444.963 407.82 445.273 406.47 445.893 405.33C446.513 404.17 447.383 403.28 448.503 402.66C449.623 402.02 450.923 401.7 452.403 401.7C453.863 401.7 455.133 402.03 456.213 402.69C457.293 403.33 458.133 404.23 458.733 405.39C459.333 406.53 459.633 407.86 459.633 409.38V410.67H448.803C448.843 411.69 449.223 412.52 449.943 413.16C450.663 413.8 451.543 414.12 452.583 414.12C453.643 414.12 454.423 413.89 454.923 413.43C455.423 412.97 455.803 412.46 456.063 411.9L459.153 413.52C458.873 414.04 458.463 414.61 457.923 415.23C457.403 415.83 456.703 416.35 455.823 416.79C454.943 417.21 453.823 417.42 452.463 417.42ZM448.833 407.85H455.793C455.713 406.99 455.363 406.3 454.743 405.78C454.143 405.26 453.353 405 452.373 405C451.353 405 450.543 405.26 449.943 405.78C449.343 406.3 448.973 406.99 448.833 407.85ZM476.795 417.42C474.855 417.42 473.265 417 472.025 416.16C470.785 415.32 470.035 414.12 469.775 412.56L473.255 411.66C473.395 412.36 473.625 412.91 473.945 413.31C474.285 413.71 474.695 414 475.175 414.18C475.675 414.34 476.215 414.42 476.795 414.42C477.675 414.42 478.325 414.27 478.745 413.97C479.165 413.65 479.375 413.26 479.375 412.8C479.375 412.34 479.175 411.99 478.775 411.75C478.375 411.49 477.735 411.28 476.855 411.12L476.015 410.97C474.975 410.77 474.025 410.5 473.165 410.16C472.305 409.8 471.615 409.31 471.095 408.69C470.575 408.07 470.315 407.27 470.315 406.29C470.315 404.81 470.855 403.68 471.935 402.9C473.015 402.1 474.435 401.7 476.195 401.7C477.855 401.7 479.235 402.07 480.335 402.81C481.435 403.55 482.155 404.52 482.495 405.72L478.985 406.8C478.825 406.04 478.495 405.5 477.995 405.18C477.515 404.86 476.915 404.7 476.195 404.7C475.475 404.7 474.925 404.83 474.545 405.09C474.165 405.33 473.975 405.67 473.975 406.11C473.975 406.59 474.175 406.95 474.575 407.19C474.975 407.41 475.515 407.58 476.195 407.7L477.035 407.85C478.155 408.05 479.165 408.32 480.065 408.66C480.985 408.98 481.705 409.45 482.225 410.07C482.765 410.67 483.035 411.49 483.035 412.53C483.035 414.09 482.465 415.3 481.325 416.16C480.205 417 478.695 417.42 476.795 417.42ZM493.427 417.42C491.947 417.42 490.617 417.12 489.437 416.52C488.257 415.92 487.327 415.05 486.647 413.91C485.967 412.77 485.627 411.4 485.627 409.8V409.32C485.627 407.72 485.967 406.35 486.647 405.21C487.327 404.07 488.257 403.2 489.437 402.6C490.617 402 491.947 401.7 493.427 401.7C494.907 401.7 496.237 402 497.417 402.6C498.597 403.2 499.527 404.07 500.207 405.21C500.887 406.35 501.227 407.72 501.227 409.32V409.8C501.227 411.4 500.887 412.77 500.207 413.91C499.527 415.05 498.597 415.92 497.417 416.52C496.237 417.12 494.907 417.42 493.427 417.42ZM493.427 414.06C494.587 414.06 495.547 413.69 496.307 412.95C497.067 412.19 497.447 411.11 497.447 409.71V409.41C497.447 408.01 497.067 406.94 496.307 406.2C495.567 405.44 494.607 405.06 493.427 405.06C492.267 405.06 491.307 405.44 490.547 406.2C489.787 406.94 489.407 408.01 489.407 409.41V409.71C489.407 411.11 489.787 412.19 490.547 412.95C491.307 413.69 492.267 414.06 493.427 414.06ZM504.716 417V402.12H508.436V403.74H508.976C509.236 403.24 509.666 402.81 510.266 402.45C510.866 402.07 511.656 401.88 512.636 401.88C513.696 401.88 514.546 402.09 515.186 402.51C515.826 402.91 516.316 403.44 516.656 404.1H517.196C517.536 403.46 518.016 402.93 518.636 402.51C519.256 402.09 520.136 401.88 521.276 401.88C522.196 401.88 523.026 402.08 523.766 402.48C524.526 402.86 525.126 403.45 525.566 404.25C526.026 405.03 526.256 406.02 526.256 407.22V417H522.476V407.49C522.476 406.67 522.266 406.06 521.846 405.66C521.426 405.24 520.836 405.03 520.076 405.03C519.216 405.03 518.546 405.31 518.066 405.87C517.606 406.41 517.376 407.19 517.376 408.21V417H513.596V407.49C513.596 406.67 513.386 406.06 512.966 405.66C512.546 405.24 511.956 405.03 511.196 405.03C510.336 405.03 509.666 405.31 509.186 405.87C508.726 406.41 508.496 407.19 508.496 408.21V417H504.716ZM537.102 417.42C535.622 417.42 534.312 417.11 533.172 416.49C532.052 415.85 531.172 414.96 530.532 413.82C529.912 412.66 529.602 411.3 529.602 409.74V409.38C529.602 407.82 529.912 406.47 530.532 405.33C531.152 404.17 532.022 403.28 533.142 402.66C534.262 402.02 535.562 401.7 537.042 401.7C538.502 401.7 539.772 402.03 540.852 402.69C541.932 403.33 542.772 404.23 543.372 405.39C543.972 406.53 544.272 407.86 544.272 409.38V410.67H533.442C533.482 411.69 533.862 412.52 534.582 413.16C535.302 413.8 536.182 414.12 537.222 414.12C538.282 414.12 539.062 413.89 539.562 413.43C540.062 412.97 540.442 412.46 540.702 411.9L543.792 413.52C543.512 414.04 543.102 414.61 542.562 415.23C542.042 415.83 541.342 416.35 540.462 416.79C539.582 417.21 538.462 417.42 537.102 417.42ZM533.472 407.85H540.432C540.352 406.99 540.002 406.3 539.382 405.78C538.782 405.26 537.992 405 537.012 405C535.992 405 535.182 405.26 534.582 405.78C533.982 406.3 533.612 406.99 533.472 407.85ZM555.253 417V402.12H558.973V404.07H559.513C559.753 403.55 560.203 403.06 560.863 402.6C561.523 402.12 562.523 401.88 563.863 401.88C565.023 401.88 566.033 402.15 566.893 402.69C567.773 403.21 568.453 403.94 568.933 404.88C569.413 405.8 569.653 406.88 569.653 408.12V417H565.873V408.42C565.873 407.3 565.593 406.46 565.033 405.9C564.493 405.34 563.713 405.06 562.693 405.06C561.533 405.06 560.633 405.45 559.993 406.23C559.353 406.99 559.033 408.06 559.033 409.44V417H555.253ZM579.175 417.24C578.015 417.24 576.995 416.98 576.115 416.46C575.255 415.92 574.585 415.18 574.105 414.24C573.625 413.3 573.385 412.22 573.385 411V402.12H577.165V410.7C577.165 411.82 577.435 412.66 577.975 413.22C578.535 413.78 579.325 414.06 580.345 414.06C581.505 414.06 582.405 413.68 583.045 412.92C583.685 412.14 584.005 411.06 584.005 409.68V402.12H587.785V417H584.065V415.05H583.525C583.285 415.55 582.835 416.04 582.175 416.52C581.515 417 580.515 417.24 579.175 417.24ZM597.992 417.42C596.812 417.42 595.702 417.13 594.662 416.55C593.642 415.95 592.822 415.08 592.202 413.94C591.582 412.8 591.272 411.42 591.272 409.8V409.32C591.272 407.7 591.582 406.32 592.202 405.18C592.822 404.04 593.642 403.18 594.662 402.6C595.682 402 596.792 401.7 597.992 401.7C598.892 401.7 599.642 401.81 600.242 402.03C600.862 402.23 601.362 402.49 601.742 402.81C602.122 403.13 602.412 403.47 602.612 403.83H603.152V396H606.932V417H603.212V415.2H602.672C602.332 415.76 601.802 416.27 601.082 416.73C600.382 417.19 599.352 417.42 597.992 417.42ZM599.132 414.12C600.292 414.12 601.262 413.75 602.042 413.01C602.822 412.25 603.212 411.15 603.212 409.71V409.41C603.212 407.97 602.822 406.88 602.042 406.14C601.282 405.38 600.312 405 599.132 405C597.972 405 597.002 405.38 596.222 406.14C595.442 406.88 595.052 407.97 595.052 409.41V409.71C595.052 411.15 595.442 412.25 596.222 413.01C597.002 413.75 597.972 414.12 599.132 414.12ZM617.902 417.42C616.422 417.42 615.112 417.11 613.972 416.49C612.852 415.85 611.972 414.96 611.332 413.82C610.712 412.66 610.402 411.3 610.402 409.74V409.38C610.402 407.82 610.712 406.47 611.332 405.33C611.952 404.17 612.822 403.28 613.942 402.66C615.062 402.02 616.362 401.7 617.842 401.7C619.302 401.7 620.572 402.03 621.652 402.69C622.732 403.33 623.572 404.23 624.172 405.39C624.772 406.53 625.072 407.86 625.072 409.38V410.67H614.242C614.282 411.69 614.662 412.52 615.382 413.16C616.102 413.8 616.982 414.12 618.022 414.12C619.082 414.12 619.862 413.89 620.362 413.43C620.862 412.97 621.242 412.46 621.502 411.9L624.592 413.52C624.312 414.04 623.902 414.61 623.362 415.23C622.842 415.83 622.142 416.35 621.262 416.79C620.382 417.21 619.262 417.42 617.902 417.42ZM614.272 407.85H621.232C621.152 406.99 620.802 406.3 620.182 405.78C619.582 405.26 618.792 405 617.812 405C616.792 405 615.982 405.26 615.382 405.78C614.782 406.3 614.412 406.99 614.272 407.85ZM628.437 417V396H632.217V417H628.437ZM642.586 417.42C640.646 417.42 639.056 417 637.816 416.16C636.576 415.32 635.826 414.12 635.566 412.56L639.046 411.66C639.186 412.36 639.416 412.91 639.736 413.31C640.076 413.71 640.486 414 640.966 414.18C641.466 414.34 642.006 414.42 642.586 414.42C643.466 414.42 644.116 414.27 644.536 413.97C644.956 413.65 645.166 413.26 645.166 412.8C645.166 412.34 644.966 411.99 644.566 411.75C644.166 411.49 643.526 411.28 642.646 411.12L641.806 410.97C640.766 410.77 639.816 410.5 638.956 410.16C638.096 409.8 637.406 409.31 636.886 408.69C636.366 408.07 636.106 407.27 636.106 406.29C636.106 404.81 636.646 403.68 637.726 402.9C638.806 402.1 640.226 401.7 641.986 401.7C643.646 401.7 645.026 402.07 646.126 402.81C647.226 403.55 647.946 404.52 648.286 405.72L644.776 406.8C644.616 406.04 644.286 405.5 643.786 405.18C643.306 404.86 642.706 404.7 641.986 404.7C641.266 404.7 640.716 404.83 640.336 405.09C639.956 405.33 639.766 405.67 639.766 406.11C639.766 406.59 639.966 406.95 640.366 407.19C640.766 407.41 641.306 407.58 641.986 407.7L642.826 407.85C643.946 408.05 644.956 408.32 645.856 408.66C646.776 408.98 647.496 409.45 648.016 410.07C648.556 410.67 648.826 411.49 648.826 412.53C648.826 414.09 648.256 415.3 647.116 416.16C645.996 417 644.486 417.42 642.586 417.42ZM659.218 417.42C657.738 417.42 656.408 417.12 655.228 416.52C654.048 415.92 653.118 415.05 652.438 413.91C651.758 412.77 651.418 411.4 651.418 409.8V409.32C651.418 407.72 651.758 406.35 652.438 405.21C653.118 404.07 654.048 403.2 655.228 402.6C656.408 402 657.738 401.7 659.218 401.7C660.698 401.7 662.028 402 663.208 402.6C664.388 403.2 665.318 404.07 665.998 405.21C666.678 406.35 667.018 407.72 667.018 409.32V409.8C667.018 411.4 666.678 412.77 665.998 413.91C665.318 415.05 664.388 415.92 663.208 416.52C662.028 417.12 660.698 417.42 659.218 417.42ZM659.218 414.06C660.378 414.06 661.338 413.69 662.098 412.95C662.858 412.19 663.238 411.11 663.238 409.71V409.41C663.238 408.01 662.858 406.94 662.098 406.2C661.358 405.44 660.398 405.06 659.218 405.06C658.058 405.06 657.098 405.44 656.338 406.2C655.578 406.94 655.198 408.01 655.198 409.41V409.71C655.198 411.11 655.578 412.19 656.338 412.95C657.098 413.69 658.058 414.06 659.218 414.06ZM676.177 417.24C675.017 417.24 673.997 416.98 673.117 416.46C672.257 415.92 671.587 415.18 671.107 414.24C670.627 413.3 670.387 412.22 670.387 411V402.12H674.167V410.7C674.167 411.82 674.437 412.66 674.977 413.22C675.537 413.78 676.327 414.06 677.347 414.06C678.507 414.06 679.407 413.68 680.047 412.92C680.687 412.14 681.007 411.06 681.007 409.68V402.12H684.787V417H681.067V415.05H680.527C680.287 415.55 679.837 416.04 679.177 416.52C678.517 417 677.517 417.24 676.177 417.24ZM688.994 423V402.12H692.714V403.92H693.254C693.594 403.34 694.124 402.83 694.844 402.39C695.564 401.93 696.594 401.7 697.934 401.7C699.134 401.7 700.244 402 701.264 402.6C702.284 403.18 703.104 404.04 703.724 405.18C704.344 406.32 704.654 407.7 704.654 409.32V409.8C704.654 411.42 704.344 412.8 703.724 413.94C703.104 415.08 702.284 415.95 701.264 416.55C700.244 417.13 699.134 417.42 697.934 417.42C697.034 417.42 696.274 417.31 695.654 417.09C695.054 416.89 694.564 416.63 694.184 416.31C693.824 415.97 693.534 415.63 693.314 415.29H692.774V423H688.994ZM696.794 414.12C697.974 414.12 698.944 413.75 699.704 413.01C700.484 412.25 700.874 411.15 700.874 409.71V409.41C700.874 407.97 700.484 406.88 699.704 406.14C698.924 405.38 697.954 405 696.794 405C695.634 405 694.664 405.38 693.884 406.14C693.104 406.88 692.714 407.97 692.714 409.41V409.71C692.714 411.15 693.104 412.25 693.884 413.01C694.664 413.75 695.634 414.12 696.794 414.12ZM724.682 417.42C723.342 417.42 722.312 417.19 721.592 416.73C720.872 416.27 720.342 415.76 720.002 415.2H719.462V417H715.742V396H719.522V403.83H720.062C720.282 403.47 720.572 403.13 720.932 402.81C721.312 402.49 721.802 402.23 722.402 402.03C723.022 401.81 723.782 401.7 724.682 401.7C725.882 401.7 726.992 402 728.012 402.6C729.032 403.18 729.852 404.04 730.472 405.18C731.092 406.32 731.402 407.7 731.402 409.32V409.8C731.402 411.42 731.092 412.8 730.472 413.94C729.852 415.08 729.032 415.95 728.012 416.55C726.992 417.13 725.882 417.42 724.682 417.42ZM723.542 414.12C724.702 414.12 725.672 413.75 726.452 413.01C727.232 412.25 727.622 411.15 727.622 409.71V409.41C727.622 407.97 727.232 406.88 726.452 406.14C725.692 405.38 724.722 405 723.542 405C722.382 405 721.412 405.38 720.632 406.14C719.852 406.88 719.462 407.97 719.462 409.41V409.71C719.462 411.15 719.852 412.25 720.632 413.01C721.412 413.75 722.382 414.12 723.542 414.12ZM741.652 417.42C740.172 417.42 738.862 417.11 737.722 416.49C736.602 415.85 735.722 414.96 735.082 413.82C734.462 412.66 734.152 411.3 734.152 409.74V409.38C734.152 407.82 734.462 406.47 735.082 405.33C735.702 404.17 736.572 403.28 737.692 402.66C738.812 402.02 740.112 401.7 741.592 401.7C743.052 401.7 744.322 402.03 745.402 402.69C746.482 403.33 747.322 404.23 747.922 405.39C748.522 406.53 748.822 407.86 748.822 409.38V410.67H737.992C738.032 411.69 738.412 412.52 739.132 413.16C739.852 413.8 740.732 414.12 741.772 414.12C742.832 414.12 743.612 413.89 744.112 413.43C744.612 412.97 744.992 412.46 745.252 411.9L748.342 413.52C748.062 414.04 747.652 414.61 747.112 415.23C746.592 415.83 745.892 416.35 745.012 416.79C744.132 417.21 743.012 417.42 741.652 417.42ZM738.022 407.85H744.982C744.902 406.99 744.552 406.3 743.932 405.78C743.332 405.26 742.542 405 741.562 405C740.542 405 739.732 405.26 739.132 405.78C738.532 406.3 738.162 406.99 738.022 407.85ZM754.149 417V405.24H750.369V402.12H754.149V399.36C754.149 398.34 754.449 397.53 755.049 396.93C755.669 396.31 756.469 396 757.449 396H761.349V399.12H758.769C758.209 399.12 757.929 399.42 757.929 400.02V402.12H761.829V405.24H757.929V417H754.149ZM771.337 417.42C769.857 417.42 768.527 417.12 767.347 416.52C766.167 415.92 765.237 415.05 764.557 413.91C763.877 412.77 763.537 411.4 763.537 409.8V409.32C763.537 407.72 763.877 406.35 764.557 405.21C765.237 404.07 766.167 403.2 767.347 402.6C768.527 402 769.857 401.7 771.337 401.7C772.817 401.7 774.147 402 775.327 402.6C776.507 403.2 777.437 404.07 778.117 405.21C778.797 406.35 779.137 407.72 779.137 409.32V409.8C779.137 411.4 778.797 412.77 778.117 413.91C777.437 415.05 776.507 415.92 775.327 416.52C774.147 417.12 772.817 417.42 771.337 417.42ZM771.337 414.06C772.497 414.06 773.457 413.69 774.217 412.95C774.977 412.19 775.357 411.11 775.357 409.71V409.41C775.357 408.01 774.977 406.94 774.217 406.2C773.477 405.44 772.517 405.06 771.337 405.06C770.177 405.06 769.217 405.44 768.457 406.2C767.697 406.94 767.317 408.01 767.317 409.41V409.71C767.317 411.11 767.697 412.19 768.457 412.95C769.217 413.69 770.177 414.06 771.337 414.06ZM782.626 417V402.12H786.346V403.8H786.886C787.106 403.2 787.466 402.76 787.966 402.48C788.486 402.2 789.086 402.06 789.766 402.06H791.566V405.42H789.706C788.746 405.42 787.956 405.68 787.336 406.2C786.716 406.7 786.406 407.48 786.406 408.54V417H782.626ZM800.774 417.42C799.294 417.42 797.984 417.11 796.844 416.49C795.724 415.85 794.844 414.96 794.204 413.82C793.584 412.66 793.274 411.3 793.274 409.74V409.38C793.274 407.82 793.584 406.47 794.204 405.33C794.824 404.17 795.694 403.28 796.814 402.66C797.934 402.02 799.234 401.7 800.714 401.7C802.174 401.7 803.444 402.03 804.524 402.69C805.604 403.33 806.444 404.23 807.044 405.39C807.644 406.53 807.944 407.86 807.944 409.38V410.67H797.114C797.154 411.69 797.534 412.52 798.254 413.16C798.974 413.8 799.854 414.12 800.894 414.12C801.954 414.12 802.734 413.89 803.234 413.43C803.734 412.97 804.114 412.46 804.374 411.9L807.464 413.52C807.184 414.04 806.774 414.61 806.234 415.23C805.714 415.83 805.014 416.35 804.134 416.79C803.254 417.21 802.134 417.42 800.774 417.42ZM797.144 407.85H804.104C804.024 406.99 803.674 406.3 803.054 405.78C802.454 405.26 801.664 405 800.684 405C799.664 405 798.854 405.26 798.254 405.78C797.654 406.3 797.284 406.99 797.144 407.85ZM820.545 423V419.7H828.645C829.205 419.7 829.485 419.4 829.485 418.8V415.05H828.945C828.785 415.39 828.535 415.73 828.195 416.07C827.855 416.41 827.395 416.69 826.815 416.91C826.235 417.13 825.495 417.24 824.595 417.24C823.435 417.24 822.415 416.98 821.535 416.46C820.675 415.92 820.005 415.18 819.525 414.24C819.045 413.3 818.805 412.22 818.805 411V402.12H822.585V410.7C822.585 411.82 822.855 412.66 823.395 413.22C823.955 413.78 824.745 414.06 825.765 414.06C826.925 414.06 827.825 413.68 828.465 412.92C829.105 412.14 829.425 411.06 829.425 409.68V402.12H833.205V419.64C833.205 420.66 832.905 421.47 832.305 422.07C831.705 422.69 830.905 423 829.905 423H820.545ZM844.492 417.42C843.012 417.42 841.682 417.12 840.502 416.52C839.322 415.92 838.392 415.05 837.712 413.91C837.032 412.77 836.692 411.4 836.692 409.8V409.32C836.692 407.72 837.032 406.35 837.712 405.21C838.392 404.07 839.322 403.2 840.502 402.6C841.682 402 843.012 401.7 844.492 401.7C845.972 401.7 847.302 402 848.482 402.6C849.662 403.2 850.592 404.07 851.272 405.21C851.952 406.35 852.292 407.72 852.292 409.32V409.8C852.292 411.4 851.952 412.77 851.272 413.91C850.592 415.05 849.662 415.92 848.482 416.52C847.302 417.12 845.972 417.42 844.492 417.42ZM844.492 414.06C845.652 414.06 846.612 413.69 847.372 412.95C848.132 412.19 848.512 411.11 848.512 409.71V409.41C848.512 408.01 848.132 406.94 847.372 406.2C846.632 405.44 845.672 405.06 844.492 405.06C843.332 405.06 842.372 405.44 841.612 406.2C840.852 406.94 840.472 408.01 840.472 409.41V409.71C840.472 411.11 840.852 412.19 841.612 412.95C842.372 413.69 843.332 414.06 844.492 414.06ZM861.451 417.24C860.291 417.24 859.271 416.98 858.391 416.46C857.531 415.92 856.861 415.18 856.381 414.24C855.901 413.3 855.661 412.22 855.661 411V402.12H859.441V410.7C859.441 411.82 859.711 412.66 860.251 413.22C860.811 413.78 861.601 414.06 862.621 414.06C863.781 414.06 864.681 413.68 865.321 412.92C865.961 412.14 866.281 411.06 866.281 409.68V402.12H870.061V417H866.341V415.05H865.801C865.561 415.55 865.111 416.04 864.451 416.52C863.791 417 862.791 417.24 861.451 417.24ZM881.164 409.62V409.14C881.164 407.58 881.474 406.25 882.094 405.15C882.714 404.03 883.534 403.18 884.554 402.6C885.594 402 886.724 401.7 887.944 401.7C889.304 401.7 890.334 401.94 891.034 402.42C891.734 402.9 892.244 403.4 892.564 403.92H893.104V402.12H896.824V419.64C896.824 420.66 896.524 421.47 895.924 422.07C895.324 422.69 894.524 423 893.524 423H883.564V419.7H892.204C892.764 419.7 893.044 419.4 893.044 418.8V414.93H892.504C892.304 415.25 892.024 415.58 891.664 415.92C891.304 416.24 890.824 416.51 890.224 416.73C889.624 416.95 888.864 417.06 887.944 417.06C886.724 417.06 885.594 416.77 884.554 416.19C883.534 415.59 882.714 414.74 882.094 413.64C881.474 412.52 881.164 411.18 881.164 409.62ZM889.024 413.76C890.184 413.76 891.154 413.39 891.934 412.65C892.714 411.91 893.104 410.87 893.104 409.53V409.23C893.104 407.87 892.714 406.83 891.934 406.11C891.174 405.37 890.204 405 889.024 405C887.864 405 886.894 405.37 886.114 406.11C885.334 406.83 884.944 407.87 884.944 409.23V409.53C884.944 410.87 885.334 411.91 886.114 412.65C886.894 413.39 887.864 413.76 889.024 413.76ZM908.095 417.42C906.615 417.42 905.285 417.12 904.105 416.52C902.925 415.92 901.995 415.05 901.315 413.91C900.635 412.77 900.295 411.4 900.295 409.8V409.32C900.295 407.72 900.635 406.35 901.315 405.21C901.995 404.07 902.925 403.2 904.105 402.6C905.285 402 906.615 401.7 908.095 401.7C909.575 401.7 910.905 402 912.085 402.6C913.265 403.2 914.195 404.07 914.875 405.21C915.555 406.35 915.895 407.72 915.895 409.32V409.8C915.895 411.4 915.555 412.77 914.875 413.91C914.195 415.05 913.265 415.92 912.085 416.52C910.905 417.12 909.575 417.42 908.095 417.42ZM908.095 414.06C909.255 414.06 910.215 413.69 910.975 412.95C911.735 412.19 912.115 411.11 912.115 409.71V409.41C912.115 408.01 911.735 406.94 910.975 406.2C910.235 405.44 909.275 405.06 908.095 405.06C906.935 405.06 905.975 405.44 905.215 406.2C904.455 406.94 904.075 408.01 904.075 409.41V409.71C904.075 411.11 904.455 412.19 905.215 412.95C905.975 413.69 906.935 414.06 908.095 414.06ZM935.941 417.42C934.601 417.42 933.571 417.19 932.851 416.73C932.131 416.27 931.601 415.76 931.261 415.2H930.721V417H927.001V396H930.781V403.83H931.321C931.541 403.47 931.831 403.13 932.191 402.81C932.571 402.49 933.061 402.23 933.661 402.03C934.281 401.81 935.041 401.7 935.941 401.7C937.141 401.7 938.251 402 939.271 402.6C940.291 403.18 941.111 404.04 941.731 405.18C942.351 406.32 942.661 407.7 942.661 409.32V409.8C942.661 411.42 942.351 412.8 941.731 413.94C941.111 415.08 940.291 415.95 939.271 416.55C938.251 417.13 937.141 417.42 935.941 417.42ZM934.801 414.12C935.961 414.12 936.931 413.75 937.711 413.01C938.491 412.25 938.881 411.15 938.881 409.71V409.41C938.881 407.97 938.491 406.88 937.711 406.14C936.951 405.38 935.981 405 934.801 405C933.641 405 932.671 405.38 931.891 406.14C931.111 406.88 930.721 407.97 930.721 409.41V409.71C930.721 411.15 931.111 412.25 931.891 413.01C932.671 413.75 933.641 414.12 934.801 414.12ZM950.752 417.42C949.692 417.42 948.742 417.24 947.902 416.88C947.062 416.5 946.392 415.96 945.892 415.26C945.412 414.54 945.172 413.67 945.172 412.65C945.172 411.63 945.412 410.78 945.892 410.1C946.392 409.4 947.072 408.88 947.932 408.54C948.812 408.18 949.812 408 950.932 408H955.012V407.16C955.012 406.46 954.792 405.89 954.352 405.45C953.912 404.99 953.212 404.76 952.252 404.76C951.312 404.76 950.612 404.98 950.152 405.42C949.692 405.84 949.392 406.39 949.252 407.07L945.772 405.9C946.012 405.14 946.392 404.45 946.912 403.83C947.452 403.19 948.162 402.68 949.042 402.3C949.942 401.9 951.032 401.7 952.312 401.7C954.272 401.7 955.822 402.19 956.962 403.17C958.102 404.15 958.672 405.57 958.672 407.43V412.98C958.672 413.58 958.952 413.88 959.512 413.88H960.712V417H958.192C957.452 417 956.842 416.82 956.362 416.46C955.882 416.1 955.642 415.62 955.642 415.02V414.99H955.072C954.992 415.23 954.812 415.55 954.532 415.95C954.252 416.33 953.812 416.67 953.212 416.97C952.612 417.27 951.792 417.42 950.752 417.42ZM951.412 414.36C952.472 414.36 953.332 414.07 953.992 413.49C954.672 412.89 955.012 412.1 955.012 411.12V410.82H951.202C950.502 410.82 949.952 410.97 949.552 411.27C949.152 411.57 948.952 411.99 948.952 412.53C948.952 413.07 949.162 413.51 949.582 413.85C950.002 414.19 950.612 414.36 951.412 414.36ZM970.173 417.42C968.733 417.42 967.423 417.12 966.243 416.52C965.083 415.92 964.163 415.05 963.483 413.91C962.803 412.77 962.463 411.39 962.463 409.77V409.35C962.463 407.73 962.803 406.35 963.483 405.21C964.163 404.07 965.083 403.2 966.243 402.6C967.423 402 968.733 401.7 970.173 401.7C971.593 401.7 972.813 401.95 973.833 402.45C974.853 402.95 975.673 403.64 976.293 404.52C976.933 405.38 977.353 406.36 977.553 407.46L973.893 408.24C973.813 407.64 973.633 407.1 973.353 406.62C973.073 406.14 972.673 405.76 972.153 405.48C971.653 405.2 971.023 405.06 970.263 405.06C969.503 405.06 968.813 405.23 968.193 405.57C967.593 405.89 967.113 406.38 966.753 407.04C966.413 407.68 966.243 408.47 966.243 409.41V409.71C966.243 410.65 966.413 411.45 966.753 412.11C967.113 412.75 967.593 413.24 968.193 413.58C968.813 413.9 969.503 414.06 970.263 414.06C971.403 414.06 972.263 413.77 972.843 413.19C973.443 412.59 973.823 411.81 973.983 410.85L977.643 411.72C977.383 412.78 976.933 413.75 976.293 414.63C975.673 415.49 974.853 416.17 973.833 416.67C972.813 417.17 971.593 417.42 970.173 417.42ZM980.761 417V396H984.541V407.61H985.081L990.001 402.12H994.921L988.051 409.32L995.161 417H990.301L985.081 411.09H984.541V417H980.761Z" fill="black"/>
</svg>
