<svg width="153" height="146" viewBox="0 0 153 146" fill="none" xmlns="http://www.w3.org/2000/svg">
<path d="M83.3723 67.9244C83.174 67.8442 82.9878 67.7253 82.8259 67.5677C82.1529 66.9139 82.1365 65.8388 82.7911 65.1659L117.285 29.6531C117.938 28.9796 119.017 28.9666 119.685 29.6177C120.358 30.2716 120.375 31.3467 119.72 32.0195L85.2261 67.5323C84.7305 68.0422 83.9935 68.1754 83.3723 67.9244Z" stroke="black"/>
<path d="M81.4326 81.7911C87.5194 84.2504 94.4473 81.3096 96.9065 75.2229C99.3657 69.1361 96.425 62.2082 90.3382 59.749C84.2514 57.2897 77.3235 60.2305 74.8643 66.3172C72.4051 72.404 75.3458 79.3319 81.4326 81.7911Z" stroke="black"/>
<path d="M82.7048 78.6423C87.0526 80.3989 92.0011 78.2984 93.7577 73.9506C95.5143 69.6029 93.4137 64.6544 89.066 62.8978C84.7183 61.1412 79.7698 63.2417 78.0132 67.5895C76.2566 71.9372 78.3571 76.8857 82.7048 78.6423Z" stroke="black"/>
<path d="M53.697 77.9109C63.2619 81.7753 74.1486 77.1542 78.013 67.5893C81.8775 58.0244 77.2564 47.1377 67.6915 43.2733C58.1266 39.4088 47.2399 44.0299 43.3754 53.5948C39.511 63.1597 44.1321 74.0464 53.697 77.9109Z" stroke="black"/>
<path d="M54.9692 74.7621C62.795 77.9239 71.7023 74.143 74.8641 66.3172C78.026 58.4913 74.2451 49.584 66.4192 46.4222C58.5934 43.2603 49.6861 47.0412 46.5242 54.8671C43.3624 62.6929 47.1433 71.6002 54.9692 74.7621Z" stroke="black"/>
<path d="M56.2414 71.6132C62.3282 74.0724 69.2561 71.1317 71.7153 65.0449C74.1745 58.9582 71.2338 52.0303 65.147 49.571C59.0602 47.1118 52.1323 50.0525 49.6731 56.1393C47.2139 62.2261 50.1546 69.154 56.2414 71.6132Z" stroke="black"/>
<path d="M57.5136 68.4644C61.8613 70.221 66.8099 68.1204 68.5664 63.7727C70.323 59.425 68.2225 54.4765 63.8748 52.7199C59.5271 50.9633 54.5786 53.0638 52.822 57.4115C51.0654 61.7593 53.1659 66.7078 57.5136 68.4644Z" stroke="black"/>
<path d="M58.7859 65.3155C61.3945 66.3695 64.3636 65.1091 65.4176 62.5005C66.4716 59.8919 65.2112 56.9227 62.6026 55.8688C59.9939 54.8148 57.0248 56.0751 55.9708 58.6838C54.9169 61.2924 56.1772 64.2615 58.7859 65.3155Z" stroke="black"/>
<path d="M83.977 75.4934C86.5857 76.5474 89.5548 75.2871 90.6088 72.6784C91.6627 70.0698 90.4024 67.1006 87.7937 66.0467C85.1851 64.9927 82.216 66.253 81.162 68.8617C80.108 71.4703 81.3684 74.4395 83.977 75.4934Z" stroke="black"/>
<path d="M117.374 83.4927C103.923 102.533 86.0388 107.333 79.0034 108.515C77.1593 108.825 75.2736 108.607 73.5399 107.906L43.7778 95.8816C42.0441 95.1811 40.5358 94.0288 39.4246 92.5246C35.1852 86.7867 25.6551 70.9106 29.2053 47.8702" stroke="black"/>
<path d="M86.8219 72.9803C86.4637 72.8356 86.1517 72.5674 85.9579 72.1974C85.5204 71.3678 85.8389 70.3404 86.6682 69.9037L126.212 49.0896C127.043 48.6544 128.069 48.9703 128.505 49.8014C128.943 50.631 128.624 51.6584 127.795 52.0951L88.251 72.9092C87.7902 73.1516 87.2695 73.1612 86.8219 72.9803Z" stroke="black"/>
<path d="M117.374 83.4927L29.2053 47.8702C25.6551 70.9107 35.1852 86.7867 39.4246 92.5246C40.5358 94.0286 42.0442 95.1812 43.778 95.8817L60.5669 102.665C59.8312 102.368 59.2164 101.803 58.7962 101.005C56.8537 97.3191 51.7767 85.3797 54.6274 65.8916C54.7857 64.8095 55.9337 64.1638 56.9475 64.5734L114.137 87.6795C115.237 86.359 116.322 84.9822 117.374 83.4927Z" stroke="black"/>
<path d="M116.738 85.0672L28.5692 49.4447C27.699 49.0931 27.2795 48.1035 27.6308 47.234C27.9821 46.3645 28.9711 45.944 29.8415 46.2956L118.01 81.9182C118.881 82.2698 119.3 83.2594 118.949 84.1288C118.597 84.9983 117.608 85.4188 116.738 85.0672Z" stroke="black"/>
<path d="M83.1746 67.2094L83.1743 67.2091C82.6991 66.7474 82.688 65.989 83.1495 65.5146L83.1498 65.5143L117.644 30.0015L117.644 30.0012C118.104 29.5265 118.866 29.5175 119.337 29.9759L119.337 29.9763C119.812 30.4381 119.823 31.1964 119.362 31.6708L119.361 31.6711L84.8676 67.1838C84.8676 67.1838 84.8675 67.1838 84.8675 67.1839C84.5179 67.5435 83.9982 67.638 83.5596 67.4608C83.4201 67.4044 83.2891 67.3208 83.1746 67.2094Z" fill="#803030" stroke="black"/>
<path d="M96.4429 75.0356C94.0871 80.8663 87.4507 83.6833 81.6199 81.3275C75.7892 78.9718 72.9721 72.3353 75.3279 66.5045C77.6837 60.6738 84.3202 57.8568 90.1509 60.2125C95.9817 62.5683 98.7987 69.2048 96.4429 75.0356Z" fill="#FFDC78" stroke="black"/>
<path d="M93.2941 73.7633C91.6409 77.855 86.9838 79.8318 82.8921 78.1787C78.8005 76.5255 76.8236 71.8684 78.4768 67.7768C80.1299 63.6851 84.787 61.7083 88.8787 63.3614C92.9704 65.0146 94.9472 69.6717 93.2941 73.7633Z" fill="#FFCF65" stroke="black"/>
<path d="M77.5494 67.402C73.7884 76.7109 63.1932 81.2083 53.8843 77.4473C44.5754 73.6862 40.078 63.091 43.839 53.7821C47.6001 44.4732 58.1953 39.9758 67.5042 43.7368C76.8131 47.4979 81.3105 58.0931 77.5494 67.402Z" fill="#FFDC78" stroke="black"/>
<path d="M74.4005 66.1299C71.3421 73.6997 62.7263 77.3569 55.1565 74.2985C47.5866 71.2401 43.9294 62.6242 46.9878 55.0544C50.0462 47.4846 58.6621 43.8274 66.2319 46.8858C73.8017 49.9442 77.4589 58.56 74.4005 66.1299Z" fill="#FFCF65" stroke="black"/>
<path d="M71.2517 64.8576C68.8959 70.6884 62.2594 73.5054 56.4287 71.1496C50.5979 68.7939 47.7809 62.1574 50.1367 56.3266C52.4925 50.4959 59.129 47.6789 64.9597 50.0346C70.7905 52.3904 73.6075 59.0269 71.2517 64.8576Z" fill="#FFDC78" stroke="black"/>
<path d="M68.1029 63.5854C66.4497 67.6771 61.7926 69.6539 57.7009 68.0008C53.6092 66.3476 51.6324 61.6905 53.2856 57.5988C54.9387 53.5072 59.5958 51.5303 63.6875 53.1835C67.7792 54.8366 69.756 59.4937 68.1029 63.5854Z" fill="#FFCF65" stroke="black"/>
<path d="M64.954 62.3132C64.0035 64.6658 61.3258 65.8024 58.9732 64.8519C56.6205 63.9014 55.4839 61.2237 56.4344 58.8711C57.385 56.5185 60.0627 55.3818 62.4153 56.3323C64.7679 57.2829 65.9045 59.9606 64.954 62.3132Z" fill="#FFDC78" stroke="black"/>
<path d="M90.1452 72.4911C89.1946 74.8437 86.5169 75.9804 84.1643 75.0298C81.8117 74.0793 80.6751 71.4016 81.6256 69.049C82.5761 66.6964 85.2538 65.5597 87.6064 66.5103C89.9591 67.4608 91.0957 70.1385 90.1452 72.4911Z" fill="#FFDC78" stroke="black"/>
<mask id="path-23-inside-1_16_127" fill="white">
<path d="M117.374 83.4927C103.923 102.533 86.0388 107.333 79.0034 108.515C77.1593 108.825 75.2736 108.607 73.5399 107.906L43.7778 95.8816C42.0441 95.1811 40.5358 94.0288 39.4246 92.5246C35.1852 86.7867 25.6551 70.9106 29.2053 47.8702"/>
</mask>
<path d="M117.374 83.4927C103.923 102.533 86.0388 107.333 79.0034 108.515C77.1593 108.825 75.2736 108.607 73.5399 107.906L43.7778 95.8816C42.0441 95.1811 40.5358 94.0288 39.4246 92.5246C35.1852 86.7867 25.6551 70.9106 29.2053 47.8702" fill="#FFF5F5"/>
<path d="M79.0034 108.515L79.1691 109.502L79.1691 109.502L79.0034 108.515ZM39.4246 92.5246L40.2289 91.9304L40.2289 91.9304L39.4246 92.5246ZM116.557 82.9157C103.316 101.659 85.7243 106.372 78.8376 107.529L79.1691 109.502C86.3533 108.294 104.53 103.407 118.191 84.0697L116.557 82.9157ZM78.8376 107.529C77.1803 107.808 75.4814 107.612 73.9146 106.979L73.1653 108.833C75.0657 109.601 77.1382 109.843 79.1691 109.502L78.8376 107.529ZM73.9146 106.979L44.1525 94.9544L43.4032 96.8088L73.1653 108.833L73.9146 106.979ZM44.1525 94.9544C42.5854 94.3213 41.2275 93.2821 40.2289 91.9304L38.6203 93.1188C39.8441 94.7754 41.5027 96.0409 43.4032 96.8088L44.1525 94.9544ZM40.2289 91.9304C36.0791 86.3138 26.6988 70.7037 30.1937 48.0225L28.217 47.7179C24.6115 71.1175 34.2913 87.2596 38.6203 93.1189L40.2289 91.9304Z" fill="black" mask="url(#path-23-inside-1_16_127)"/>
<path d="M86.4008 71.9654L86.4002 71.9642C86.0915 71.3789 86.3163 70.6541 86.9012 70.3461L126.444 49.5325C126.445 49.5324 126.445 49.5324 126.445 49.5323C127.032 49.2247 127.755 49.4488 128.063 50.034L128.063 50.0346C128.372 50.6199 128.147 51.3447 127.562 51.6527C127.562 51.6527 127.562 51.6527 127.562 51.6527L88.0182 72.4667C87.6932 72.6377 87.3266 72.645 87.0092 72.5167C86.7565 72.4146 86.5374 72.2262 86.4008 71.9654Z" fill="#803030" stroke="black"/>
<path d="M54.1326 65.8192L54.1326 65.8192C51.2665 85.4131 56.3623 97.4554 58.3492 101.23L43.9653 95.4181C42.3149 94.7513 40.8817 93.6553 39.8267 92.2275C35.6705 86.6021 26.3493 71.0942 29.6061 48.5714L116.598 83.7184C115.745 84.8962 114.871 86.0062 113.986 87.079L57.1348 64.1098C55.8262 63.5811 54.3388 64.4107 54.1326 65.8192Z" fill="#AEEFFF" stroke="black"/>
<path d="M116.925 84.6036L28.7565 48.9811C28.1425 48.733 27.8465 48.0349 28.0944 47.4213C28.3423 46.8077 29.04 46.5111 29.6542 46.7592L117.823 82.3818C118.437 82.6299 118.733 83.328 118.485 83.9415C118.237 84.5551 117.539 84.8517 116.925 84.6036Z" fill="#FFF5F5" stroke="black"/>
<path d="M2.28 137V122.21H5.31V124.43H5.79C6.07 123.83 6.57 123.27 7.29 122.75C8.01 122.23 9.08 121.97 10.5 121.97C11.62 121.97 12.61 122.22 13.47 122.72C14.35 123.22 15.04 123.93 15.54 124.85C16.04 125.75 16.29 126.84 16.29 128.12V137H13.2V128.36C13.2 127.08 12.88 126.14 12.24 125.54C11.6 124.92 10.72 124.61 9.6 124.61C8.32 124.61 7.29 125.03 6.51 125.87C5.75 126.71 5.37 127.93 5.37 129.53V137H2.28ZM26.1727 137.27C25.0527 137.27 24.0527 137.02 23.1727 136.52C22.2927 136.02 21.6027 135.31 21.1027 134.39C20.6027 133.47 20.3527 132.37 20.3527 131.09V122.21H23.4427V130.88C23.4427 132.16 23.7627 133.11 24.4027 133.73C25.0427 134.33 25.9327 134.63 27.0727 134.63C28.3327 134.63 29.3427 134.21 30.1027 133.37C30.8827 132.51 31.2727 131.28 31.2727 129.68V122.21H34.3627V137H31.3327V134.78H30.8527C30.5727 135.38 30.0727 135.95 29.3527 136.49C28.6327 137.01 27.5727 137.27 26.1727 137.27ZM45.0504 137.42C43.8304 137.42 42.7004 137.12 41.6604 136.52C40.6204 135.92 39.7804 135.06 39.1404 133.94C38.5204 132.8 38.2104 131.43 38.2104 129.83V129.38C38.2104 127.8 38.5204 126.44 39.1404 125.3C39.7604 124.16 40.5904 123.29 41.6304 122.69C42.6704 122.09 43.8104 121.79 45.0504 121.79C46.0104 121.79 46.8104 121.91 47.4504 122.15C48.1104 122.39 48.6504 122.7 49.0704 123.08C49.4904 123.44 49.8104 123.82 50.0304 124.22H50.5104V116H53.6004V137H50.5704V134.9H50.0904C49.7104 135.54 49.1304 136.12 48.3504 136.64C47.5904 137.16 46.4904 137.42 45.0504 137.42ZM45.9204 134.72C47.2604 134.72 48.3604 134.29 49.2204 133.43C50.1004 132.57 50.5404 131.34 50.5404 129.74V129.47C50.5404 127.89 50.1104 126.67 49.2504 125.81C48.3904 124.95 47.2804 124.52 45.9204 124.52C44.6004 124.52 43.5004 124.95 42.6204 125.81C41.7604 126.67 41.3304 127.89 41.3304 129.47V129.74C41.3304 131.34 41.7604 132.57 42.6204 133.43C43.5004 134.29 44.6004 134.72 45.9204 134.72ZM64.9291 137.42C63.4291 137.42 62.1191 137.11 60.9991 136.49C59.8791 135.85 58.9991 134.96 58.3591 133.82C57.7391 132.66 57.4291 131.32 57.4291 129.8V129.44C57.4291 127.9 57.7391 126.56 58.3591 125.42C58.9791 124.26 59.8391 123.37 60.9391 122.75C62.0591 122.11 63.3491 121.79 64.8091 121.79C66.2291 121.79 67.4691 122.11 68.5291 122.75C69.6091 123.37 70.4491 124.24 71.0491 125.36C71.6491 126.48 71.9491 127.79 71.9491 129.29V130.46H60.5791C60.6191 131.76 61.0491 132.8 61.8691 133.58C62.7091 134.34 63.7491 134.72 64.9891 134.72C66.1491 134.72 67.0191 134.46 67.5991 133.94C68.1991 133.42 68.6591 132.82 68.9791 132.14L71.5291 133.46C71.2491 134.02 70.8391 134.61 70.2991 135.23C69.7791 135.85 69.0891 136.37 68.2291 136.79C67.3691 137.21 66.2691 137.42 64.9291 137.42ZM60.6091 128.09H68.7991C68.7191 126.97 68.3191 126.1 67.5991 125.48C66.8791 124.84 65.9391 124.52 64.7791 124.52C63.6191 124.52 62.6691 124.84 61.9291 125.48C61.2091 126.1 60.7691 126.97 60.6091 128.09ZM75.6687 137V116H78.7587V137H75.6687ZM89.4045 137.42C87.5245 137.42 85.9645 137 84.7245 136.16C83.4845 135.32 82.7245 134.05 82.4445 132.35L85.3245 131.66C85.4845 132.48 85.7545 133.13 86.1345 133.61C86.5145 134.09 86.9845 134.43 87.5445 134.63C88.1245 134.83 88.7445 134.93 89.4045 134.93C90.3845 134.93 91.1345 134.74 91.6545 134.36C92.1945 133.98 92.4645 133.49 92.4645 132.89C92.4645 132.29 92.2145 131.85 91.7145 131.57C91.2145 131.29 90.4745 131.06 89.4945 130.88L88.4745 130.7C87.4745 130.52 86.5645 130.26 85.7445 129.92C84.9245 129.58 84.2745 129.11 83.7945 128.51C83.3145 127.91 83.0745 127.14 83.0745 126.2C83.0745 124.8 83.5945 123.72 84.6345 122.96C85.6745 122.18 87.0545 121.79 88.7745 121.79C90.4345 121.79 91.7945 122.17 92.8545 122.93C93.9345 123.67 94.6345 124.68 94.9545 125.96L92.0745 126.77C91.8945 125.87 91.5145 125.24 90.9345 124.88C90.3545 124.5 89.6345 124.31 88.7745 124.31C87.9345 124.31 87.2745 124.47 86.7945 124.79C86.3145 125.09 86.0745 125.52 86.0745 126.08C86.0745 126.68 86.3045 127.12 86.7645 127.4C87.2445 127.68 87.8845 127.89 88.6845 128.03L89.7345 128.21C90.7945 128.39 91.7645 128.64 92.6445 128.96C93.5245 129.28 94.2145 129.74 94.7145 130.34C95.2345 130.94 95.4945 131.74 95.4945 132.74C95.4945 134.22 94.9445 135.37 93.8445 136.19C92.7445 137.01 91.2645 137.42 89.4045 137.42ZM106.036 137.42C104.556 137.42 103.236 137.12 102.076 136.52C100.936 135.9 100.036 135.02 99.3762 133.88C98.7162 132.74 98.3862 131.39 98.3862 129.83V129.38C98.3862 127.82 98.7162 126.48 99.3762 125.36C100.036 124.22 100.936 123.34 102.076 122.72C103.236 122.1 104.556 121.79 106.036 121.79C107.516 121.79 108.836 122.1 109.996 122.72C111.156 123.34 112.066 124.22 112.726 125.36C113.386 126.48 113.716 127.82 113.716 129.38V129.83C113.716 131.39 113.386 132.74 112.726 133.88C112.066 135.02 111.156 135.9 109.996 136.52C108.836 137.12 107.516 137.42 106.036 137.42ZM106.036 134.66C107.396 134.66 108.496 134.23 109.336 133.37C110.196 132.49 110.626 131.28 110.626 129.74V129.47C110.626 127.93 110.206 126.73 109.366 125.87C108.526 124.99 107.416 124.55 106.036 124.55C104.696 124.55 103.596 124.99 102.736 125.87C101.896 126.73 101.476 127.93 101.476 129.47V129.74C101.476 131.28 101.896 132.49 102.736 133.37C103.596 134.23 104.696 134.66 106.036 134.66ZM123.233 137.27C122.113 137.27 121.113 137.02 120.233 136.52C119.353 136.02 118.663 135.31 118.163 134.39C117.663 133.47 117.413 132.37 117.413 131.09V122.21H120.503V130.88C120.503 132.16 120.823 133.11 121.463 133.73C122.103 134.33 122.993 134.63 124.133 134.63C125.393 134.63 126.403 134.21 127.163 133.37C127.943 132.51 128.333 131.28 128.333 129.68V122.21H131.423V137H128.393V134.78H127.913C127.633 135.38 127.133 135.95 126.413 136.49C125.693 137.01 124.633 137.27 123.233 137.27ZM135.991 143V122.21H139.021V124.34H139.501C139.881 123.68 140.451 123.09 141.211 122.57C141.991 122.05 143.101 121.79 144.541 121.79C145.781 121.79 146.911 122.09 147.931 122.69C148.971 123.29 149.801 124.16 150.421 125.3C151.061 126.42 151.381 127.78 151.381 129.38V129.83C151.381 131.43 151.071 132.8 150.451 133.94C149.831 135.06 149.001 135.92 147.961 136.52C146.921 137.12 145.781 137.42 144.541 137.42C143.581 137.42 142.771 137.3 142.111 137.06C141.451 136.82 140.921 136.52 140.521 136.16C140.121 135.78 139.801 135.39 139.561 134.99H139.081V143H135.991ZM143.641 134.72C145.001 134.72 146.111 134.29 146.971 133.43C147.831 132.57 148.261 131.34 148.261 129.74V129.47C148.261 127.89 147.821 126.67 146.941 125.81C146.081 124.95 144.981 124.52 143.641 124.52C142.321 124.52 141.221 124.95 140.341 125.81C139.481 126.67 139.051 127.89 139.051 129.47V129.74C139.051 131.34 139.481 132.57 140.341 133.43C141.221 134.29 142.321 134.72 143.641 134.72Z" fill="white"/>
</svg>
