<svg width="136" height="106" viewBox="0 0 136 106" fill="none" xmlns="http://www.w3.org/2000/svg">
<path d="M23.64 83L23.64 34.52H22.2L14.68 52.28H3.96L15.4 27H33.88V83H23.64ZM63.4119 84.12C59.0385 84.12 55.2519 83.3467 52.0519 81.8C48.9052 80.2533 46.4785 78.0667 44.7719 75.24C43.0652 72.4133 42.2119 69.1333 42.2119 65.4V64.6H52.6119V65.32C52.6119 67.9867 53.4919 70.28 55.2519 72.2C57.0652 74.0667 59.7319 75 63.2519 75C66.7719 75 69.4652 74.0667 71.3319 72.2C73.2519 70.28 74.2119 67.8 74.2119 64.76V63.96C74.2119 60.9733 73.2519 58.6 71.3319 56.84C69.4652 55.08 67.1185 54.2 64.2919 54.2C62.7452 54.2 61.4652 54.4133 60.4519 54.84C59.4385 55.2667 58.6119 55.8 57.9719 56.44C57.3319 57.08 56.7985 57.72 56.3719 58.36H43.9719V27H82.2119V36.28L54.2119 36.28V49.96H55.6519C56.1852 49.2667 56.9052 48.6 57.8119 47.96C58.7185 47.32 59.8919 46.7867 61.3319 46.36C62.7719 45.9333 64.4785 45.72 66.4519 45.72C69.7585 45.72 72.7719 46.4133 75.4919 47.8C78.2119 49.1867 80.3719 51.24 81.9719 53.96C83.6252 56.6267 84.4519 59.9333 84.4519 63.88V64.84C84.4519 68.7867 83.5985 72.2 81.8919 75.08C80.2385 77.96 77.8385 80.2 74.6919 81.8C71.5452 83.3467 67.7852 84.12 63.4119 84.12ZM111.861 84.12C107.541 84.12 103.727 83.3467 100.421 81.8C97.114 80.2533 94.5273 78.04 92.6606 75.16C90.794 72.28 89.8606 68.8133 89.8606 64.76V62.52H100.261V64.76C100.261 68.12 101.301 70.6533 103.381 72.36C105.461 74.0133 108.287 74.84 111.861 74.84C115.487 74.84 118.181 74.12 119.941 72.68C121.754 71.24 122.661 69.4 122.661 67.16C122.661 65.6133 122.234 64.36 121.381 63.4C120.527 62.44 119.274 61.6667 117.621 61.08C115.967 60.44 113.941 59.8533 111.541 59.32L109.701 58.92C105.861 58.0667 102.554 57 99.7806 55.72C97.0606 54.3867 94.954 52.6533 93.4606 50.52C92.0206 48.3867 91.3006 45.6133 91.3006 42.2C91.3006 38.7867 92.1006 35.88 93.7006 33.48C95.354 31.0267 97.6473 29.16 100.581 27.88C103.567 26.5467 107.061 25.88 111.061 25.88C115.061 25.88 118.607 26.5733 121.701 27.96C124.847 29.2933 127.301 31.32 129.061 34.04C130.874 36.7067 131.781 40.0667 131.781 44.12V46.52H121.381V44.12C121.381 41.9867 120.954 40.28 120.101 39C119.301 37.6667 118.127 36.7067 116.581 36.12C115.034 35.48 113.194 35.16 111.061 35.16C107.861 35.16 105.487 35.7733 103.941 37C102.447 38.1733 101.701 39.8 101.701 41.88C101.701 43.2667 102.047 44.44 102.741 45.4C103.487 46.36 104.581 47.16 106.021 47.8C107.461 48.44 109.301 49 111.541 49.48L113.381 49.88C117.381 50.7333 120.847 51.8267 123.781 53.16C126.714 54.4933 128.981 56.2533 130.581 58.44C132.234 60.6267 133.061 63.4267 133.061 66.84C133.061 70.2533 132.181 73.2667 130.421 75.88C128.714 78.44 126.261 80.4667 123.061 81.96C119.914 83.4 116.181 84.12 111.861 84.12ZM106.981 92.28V17.72H116.581V92.28H106.981Z" fill="black"/>
<mask id="path-2-outside-1_88_7" maskUnits="userSpaceOnUse" x="-1" y="12" width="133" height="78" fill="black">
<rect fill="white" x="-1" y="12" width="133" height="78"/>
<path d="M20.64 79L20.64 30.52H19.2L11.68 48.28H0.96L12.4 23H30.88L30.88 79H20.64ZM60.4119 80.12C56.0385 80.12 52.2519 79.3467 49.0519 77.8C45.9052 76.2533 43.4785 74.0667 41.7719 71.24C40.0652 68.4133 39.2119 65.1333 39.2119 61.4V60.6H49.6119V61.32C49.6119 63.9867 50.4919 66.28 52.2519 68.2C54.0652 70.0667 56.7319 71 60.2519 71C63.7719 71 66.4652 70.0667 68.3319 68.2C70.2519 66.28 71.2119 63.8 71.2119 60.76V59.96C71.2119 56.9733 70.2519 54.6 68.3319 52.84C66.4652 51.08 64.1185 50.2 61.2919 50.2C59.7452 50.2 58.4652 50.4133 57.4519 50.84C56.4385 51.2667 55.6119 51.8 54.9719 52.44C54.3319 53.08 53.7985 53.72 53.3719 54.36H40.9719V23H79.2119V32.28L51.2119 32.28V45.96H52.6519C53.1852 45.2667 53.9052 44.6 54.8119 43.96C55.7185 43.32 56.8919 42.7867 58.3319 42.36C59.7719 41.9333 61.4785 41.72 63.4519 41.72C66.7585 41.72 69.7719 42.4133 72.4919 43.8C75.2119 45.1867 77.3719 47.24 78.9719 49.96C80.6252 52.6267 81.4519 55.9333 81.4519 59.88V60.84C81.4519 64.7867 80.5985 68.2 78.8919 71.08C77.2385 73.96 74.8385 76.2 71.6919 77.8C68.5452 79.3467 64.7852 80.12 60.4119 80.12ZM108.861 80.12C104.541 80.12 100.727 79.3467 97.4206 77.8C94.114 76.2533 91.5273 74.04 89.6606 71.16C87.794 68.28 86.8606 64.8133 86.8606 60.76V58.52H97.2606V60.76C97.2606 64.12 98.3006 66.6533 100.381 68.36C102.461 70.0133 105.287 70.84 108.861 70.84C112.487 70.84 115.181 70.12 116.941 68.68C118.754 67.24 119.661 65.4 119.661 63.16C119.661 61.6133 119.234 60.36 118.381 59.4C117.527 58.44 116.274 57.6667 114.621 57.08C112.967 56.44 110.941 55.8533 108.541 55.32L106.701 54.92C102.861 54.0667 99.554 53 96.7806 51.72C94.0606 50.3867 91.954 48.6533 90.4606 46.52C89.0206 44.3867 88.3006 41.6133 88.3006 38.2C88.3006 34.7867 89.1006 31.88 90.7006 29.48C92.354 27.0267 94.6473 25.16 97.5806 23.88C100.567 22.5467 104.061 21.88 108.061 21.88C112.061 21.88 115.607 22.5733 118.701 23.96C121.847 25.2933 124.301 27.32 126.061 30.04C127.874 32.7067 128.781 36.0667 128.781 40.12V42.52H118.381V40.12C118.381 37.9867 117.954 36.28 117.101 35C116.301 33.6667 115.127 32.7067 113.581 32.12C112.034 31.48 110.194 31.16 108.061 31.16C104.861 31.16 102.487 31.7733 100.941 33C99.4473 34.1733 98.7006 35.8 98.7006 37.88C98.7006 39.2667 99.0473 40.44 99.7406 41.4C100.487 42.36 101.581 43.16 103.021 43.8C104.461 44.44 106.301 45 108.541 45.48L110.381 45.88C114.381 46.7333 117.847 47.8267 120.781 49.16C123.714 50.4933 125.981 52.2533 127.581 54.44C129.234 56.6267 130.061 59.4267 130.061 62.84C130.061 66.2533 129.181 69.2667 127.421 71.88C125.714 74.44 123.261 76.4667 120.061 77.96C116.914 79.4 113.181 80.12 108.861 80.12ZM103.981 88.28V13.72L113.581 13.72V88.28H103.981Z"/>
</mask>
<path d="M20.64 79L20.64 30.52H19.2L11.68 48.28H0.96L12.4 23H30.88L30.88 79H20.64ZM60.4119 80.12C56.0385 80.12 52.2519 79.3467 49.0519 77.8C45.9052 76.2533 43.4785 74.0667 41.7719 71.24C40.0652 68.4133 39.2119 65.1333 39.2119 61.4V60.6H49.6119V61.32C49.6119 63.9867 50.4919 66.28 52.2519 68.2C54.0652 70.0667 56.7319 71 60.2519 71C63.7719 71 66.4652 70.0667 68.3319 68.2C70.2519 66.28 71.2119 63.8 71.2119 60.76V59.96C71.2119 56.9733 70.2519 54.6 68.3319 52.84C66.4652 51.08 64.1185 50.2 61.2919 50.2C59.7452 50.2 58.4652 50.4133 57.4519 50.84C56.4385 51.2667 55.6119 51.8 54.9719 52.44C54.3319 53.08 53.7985 53.72 53.3719 54.36H40.9719V23H79.2119V32.28L51.2119 32.28V45.96H52.6519C53.1852 45.2667 53.9052 44.6 54.8119 43.96C55.7185 43.32 56.8919 42.7867 58.3319 42.36C59.7719 41.9333 61.4785 41.72 63.4519 41.72C66.7585 41.72 69.7719 42.4133 72.4919 43.8C75.2119 45.1867 77.3719 47.24 78.9719 49.96C80.6252 52.6267 81.4519 55.9333 81.4519 59.88V60.84C81.4519 64.7867 80.5985 68.2 78.8919 71.08C77.2385 73.96 74.8385 76.2 71.6919 77.8C68.5452 79.3467 64.7852 80.12 60.4119 80.12ZM108.861 80.12C104.541 80.12 100.727 79.3467 97.4206 77.8C94.114 76.2533 91.5273 74.04 89.6606 71.16C87.794 68.28 86.8606 64.8133 86.8606 60.76V58.52H97.2606V60.76C97.2606 64.12 98.3006 66.6533 100.381 68.36C102.461 70.0133 105.287 70.84 108.861 70.84C112.487 70.84 115.181 70.12 116.941 68.68C118.754 67.24 119.661 65.4 119.661 63.16C119.661 61.6133 119.234 60.36 118.381 59.4C117.527 58.44 116.274 57.6667 114.621 57.08C112.967 56.44 110.941 55.8533 108.541 55.32L106.701 54.92C102.861 54.0667 99.554 53 96.7806 51.72C94.0606 50.3867 91.954 48.6533 90.4606 46.52C89.0206 44.3867 88.3006 41.6133 88.3006 38.2C88.3006 34.7867 89.1006 31.88 90.7006 29.48C92.354 27.0267 94.6473 25.16 97.5806 23.88C100.567 22.5467 104.061 21.88 108.061 21.88C112.061 21.88 115.607 22.5733 118.701 23.96C121.847 25.2933 124.301 27.32 126.061 30.04C127.874 32.7067 128.781 36.0667 128.781 40.12V42.52H118.381V40.12C118.381 37.9867 117.954 36.28 117.101 35C116.301 33.6667 115.127 32.7067 113.581 32.12C112.034 31.48 110.194 31.16 108.061 31.16C104.861 31.16 102.487 31.7733 100.941 33C99.4473 34.1733 98.7006 35.8 98.7006 37.88C98.7006 39.2667 99.0473 40.44 99.7406 41.4C100.487 42.36 101.581 43.16 103.021 43.8C104.461 44.44 106.301 45 108.541 45.48L110.381 45.88C114.381 46.7333 117.847 47.8267 120.781 49.16C123.714 50.4933 125.981 52.2533 127.581 54.44C129.234 56.6267 130.061 59.4267 130.061 62.84C130.061 66.2533 129.181 69.2667 127.421 71.88C125.714 74.44 123.261 76.4667 120.061 77.96C116.914 79.4 113.181 80.12 108.861 80.12ZM103.981 88.28V13.72L113.581 13.72V88.28H103.981Z" fill="#AEEFFF"/>
<path d="M20.64 79H19.64V80H20.64V79ZM20.64 30.52H21.64V29.52H20.64V30.52ZM19.2 30.52V29.52H18.5375L18.2791 30.1301L19.2 30.52ZM11.68 48.28V49.28H12.3425L12.6009 48.6699L11.68 48.28ZM0.96 48.28L0.0489436 47.8677L-0.590158 49.28H0.96L0.96 48.28ZM12.4 23V22H11.7549L11.4889 22.5877L12.4 23ZM30.88 23H31.88V22H30.88V23ZM30.88 79V80H31.88V79H30.88ZM21.64 79L21.64 30.52H19.64L19.64 79H21.64ZM20.64 29.52H19.2V31.52H20.64V29.52ZM18.2791 30.1301L10.7591 47.8901L12.6009 48.6699L20.1209 30.9099L18.2791 30.1301ZM11.68 47.28H0.96L0.96 49.28H11.68L11.68 47.28ZM1.87106 48.6923L13.3111 23.4123L11.4889 22.5877L0.0489436 47.8677L1.87106 48.6923ZM12.4 24H30.88V22H12.4V24ZM29.88 23L29.88 79H31.88L31.88 23H29.88ZM30.88 78H20.64V80H30.88V78ZM49.0519 77.8L48.6107 78.6975L48.6167 78.7003L49.0519 77.8ZM41.7719 71.24L40.9158 71.7569L40.9158 71.7569L41.7719 71.24ZM39.2119 60.6V59.6H38.2119V60.6H39.2119ZM49.6119 60.6H50.6119V59.6H49.6119V60.6ZM52.2519 68.2L51.5147 68.8757L51.5245 68.8864L51.5346 68.8968L52.2519 68.2ZM68.3319 68.2L67.6248 67.4929L67.6248 67.4929L68.3319 68.2ZM68.3319 52.84L67.6458 53.5677L67.6562 53.5772L68.3319 52.84ZM57.4519 50.84L57.0638 49.9184L57.0638 49.9184L57.4519 50.84ZM54.9719 52.44L55.679 53.1471L55.679 53.1471L54.9719 52.44ZM53.3719 54.36V55.36H53.9071L54.2039 54.9147L53.3719 54.36ZM40.9719 54.36H39.9719V55.36H40.9719V54.36ZM40.9719 23V22H39.9719V23H40.9719ZM79.2119 23H80.2119V22H79.2119V23ZM79.2119 32.28V33.28H80.2119V32.28H79.2119ZM51.2119 32.28V31.28H50.2119V32.28H51.2119ZM51.2119 45.96H50.2119V46.96H51.2119V45.96ZM52.6519 45.96V46.96H53.1443L53.4445 46.5697L52.6519 45.96ZM54.8119 43.96L55.3886 44.777L55.3886 44.777L54.8119 43.96ZM58.3319 42.36L58.0478 41.4012L58.0478 41.4012L58.3319 42.36ZM72.4919 43.8L72.9461 42.9091L72.9461 42.9091L72.4919 43.8ZM78.9719 49.96L78.1099 50.467L78.1158 50.477L78.122 50.4869L78.9719 49.96ZM78.8919 71.08L78.0315 70.5701L78.0246 70.5821L78.8919 71.08ZM71.6919 77.8L72.133 78.6975L72.1451 78.6914L71.6919 77.8ZM60.4119 79.12C56.1552 79.12 52.5237 78.3674 49.487 76.8997L48.6167 78.7003C51.98 80.326 55.9219 81.12 60.4119 81.12V79.12ZM49.493 76.9026C46.5071 75.4349 44.2294 73.3755 42.6279 70.7231L40.9158 71.7569C42.7277 74.7578 45.3033 77.0718 48.6108 78.6974L49.493 76.9026ZM42.6279 70.7231C41.0273 68.072 40.2119 64.9755 40.2119 61.4H38.2119C38.2119 65.2912 39.1031 68.7546 40.9158 71.7569L42.6279 70.7231ZM40.2119 61.4V60.6H38.2119V61.4H40.2119ZM39.2119 61.6H49.6119V59.6H39.2119V61.6ZM48.6119 60.6V61.32H50.6119V60.6H48.6119ZM48.6119 61.32C48.6119 64.2303 49.5813 66.7665 51.5147 68.8757L52.989 67.5243C51.4025 65.7935 50.6119 63.7431 50.6119 61.32H48.6119ZM51.5346 68.8968C53.5952 71.018 56.56 72 60.2519 72V70C56.9037 70 54.5352 69.1153 52.9692 67.5032L51.5346 68.8968ZM60.2519 72C63.9457 72 66.9288 71.0173 69.039 68.9071L67.6248 67.4929C66.0016 69.116 63.598 70 60.2519 70V72ZM69.039 68.9071C71.1697 66.7764 72.2119 64.0305 72.2119 60.76H70.2119C70.2119 63.5695 69.3341 65.7836 67.6248 67.4929L69.039 68.9071ZM72.2119 60.76V59.96H70.2119V60.76H72.2119ZM72.2119 59.96C72.2119 56.7383 71.1654 54.0808 69.0076 52.1028L67.6562 53.5772C69.3384 55.1192 70.2119 57.2084 70.2119 59.96H72.2119ZM69.0179 52.1124C66.9461 50.159 64.3453 49.2 61.2919 49.2V51.2C63.8917 51.2 65.9843 52.001 67.6459 53.5676L69.0179 52.1124ZM61.2919 49.2C59.6622 49.2 58.2391 49.4235 57.0638 49.9184L57.8399 51.7616C58.6913 51.4032 59.8282 51.2 61.2919 51.2V49.2ZM57.0638 49.9184C55.9562 50.3847 55.0136 50.9841 54.2648 51.7329L55.679 53.1471C56.2101 52.6159 56.9209 52.1486 57.8399 51.7616L57.0638 49.9184ZM54.2648 51.7329C53.5861 52.4115 53.0088 53.1019 52.5398 53.8053L54.2039 54.9147C54.5883 54.3381 55.0776 53.7485 55.679 53.1471L54.2648 51.7329ZM53.3719 53.36H40.9719V55.36H53.3719V53.36ZM41.9719 54.36V23H39.9719V54.36H41.9719ZM40.9719 24H79.2119V22H40.9719V24ZM78.2119 23V32.28H80.2119V23H78.2119ZM79.2119 31.28H51.2119V33.28L79.2119 33.28V31.28ZM50.2119 32.28V45.96H52.2119V32.28H50.2119ZM51.2119 46.96H52.6519V44.96H51.2119V46.96ZM53.4445 46.5697C53.9028 45.9739 54.5429 45.3739 55.3886 44.777L54.2352 43.143C53.2675 43.8261 52.4676 44.5594 51.8593 45.3503L53.4445 46.5697ZM55.3886 44.777C56.1808 44.2177 57.2461 43.7247 58.616 43.3188L58.0478 41.4012C56.5376 41.8487 55.2563 42.4223 54.2352 43.143L55.3886 44.777ZM58.616 43.3188C59.9401 42.9265 61.5464 42.72 63.4519 42.72V40.72C61.4107 40.72 59.6037 40.9402 58.0478 41.4012L58.616 43.3188ZM63.4519 42.72C66.6141 42.72 69.4698 43.3818 72.0377 44.6909L72.9461 42.9091C70.0739 41.4449 66.903 40.72 63.4519 40.72V42.72ZM72.0377 44.6909C74.5821 45.988 76.6031 47.9054 78.1099 50.467L79.8338 49.453C78.1407 46.5746 75.8417 44.3853 72.9461 42.9091L72.0377 44.6909ZM78.122 50.4869C79.6548 52.9592 80.4519 56.0719 80.4519 59.88H82.4519C82.4519 55.7948 81.5956 52.2941 79.8218 49.4331L78.122 50.4869ZM80.4519 59.88V60.84H82.4519V59.88H80.4519ZM80.4519 60.84C80.4519 64.6397 79.6316 67.8702 78.0316 70.5702L79.7522 71.5898C81.5655 68.5298 82.4519 64.9337 82.4519 60.84H80.4519ZM78.0246 70.5821C76.4743 73.2827 74.2234 75.3909 71.2386 76.9086L72.1451 78.6914C75.4537 77.0091 78.0028 74.6373 79.7591 71.5779L78.0246 70.5821ZM71.2508 76.9026C68.271 78.3672 64.6692 79.12 60.4119 79.12V81.12C64.9012 81.12 68.8194 80.3262 72.133 78.6974L71.2508 76.9026ZM97.4206 77.8L96.9969 78.7058L96.9969 78.7058L97.4206 77.8ZM89.6606 71.16L90.4998 70.6161L90.4998 70.6161L89.6606 71.16ZM86.8606 58.52V57.52H85.8606V58.52H86.8606ZM97.2606 58.52H98.2606V57.52H97.2606V58.52ZM100.381 68.36L99.7463 69.1331L99.7523 69.138L99.7584 69.1428L100.381 68.36ZM116.941 68.68L116.319 67.8969L116.313 67.9014L116.307 67.906L116.941 68.68ZM118.381 59.4L117.633 60.0644L117.633 60.0644L118.381 59.4ZM114.621 57.08L114.26 58.0126L114.273 58.0177L114.286 58.0224L114.621 57.08ZM108.541 55.32L108.758 54.3438L108.753 54.3428L108.541 55.32ZM106.701 54.92L106.484 55.8962L106.488 55.8972L106.701 54.92ZM96.7806 51.72L96.3405 52.6179L96.351 52.6231L96.3616 52.628L96.7806 51.72ZM90.4606 46.52L89.6318 47.0795L89.6365 47.0865L89.6414 47.0935L90.4606 46.52ZM90.7006 29.48L89.8713 28.9211L89.8686 28.9253L90.7006 29.48ZM97.5806 23.88L97.9806 24.7966L97.9883 24.7931L97.5806 23.88ZM118.701 23.96L118.292 24.8725L118.301 24.8767L118.31 24.8808L118.701 23.96ZM126.061 30.04L125.221 30.5832L125.227 30.5928L125.234 30.6023L126.061 30.04ZM128.781 42.52V43.52H129.781V42.52H128.781ZM118.381 42.52H117.381V43.52H118.381V42.52ZM117.101 35L116.243 35.5145L116.255 35.5349L116.269 35.5547L117.101 35ZM113.581 32.12L113.198 33.044L113.212 33.0497L113.226 33.055L113.581 32.12ZM100.941 33L101.558 33.7863L101.562 33.7835L100.941 33ZM99.7406 41.4L98.9299 41.9855L98.9404 41.9999L98.9513 42.0139L99.7406 41.4ZM103.021 43.8L103.427 42.8862L103.427 42.8862L103.021 43.8ZM108.541 45.48L108.753 44.5028L108.75 44.5022L108.541 45.48ZM110.381 45.88L110.168 46.8572L110.172 46.858L110.381 45.88ZM120.781 49.16L121.194 48.2496L121.194 48.2496L120.781 49.16ZM127.581 54.44L126.774 55.0305L126.778 55.0368L126.783 55.0431L127.581 54.44ZM127.421 71.88L126.591 71.3214L126.589 71.3253L127.421 71.88ZM120.061 77.96L120.477 78.8693L120.484 78.8662L120.061 77.96ZM103.981 88.28H102.981V89.28H103.981V88.28ZM103.981 13.72V12.72H102.981V13.72H103.981ZM113.581 13.72H114.581V12.72H113.581V13.72ZM113.581 88.28V89.28H114.581V88.28H113.581ZM108.861 79.12C104.66 79.12 100.996 78.3685 97.8443 76.8942L96.9969 78.7058C100.458 80.3249 104.421 81.12 108.861 81.12V79.12ZM97.8443 76.8942C94.696 75.4216 92.258 73.3288 90.4998 70.6161L88.8215 71.7039C90.7966 74.7512 93.5319 77.0851 96.9969 78.7058L97.8443 76.8942ZM90.4998 70.6161C88.7559 67.9255 87.8606 64.6558 87.8606 60.76H85.8606C85.8606 64.9708 86.832 68.6345 88.8215 71.7039L90.4998 70.6161ZM87.8606 60.76V58.52H85.8606V60.76H87.8606ZM86.8606 59.52H97.2606V57.52H86.8606V59.52ZM96.2606 58.52V60.76H98.2606V58.52H96.2606ZM96.2606 60.76C96.2606 64.3381 97.3785 67.1903 99.7463 69.1331L101.015 67.5869C99.2227 66.1164 98.2606 63.9019 98.2606 60.76H96.2606ZM99.7584 69.1428C102.068 70.9785 105.139 71.84 108.861 71.84V69.84C105.436 69.84 102.853 69.0481 101.003 67.5772L99.7584 69.1428ZM108.861 71.84C112.589 71.84 115.556 71.1049 117.574 69.454L116.307 67.906C114.805 69.1351 112.385 69.84 108.861 69.84V71.84ZM117.563 69.4631C119.605 67.8408 120.661 65.7168 120.661 63.16H118.661C118.661 65.0832 117.903 66.6392 116.319 67.8969L117.563 69.4631ZM120.661 63.16C120.661 61.4209 120.176 59.9145 119.128 58.7356L117.633 60.0644C118.292 60.8055 118.661 61.8057 118.661 63.16H120.661ZM119.128 58.7356C118.129 57.6119 116.712 56.7609 114.955 56.1376L114.286 58.0224C115.836 58.5724 116.925 59.2681 117.633 60.0644L119.128 58.7356ZM114.982 56.1474C113.267 55.4839 111.189 54.8842 108.758 54.3438L108.324 56.2962C110.692 56.8225 112.667 57.3961 114.26 58.0126L114.982 56.1474ZM108.753 54.3428L106.913 53.9428L106.488 55.8972L108.328 56.2972L108.753 54.3428ZM106.918 53.9438C103.128 53.1018 99.8929 52.055 97.1997 50.812L96.3616 52.628C99.215 53.945 102.593 55.0316 106.484 55.8962L106.918 53.9438ZM97.2208 50.8221C94.6276 49.5509 92.6615 47.9203 91.2799 45.9465L89.6414 47.0935C91.2464 49.3863 93.4937 51.2224 96.3405 52.6179L97.2208 50.8221ZM91.2895 45.9605C89.9921 44.0385 89.3006 41.4779 89.3006 38.2H87.3006C87.3006 41.7488 88.0491 44.7348 89.6318 47.0795L91.2895 45.9605ZM89.3006 38.2C89.3006 34.9472 90.061 32.2422 91.5327 30.0347L89.8686 28.9253C88.1402 31.5178 87.3006 34.6261 87.3006 38.2H89.3006ZM91.5299 30.0389C93.0683 27.756 95.2066 26.007 97.9806 24.7965L97.1807 22.9635C94.088 24.313 91.6396 26.2973 89.8714 28.9211L91.5299 30.0389ZM97.9883 24.7931C100.821 23.5283 104.171 22.88 108.061 22.88V20.88C103.951 20.88 100.313 21.565 97.173 22.9669L97.9883 24.7931ZM108.061 22.88C111.945 22.88 115.348 23.553 118.292 24.8725L119.11 23.0475C115.867 21.5937 112.177 20.88 108.061 20.88V22.88ZM118.31 24.8808C121.284 26.1406 123.576 28.0407 125.221 30.5832L126.9 29.4967C125.025 26.5993 122.411 24.4461 119.091 23.0392L118.31 24.8808ZM125.234 30.6023C126.908 33.065 127.781 36.2156 127.781 40.12H129.781C129.781 35.9177 128.84 32.3483 126.888 29.4777L125.234 30.6023ZM127.781 40.12V42.52H129.781V40.12H127.781ZM128.781 41.52H118.381V43.52H128.781V41.52ZM119.381 42.52V40.12H117.381V42.52H119.381ZM119.381 40.12C119.381 37.863 118.93 35.9418 117.933 34.4453L116.269 35.5547C116.978 36.6182 117.381 38.1103 117.381 40.12H119.381ZM117.958 34.4855C117.035 32.9467 115.678 31.8459 113.935 31.185L113.226 33.055C114.577 33.5674 115.566 34.3866 116.243 35.5145L117.958 34.4855ZM113.963 31.196C112.267 30.4941 110.291 30.16 108.061 30.16V32.16C110.097 32.16 111.801 32.4659 113.198 33.044L113.963 31.196ZM108.061 30.16C104.765 30.16 102.123 30.786 100.319 32.2165L101.562 33.7835C102.852 32.7607 104.956 32.16 108.061 32.16V30.16ZM100.323 32.2137C98.563 33.5964 97.7006 35.5266 97.7006 37.88H99.7006C99.7006 36.0734 100.332 34.7503 101.558 33.7863L100.323 32.2137ZM97.7006 37.88C97.7006 39.4398 98.0935 40.8273 98.9299 41.9855L100.551 40.8145C100.001 40.0527 99.7006 39.0935 99.7006 37.88H97.7006ZM98.9513 42.0139C99.8245 43.1367 101.067 44.0261 102.614 44.7138L103.427 42.8862C102.094 42.2939 101.15 41.5833 100.53 40.7861L98.9513 42.0139ZM102.614 44.7138C104.139 45.3914 106.051 45.9692 108.331 46.4578L108.75 44.5022C106.55 44.0308 104.782 43.4886 103.427 42.8862L102.614 44.7138ZM108.328 46.4572L110.168 46.8572L110.593 44.9028L108.753 44.5028L108.328 46.4572ZM110.172 46.858C114.119 47.7001 117.514 48.7736 120.367 50.0704L121.194 48.2496C118.181 46.8797 114.642 45.7666 110.589 44.902L110.172 46.858ZM120.367 50.0704C123.173 51.3461 125.293 53.0066 126.774 55.0305L128.388 53.8495C126.669 51.5001 124.255 49.6406 121.194 48.2496L120.367 50.0704ZM126.783 55.0431C128.276 57.0173 129.061 59.5901 129.061 62.84H131.061C131.061 59.2633 130.192 56.236 128.378 53.8369L126.783 55.0431ZM129.061 62.84C129.061 66.0717 128.231 68.887 126.591 71.3214L128.25 72.4386C130.131 69.6463 131.061 66.435 131.061 62.84H129.061ZM126.589 71.3253C124.998 73.7114 122.697 75.6263 119.638 77.0538L120.484 78.8662C123.825 77.307 126.43 75.1686 128.253 72.4347L126.589 71.3253ZM119.645 77.0507C116.657 78.418 113.072 79.12 108.861 79.12V81.12C113.29 81.12 117.171 80.382 120.477 78.8693L119.645 77.0507ZM104.981 88.28V13.72H102.981V88.28H104.981ZM103.981 14.72L113.581 14.72V12.72L103.981 12.72V14.72ZM112.581 13.72V88.28H114.581V13.72H112.581ZM113.581 87.28H103.981V89.28H113.581V87.28Z" fill="black" mask="url(#path-2-outside-1_88_7)"/>
</svg>
