<svg width="140" height="106" viewBox="0 0 140 106" fill="none" xmlns="http://www.w3.org/2000/svg">
<path d="M23.64 83L23.64 34.52H22.2L14.68 52.28H3.96L15.4 27H33.88V83H23.64ZM65.0919 84.12C58.4785 84.12 53.1719 82.3067 49.1719 78.68C45.1719 75 43.1719 69.4533 43.1719 62.04V47.96C43.1719 40.76 45.1719 35.2933 49.1719 31.56C53.1719 27.7733 58.4785 25.88 65.0919 25.88C71.7585 25.88 77.0652 27.7733 81.0119 31.56C85.0119 35.2933 87.0119 40.76 87.0119 47.96V62.04C87.0119 69.4533 85.0119 75 81.0119 78.68C77.0652 82.3067 71.7585 84.12 65.0919 84.12ZM65.0919 75C69.0919 75 72.0252 73.9067 73.8919 71.72C75.8119 69.5333 76.7719 66.4133 76.7719 62.36V47.48C76.7719 43.3733 75.7052 40.28 73.5719 38.2C71.4919 36.0667 68.6652 35 65.0919 35C61.4119 35 58.5319 36.0933 56.4519 38.28C54.4252 40.4667 53.4119 43.5333 53.4119 47.48V62.36C53.4119 66.5733 54.3719 69.7467 56.2919 71.88C58.2652 73.96 61.1985 75 65.0919 75ZM115.767 84.12C111.447 84.12 107.634 83.3467 104.327 81.8C101.02 80.2533 98.4335 78.04 96.5669 75.16C94.7002 72.28 93.7669 68.8133 93.7669 64.76V62.52H104.167V64.76C104.167 68.12 105.207 70.6533 107.287 72.36C109.367 74.0133 112.194 74.84 115.767 74.84C119.394 74.84 122.087 74.12 123.847 72.68C125.66 71.24 126.567 69.4 126.567 67.16C126.567 65.6133 126.14 64.36 125.287 63.4C124.434 62.44 123.18 61.6667 121.527 61.08C119.874 60.44 117.847 59.8533 115.447 59.32L113.607 58.92C109.767 58.0667 106.46 57 103.687 55.72C100.967 54.3867 98.8602 52.6533 97.3669 50.52C95.9269 48.3867 95.2069 45.6133 95.2069 42.2C95.2069 38.7867 96.0069 35.88 97.6069 33.48C99.2602 31.0267 101.554 29.16 104.487 27.88C107.474 26.5467 110.967 25.88 114.967 25.88C118.967 25.88 122.514 26.5733 125.607 27.96C128.754 29.2933 131.207 31.32 132.967 34.04C134.78 36.7067 135.687 40.0667 135.687 44.12V46.52H125.287V44.12C125.287 41.9867 124.86 40.28 124.007 39C123.207 37.6667 122.034 36.7067 120.487 36.12C118.94 35.48 117.1 35.16 114.967 35.16C111.767 35.16 109.394 35.7733 107.847 37C106.354 38.1733 105.607 39.8 105.607 41.88C105.607 43.2667 105.954 44.44 106.647 45.4C107.394 46.36 108.487 47.16 109.927 47.8C111.367 48.44 113.207 49 115.447 49.48L117.287 49.88C121.287 50.7333 124.754 51.8267 127.687 53.16C130.62 54.4933 132.887 56.2533 134.487 58.44C136.14 60.6267 136.967 63.4267 136.967 66.84C136.967 70.2533 136.087 73.2667 134.327 75.88C132.62 78.44 130.167 80.4667 126.967 81.96C123.82 83.4 120.087 84.12 115.767 84.12ZM110.887 92.28V17.72H120.487V92.28H110.887Z" fill="black"/>
<mask id="path-2-outside-1_88_6" maskUnits="userSpaceOnUse" x="-1" y="12" width="136" height="78" fill="black">
<rect fill="white" x="-1" y="12" width="136" height="78"/>
<path d="M20.64 79L20.64 30.52H19.2L11.68 48.28H0.96L12.4 23H30.88L30.88 79H20.64ZM62.0919 80.12C55.4785 80.12 50.1719 78.3067 46.1719 74.68C42.1719 71 40.1719 65.4533 40.1719 58.04V43.96C40.1719 36.76 42.1719 31.2933 46.1719 27.56C50.1719 23.7733 55.4785 21.88 62.0919 21.88C68.7585 21.88 74.0652 23.7733 78.0119 27.56C82.0119 31.2933 84.0119 36.76 84.0119 43.96V58.04C84.0119 65.4533 82.0119 71 78.0119 74.68C74.0652 78.3067 68.7585 80.12 62.0919 80.12ZM62.0919 71C66.0919 71 69.0252 69.9067 70.8919 67.72C72.8119 65.5333 73.7719 62.4133 73.7719 58.36V43.48C73.7719 39.3733 72.7052 36.28 70.5719 34.2C68.4919 32.0667 65.6652 31 62.0919 31C58.4119 31 55.5319 32.0933 53.4519 34.28C51.4252 36.4667 50.4119 39.5333 50.4119 43.48V58.36C50.4119 62.5733 51.3719 65.7467 53.2919 67.88C55.2652 69.96 58.1985 71 62.0919 71ZM112.767 80.12C108.447 80.12 104.634 79.3467 101.327 77.8C98.0202 76.2533 95.4335 74.04 93.5669 71.16C91.7002 68.28 90.7669 64.8133 90.7669 60.76V58.52H101.167V60.76C101.167 64.12 102.207 66.6533 104.287 68.36C106.367 70.0133 109.194 70.84 112.767 70.84C116.394 70.84 119.087 70.12 120.847 68.68C122.66 67.24 123.567 65.4 123.567 63.16C123.567 61.6133 123.14 60.36 122.287 59.4C121.434 58.44 120.18 57.6667 118.527 57.08C116.874 56.44 114.847 55.8533 112.447 55.32L110.607 54.92C106.767 54.0667 103.46 53 100.687 51.72C97.9669 50.3867 95.8602 48.6533 94.3669 46.52C92.9269 44.3867 92.2069 41.6133 92.2069 38.2C92.2069 34.7867 93.0069 31.88 94.6069 29.48C96.2602 27.0267 98.5535 25.16 101.487 23.88C104.474 22.5467 107.967 21.88 111.967 21.88C115.967 21.88 119.514 22.5733 122.607 23.96C125.754 25.2933 128.207 27.32 129.967 30.04C131.78 32.7067 132.687 36.0667 132.687 40.12V42.52H122.287V40.12C122.287 37.9867 121.86 36.28 121.007 35C120.207 33.6667 119.034 32.7067 117.487 32.12C115.94 31.48 114.1 31.16 111.967 31.16C108.767 31.16 106.394 31.7733 104.847 33C103.354 34.1733 102.607 35.8 102.607 37.88C102.607 39.2667 102.954 40.44 103.647 41.4C104.394 42.36 105.487 43.16 106.927 43.8C108.367 44.44 110.207 45 112.447 45.48L114.287 45.88C118.287 46.7333 121.754 47.8267 124.687 49.16C127.62 50.4933 129.887 52.2533 131.487 54.44C133.14 56.6267 133.967 59.4267 133.967 62.84C133.967 66.2533 133.087 69.2667 131.327 71.88C129.62 74.44 127.167 76.4667 123.967 77.96C120.82 79.4 117.087 80.12 112.767 80.12ZM107.887 88.28V13.72L117.487 13.72V88.28H107.887Z"/>
</mask>
<path d="M20.64 79L20.64 30.52H19.2L11.68 48.28H0.96L12.4 23H30.88L30.88 79H20.64ZM62.0919 80.12C55.4785 80.12 50.1719 78.3067 46.1719 74.68C42.1719 71 40.1719 65.4533 40.1719 58.04V43.96C40.1719 36.76 42.1719 31.2933 46.1719 27.56C50.1719 23.7733 55.4785 21.88 62.0919 21.88C68.7585 21.88 74.0652 23.7733 78.0119 27.56C82.0119 31.2933 84.0119 36.76 84.0119 43.96V58.04C84.0119 65.4533 82.0119 71 78.0119 74.68C74.0652 78.3067 68.7585 80.12 62.0919 80.12ZM62.0919 71C66.0919 71 69.0252 69.9067 70.8919 67.72C72.8119 65.5333 73.7719 62.4133 73.7719 58.36V43.48C73.7719 39.3733 72.7052 36.28 70.5719 34.2C68.4919 32.0667 65.6652 31 62.0919 31C58.4119 31 55.5319 32.0933 53.4519 34.28C51.4252 36.4667 50.4119 39.5333 50.4119 43.48V58.36C50.4119 62.5733 51.3719 65.7467 53.2919 67.88C55.2652 69.96 58.1985 71 62.0919 71ZM112.767 80.12C108.447 80.12 104.634 79.3467 101.327 77.8C98.0202 76.2533 95.4335 74.04 93.5669 71.16C91.7002 68.28 90.7669 64.8133 90.7669 60.76V58.52H101.167V60.76C101.167 64.12 102.207 66.6533 104.287 68.36C106.367 70.0133 109.194 70.84 112.767 70.84C116.394 70.84 119.087 70.12 120.847 68.68C122.66 67.24 123.567 65.4 123.567 63.16C123.567 61.6133 123.14 60.36 122.287 59.4C121.434 58.44 120.18 57.6667 118.527 57.08C116.874 56.44 114.847 55.8533 112.447 55.32L110.607 54.92C106.767 54.0667 103.46 53 100.687 51.72C97.9669 50.3867 95.8602 48.6533 94.3669 46.52C92.9269 44.3867 92.2069 41.6133 92.2069 38.2C92.2069 34.7867 93.0069 31.88 94.6069 29.48C96.2602 27.0267 98.5535 25.16 101.487 23.88C104.474 22.5467 107.967 21.88 111.967 21.88C115.967 21.88 119.514 22.5733 122.607 23.96C125.754 25.2933 128.207 27.32 129.967 30.04C131.78 32.7067 132.687 36.0667 132.687 40.12V42.52H122.287V40.12C122.287 37.9867 121.86 36.28 121.007 35C120.207 33.6667 119.034 32.7067 117.487 32.12C115.94 31.48 114.1 31.16 111.967 31.16C108.767 31.16 106.394 31.7733 104.847 33C103.354 34.1733 102.607 35.8 102.607 37.88C102.607 39.2667 102.954 40.44 103.647 41.4C104.394 42.36 105.487 43.16 106.927 43.8C108.367 44.44 110.207 45 112.447 45.48L114.287 45.88C118.287 46.7333 121.754 47.8267 124.687 49.16C127.62 50.4933 129.887 52.2533 131.487 54.44C133.14 56.6267 133.967 59.4267 133.967 62.84C133.967 66.2533 133.087 69.2667 131.327 71.88C129.62 74.44 127.167 76.4667 123.967 77.96C120.82 79.4 117.087 80.12 112.767 80.12ZM107.887 88.28V13.72L117.487 13.72V88.28H107.887Z" fill="#AEEFFF"/>
<path d="M20.64 79H19.64V80H20.64V79ZM20.64 30.52H21.64V29.52H20.64V30.52ZM19.2 30.52V29.52H18.5375L18.2791 30.1301L19.2 30.52ZM11.68 48.28V49.28H12.3425L12.6009 48.6699L11.68 48.28ZM0.96 48.28L0.0489436 47.8677L-0.590158 49.28H0.96L0.96 48.28ZM12.4 23V22H11.7549L11.4889 22.5877L12.4 23ZM30.88 23H31.88V22H30.88V23ZM30.88 79V80H31.88V79H30.88ZM21.64 79L21.64 30.52H19.64L19.64 79H21.64ZM20.64 29.52H19.2V31.52H20.64V29.52ZM18.2791 30.1301L10.7591 47.8901L12.6009 48.6699L20.1209 30.9099L18.2791 30.1301ZM11.68 47.28H0.96L0.96 49.28H11.68L11.68 47.28ZM1.87106 48.6923L13.3111 23.4123L11.4889 22.5877L0.0489436 47.8677L1.87106 48.6923ZM12.4 24H30.88V22H12.4V24ZM29.88 23L29.88 79H31.88L31.88 23H29.88ZM30.88 78H20.64V80H30.88V78ZM46.1719 74.68L45.4948 75.416L45.5002 75.4208L46.1719 74.68ZM46.1719 27.56L46.8542 28.2911L46.8594 28.2862L46.1719 27.56ZM78.0119 27.56L77.3195 28.2816L77.3296 28.2911L78.0119 27.56ZM78.0119 74.68L78.6885 75.4163L78.6889 75.4159L78.0119 74.68ZM70.8919 67.72L70.1404 67.0601L70.1313 67.0707L70.8919 67.72ZM70.5719 34.2L69.8559 34.8981L69.8647 34.9072L69.8738 34.916L70.5719 34.2ZM53.4519 34.28L52.7273 33.5907L52.7184 33.6002L53.4519 34.28ZM53.2919 67.88L52.5486 68.549L52.5574 68.5587L52.5664 68.5683L53.2919 67.88ZM62.0919 79.12C55.6684 79.12 50.6204 77.3635 46.8436 73.9392L45.5002 75.4208C49.7233 79.2498 55.2887 81.12 62.0919 81.12V79.12ZM46.8489 73.9441C43.1214 70.5148 41.1719 65.2793 41.1719 58.04H39.1719C39.1719 65.6273 41.2223 71.4852 45.4948 75.4159L46.8489 73.9441ZM41.1719 58.04V43.96H39.1719V58.04H41.1719ZM41.1719 43.96C41.1719 36.9453 43.1154 31.7806 46.8542 28.2911L45.4896 26.8289C41.2283 30.8061 39.1719 36.5747 39.1719 43.96H41.1719ZM46.8594 28.2862C50.6375 24.7095 55.6798 22.88 62.0919 22.88V20.88C55.2773 20.88 49.7062 22.8371 45.4844 26.8338L46.8594 28.2862ZM62.0919 22.88C68.5603 22.88 73.5982 24.7111 77.3195 28.2816L78.7042 26.8384C74.5323 22.8356 68.9568 20.88 62.0919 20.88V22.88ZM77.3296 28.2911C81.0683 31.7806 83.0119 36.9453 83.0119 43.96H85.0119C85.0119 36.5747 82.9554 30.8061 78.6942 26.8289L77.3296 28.2911ZM83.0119 43.96V58.04H85.0119V43.96H83.0119ZM83.0119 58.04C83.0119 65.2793 81.0623 70.5148 77.3348 73.9441L78.6889 75.4159C82.9614 71.4852 85.0119 65.6273 85.0119 58.04H83.0119ZM77.3352 73.9437C73.6153 77.362 68.5718 79.12 62.0919 79.12V81.12C68.9453 81.12 74.5151 79.2513 78.6885 75.4163L77.3352 73.9437ZM62.0919 72C66.265 72 69.5299 70.8557 71.6524 68.3693L70.1313 67.0707C68.5205 68.9577 65.9188 70 62.0919 70V72ZM71.6433 68.3798C73.7768 65.95 74.7719 62.561 74.7719 58.36H72.7719C72.7719 62.2657 71.8469 65.1167 70.1404 67.0602L71.6433 68.3798ZM74.7719 58.36V43.48H72.7719V58.36H74.7719ZM74.7719 43.48C74.7719 39.2082 73.6602 35.8144 71.27 33.484L69.8738 34.916C71.7502 36.7456 72.7719 39.5384 72.7719 43.48H74.7719ZM71.2879 33.5019C68.9828 31.1378 65.8771 30 62.0919 30V32C65.4534 32 68.0009 32.9956 69.8559 34.8981L71.2879 33.5019ZM62.0919 30C58.2025 30 55.0364 31.1633 52.7273 33.5908L54.1764 34.9692C56.0274 33.0233 58.6213 32 62.0919 32V30ZM52.7184 33.6002C50.471 36.0251 49.4119 39.3648 49.4119 43.48H51.4119C51.4119 39.7018 52.3794 36.9082 54.1853 34.9598L52.7184 33.6002ZM49.4119 43.48V58.36H51.4119V43.48H49.4119ZM49.4119 58.36C49.4119 62.7069 50.4005 66.1623 52.5486 68.549L54.0352 67.211C52.3432 65.3311 51.4119 62.4398 51.4119 58.36H49.4119ZM52.5664 68.5683C54.7887 70.9106 58.0258 72 62.0919 72V70C58.3713 70 55.7418 69.0094 54.0173 67.1917L52.5664 68.5683ZM101.327 77.8L100.903 78.7058L100.903 78.7058L101.327 77.8ZM93.5669 71.16L94.406 70.6161L94.406 70.6161L93.5669 71.16ZM90.7669 58.52V57.52H89.7669V58.52H90.7669ZM101.167 58.52H102.167V57.52H101.167V58.52ZM104.287 68.36L103.653 69.1331L103.659 69.138L103.665 69.1428L104.287 68.36ZM120.847 68.68L120.225 67.8969L120.219 67.9014L120.214 67.906L120.847 68.68ZM122.287 59.4L121.539 60.0644L121.539 60.0644L122.287 59.4ZM118.527 57.08L118.166 58.0126L118.179 58.0177L118.192 58.0224L118.527 57.08ZM112.447 55.32L112.664 54.3438L112.659 54.3428L112.447 55.32ZM110.607 54.92L110.39 55.8962L110.394 55.8972L110.607 54.92ZM100.687 51.72L100.247 52.6179L100.257 52.6231L100.268 52.628L100.687 51.72ZM94.3669 46.52L93.538 47.0795L93.5428 47.0865L93.5476 47.0935L94.3669 46.52ZM94.6069 29.48L93.7776 28.9211L93.7748 28.9253L94.6069 29.48ZM101.487 23.88L101.887 24.7966L101.895 24.7931L101.487 23.88ZM122.607 23.96L122.198 24.8725L122.207 24.8767L122.217 24.8808L122.607 23.96ZM129.967 30.04L129.127 30.5832L129.134 30.5928L129.14 30.6023L129.967 30.04ZM132.687 42.52V43.52H133.687V42.52H132.687ZM122.287 42.52H121.287V43.52H122.287V42.52ZM121.007 35L120.149 35.5145L120.162 35.5349L120.175 35.5547L121.007 35ZM117.487 32.12L117.105 33.044L117.118 33.0497L117.132 33.055L117.487 32.12ZM104.847 33L105.465 33.7863L105.468 33.7835L104.847 33ZM103.647 41.4L102.836 41.9855L102.847 41.9999L102.858 42.0139L103.647 41.4ZM106.927 43.8L107.333 42.8862L107.333 42.8862L106.927 43.8ZM112.447 45.48L112.659 44.5028L112.656 44.5022L112.447 45.48ZM114.287 45.88L114.074 46.8572L114.078 46.858L114.287 45.88ZM124.687 49.16L125.101 48.2496L125.101 48.2496L124.687 49.16ZM131.487 54.44L130.68 55.0305L130.684 55.0368L130.689 55.0431L131.487 54.44ZM131.327 71.88L130.497 71.3214L130.495 71.3253L131.327 71.88ZM123.967 77.96L124.383 78.8693L124.39 78.8662L123.967 77.96ZM107.887 88.28H106.887V89.28H107.887V88.28ZM107.887 13.72V12.72H106.887V13.72H107.887ZM117.487 13.72H118.487V12.72H117.487V13.72ZM117.487 88.28V89.28H118.487V88.28H117.487ZM112.767 79.12C108.567 79.12 104.902 78.3685 101.751 76.8942L100.903 78.7058C104.365 80.3249 108.327 81.12 112.767 81.12V79.12ZM101.751 76.8942C98.6023 75.4216 96.1643 73.3288 94.406 70.6161L92.7277 71.7039C94.7028 74.7512 97.4382 77.0851 100.903 78.7058L101.751 76.8942ZM94.406 70.6161C92.6621 67.9255 91.7669 64.6558 91.7669 60.76H89.7669C89.7669 64.9708 90.7383 68.6345 92.7277 71.7039L94.406 70.6161ZM91.7669 60.76V58.52H89.7669V60.76H91.7669ZM90.7669 59.52H101.167V57.52H90.7669V59.52ZM100.167 58.52V60.76H102.167V58.52H100.167ZM100.167 60.76C100.167 64.3381 101.285 67.1903 103.653 69.1331L104.921 67.5869C103.129 66.1164 102.167 63.9019 102.167 60.76H100.167ZM103.665 69.1428C105.974 70.9785 109.045 71.84 112.767 71.84V69.84C109.342 69.84 106.76 69.0481 104.909 67.5772L103.665 69.1428ZM112.767 71.84C116.496 71.84 119.462 71.1049 121.48 69.454L120.214 67.906C118.711 69.1351 116.291 69.84 112.767 69.84V71.84ZM121.469 69.4631C123.512 67.8408 124.567 65.7168 124.567 63.16H122.567C122.567 65.0832 121.809 66.6392 120.225 67.8969L121.469 69.4631ZM124.567 63.16C124.567 61.4209 124.082 59.9145 123.034 58.7356L121.539 60.0644C122.198 60.8055 122.567 61.8057 122.567 63.16H124.567ZM123.034 58.7356C122.035 57.6119 120.618 56.7609 118.861 56.1376L118.192 58.0224C119.742 58.5724 120.832 59.2681 121.539 60.0644L123.034 58.7356ZM118.888 56.1474C117.174 55.4839 115.096 54.8842 112.664 54.3438L112.23 56.2962C114.598 56.8225 116.573 57.3961 118.166 58.0126L118.888 56.1474ZM112.659 54.3428L110.819 53.9428L110.394 55.8972L112.234 56.2972L112.659 54.3428ZM110.824 53.9438C107.035 53.1018 103.799 52.055 101.106 50.812L100.268 52.628C103.121 53.945 106.499 55.0316 110.39 55.8962L110.824 53.9438ZM101.127 50.8221C98.5338 49.5509 96.5678 47.9203 95.1861 45.9465L93.5476 47.0935C95.1527 49.3863 97.3999 51.2224 100.247 52.6179L101.127 50.8221ZM95.1957 45.9605C93.8984 44.0385 93.2069 41.4779 93.2069 38.2H91.2069C91.2069 41.7488 91.9554 44.7348 93.538 47.0795L95.1957 45.9605ZM93.2069 38.2C93.2069 34.9472 93.9673 32.2422 95.4389 30.0347L93.7748 28.9253C92.0465 31.5178 91.2069 34.6261 91.2069 38.2H93.2069ZM95.4361 30.0389C96.9746 27.756 99.1128 26.007 101.887 24.7965L101.087 22.9635C97.9942 24.313 95.5459 26.2973 93.7776 28.9211L95.4361 30.0389ZM101.895 24.7931C104.728 23.5283 108.077 22.88 111.967 22.88V20.88C107.857 20.88 104.219 21.565 101.079 22.9669L101.895 24.7931ZM111.967 22.88C115.851 22.88 119.254 23.553 122.198 24.8725L123.016 23.0475C119.773 21.5937 116.083 20.88 111.967 20.88V22.88ZM122.217 24.8808C125.19 26.1406 127.482 28.0407 129.127 30.5832L130.806 29.4967C128.932 26.5993 126.317 24.4461 122.997 23.0392L122.217 24.8808ZM129.14 30.6023C130.815 33.065 131.687 36.2156 131.687 40.12H133.687C133.687 35.9177 132.746 32.3483 130.794 29.4777L129.14 30.6023ZM131.687 40.12V42.52H133.687V40.12H131.687ZM132.687 41.52H122.287V43.52H132.687V41.52ZM123.287 42.52V40.12H121.287V42.52H123.287ZM123.287 40.12C123.287 37.863 122.837 35.9418 121.839 34.4453L120.175 35.5547C120.884 36.6182 121.287 38.1103 121.287 40.12H123.287ZM121.864 34.4855C120.941 32.9467 119.584 31.8459 117.842 31.185L117.132 33.055C118.483 33.5674 119.473 34.3866 120.149 35.5145L121.864 34.4855ZM117.869 31.196C116.173 30.4941 114.197 30.16 111.967 30.16V32.16C114.004 32.16 115.707 32.4659 117.105 33.044L117.869 31.196ZM111.967 30.16C108.671 30.16 106.029 30.786 104.225 32.2165L105.468 33.7835C106.758 32.7607 108.863 32.16 111.967 32.16V30.16ZM104.229 32.2137C102.469 33.5964 101.607 35.5266 101.607 37.88H103.607C103.607 36.0734 104.238 34.7503 105.465 33.7863L104.229 32.2137ZM101.607 37.88C101.607 39.4398 102 40.8273 102.836 41.9855L104.458 40.8145C103.907 40.0527 103.607 39.0935 103.607 37.88H101.607ZM102.858 42.0139C103.731 43.1367 104.973 44.0261 106.521 44.7138L107.333 42.8862C106 42.2939 105.056 41.5833 104.436 40.7861L102.858 42.0139ZM106.521 44.7138C108.045 45.3914 109.957 45.9692 112.237 46.4578L112.656 44.5022C110.456 44.0308 108.689 43.4886 107.333 42.8862L106.521 44.7138ZM112.234 46.4572L114.074 46.8572L114.499 44.9028L112.659 44.5028L112.234 46.4572ZM114.078 46.858C118.026 47.7001 121.42 48.7736 124.273 50.0704L125.101 48.2496C122.087 46.8797 118.548 45.7666 114.496 44.902L114.078 46.858ZM124.273 50.0704C127.08 51.3461 129.199 53.0066 130.68 55.0305L132.294 53.8495C130.575 51.5001 128.161 49.6406 125.101 48.2496L124.273 50.0704ZM130.689 55.0431C132.182 57.0173 132.967 59.5901 132.967 62.84H134.967C134.967 59.2633 134.099 56.236 132.285 53.8369L130.689 55.0431ZM132.967 62.84C132.967 66.0717 132.137 68.887 130.497 71.3214L132.156 72.4386C134.037 69.6463 134.967 66.435 134.967 62.84H132.967ZM130.495 71.3253C128.904 73.7114 126.603 75.6263 123.544 77.0538L124.39 78.8662C127.731 77.307 130.336 75.1686 132.159 72.4347L130.495 71.3253ZM123.551 77.0507C120.563 78.418 116.978 79.12 112.767 79.12V81.12C117.196 81.12 121.078 80.382 124.383 78.8693L123.551 77.0507ZM108.887 88.28V13.72H106.887V88.28H108.887ZM107.887 14.72L117.487 14.72V12.72L107.887 12.72V14.72ZM116.487 13.72V88.28H118.487V13.72H116.487ZM117.487 87.28H107.887V89.28H117.487V87.28Z" fill="black" mask="url(#path-2-outside-1_88_6)"/>
</svg>
