<svg width="199" height="106" viewBox="0 0 199 106" fill="none" xmlns="http://www.w3.org/2000/svg">
<path d="M6.36 83L6.36 76.28C6.36 72.3867 7 69.16 8.28 66.6C9.56 63.9867 11.4 61.8533 13.8 60.2C16.2533 58.4933 19.24 57.1067 22.76 56.04L28.12 54.36C30.0933 53.72 31.7467 52.9467 33.08 52.04C34.4133 51.08 35.4267 49.9333 36.12 48.6C36.8667 47.2667 37.24 45.7467 37.24 44.04V43.72C37.24 41.0533 36.3333 38.9467 34.52 37.4C32.7067 35.8 30.2267 35 27.08 35C23.9867 35 21.48 35.8533 19.56 37.56C17.6933 39.2133 16.76 41.6133 16.76 44.76V46.2H6.52V44.92C6.52 40.8667 7.42667 37.4267 9.24 34.6C11.0533 31.7733 13.5067 29.6133 16.6 28.12C19.7467 26.6267 23.24 25.88 27.08 25.88C30.92 25.88 34.3867 26.6267 37.48 28.12C40.5733 29.56 43 31.6133 44.76 34.28C46.5733 36.8933 47.48 39.9867 47.48 43.56V44.36C47.48 47.9333 46.7333 50.9733 45.24 53.48C43.8 55.9333 41.8267 57.96 39.32 59.56C36.8133 61.1067 33.96 62.3867 30.76 63.4L25.64 65C23.3467 65.6933 21.56 66.4667 20.28 67.32C19 68.12 18.0933 69.0267 17.56 70.04C17.08 71 16.84 72.1733 16.84 73.56V73.88H47V83H6.36ZM53.86 83V76.28C53.86 72.3867 54.5 69.16 55.78 66.6C57.06 63.9867 58.9 61.8533 61.3 60.2C63.7533 58.4933 66.74 57.1067 70.26 56.04L75.62 54.36C77.5933 53.72 79.2467 52.9467 80.58 52.04C81.9133 51.08 82.9267 49.9333 83.62 48.6C84.3667 47.2667 84.74 45.7467 84.74 44.04V43.72C84.74 41.0533 83.8333 38.9467 82.02 37.4C80.2067 35.8 77.7267 35 74.58 35C71.4867 35 68.98 35.8533 67.06 37.56C65.1933 39.2133 64.26 41.6133 64.26 44.76V46.2H54.02V44.92C54.02 40.8667 54.9267 37.4267 56.74 34.6C58.5533 31.7733 61.0067 29.6133 64.1 28.12C67.2467 26.6267 70.74 25.88 74.58 25.88C78.42 25.88 81.8867 26.6267 84.98 28.12C88.0733 29.56 90.5 31.6133 92.26 34.28C94.0733 36.8933 94.98 39.9867 94.98 43.56V44.36C94.98 47.9333 94.2333 50.9733 92.74 53.48C91.3 55.9333 89.3267 57.96 86.82 59.56C84.3133 61.1067 81.46 62.3867 78.26 63.4L73.14 65C70.8467 65.6933 69.06 66.4667 67.78 67.32C66.5 68.12 65.5933 69.0267 65.06 70.04C64.58 71 64.34 72.1733 64.34 73.56V73.88H94.5V83H53.86ZM123.92 84.12C117.307 84.12 112 82.3067 108 78.68C104 75 102 69.4533 102 62.04V47.96C102 40.76 104 35.2933 108 31.56C112 27.7733 117.307 25.88 123.92 25.88C130.587 25.88 135.893 27.7733 139.84 31.56C143.84 35.2933 145.84 40.76 145.84 47.96V62.04C145.84 69.4533 143.84 75 139.84 78.68C135.893 82.3067 130.587 84.12 123.92 84.12ZM123.92 75C127.92 75 130.853 73.9067 132.72 71.72C134.64 69.5333 135.6 66.4133 135.6 62.36V47.48C135.6 43.3733 134.533 40.28 132.4 38.2C130.32 36.0667 127.493 35 123.92 35C120.24 35 117.36 36.0933 115.28 38.28C113.253 40.4667 112.24 43.5333 112.24 47.48V62.36C112.24 66.5733 113.2 69.7467 115.12 71.88C117.093 73.96 120.027 75 123.92 75ZM174.595 84.12C170.275 84.12 166.462 83.3467 163.155 81.8C159.848 80.2533 157.262 78.04 155.395 75.16C153.528 72.28 152.595 68.8133 152.595 64.76V62.52H162.995V64.76C162.995 68.12 164.035 70.6533 166.115 72.36C168.195 74.0133 171.022 74.84 174.595 74.84C178.222 74.84 180.915 74.12 182.675 72.68C184.488 71.24 185.395 69.4 185.395 67.16C185.395 65.6133 184.968 64.36 184.115 63.4C183.262 62.44 182.008 61.6667 180.355 61.08C178.702 60.44 176.675 59.8533 174.275 59.32L172.435 58.92C168.595 58.0667 165.288 57 162.515 55.72C159.795 54.3867 157.688 52.6533 156.195 50.52C154.755 48.3867 154.035 45.6133 154.035 42.2C154.035 38.7867 154.835 35.88 156.435 33.48C158.088 31.0267 160.382 29.16 163.315 27.88C166.302 26.5467 169.795 25.88 173.795 25.88C177.795 25.88 181.342 26.5733 184.435 27.96C187.582 29.2933 190.035 31.32 191.795 34.04C193.608 36.7067 194.515 40.0667 194.515 44.12V46.52H184.115V44.12C184.115 41.9867 183.688 40.28 182.835 39C182.035 37.6667 180.862 36.7067 179.315 36.12C177.768 35.48 175.928 35.16 173.795 35.16C170.595 35.16 168.222 35.7733 166.675 37C165.182 38.1733 164.435 39.8 164.435 41.88C164.435 43.2667 164.782 44.44 165.475 45.4C166.222 46.36 167.315 47.16 168.755 47.8C170.195 48.44 172.035 49 174.275 49.48L176.115 49.88C180.115 50.7333 183.582 51.8267 186.515 53.16C189.448 54.4933 191.715 56.2533 193.315 58.44C194.968 60.6267 195.795 63.4267 195.795 66.84C195.795 70.2533 194.915 73.2667 193.155 75.88C191.448 78.44 188.995 80.4667 185.795 81.96C182.648 83.4 178.915 84.12 174.595 84.12ZM169.715 92.28V17.72L179.315 17.72V92.28H169.715Z" fill="black"/>
<mask id="path-2-outside-1_141_11" maskUnits="userSpaceOnUse" x="2" y="12" width="192" height="78" fill="black">
<rect fill="white" x="2" y="12" width="192" height="78"/>
<path d="M3.36 79L3.36 72.28C3.36 68.3867 4 65.16 5.28 62.6C6.56 59.9867 8.4 57.8533 10.8 56.2C13.2533 54.4933 16.24 53.1067 19.76 52.04L25.12 50.36C27.0933 49.72 28.7467 48.9467 30.08 48.04C31.4133 47.08 32.4267 45.9333 33.12 44.6C33.8667 43.2667 34.24 41.7467 34.24 40.04V39.72C34.24 37.0533 33.3333 34.9467 31.52 33.4C29.7067 31.8 27.2267 31 24.08 31C20.9867 31 18.48 31.8533 16.56 33.56C14.6933 35.2133 13.76 37.6133 13.76 40.76V42.2H3.52V40.92C3.52 36.8667 4.42667 33.4267 6.24 30.6C8.05333 27.7733 10.5067 25.6133 13.6 24.12C16.7467 22.6267 20.24 21.88 24.08 21.88C27.92 21.88 31.3867 22.6267 34.48 24.12C37.5733 25.56 40 27.6133 41.76 30.28C43.5733 32.8933 44.48 35.9867 44.48 39.56V40.36C44.48 43.9333 43.7333 46.9733 42.24 49.48C40.8 51.9333 38.8267 53.96 36.32 55.56C33.8133 57.1067 30.96 58.3867 27.76 59.4L22.64 61C20.3467 61.6933 18.56 62.4667 17.28 63.32C16 64.12 15.0933 65.0267 14.56 66.04C14.08 67 13.84 68.1733 13.84 69.56V69.88H44V79H3.36ZM50.86 79V72.28C50.86 68.3867 51.5 65.16 52.78 62.6C54.06 59.9867 55.9 57.8533 58.3 56.2C60.7533 54.4933 63.74 53.1067 67.26 52.04L72.62 50.36C74.5933 49.72 76.2467 48.9467 77.58 48.04C78.9133 47.08 79.9267 45.9333 80.62 44.6C81.3667 43.2667 81.74 41.7467 81.74 40.04V39.72C81.74 37.0533 80.8333 34.9467 79.02 33.4C77.2067 31.8 74.7267 31 71.58 31C68.4867 31 65.98 31.8533 64.06 33.56C62.1933 35.2133 61.26 37.6133 61.26 40.76V42.2H51.02V40.92C51.02 36.8667 51.9267 33.4267 53.74 30.6C55.5533 27.7733 58.0067 25.6133 61.1 24.12C64.2467 22.6267 67.74 21.88 71.58 21.88C75.42 21.88 78.8867 22.6267 81.98 24.12C85.0733 25.56 87.5 27.6133 89.26 30.28C91.0733 32.8933 91.98 35.9867 91.98 39.56V40.36C91.98 43.9333 91.2333 46.9733 89.74 49.48C88.3 51.9333 86.3267 53.96 83.82 55.56C81.3133 57.1067 78.46 58.3867 75.26 59.4L70.14 61C67.8467 61.6933 66.06 62.4667 64.78 63.32C63.5 64.12 62.5933 65.0267 62.06 66.04C61.58 67 61.34 68.1733 61.34 69.56V69.88H91.5V79H50.86ZM120.92 80.12C114.307 80.12 109 78.3067 105 74.68C101 71 99 65.4533 99 58.04V43.96C99 36.76 101 31.2933 105 27.56C109 23.7733 114.307 21.88 120.92 21.88C127.587 21.88 132.893 23.7733 136.84 27.56C140.84 31.2933 142.84 36.76 142.84 43.96V58.04C142.84 65.4533 140.84 71 136.84 74.68C132.893 78.3067 127.587 80.12 120.92 80.12ZM120.92 71C124.92 71 127.853 69.9067 129.72 67.72C131.64 65.5333 132.6 62.4133 132.6 58.36V43.48C132.6 39.3733 131.533 36.28 129.4 34.2C127.32 32.0667 124.493 31 120.92 31C117.24 31 114.36 32.0933 112.28 34.28C110.253 36.4667 109.24 39.5333 109.24 43.48V58.36C109.24 62.5733 110.2 65.7467 112.12 67.88C114.093 69.96 117.027 71 120.92 71ZM171.595 80.12C167.275 80.12 163.462 79.3467 160.155 77.8C156.848 76.2533 154.262 74.04 152.395 71.16C150.528 68.28 149.595 64.8133 149.595 60.76V58.52H159.995V60.76C159.995 64.12 161.035 66.6533 163.115 68.36C165.195 70.0133 168.022 70.84 171.595 70.84C175.222 70.84 177.915 70.12 179.675 68.68C181.488 67.24 182.395 65.4 182.395 63.16C182.395 61.6133 181.968 60.36 181.115 59.4C180.262 58.44 179.008 57.6667 177.355 57.08C175.702 56.44 173.675 55.8533 171.275 55.32L169.435 54.92C165.595 54.0667 162.288 53 159.515 51.72C156.795 50.3867 154.688 48.6533 153.195 46.52C151.755 44.3867 151.035 41.6133 151.035 38.2C151.035 34.7867 151.835 31.88 153.435 29.48C155.088 27.0267 157.382 25.16 160.315 23.88C163.302 22.5467 166.795 21.88 170.795 21.88C174.795 21.88 178.342 22.5733 181.435 23.96C184.582 25.2933 187.035 27.32 188.795 30.04C190.608 32.7067 191.515 36.0667 191.515 40.12V42.52H181.115V40.12C181.115 37.9867 180.688 36.28 179.835 35C179.035 33.6667 177.862 32.7067 176.315 32.12C174.768 31.48 172.928 31.16 170.795 31.16C167.595 31.16 165.222 31.7733 163.675 33C162.182 34.1733 161.435 35.8 161.435 37.88C161.435 39.2667 161.782 40.44 162.475 41.4C163.222 42.36 164.315 43.16 165.755 43.8C167.195 44.44 169.035 45 171.275 45.48L173.115 45.88C177.115 46.7333 180.582 47.8267 183.515 49.16C186.448 50.4933 188.715 52.2533 190.315 54.44C191.968 56.6267 192.795 59.4267 192.795 62.84C192.795 66.2533 191.915 69.2667 190.155 71.88C188.448 74.44 185.995 76.4667 182.795 77.96C179.648 79.4 175.915 80.12 171.595 80.12ZM166.715 88.28V13.72L176.315 13.72V88.28H166.715Z"/>
</mask>
<path d="M3.36 79L3.36 72.28C3.36 68.3867 4 65.16 5.28 62.6C6.56 59.9867 8.4 57.8533 10.8 56.2C13.2533 54.4933 16.24 53.1067 19.76 52.04L25.12 50.36C27.0933 49.72 28.7467 48.9467 30.08 48.04C31.4133 47.08 32.4267 45.9333 33.12 44.6C33.8667 43.2667 34.24 41.7467 34.24 40.04V39.72C34.24 37.0533 33.3333 34.9467 31.52 33.4C29.7067 31.8 27.2267 31 24.08 31C20.9867 31 18.48 31.8533 16.56 33.56C14.6933 35.2133 13.76 37.6133 13.76 40.76V42.2H3.52V40.92C3.52 36.8667 4.42667 33.4267 6.24 30.6C8.05333 27.7733 10.5067 25.6133 13.6 24.12C16.7467 22.6267 20.24 21.88 24.08 21.88C27.92 21.88 31.3867 22.6267 34.48 24.12C37.5733 25.56 40 27.6133 41.76 30.28C43.5733 32.8933 44.48 35.9867 44.48 39.56V40.36C44.48 43.9333 43.7333 46.9733 42.24 49.48C40.8 51.9333 38.8267 53.96 36.32 55.56C33.8133 57.1067 30.96 58.3867 27.76 59.4L22.64 61C20.3467 61.6933 18.56 62.4667 17.28 63.32C16 64.12 15.0933 65.0267 14.56 66.04C14.08 67 13.84 68.1733 13.84 69.56V69.88H44V79H3.36ZM50.86 79V72.28C50.86 68.3867 51.5 65.16 52.78 62.6C54.06 59.9867 55.9 57.8533 58.3 56.2C60.7533 54.4933 63.74 53.1067 67.26 52.04L72.62 50.36C74.5933 49.72 76.2467 48.9467 77.58 48.04C78.9133 47.08 79.9267 45.9333 80.62 44.6C81.3667 43.2667 81.74 41.7467 81.74 40.04V39.72C81.74 37.0533 80.8333 34.9467 79.02 33.4C77.2067 31.8 74.7267 31 71.58 31C68.4867 31 65.98 31.8533 64.06 33.56C62.1933 35.2133 61.26 37.6133 61.26 40.76V42.2H51.02V40.92C51.02 36.8667 51.9267 33.4267 53.74 30.6C55.5533 27.7733 58.0067 25.6133 61.1 24.12C64.2467 22.6267 67.74 21.88 71.58 21.88C75.42 21.88 78.8867 22.6267 81.98 24.12C85.0733 25.56 87.5 27.6133 89.26 30.28C91.0733 32.8933 91.98 35.9867 91.98 39.56V40.36C91.98 43.9333 91.2333 46.9733 89.74 49.48C88.3 51.9333 86.3267 53.96 83.82 55.56C81.3133 57.1067 78.46 58.3867 75.26 59.4L70.14 61C67.8467 61.6933 66.06 62.4667 64.78 63.32C63.5 64.12 62.5933 65.0267 62.06 66.04C61.58 67 61.34 68.1733 61.34 69.56V69.88H91.5V79H50.86ZM120.92 80.12C114.307 80.12 109 78.3067 105 74.68C101 71 99 65.4533 99 58.04V43.96C99 36.76 101 31.2933 105 27.56C109 23.7733 114.307 21.88 120.92 21.88C127.587 21.88 132.893 23.7733 136.84 27.56C140.84 31.2933 142.84 36.76 142.84 43.96V58.04C142.84 65.4533 140.84 71 136.84 74.68C132.893 78.3067 127.587 80.12 120.92 80.12ZM120.92 71C124.92 71 127.853 69.9067 129.72 67.72C131.64 65.5333 132.6 62.4133 132.6 58.36V43.48C132.6 39.3733 131.533 36.28 129.4 34.2C127.32 32.0667 124.493 31 120.92 31C117.24 31 114.36 32.0933 112.28 34.28C110.253 36.4667 109.24 39.5333 109.24 43.48V58.36C109.24 62.5733 110.2 65.7467 112.12 67.88C114.093 69.96 117.027 71 120.92 71ZM171.595 80.12C167.275 80.12 163.462 79.3467 160.155 77.8C156.848 76.2533 154.262 74.04 152.395 71.16C150.528 68.28 149.595 64.8133 149.595 60.76V58.52H159.995V60.76C159.995 64.12 161.035 66.6533 163.115 68.36C165.195 70.0133 168.022 70.84 171.595 70.84C175.222 70.84 177.915 70.12 179.675 68.68C181.488 67.24 182.395 65.4 182.395 63.16C182.395 61.6133 181.968 60.36 181.115 59.4C180.262 58.44 179.008 57.6667 177.355 57.08C175.702 56.44 173.675 55.8533 171.275 55.32L169.435 54.92C165.595 54.0667 162.288 53 159.515 51.72C156.795 50.3867 154.688 48.6533 153.195 46.52C151.755 44.3867 151.035 41.6133 151.035 38.2C151.035 34.7867 151.835 31.88 153.435 29.48C155.088 27.0267 157.382 25.16 160.315 23.88C163.302 22.5467 166.795 21.88 170.795 21.88C174.795 21.88 178.342 22.5733 181.435 23.96C184.582 25.2933 187.035 27.32 188.795 30.04C190.608 32.7067 191.515 36.0667 191.515 40.12V42.52H181.115V40.12C181.115 37.9867 180.688 36.28 179.835 35C179.035 33.6667 177.862 32.7067 176.315 32.12C174.768 31.48 172.928 31.16 170.795 31.16C167.595 31.16 165.222 31.7733 163.675 33C162.182 34.1733 161.435 35.8 161.435 37.88C161.435 39.2667 161.782 40.44 162.475 41.4C163.222 42.36 164.315 43.16 165.755 43.8C167.195 44.44 169.035 45 171.275 45.48L173.115 45.88C177.115 46.7333 180.582 47.8267 183.515 49.16C186.448 50.4933 188.715 52.2533 190.315 54.44C191.968 56.6267 192.795 59.4267 192.795 62.84C192.795 66.2533 191.915 69.2667 190.155 71.88C188.448 74.44 185.995 76.4667 182.795 77.96C179.648 79.4 175.915 80.12 171.595 80.12ZM166.715 88.28V13.72L176.315 13.72V88.28H166.715Z" fill="#AEEFFF"/>
<path d="M3.36 79H2.36V80H3.36V79ZM5.28 62.6L6.17446 63.0472L6.17806 63.0399L5.28 62.6ZM10.8 56.2L11.3673 57.0235L11.3711 57.0209L10.8 56.2ZM19.76 52.04L20.05 52.9971L20.0591 52.9942L19.76 52.04ZM25.12 50.36L25.4191 51.3143L25.4285 51.3112L25.12 50.36ZM30.08 48.04L30.6423 48.8669L30.6534 48.8594L30.6643 48.8515L30.08 48.04ZM33.12 44.6L32.2475 44.1114L32.2399 44.1249L32.2328 44.1386L33.12 44.6ZM31.52 33.4L30.8584 34.1498L30.8647 34.1554L30.8711 34.1608L31.52 33.4ZM16.56 33.56L17.223 34.3086L17.2244 34.3074L16.56 33.56ZM13.76 42.2V43.2H14.76V42.2H13.76ZM3.52 42.2H2.52V43.2H3.52V42.2ZM6.24 30.6L7.08169 31.14L7.08169 31.14L6.24 30.6ZM13.6 24.12L13.1712 23.2166L13.1653 23.2194L13.6 24.12ZM34.48 24.12L34.0452 25.0206L34.058 25.0266L34.48 24.12ZM41.76 30.28L40.9254 30.8308L40.9318 30.8405L40.9384 30.8501L41.76 30.28ZM42.24 49.48L41.3809 48.9682L41.3776 48.9738L42.24 49.48ZM36.32 55.56L36.8451 56.411L36.8516 56.407L36.858 56.4029L36.32 55.56ZM27.76 59.4L28.0583 60.3545L28.0619 60.3533L27.76 59.4ZM22.64 61L22.9294 61.9573L22.9383 61.9545L22.64 61ZM17.28 63.32L17.81 64.168L17.8225 64.1602L17.8347 64.152L17.28 63.32ZM14.56 66.04L13.6751 65.5743L13.6702 65.5835L13.6656 65.5928L14.56 66.04ZM13.84 69.88H12.84V70.88H13.84V69.88ZM44 69.88H45V68.88H44V69.88ZM44 79V80H45V79H44ZM4.36 79V72.28H2.36L2.36 79H4.36ZM4.36 72.28C4.36 68.4888 4.98423 65.4276 6.17443 63.0472L4.38557 62.1528C3.01577 64.8924 2.36 68.2845 2.36 72.28H4.36ZM6.17806 63.0399C7.38244 60.5809 9.10843 58.5796 11.3673 57.0235L10.2327 55.3765C7.69157 57.127 5.73756 59.3924 4.38194 62.1601L6.17806 63.0399ZM11.3711 57.0209C13.7212 55.386 16.608 54.04 20.05 52.997L19.47 51.083C15.872 52.1733 12.7854 53.6007 10.2289 55.3791L11.3711 57.0209ZM20.0591 52.9942L25.4191 51.3142L24.8209 49.4058L19.4609 51.0858L20.0591 52.9942ZM25.4285 51.3112C27.4675 50.6499 29.212 49.8395 30.6423 48.8669L29.5177 47.2131C28.2813 48.0538 26.7191 48.7901 24.8115 49.4088L25.4285 51.3112ZM30.6643 48.8515C32.1126 47.8088 33.2351 46.5461 34.0072 45.0614L32.2328 44.1386C31.6182 45.3206 30.7141 46.3512 29.4957 47.2285L30.6643 48.8515ZM33.9925 45.0886C34.8322 43.5892 35.24 41.8974 35.24 40.04H33.24C33.24 41.596 32.9011 42.9442 32.2475 44.1114L33.9925 45.0886ZM35.24 40.04V39.72H33.24V40.04H35.24ZM35.24 39.72C35.24 36.7996 34.2331 34.3998 32.1689 32.6392L30.8711 34.1608C32.4335 35.4935 33.24 37.307 33.24 39.72H35.24ZM32.1816 32.6502C30.1362 30.8454 27.3953 30 24.08 30V32C27.0581 32 29.2771 32.7546 30.8584 34.1498L32.1816 32.6502ZM24.08 30C20.7943 30 18.0345 30.9114 15.8956 32.8126L17.2244 34.3074C18.9255 32.7953 21.1791 32 24.08 32V30ZM15.897 32.8114C13.7623 34.7021 12.76 37.4076 12.76 40.76H14.76C14.76 37.8191 15.6243 35.7246 17.223 34.3086L15.897 32.8114ZM12.76 40.76V42.2H14.76V40.76H12.76ZM13.76 41.2H3.52V43.2H13.76V41.2ZM4.52 42.2V40.92H2.52V42.2H4.52ZM4.52 40.92C4.52 37.0181 5.39138 33.7749 7.08169 31.14L5.39831 30.06C3.46196 33.0785 2.52 36.7152 2.52 40.92H4.52ZM7.08169 31.14C8.79292 28.4725 11.1038 26.4355 14.0347 25.0205L13.1653 23.2194C9.90957 24.7912 7.31375 27.0742 5.39831 30.06L7.08169 31.14ZM14.0287 25.0234C17.0282 23.6 20.3729 22.88 24.08 22.88V20.88C20.1071 20.88 16.4651 21.6534 13.1713 23.2166L14.0287 25.0234ZM24.08 22.88C27.7874 22.88 31.1028 23.6 34.0453 25.0205L34.9148 23.2194C31.6706 21.6533 28.0527 20.88 24.08 20.88V22.88ZM34.058 25.0266C36.9954 26.394 39.2743 28.3292 40.9254 30.8308L42.5946 29.7292C40.7257 26.8974 38.1513 24.726 34.902 23.2134L34.058 25.0266ZM40.9384 30.8501C42.6215 33.2757 43.48 36.1643 43.48 39.56H45.48C45.48 35.809 44.5251 32.5109 42.5816 29.7099L40.9384 30.8501ZM43.48 39.56V40.36H45.48V39.56H43.48ZM43.48 40.36C43.48 43.7935 42.7633 46.6477 41.3809 48.9682L43.0991 49.9918C44.7033 47.299 45.48 44.0731 45.48 40.36H43.48ZM41.3776 48.9738C40.0212 51.2846 38.1617 53.1981 35.782 54.7171L36.858 56.4029C39.4917 54.7219 41.5788 52.5821 43.1024 49.9862L41.3776 48.9738ZM35.7949 54.709C33.3671 56.207 30.5905 57.4547 27.4581 58.4467L28.0619 60.3533C31.3295 59.3186 34.2596 58.0064 36.8451 56.411L35.7949 54.709ZM27.4617 58.4455L22.3417 60.0455L22.9383 61.9545L28.0583 60.3545L27.4617 58.4455ZM22.3506 60.0428C20.0094 60.7506 18.1194 61.5586 16.7253 62.4879L17.8347 64.152C19.0006 63.3748 20.6839 62.6361 22.9294 61.9572L22.3506 60.0428ZM16.75 62.472C15.3663 63.3368 14.313 64.3622 13.6751 65.5743L15.4449 66.5057C15.8736 65.6912 16.6337 64.9032 17.81 64.168L16.75 62.472ZM13.6656 65.5928C13.0989 66.7261 12.84 68.0619 12.84 69.56H14.84C14.84 68.2848 15.0611 67.2739 15.4544 66.4872L13.6656 65.5928ZM12.84 69.56V69.88H14.84V69.56H12.84ZM13.84 70.88H44V68.88H13.84V70.88ZM43 69.88V79H45V69.88H43ZM44 78H3.36V80H44V78ZM50.86 79H49.86V80H50.86V79ZM52.78 62.6L53.6745 63.0472L53.6781 63.0399L52.78 62.6ZM58.3 56.2L58.8673 57.0235L58.8711 57.0209L58.3 56.2ZM67.26 52.04L67.55 52.9971L67.5591 52.9942L67.26 52.04ZM72.62 50.36L72.9191 51.3143L72.9285 51.3112L72.62 50.36ZM77.58 48.04L78.1423 48.8669L78.1534 48.8594L78.1643 48.8515L77.58 48.04ZM80.62 44.6L79.7475 44.1114L79.7399 44.1249L79.7328 44.1386L80.62 44.6ZM79.02 33.4L78.3584 34.1498L78.3647 34.1554L78.3711 34.1608L79.02 33.4ZM64.06 33.56L64.723 34.3086L64.7244 34.3074L64.06 33.56ZM61.26 42.2V43.2H62.26V42.2H61.26ZM51.02 42.2H50.02V43.2H51.02V42.2ZM53.74 30.6L54.5817 31.14L54.5817 31.14L53.74 30.6ZM61.1 24.12L60.6712 23.2166L60.6653 23.2194L61.1 24.12ZM81.98 24.12L81.5452 25.0206L81.558 25.0266L81.98 24.12ZM89.26 30.28L88.4254 30.8308L88.4318 30.8405L88.4384 30.8501L89.26 30.28ZM89.74 49.48L88.8809 48.9682L88.8776 48.9738L89.74 49.48ZM83.82 55.56L84.3451 56.411L84.3516 56.407L84.358 56.4029L83.82 55.56ZM75.26 59.4L75.5583 60.3545L75.5619 60.3533L75.26 59.4ZM70.14 61L70.4294 61.9573L70.4383 61.9545L70.14 61ZM64.78 63.32L65.31 64.168L65.3225 64.1602L65.3347 64.152L64.78 63.32ZM62.06 66.04L61.1751 65.5743L61.1702 65.5835L61.1656 65.5928L62.06 66.04ZM61.34 69.88H60.34V70.88H61.34V69.88ZM91.5 69.88H92.5V68.88H91.5V69.88ZM91.5 79V80H92.5V79H91.5ZM51.86 79V72.28H49.86V79H51.86ZM51.86 72.28C51.86 68.4888 52.4842 65.4276 53.6744 63.0472L51.8856 62.1528C50.5158 64.8924 49.86 68.2845 49.86 72.28H51.86ZM53.6781 63.0399C54.8824 60.5809 56.6084 58.5796 58.8673 57.0235L57.7327 55.3765C55.1916 57.127 53.2376 59.3924 51.8819 62.1601L53.6781 63.0399ZM58.8711 57.0209C61.2212 55.386 64.108 54.04 67.55 52.997L66.97 51.083C63.372 52.1733 60.2854 53.6007 57.7289 55.3791L58.8711 57.0209ZM67.5591 52.9942L72.9191 51.3142L72.3209 49.4058L66.9609 51.0858L67.5591 52.9942ZM72.9285 51.3112C74.9675 50.6499 76.712 49.8395 78.1423 48.8669L77.0177 47.2131C75.7813 48.0538 74.2191 48.7901 72.3115 49.4088L72.9285 51.3112ZM78.1643 48.8515C79.6126 47.8088 80.7351 46.5461 81.5072 45.0614L79.7328 44.1386C79.1182 45.3206 78.2141 46.3512 76.9957 47.2285L78.1643 48.8515ZM81.4925 45.0886C82.3322 43.5892 82.74 41.8974 82.74 40.04H80.74C80.74 41.596 80.4011 42.9442 79.7475 44.1114L81.4925 45.0886ZM82.74 40.04V39.72H80.74V40.04H82.74ZM82.74 39.72C82.74 36.7996 81.7331 34.3998 79.6689 32.6392L78.3711 34.1608C79.9335 35.4935 80.74 37.307 80.74 39.72H82.74ZM79.6816 32.6502C77.6362 30.8454 74.8953 30 71.58 30V32C74.5581 32 76.7771 32.7546 78.3584 34.1498L79.6816 32.6502ZM71.58 30C68.2943 30 65.5345 30.9114 63.3956 32.8126L64.7244 34.3074C66.4255 32.7953 68.6791 32 71.58 32V30ZM63.397 32.8114C61.2623 34.7021 60.26 37.4076 60.26 40.76H62.26C62.26 37.8191 63.1243 35.7246 64.723 34.3086L63.397 32.8114ZM60.26 40.76V42.2H62.26V40.76H60.26ZM61.26 41.2H51.02V43.2H61.26V41.2ZM52.02 42.2V40.92H50.02V42.2H52.02ZM52.02 40.92C52.02 37.0181 52.8914 33.7749 54.5817 31.14L52.8983 30.06C50.962 33.0785 50.02 36.7152 50.02 40.92H52.02ZM54.5817 31.14C56.2929 28.4725 58.6038 26.4355 61.5347 25.0205L60.6653 23.2194C57.4096 24.7912 54.8137 27.0742 52.8983 30.06L54.5817 31.14ZM61.5287 25.0234C64.5282 23.6 67.8729 22.88 71.58 22.88V20.88C67.6071 20.88 63.9651 21.6534 60.6713 23.2166L61.5287 25.0234ZM71.58 22.88C75.2874 22.88 78.6028 23.6 81.5453 25.0205L82.4148 23.2194C79.1706 21.6533 75.5527 20.88 71.58 20.88V22.88ZM81.558 25.0266C84.4954 26.394 86.7743 28.3292 88.4254 30.8308L90.0946 29.7292C88.2257 26.8974 85.6513 24.726 82.402 23.2134L81.558 25.0266ZM88.4384 30.8501C90.1215 33.2757 90.98 36.1643 90.98 39.56H92.98C92.98 35.809 92.0251 32.5109 90.0816 29.7099L88.4384 30.8501ZM90.98 39.56V40.36H92.98V39.56H90.98ZM90.98 40.36C90.98 43.7935 90.2633 46.6477 88.8809 48.9682L90.5991 49.9918C92.2033 47.299 92.98 44.0731 92.98 40.36H90.98ZM88.8776 48.9738C87.5212 51.2846 85.6617 53.1981 83.282 54.7171L84.358 56.4029C86.9917 54.7219 89.0788 52.5821 90.6024 49.9862L88.8776 48.9738ZM83.2949 54.709C80.8671 56.207 78.0905 57.4547 74.9581 58.4467L75.5619 60.3533C78.8295 59.3186 81.7596 58.0064 84.3451 56.411L83.2949 54.709ZM74.9617 58.4455L69.8417 60.0455L70.4383 61.9545L75.5583 60.3545L74.9617 58.4455ZM69.8506 60.0428C67.5094 60.7506 65.6194 61.5586 64.2253 62.4879L65.3347 64.152C66.5006 63.3748 68.1839 62.6361 70.4294 61.9572L69.8506 60.0428ZM64.25 62.472C62.8663 63.3368 61.813 64.3622 61.1751 65.5743L62.9449 66.5057C63.3736 65.6912 64.1337 64.9032 65.31 64.168L64.25 62.472ZM61.1656 65.5928C60.5989 66.7261 60.34 68.0619 60.34 69.56H62.34C62.34 68.2848 62.5611 67.2739 62.9544 66.4872L61.1656 65.5928ZM60.34 69.56V69.88H62.34V69.56H60.34ZM61.34 70.88H91.5V68.88H61.34V70.88ZM90.5 69.88V79H92.5V69.88H90.5ZM91.5 78H50.86V80H91.5V78ZM105 74.68L104.323 75.416L104.328 75.4208L105 74.68ZM105 27.56L105.682 28.2911L105.687 28.2862L105 27.56ZM136.84 27.56L136.148 28.2816L136.158 28.2911L136.84 27.56ZM136.84 74.68L137.517 75.4163L137.517 75.4159L136.84 74.68ZM129.72 67.72L128.968 67.0601L128.959 67.0707L129.72 67.72ZM129.4 34.2L128.684 34.8981L128.693 34.9072L128.702 34.916L129.4 34.2ZM112.28 34.28L111.555 33.5907L111.547 33.6002L112.28 34.28ZM112.12 67.88L111.377 68.549L111.385 68.5587L111.395 68.5683L112.12 67.88ZM120.92 79.12C114.496 79.12 109.449 77.3635 105.672 73.9392L104.328 75.4208C108.551 79.2498 114.117 81.12 120.92 81.12V79.12ZM105.677 73.9441C101.95 70.5148 100 65.2793 100 58.04H98C98 65.6273 100.05 71.4852 104.323 75.4159L105.677 73.9441ZM100 58.04V43.96H98V58.04H100ZM100 43.96C100 36.9453 101.944 31.7806 105.682 28.2911L104.318 26.8289C100.056 30.8061 98 36.5747 98 43.96H100ZM105.687 28.2862C109.466 24.7095 114.508 22.88 120.92 22.88V20.88C114.105 20.88 108.534 22.8371 104.313 26.8338L105.687 28.2862ZM120.92 22.88C127.388 22.88 132.426 24.7111 136.148 28.2816L137.532 26.8384C133.36 22.8356 127.785 20.88 120.92 20.88V22.88ZM136.158 28.2911C139.896 31.7806 141.84 36.9453 141.84 43.96H143.84C143.84 36.5747 141.784 30.8061 137.522 26.8289L136.158 28.2911ZM141.84 43.96V58.04H143.84V43.96H141.84ZM141.84 58.04C141.84 65.2793 139.89 70.5148 136.163 73.9441L137.517 75.4159C141.79 71.4852 143.84 65.6273 143.84 58.04H141.84ZM136.163 73.9437C132.443 77.362 127.4 79.12 120.92 79.12V81.12C127.773 81.12 133.343 79.2513 137.517 75.4163L136.163 73.9437ZM120.92 72C125.093 72 128.358 70.8557 130.481 68.3693L128.959 67.0707C127.349 68.9577 124.747 70 120.92 70V72ZM130.471 68.3798C132.605 65.95 133.6 62.561 133.6 58.36H131.6C131.6 62.2657 130.675 65.1167 128.969 67.0602L130.471 68.3798ZM133.6 58.36V43.48H131.6V58.36H133.6ZM133.6 43.48C133.6 39.2082 132.488 35.8144 130.098 33.484L128.702 34.916C130.578 36.7456 131.6 39.5384 131.6 43.48H133.6ZM130.116 33.5019C127.811 31.1378 124.705 30 120.92 30V32C124.281 32 126.829 32.9956 128.684 34.8981L130.116 33.5019ZM120.92 30C117.031 30 113.864 31.1633 111.555 33.5908L113.005 34.9692C114.856 33.0233 117.449 32 120.92 32V30ZM111.547 33.6002C109.299 36.0251 108.24 39.3648 108.24 43.48H110.24C110.24 39.7018 111.208 36.9082 113.013 34.9598L111.547 33.6002ZM108.24 43.48V58.36H110.24V43.48H108.24ZM108.24 58.36C108.24 62.7069 109.229 66.1623 111.377 68.549L112.863 67.211C111.171 65.3311 110.24 62.4398 110.24 58.36H108.24ZM111.395 68.5683C113.617 70.9106 116.854 72 120.92 72V70C117.199 70 114.57 69.0094 112.845 67.1917L111.395 68.5683ZM160.155 77.8L159.731 78.7058L159.731 78.7058L160.155 77.8ZM152.395 71.16L153.234 70.6161L153.234 70.6161L152.395 71.16ZM149.595 58.52V57.52H148.595V58.52H149.595ZM159.995 58.52H160.995V57.52H159.995V58.52ZM163.115 68.36L162.481 69.1331L162.487 69.138L162.493 69.1428L163.115 68.36ZM179.675 68.68L179.053 67.8969L179.047 67.9014L179.042 67.906L179.675 68.68ZM181.115 59.4L180.368 60.0644L180.368 60.0644L181.115 59.4ZM177.355 57.08L176.994 58.0126L177.007 58.0177L177.021 58.0224L177.355 57.08ZM171.275 55.32L171.492 54.3438L171.487 54.3428L171.275 55.32ZM169.435 54.92L169.218 55.8962L169.223 55.8972L169.435 54.92ZM159.515 51.72L159.075 52.6179L159.085 52.6231L159.096 52.628L159.515 51.72ZM153.195 46.52L152.366 47.0795L152.371 47.0865L152.376 47.0935L153.195 46.52ZM153.435 29.48L152.606 28.9211L152.603 28.9253L153.435 29.48ZM160.315 23.88L160.715 24.7966L160.723 24.7931L160.315 23.88ZM181.435 23.96L181.026 24.8725L181.035 24.8767L181.045 24.8808L181.435 23.96ZM188.795 30.04L187.955 30.5832L187.962 30.5928L187.968 30.6023L188.795 30.04ZM191.515 42.52V43.52L192.515 43.52V42.52L191.515 42.52ZM181.115 42.52H180.115V43.52H181.115V42.52ZM179.835 35L178.978 35.5145L178.99 35.5349L179.003 35.5547L179.835 35ZM176.315 32.12L175.933 33.044L175.946 33.0497L175.96 33.055L176.315 32.12ZM163.675 33L164.293 33.7863L164.296 33.7835L163.675 33ZM162.475 41.4L161.664 41.9855L161.675 41.9999L161.686 42.0139L162.475 41.4ZM165.755 43.8L166.161 42.8862L166.161 42.8862L165.755 43.8ZM171.275 45.48L171.487 44.5028L171.485 44.5022L171.275 45.48ZM173.115 45.88L172.903 46.8572L172.906 46.858L173.115 45.88ZM183.515 49.16L183.929 48.2496L183.929 48.2496L183.515 49.16ZM190.315 54.44L189.508 55.0305L189.513 55.0368L189.517 55.0431L190.315 54.44ZM190.155 71.88L189.326 71.3214L189.323 71.3253L190.155 71.88ZM182.795 77.96L183.211 78.8693L183.218 78.8662L182.795 77.96ZM166.715 88.28H165.715V89.28H166.715V88.28ZM166.715 13.72V12.72H165.715V13.72H166.715ZM176.315 13.72H177.315V12.72H176.315V13.72ZM176.315 88.28V89.28H177.315V88.28H176.315ZM171.595 79.12C167.395 79.12 163.731 78.3685 160.579 76.8942L159.731 78.7058C163.193 80.3249 167.155 81.12 171.595 81.12V79.12ZM160.579 76.8942C157.43 75.4216 154.992 73.3288 153.234 70.6161L151.556 71.7039C153.531 74.7512 156.266 77.0851 159.731 78.7058L160.579 76.8942ZM153.234 70.6161C151.49 67.9255 150.595 64.6558 150.595 60.76H148.595C148.595 64.9708 149.566 68.6345 151.556 71.7039L153.234 70.6161ZM150.595 60.76V58.52H148.595V60.76H150.595ZM149.595 59.52H159.995V57.52H149.595V59.52ZM158.995 58.52V60.76H160.995V58.52H158.995ZM158.995 60.76C158.995 64.3381 160.113 67.1903 162.481 69.1331L163.749 67.5869C161.957 66.1164 160.995 63.9019 160.995 60.76H158.995ZM162.493 69.1428C164.802 70.9785 167.873 71.84 171.595 71.84V69.84C168.17 69.84 165.588 69.0481 163.737 67.5772L162.493 69.1428ZM171.595 71.84C175.324 71.84 178.29 71.1049 180.308 69.454L179.042 67.906C177.54 69.1351 175.119 69.84 171.595 69.84V71.84ZM180.297 69.4631C182.34 67.8408 183.395 65.7168 183.395 63.16H181.395C181.395 65.0832 180.637 66.6392 179.053 67.8969L180.297 69.4631ZM183.395 63.16C183.395 61.4209 182.91 59.9145 181.862 58.7356L180.368 60.0644C181.026 60.8055 181.395 61.8057 181.395 63.16H183.395ZM181.862 58.7356C180.864 57.6119 179.446 56.7609 177.689 56.1376L177.021 58.0224C178.571 58.5724 179.66 59.2681 180.368 60.0644L181.862 58.7356ZM177.716 56.1474C176.002 55.4839 173.924 54.8842 171.492 54.3438L171.058 56.2962C173.426 56.8225 175.402 57.3961 176.994 58.0126L177.716 56.1474ZM171.487 54.3428L169.647 53.9428L169.223 55.8972L171.063 56.2972L171.487 54.3428ZM169.652 53.9438C165.863 53.1018 162.627 52.055 159.934 50.812L159.096 52.628C161.949 53.945 165.327 55.0316 169.218 55.8962L169.652 53.9438ZM159.955 50.8221C157.362 49.5509 155.396 47.9203 154.014 45.9465L152.376 47.0935C153.981 49.3863 156.228 51.2224 159.075 52.6179L159.955 50.8221ZM154.024 45.9605C152.726 44.0385 152.035 41.4779 152.035 38.2H150.035C150.035 41.7488 150.784 44.7348 152.366 47.0795L154.024 45.9605ZM152.035 38.2C152.035 34.9472 152.795 32.2422 154.267 30.0347L152.603 28.9253C150.875 31.5178 150.035 34.6261 150.035 38.2H152.035ZM154.264 30.0389C155.803 27.756 157.941 26.007 160.715 24.7965L159.915 22.9635C156.822 24.313 154.374 26.2973 152.606 28.9211L154.264 30.0389ZM160.723 24.7931C163.556 23.5283 166.905 22.88 170.795 22.88V20.88C166.685 20.88 163.048 21.565 159.907 22.9669L160.723 24.7931ZM170.795 22.88C174.679 22.88 178.082 23.553 181.026 24.8725L181.844 23.0475C178.601 21.5937 174.911 20.88 170.795 20.88V22.88ZM181.045 24.8808C184.018 26.1406 186.31 28.0407 187.955 30.5832L189.635 29.4967C187.76 26.5993 185.145 24.4461 181.825 23.0392L181.045 24.8808ZM187.968 30.6023C189.643 33.065 190.515 36.2156 190.515 40.12L192.515 40.12C192.515 35.9177 191.574 32.3483 189.622 29.4777L187.968 30.6023ZM190.515 40.12V42.52L192.515 42.52V40.12L190.515 40.12ZM191.515 41.52H181.115V43.52H191.515V41.52ZM182.115 42.52V40.12H180.115V42.52H182.115ZM182.115 40.12C182.115 37.863 181.665 35.9418 180.667 34.4453L179.003 35.5547C179.712 36.6182 180.115 38.1103 180.115 40.12H182.115ZM180.692 34.4855C179.769 32.9467 178.412 31.8459 176.67 31.185L175.96 33.055C177.311 33.5674 178.301 34.3866 178.978 35.5145L180.692 34.4855ZM176.697 31.196C175.001 30.4941 173.025 30.16 170.795 30.16V32.16C172.832 32.16 174.536 32.4659 175.933 33.044L176.697 31.196ZM170.795 30.16C167.499 30.16 164.857 30.786 163.054 32.2165L164.296 33.7835C165.586 32.7607 167.691 32.16 170.795 32.16V30.16ZM163.057 32.2137C161.297 33.5964 160.435 35.5266 160.435 37.88H162.435C162.435 36.0734 163.066 34.7503 164.293 33.7863L163.057 32.2137ZM160.435 37.88C160.435 39.4398 160.828 40.8273 161.664 41.9855L163.286 40.8145C162.735 40.0527 162.435 39.0935 162.435 37.88H160.435ZM161.686 42.0139C162.559 43.1367 163.802 44.0261 165.349 44.7138L166.161 42.8862C164.828 42.2939 163.884 41.5833 163.264 40.7861L161.686 42.0139ZM165.349 44.7138C166.873 45.3914 168.785 45.9692 171.065 46.4578L171.485 44.5022C169.285 44.0308 167.517 43.4886 166.161 42.8862L165.349 44.7138ZM171.063 46.4572L172.903 46.8572L173.327 44.9028L171.487 44.5028L171.063 46.4572ZM172.906 46.858C176.854 47.7001 180.248 48.7736 183.101 50.0704L183.929 48.2496C180.915 46.8797 177.376 45.7666 173.324 44.902L172.906 46.858ZM183.101 50.0704C185.908 51.3461 188.027 53.0066 189.508 55.0305L191.122 53.8495C189.403 51.5001 186.989 49.6406 183.929 48.2496L183.101 50.0704ZM189.517 55.0431C191.01 57.0173 191.795 59.5901 191.795 62.84L193.795 62.84C193.795 59.2633 192.927 56.236 191.113 53.8369L189.517 55.0431ZM191.795 62.84C191.795 66.0717 190.965 68.887 189.326 71.3214L190.984 72.4386C192.865 69.6463 193.795 66.435 193.795 62.84L191.795 62.84ZM189.323 71.3253C187.732 73.7114 185.431 75.6263 182.372 77.0538L183.218 78.8662C186.559 77.307 189.164 75.1686 190.987 72.4347L189.323 71.3253ZM182.379 77.0507C179.391 78.418 175.806 79.12 171.595 79.12V81.12C176.024 81.12 179.906 80.382 183.211 78.8693L182.379 77.0507ZM167.715 88.28V13.72H165.715V88.28H167.715ZM166.715 14.72L176.315 14.72V12.72L166.715 12.72V14.72ZM175.315 13.72V88.28H177.315V13.72L175.315 13.72ZM176.315 87.28H166.715V89.28H176.315V87.28Z" fill="black" mask="url(#path-2-outside-1_141_11)"/>
</svg>
