<svg width="176" height="106" viewBox="0 0 176 106" fill="none" xmlns="http://www.w3.org/2000/svg">
<path d="M23.64 83L23.64 34.52H22.2L14.68 52.28H3.96L15.4 27H33.88V83H23.64ZM59.8119 83L59.8119 34.52H58.3719L50.8519 52.28H40.1319L51.5719 27H70.0519V83H59.8119ZM101.264 84.12C94.6504 84.12 89.3438 82.3067 85.3438 78.68C81.3438 75 79.3438 69.4533 79.3438 62.04V47.96C79.3438 40.76 81.3438 35.2933 85.3438 31.56C89.3438 27.7733 94.6504 25.88 101.264 25.88C107.93 25.88 113.237 27.7733 117.184 31.56C121.184 35.2933 123.184 40.76 123.184 47.96V62.04C123.184 69.4533 121.184 75 117.184 78.68C113.237 82.3067 107.93 84.12 101.264 84.12ZM101.264 75C105.264 75 108.197 73.9067 110.064 71.72C111.984 69.5333 112.944 66.4133 112.944 62.36V47.48C112.944 43.3733 111.877 40.28 109.744 38.2C107.664 36.0667 104.837 35 101.264 35C97.5838 35 94.7038 36.0933 92.6238 38.28C90.5971 40.4667 89.5838 43.5333 89.5838 47.48V62.36C89.5838 66.5733 90.5438 69.7467 92.4638 71.88C94.4371 73.96 97.3704 75 101.264 75ZM151.939 84.12C147.619 84.12 143.805 83.3467 140.499 81.8C137.192 80.2533 134.605 78.04 132.739 75.16C130.872 72.28 129.939 68.8133 129.939 64.76V62.52H140.339V64.76C140.339 68.12 141.379 70.6533 143.459 72.36C145.539 74.0133 148.365 74.84 151.939 74.84C155.565 74.84 158.259 74.12 160.019 72.68C161.832 71.24 162.739 69.4 162.739 67.16C162.739 65.6133 162.312 64.36 161.459 63.4C160.605 62.44 159.352 61.6667 157.699 61.08C156.045 60.44 154.019 59.8533 151.619 59.32L149.779 58.92C145.939 58.0667 142.632 57 139.859 55.72C137.139 54.3867 135.032 52.6533 133.539 50.52C132.099 48.3867 131.379 45.6133 131.379 42.2C131.379 38.7867 132.179 35.88 133.779 33.48C135.432 31.0267 137.725 29.16 140.659 27.88C143.645 26.5467 147.139 25.88 151.139 25.88C155.139 25.88 158.685 26.5733 161.779 27.96C164.925 29.2933 167.379 31.32 169.139 34.04C170.952 36.7067 171.859 40.0667 171.859 44.12V46.52H161.459V44.12C161.459 41.9867 161.032 40.28 160.179 39C159.379 37.6667 158.205 36.7067 156.659 36.12C155.112 35.48 153.272 35.16 151.139 35.16C147.939 35.16 145.565 35.7733 144.019 37C142.525 38.1733 141.779 39.8 141.779 41.88C141.779 43.2667 142.125 44.44 142.819 45.4C143.565 46.36 144.659 47.16 146.099 47.8C147.539 48.44 149.379 49 151.619 49.48L153.459 49.88C157.459 50.7333 160.925 51.8267 163.859 53.16C166.792 54.4933 169.059 56.2533 170.659 58.44C172.312 60.6267 173.139 63.4267 173.139 66.84C173.139 70.2533 172.259 73.2667 170.499 75.88C168.792 78.44 166.339 80.4667 163.139 81.96C159.992 83.4 156.259 84.12 151.939 84.12ZM147.059 92.28V17.72H156.659V92.28H147.059Z" fill="black"/>
<mask id="path-2-outside-1_141_3" maskUnits="userSpaceOnUse" x="-1" y="12" width="173" height="78" fill="black">
<rect fill="white" x="-1" y="12" width="173" height="78"/>
<path d="M20.64 79L20.64 30.52H19.2L11.68 48.28H0.96L12.4 23H30.88L30.88 79H20.64ZM56.8119 79L56.8119 30.52H55.3719L47.8519 48.28H37.1319L48.5719 23H67.0519V79H56.8119ZM98.2638 80.12C91.6504 80.12 86.3438 78.3067 82.3438 74.68C78.3438 71 76.3438 65.4533 76.3438 58.04V43.96C76.3438 36.76 78.3438 31.2933 82.3438 27.56C86.3438 23.7733 91.6504 21.88 98.2638 21.88C104.93 21.88 110.237 23.7733 114.184 27.56C118.184 31.2933 120.184 36.76 120.184 43.96V58.04C120.184 65.4533 118.184 71 114.184 74.68C110.237 78.3067 104.93 80.12 98.2638 80.12ZM98.2638 71C102.264 71 105.197 69.9067 107.064 67.72C108.984 65.5333 109.944 62.4133 109.944 58.36V43.48C109.944 39.3733 108.877 36.28 106.744 34.2C104.664 32.0667 101.837 31 98.2638 31C94.5838 31 91.7038 32.0933 89.6238 34.28C87.5971 36.4667 86.5838 39.5333 86.5838 43.48V58.36C86.5838 62.5733 87.5438 65.7467 89.4638 67.88C91.4371 69.96 94.3704 71 98.2638 71ZM148.939 80.12C144.619 80.12 140.805 79.3467 137.499 77.8C134.192 76.2533 131.605 74.04 129.739 71.16C127.872 68.28 126.939 64.8133 126.939 60.76V58.52H137.339V60.76C137.339 64.12 138.379 66.6533 140.459 68.36C142.539 70.0133 145.365 70.84 148.939 70.84C152.565 70.84 155.259 70.12 157.019 68.68C158.832 67.24 159.739 65.4 159.739 63.16C159.739 61.6133 159.312 60.36 158.459 59.4C157.605 58.44 156.352 57.6667 154.699 57.08C153.045 56.44 151.019 55.8533 148.619 55.32L146.779 54.92C142.939 54.0667 139.632 53 136.859 51.72C134.139 50.3867 132.032 48.6533 130.539 46.52C129.099 44.3867 128.379 41.6133 128.379 38.2C128.379 34.7867 129.179 31.88 130.779 29.48C132.432 27.0267 134.725 25.16 137.659 23.88C140.645 22.5467 144.139 21.88 148.139 21.88C152.139 21.88 155.685 22.5733 158.779 23.96C161.925 25.2933 164.379 27.32 166.139 30.04C167.952 32.7067 168.859 36.0667 168.859 40.12V42.52H158.459V40.12C158.459 37.9867 158.032 36.28 157.179 35C156.379 33.6667 155.205 32.7067 153.659 32.12C152.112 31.48 150.272 31.16 148.139 31.16C144.939 31.16 142.565 31.7733 141.019 33C139.525 34.1733 138.779 35.8 138.779 37.88C138.779 39.2667 139.125 40.44 139.819 41.4C140.565 42.36 141.659 43.16 143.099 43.8C144.539 44.44 146.379 45 148.619 45.48L150.459 45.88C154.459 46.7333 157.925 47.8267 160.859 49.16C163.792 50.4933 166.059 52.2533 167.659 54.44C169.312 56.6267 170.139 59.4267 170.139 62.84C170.139 66.2533 169.259 69.2667 167.499 71.88C165.792 74.44 163.339 76.4667 160.139 77.96C156.992 79.4 153.259 80.12 148.939 80.12ZM144.059 88.28V13.72H153.659V88.28H144.059Z"/>
</mask>
<path d="M20.64 79L20.64 30.52H19.2L11.68 48.28H0.96L12.4 23H30.88L30.88 79H20.64ZM56.8119 79L56.8119 30.52H55.3719L47.8519 48.28H37.1319L48.5719 23H67.0519V79H56.8119ZM98.2638 80.12C91.6504 80.12 86.3438 78.3067 82.3438 74.68C78.3438 71 76.3438 65.4533 76.3438 58.04V43.96C76.3438 36.76 78.3438 31.2933 82.3438 27.56C86.3438 23.7733 91.6504 21.88 98.2638 21.88C104.93 21.88 110.237 23.7733 114.184 27.56C118.184 31.2933 120.184 36.76 120.184 43.96V58.04C120.184 65.4533 118.184 71 114.184 74.68C110.237 78.3067 104.93 80.12 98.2638 80.12ZM98.2638 71C102.264 71 105.197 69.9067 107.064 67.72C108.984 65.5333 109.944 62.4133 109.944 58.36V43.48C109.944 39.3733 108.877 36.28 106.744 34.2C104.664 32.0667 101.837 31 98.2638 31C94.5838 31 91.7038 32.0933 89.6238 34.28C87.5971 36.4667 86.5838 39.5333 86.5838 43.48V58.36C86.5838 62.5733 87.5438 65.7467 89.4638 67.88C91.4371 69.96 94.3704 71 98.2638 71ZM148.939 80.12C144.619 80.12 140.805 79.3467 137.499 77.8C134.192 76.2533 131.605 74.04 129.739 71.16C127.872 68.28 126.939 64.8133 126.939 60.76V58.52H137.339V60.76C137.339 64.12 138.379 66.6533 140.459 68.36C142.539 70.0133 145.365 70.84 148.939 70.84C152.565 70.84 155.259 70.12 157.019 68.68C158.832 67.24 159.739 65.4 159.739 63.16C159.739 61.6133 159.312 60.36 158.459 59.4C157.605 58.44 156.352 57.6667 154.699 57.08C153.045 56.44 151.019 55.8533 148.619 55.32L146.779 54.92C142.939 54.0667 139.632 53 136.859 51.72C134.139 50.3867 132.032 48.6533 130.539 46.52C129.099 44.3867 128.379 41.6133 128.379 38.2C128.379 34.7867 129.179 31.88 130.779 29.48C132.432 27.0267 134.725 25.16 137.659 23.88C140.645 22.5467 144.139 21.88 148.139 21.88C152.139 21.88 155.685 22.5733 158.779 23.96C161.925 25.2933 164.379 27.32 166.139 30.04C167.952 32.7067 168.859 36.0667 168.859 40.12V42.52H158.459V40.12C158.459 37.9867 158.032 36.28 157.179 35C156.379 33.6667 155.205 32.7067 153.659 32.12C152.112 31.48 150.272 31.16 148.139 31.16C144.939 31.16 142.565 31.7733 141.019 33C139.525 34.1733 138.779 35.8 138.779 37.88C138.779 39.2667 139.125 40.44 139.819 41.4C140.565 42.36 141.659 43.16 143.099 43.8C144.539 44.44 146.379 45 148.619 45.48L150.459 45.88C154.459 46.7333 157.925 47.8267 160.859 49.16C163.792 50.4933 166.059 52.2533 167.659 54.44C169.312 56.6267 170.139 59.4267 170.139 62.84C170.139 66.2533 169.259 69.2667 167.499 71.88C165.792 74.44 163.339 76.4667 160.139 77.96C156.992 79.4 153.259 80.12 148.939 80.12ZM144.059 88.28V13.72H153.659V88.28H144.059Z" fill="#AEEFFF"/>
<path d="M20.64 79H19.64V80H20.64V79ZM20.64 30.52H21.64V29.52H20.64V30.52ZM19.2 30.52V29.52H18.5375L18.2791 30.1301L19.2 30.52ZM11.68 48.28V49.28H12.3425L12.6009 48.6699L11.68 48.28ZM0.96 48.28L0.0489436 47.8677L-0.590158 49.28H0.96L0.96 48.28ZM12.4 23V22H11.7549L11.4889 22.5877L12.4 23ZM30.88 23H31.88V22H30.88V23ZM30.88 79V80H31.88V79H30.88ZM21.64 79L21.64 30.52H19.64L19.64 79H21.64ZM20.64 29.52H19.2V31.52H20.64V29.52ZM18.2791 30.1301L10.7591 47.8901L12.6009 48.6699L20.1209 30.9099L18.2791 30.1301ZM11.68 47.28H0.96L0.96 49.28H11.68L11.68 47.28ZM1.87106 48.6923L13.3111 23.4123L11.4889 22.5877L0.0489436 47.8677L1.87106 48.6923ZM12.4 24H30.88V22H12.4V24ZM29.88 23L29.88 79H31.88L31.88 23H29.88ZM30.88 78H20.64V80H30.88V78ZM56.8119 79H55.8119V80H56.8119V79ZM56.8119 30.52H57.8119V29.52H56.8119V30.52ZM55.3719 30.52V29.52H54.7093L54.451 30.1301L55.3719 30.52ZM47.8519 48.28V49.28H48.5144L48.7727 48.6699L47.8519 48.28ZM37.1319 48.28L36.2208 47.8677L35.5817 49.28H37.1319V48.28ZM48.5719 23V22H47.9268L47.6608 22.5877L48.5719 23ZM67.0519 23H68.0519V22H67.0519V23ZM67.0519 79V80H68.0519V79H67.0519ZM57.8119 79L57.8119 30.52H55.8119L55.8119 79H57.8119ZM56.8119 29.52H55.3719V31.52H56.8119V29.52ZM54.451 30.1301L46.931 47.8901L48.7727 48.6699L56.2927 30.9099L54.451 30.1301ZM47.8519 47.28H37.1319V49.28H47.8519V47.28ZM38.0429 48.6923L49.4829 23.4123L47.6608 22.5877L36.2208 47.8677L38.0429 48.6923ZM48.5719 24H67.0519V22H48.5719V24ZM66.0519 23V79H68.0519V23H66.0519ZM67.0519 78H56.8119V80H67.0519V78ZM82.3438 74.68L81.6667 75.416L81.6721 75.4208L82.3438 74.68ZM82.3438 27.56L83.0261 28.2911L83.0312 28.2862L82.3438 27.56ZM114.184 27.56L113.491 28.2816L113.501 28.2911L114.184 27.56ZM114.184 74.68L114.86 75.4163L114.861 75.4159L114.184 74.68ZM107.064 67.72L106.312 67.0601L106.303 67.0707L107.064 67.72ZM106.744 34.2L106.028 34.8981L106.037 34.9072L106.046 34.916L106.744 34.2ZM89.6238 34.28L88.8991 33.5907L88.8903 33.6002L89.6238 34.28ZM89.4638 67.88L88.7205 68.549L88.7292 68.5587L88.7383 68.5683L89.4638 67.88ZM98.2638 79.12C91.8402 79.12 86.7923 77.3635 83.0154 73.9392L81.6721 75.4208C85.8952 79.2498 91.4606 81.12 98.2638 81.12V79.12ZM83.0208 73.9441C79.2933 70.5148 77.3438 65.2793 77.3438 58.04H75.3438C75.3438 65.6273 77.3942 71.4852 81.6667 75.4159L83.0208 73.9441ZM77.3438 58.04V43.96H75.3438V58.04H77.3438ZM77.3438 43.96C77.3438 36.9453 79.2873 31.7806 83.0261 28.2911L81.6614 26.8289C77.4002 30.8061 75.3438 36.5747 75.3438 43.96H77.3438ZM83.0312 28.2862C86.8094 24.7095 91.8517 22.88 98.2638 22.88V20.88C91.4491 20.88 85.8781 22.8371 81.6563 26.8338L83.0312 28.2862ZM98.2638 22.88C104.732 22.88 109.77 24.7111 113.491 28.2816L114.876 26.8384C110.704 22.8356 105.129 20.88 98.2638 20.88V22.88ZM113.501 28.2911C117.24 31.7806 119.184 36.9453 119.184 43.96H121.184C121.184 36.5747 119.127 30.8061 114.866 26.8289L113.501 28.2911ZM119.184 43.96V58.04H121.184V43.96H119.184ZM119.184 58.04C119.184 65.2793 117.234 70.5148 113.507 73.9441L114.861 75.4159C119.133 71.4852 121.184 65.6273 121.184 58.04H119.184ZM113.507 73.9437C109.787 77.362 104.744 79.12 98.2638 79.12V81.12C105.117 81.12 110.687 79.2513 114.86 75.4163L113.507 73.9437ZM98.2638 72C102.437 72 105.702 70.8557 107.824 68.3693L106.303 67.0707C104.692 68.9577 102.091 70 98.2638 70V72ZM107.815 68.3798C109.949 65.95 110.944 62.561 110.944 58.36H108.944C108.944 62.2657 108.019 65.1167 106.312 67.0602L107.815 68.3798ZM110.944 58.36V43.48H108.944V58.36H110.944ZM110.944 43.48C110.944 39.2082 109.832 35.8144 107.442 33.484L106.046 34.916C107.922 36.7456 108.944 39.5384 108.944 43.48H110.944ZM107.46 33.5019C105.155 31.1378 102.049 30 98.2638 30V32C101.625 32 104.173 32.9956 106.028 34.8981L107.46 33.5019ZM98.2638 30C94.3744 30 91.2082 31.1633 88.8992 33.5908L90.3483 34.9692C92.1993 33.0233 94.7931 32 98.2638 32V30ZM88.8903 33.6002C86.6429 36.0251 85.5838 39.3648 85.5838 43.48H87.5838C87.5838 39.7018 88.5513 36.9082 90.3572 34.9598L88.8903 33.6002ZM85.5838 43.48V58.36H87.5838V43.48H85.5838ZM85.5838 58.36C85.5838 62.7069 86.5724 66.1623 88.7205 68.549L90.207 67.211C88.5151 65.3311 87.5838 62.4398 87.5838 58.36H85.5838ZM88.7383 68.5683C90.9605 70.9106 94.1977 72 98.2638 72V70C94.5431 70 91.9136 69.0094 90.1892 67.1917L88.7383 68.5683ZM137.499 77.8L137.075 78.7058L137.075 78.7058L137.499 77.8ZM129.739 71.16L130.578 70.6161L130.578 70.6161L129.739 71.16ZM126.939 58.52V57.52H125.939V58.52H126.939ZM137.339 58.52H138.339V57.52H137.339V58.52ZM140.459 68.36L139.824 69.1331L139.83 69.138L139.837 69.1428L140.459 68.36ZM157.019 68.68L156.397 67.8969L156.391 67.9014L156.386 67.906L157.019 68.68ZM158.459 59.4L157.711 60.0644L157.711 60.0644L158.459 59.4ZM154.699 57.08L154.338 58.0126L154.351 58.0177L154.364 58.0224L154.699 57.08ZM148.619 55.32L148.836 54.3438L148.831 54.3428L148.619 55.32ZM146.779 54.92L146.562 55.8962L146.566 55.8972L146.779 54.92ZM136.859 51.72L136.419 52.6179L136.429 52.6231L136.44 52.628L136.859 51.72ZM130.539 46.52L129.71 47.0795L129.715 47.0865L129.72 47.0935L130.539 46.52ZM130.779 29.48L129.949 28.9211L129.947 28.9253L130.779 29.48ZM137.659 23.88L138.059 24.7966L138.066 24.7931L137.659 23.88ZM158.779 23.96L158.37 24.8725L158.379 24.8767L158.389 24.8808L158.779 23.96ZM166.139 30.04L165.299 30.5832L165.305 30.5928L165.312 30.6023L166.139 30.04ZM168.859 42.52V43.52H169.859V42.52H168.859ZM158.459 42.52H157.459V43.52H158.459V42.52ZM157.179 35L156.321 35.5145L156.334 35.5349L156.347 35.5547L157.179 35ZM153.659 32.12L153.276 33.044L153.29 33.0497L153.304 33.055L153.659 32.12ZM141.019 33L141.637 33.7863L141.64 33.7835L141.019 33ZM139.819 41.4L139.008 41.9855L139.018 41.9999L139.029 42.0139L139.819 41.4ZM143.099 43.8L143.505 42.8862L143.505 42.8862L143.099 43.8ZM148.619 45.48L148.831 44.5028L148.828 44.5022L148.619 45.48ZM150.459 45.88L150.246 46.8572L150.25 46.858L150.459 45.88ZM160.859 49.16L161.273 48.2496L161.273 48.2496L160.859 49.16ZM167.659 54.44L166.852 55.0305L166.856 55.0368L166.861 55.0431L167.659 54.44ZM167.499 71.88L166.669 71.3214L166.667 71.3253L167.499 71.88ZM160.139 77.96L160.555 78.8693L160.562 78.8662L160.139 77.96ZM144.059 88.28H143.059V89.28H144.059V88.28ZM144.059 13.72V12.72L143.059 12.72V13.72L144.059 13.72ZM153.659 13.72H154.659V12.72H153.659V13.72ZM153.659 88.28V89.28H154.659V88.28H153.659ZM148.939 79.12C144.739 79.12 141.074 78.3685 137.922 76.8942L137.075 78.7058C140.536 80.3249 144.499 81.12 148.939 81.12V79.12ZM137.922 76.8942C134.774 75.4216 132.336 73.3288 130.578 70.6161L128.9 71.7039C130.875 74.7512 133.61 77.0851 137.075 78.7058L137.922 76.8942ZM130.578 70.6161C128.834 67.9255 127.939 64.6558 127.939 60.76H125.939C125.939 64.9708 126.91 68.6345 128.9 71.7039L130.578 70.6161ZM127.939 60.76V58.52H125.939V60.76H127.939ZM126.939 59.52H137.339V57.52H126.939V59.52ZM136.339 58.52V60.76H138.339V58.52H136.339ZM136.339 60.76C136.339 64.3381 137.457 67.1903 139.824 69.1331L141.093 67.5869C139.301 66.1164 138.339 63.9019 138.339 60.76H136.339ZM139.837 69.1428C142.146 70.9785 145.217 71.84 148.939 71.84V69.84C145.514 69.84 142.932 69.0481 141.081 67.5772L139.837 69.1428ZM148.939 71.84C152.668 71.84 155.634 71.1049 157.652 69.454L156.386 67.906C154.883 69.1351 152.463 69.84 148.939 69.84V71.84ZM157.641 69.4631C159.683 67.8408 160.739 65.7168 160.739 63.16H158.739C158.739 65.0832 157.981 66.6392 156.397 67.8969L157.641 69.4631ZM160.739 63.16C160.739 61.4209 160.254 59.9145 159.206 58.7356L157.711 60.0644C158.37 60.8055 158.739 61.8057 158.739 63.16H160.739ZM159.206 58.7356C158.207 57.6119 156.79 56.7609 155.033 56.1376L154.364 58.0224C155.914 58.5724 157.004 59.2681 157.711 60.0644L159.206 58.7356ZM155.06 56.1474C153.346 55.4839 151.267 54.8842 148.836 54.3438L148.402 56.2962C150.77 56.8225 152.745 57.3961 154.338 58.0126L155.06 56.1474ZM148.831 54.3428L146.991 53.9428L146.566 55.8972L148.406 56.2972L148.831 54.3428ZM146.996 53.9438C143.207 53.1018 139.971 52.055 137.278 50.812L136.44 52.628C139.293 53.945 142.671 55.0316 146.562 55.8962L146.996 53.9438ZM137.299 50.8221C134.706 49.5509 132.74 47.9203 131.358 45.9465L129.72 47.0935C131.325 49.3863 133.572 51.2224 136.419 52.6179L137.299 50.8221ZM131.368 45.9605C130.07 44.0385 129.379 41.4779 129.379 38.2H127.379C127.379 41.7488 128.127 44.7348 129.71 47.0795L131.368 45.9605ZM129.379 38.2C129.379 34.9472 130.139 32.2422 131.611 30.0347L129.947 28.9253C128.218 31.5178 127.379 34.6261 127.379 38.2H129.379ZM131.608 30.0389C133.146 27.756 135.285 26.007 138.059 24.7965L137.259 22.9635C134.166 24.313 131.718 26.2973 129.949 28.9211L131.608 30.0389ZM138.066 24.7931C140.9 23.5283 144.249 22.88 148.139 22.88V20.88C144.029 20.88 140.391 21.565 137.251 22.9669L138.066 24.7931ZM148.139 22.88C152.023 22.88 155.426 23.553 158.37 24.8725L159.188 23.0475C155.945 21.5937 152.255 20.88 148.139 20.88V22.88ZM158.389 24.8808C161.362 26.1406 163.654 28.0407 165.299 30.5832L166.978 29.4967C165.104 26.5993 162.489 24.4461 159.169 23.0392L158.389 24.8808ZM165.312 30.6023C166.986 33.065 167.859 36.2156 167.859 40.12H169.859C169.859 35.9177 168.918 32.3483 166.966 29.4777L165.312 30.6023ZM167.859 40.12V42.52H169.859V40.12H167.859ZM168.859 41.52H158.459V43.52H168.859V41.52ZM159.459 42.52V40.12H157.459V42.52H159.459ZM159.459 40.12C159.459 37.863 159.008 35.9418 158.011 34.4453L156.347 35.5547C157.056 36.6182 157.459 38.1103 157.459 40.12H159.459ZM158.036 34.4855C157.113 32.9467 155.756 31.8459 154.013 31.185L153.304 33.055C154.655 33.5674 155.645 34.3866 156.321 35.5145L158.036 34.4855ZM154.041 31.196C152.345 30.4941 150.369 30.16 148.139 30.16V32.16C150.175 32.16 151.879 32.4659 153.276 33.044L154.041 31.196ZM148.139 30.16C144.843 30.16 142.201 30.786 140.397 32.2165L141.64 33.7835C142.93 32.7607 145.034 32.16 148.139 32.16V30.16ZM140.401 32.2137C138.641 33.5964 137.779 35.5266 137.779 37.88H139.779C139.779 36.0734 140.41 34.7503 141.637 33.7863L140.401 32.2137ZM137.779 37.88C137.779 39.4398 138.172 40.8273 139.008 41.9855L140.629 40.8145C140.079 40.0527 139.779 39.0935 139.779 37.88H137.779ZM139.029 42.0139C139.903 43.1367 141.145 44.0261 142.693 44.7138L143.505 42.8862C142.172 42.2939 141.228 41.5833 140.608 40.7861L139.029 42.0139ZM142.693 44.7138C144.217 45.3914 146.129 45.9692 148.409 46.4578L148.828 44.5022C146.628 44.0308 144.86 43.4886 143.505 42.8862L142.693 44.7138ZM148.406 46.4572L150.246 46.8572L150.671 44.9028L148.831 44.5028L148.406 46.4572ZM150.25 46.858C154.197 47.7001 157.592 48.7736 160.445 50.0704L161.273 48.2496C158.259 46.8797 154.72 45.7666 150.667 44.902L150.25 46.858ZM160.445 50.0704C163.252 51.3461 165.371 53.0066 166.852 55.0305L168.466 53.8495C166.747 51.5001 164.333 49.6406 161.273 48.2496L160.445 50.0704ZM166.861 55.0431C168.354 57.0173 169.139 59.5901 169.139 62.84H171.139C171.139 59.2633 170.27 56.236 168.456 53.8369L166.861 55.0431ZM169.139 62.84C169.139 66.0717 168.309 68.887 166.669 71.3214L168.328 72.4386C170.209 69.6463 171.139 66.435 171.139 62.84H169.139ZM166.667 71.3253C165.076 73.7114 162.775 75.6263 159.716 77.0538L160.562 78.8662C163.903 77.307 166.508 75.1686 168.331 72.4347L166.667 71.3253ZM159.723 77.0507C156.735 78.418 153.15 79.12 148.939 79.12V81.12C153.368 81.12 157.249 80.382 160.555 78.8693L159.723 77.0507ZM145.059 88.28V13.72L143.059 13.72V88.28H145.059ZM144.059 14.72H153.659V12.72H144.059V14.72ZM152.659 13.72V88.28H154.659V13.72H152.659ZM153.659 87.28H144.059V89.28H153.659V87.28Z" fill="black" mask="url(#path-2-outside-1_141_3)"/>
</svg>
