<svg width="186" height="106" viewBox="0 0 186 106" fill="none" xmlns="http://www.w3.org/2000/svg">
<path d="M23.64 83L23.64 34.52H22.2L14.68 52.28H3.96L15.4 27H33.88V83H23.64ZM64.1319 84.12C59.8652 84.12 56.1585 83.32 53.0119 81.72C49.8652 80.12 47.4385 77.9067 45.7319 75.08C44.0252 72.2533 43.1719 69 43.1719 65.32V46.2C43.1719 41.6667 44.0785 37.9067 45.8919 34.92C47.7585 31.88 50.2919 29.6133 53.4919 28.12C56.7452 26.6267 60.4519 25.88 64.6119 25.88C68.7719 25.88 72.3719 26.5733 75.4119 27.96C78.5052 29.3467 80.8785 31.3467 82.5319 33.96C84.2385 36.5733 85.0919 39.6933 85.0919 43.32H74.6919C74.6919 41.08 73.9185 39.1333 72.3719 37.48C70.8252 35.8267 68.2385 35 64.6119 35C61.0385 35 58.2652 35.9333 56.2919 37.8C54.3719 39.6667 53.4119 42.2533 53.4119 45.56V51.32H54.8519C55.7585 50.2533 57.1452 49.24 59.0119 48.28C60.8785 47.32 63.5985 46.84 67.1719 46.84C70.4252 46.84 73.4119 47.5333 76.1319 48.92C78.9052 50.3067 81.1452 52.3333 82.8519 55C84.5585 57.6133 85.4119 60.7867 85.4119 64.52V65.48C85.4119 69.16 84.5319 72.4133 82.7719 75.24C81.0119 78.0133 78.5319 80.2 75.3319 81.8C72.1319 83.3467 68.3985 84.12 64.1319 84.12ZM64.2919 75C67.6519 75 70.2919 74.12 72.2119 72.36C74.1852 70.6 75.1719 68.2533 75.1719 65.32V64.68C75.1719 62.7067 74.7185 61 73.8119 59.56C72.9585 58.12 71.7052 57 70.0519 56.2C68.4519 55.4 66.5319 55 64.2919 55C62.1052 55 60.1852 55.4 58.5319 56.2C56.8785 57 55.5985 58.12 54.6919 59.56C53.8385 61 53.4119 62.7067 53.4119 64.68V65.32C53.4119 68.2533 54.3719 70.6 56.2919 72.36C58.2652 74.12 60.9319 75 64.2919 75ZM112.865 84.12C108.492 84.12 104.705 83.3467 101.505 81.8C98.3583 80.2533 95.9317 78.0667 94.225 75.24C92.5183 72.4133 91.665 69.1333 91.665 65.4V64.6H102.065V65.32C102.065 67.9867 102.945 70.28 104.705 72.2C106.518 74.0667 109.185 75 112.705 75C116.225 75 118.918 74.0667 120.785 72.2C122.705 70.28 123.665 67.8 123.665 64.76V63.96C123.665 60.9733 122.705 58.6 120.785 56.84C118.918 55.08 116.572 54.2 113.745 54.2C112.198 54.2 110.918 54.4133 109.905 54.84C108.892 55.2667 108.065 55.8 107.425 56.44C106.785 57.08 106.252 57.72 105.825 58.36H93.425V27L131.665 27V36.28H103.665V49.96H105.105C105.638 49.2667 106.358 48.6 107.265 47.96C108.172 47.32 109.345 46.7867 110.785 46.36C112.225 45.9333 113.932 45.72 115.905 45.72C119.212 45.72 122.225 46.4133 124.945 47.8C127.665 49.1867 129.825 51.24 131.425 53.96C133.078 56.6267 133.905 59.9333 133.905 63.88V64.84C133.905 68.7867 133.052 72.2 131.345 75.08C129.692 77.96 127.292 80.2 124.145 81.8C120.998 83.3467 117.238 84.12 112.865 84.12ZM161.314 84.12C156.994 84.12 153.18 83.3467 149.874 81.8C146.567 80.2533 143.98 78.04 142.114 75.16C140.247 72.28 139.314 68.8133 139.314 64.76V62.52H149.714V64.76C149.714 68.12 150.754 70.6533 152.834 72.36C154.914 74.0133 157.74 74.84 161.314 74.84C164.94 74.84 167.634 74.12 169.394 72.68C171.207 71.24 172.114 69.4 172.114 67.16C172.114 65.6133 171.687 64.36 170.834 63.4C169.98 62.44 168.727 61.6667 167.074 61.08C165.42 60.44 163.394 59.8533 160.994 59.32L159.154 58.92C155.314 58.0667 152.007 57 149.234 55.72C146.514 54.3867 144.407 52.6533 142.914 50.52C141.474 48.3867 140.754 45.6133 140.754 42.2C140.754 38.7867 141.554 35.88 143.154 33.48C144.807 31.0267 147.1 29.16 150.034 27.88C153.02 26.5467 156.514 25.88 160.514 25.88C164.514 25.88 168.06 26.5733 171.154 27.96C174.3 29.2933 176.754 31.32 178.514 34.04C180.327 36.7067 181.234 40.0667 181.234 44.12V46.52H170.834V44.12C170.834 41.9867 170.407 40.28 169.554 39C168.754 37.6667 167.58 36.7067 166.034 36.12C164.487 35.48 162.647 35.16 160.514 35.16C157.314 35.16 154.94 35.7733 153.394 37C151.9 38.1733 151.154 39.8 151.154 41.88C151.154 43.2667 151.5 44.44 152.194 45.4C152.94 46.36 154.034 47.16 155.474 47.8C156.914 48.44 158.754 49 160.994 49.48L162.834 49.88C166.834 50.7333 170.3 51.8267 173.234 53.16C176.167 54.4933 178.434 56.2533 180.034 58.44C181.687 60.6267 182.514 63.4267 182.514 66.84C182.514 70.2533 181.634 73.2667 179.874 75.88C178.167 78.44 175.714 80.4667 172.514 81.96C169.367 83.4 165.634 84.12 161.314 84.12ZM156.434 92.28V17.72H166.034V92.28H156.434Z" fill="black"/>
<mask id="path-2-outside-1_141_7" maskUnits="userSpaceOnUse" x="-1" y="12" width="182" height="78" fill="black">
<rect fill="white" x="-1" y="12" width="182" height="78"/>
<path d="M20.64 79L20.64 30.52H19.2L11.68 48.28H0.96L12.4 23H30.88L30.88 79H20.64ZM61.1319 80.12C56.8652 80.12 53.1585 79.32 50.0119 77.72C46.8652 76.12 44.4385 73.9067 42.7319 71.08C41.0252 68.2533 40.1719 65 40.1719 61.32V42.2C40.1719 37.6667 41.0785 33.9067 42.8919 30.92C44.7585 27.88 47.2919 25.6133 50.4919 24.12C53.7452 22.6267 57.4519 21.88 61.6119 21.88C65.7719 21.88 69.3719 22.5733 72.4119 23.96C75.5052 25.3467 77.8785 27.3467 79.5319 29.96C81.2385 32.5733 82.0919 35.6933 82.0919 39.32H71.6919C71.6919 37.08 70.9185 35.1333 69.3719 33.48C67.8252 31.8267 65.2385 31 61.6119 31C58.0385 31 55.2652 31.9333 53.2919 33.8C51.3719 35.6667 50.4119 38.2533 50.4119 41.56V47.32H51.8519C52.7585 46.2533 54.1452 45.24 56.0119 44.28C57.8785 43.32 60.5985 42.84 64.1719 42.84C67.4252 42.84 70.4119 43.5333 73.1319 44.92C75.9052 46.3067 78.1452 48.3333 79.8519 51C81.5585 53.6133 82.4119 56.7867 82.4119 60.52V61.48C82.4119 65.16 81.5319 68.4133 79.7719 71.24C78.0119 74.0133 75.5319 76.2 72.3319 77.8C69.1319 79.3467 65.3985 80.12 61.1319 80.12ZM61.2919 71C64.6519 71 67.2919 70.12 69.2119 68.36C71.1852 66.6 72.1719 64.2533 72.1719 61.32V60.68C72.1719 58.7067 71.7185 57 70.8119 55.56C69.9585 54.12 68.7052 53 67.0519 52.2C65.4519 51.4 63.5319 51 61.2919 51C59.1052 51 57.1852 51.4 55.5319 52.2C53.8785 53 52.5985 54.12 51.6919 55.56C50.8385 57 50.4119 58.7067 50.4119 60.68V61.32C50.4119 64.2533 51.3719 66.6 53.2919 68.36C55.2652 70.12 57.9319 71 61.2919 71ZM109.865 80.12C105.492 80.12 101.705 79.3467 98.505 77.8C95.3583 76.2533 92.9317 74.0667 91.225 71.24C89.5183 68.4133 88.665 65.1333 88.665 61.4V60.6H99.065V61.32C99.065 63.9867 99.945 66.28 101.705 68.2C103.518 70.0667 106.185 71 109.705 71C113.225 71 115.918 70.0667 117.785 68.2C119.705 66.28 120.665 63.8 120.665 60.76V59.96C120.665 56.9733 119.705 54.6 117.785 52.84C115.918 51.08 113.572 50.2 110.745 50.2C109.198 50.2 107.918 50.4133 106.905 50.84C105.892 51.2667 105.065 51.8 104.425 52.44C103.785 53.08 103.252 53.72 102.825 54.36H90.425V23L128.665 23V32.28H100.665V45.96H102.105C102.638 45.2667 103.358 44.6 104.265 43.96C105.172 43.32 106.345 42.7867 107.785 42.36C109.225 41.9333 110.932 41.72 112.905 41.72C116.212 41.72 119.225 42.4133 121.945 43.8C124.665 45.1867 126.825 47.24 128.425 49.96C130.078 52.6267 130.905 55.9333 130.905 59.88V60.84C130.905 64.7867 130.052 68.2 128.345 71.08C126.692 73.96 124.292 76.2 121.145 77.8C117.998 79.3467 114.238 80.12 109.865 80.12ZM158.314 80.12C153.994 80.12 150.18 79.3467 146.874 77.8C143.567 76.2533 140.98 74.04 139.114 71.16C137.247 68.28 136.314 64.8133 136.314 60.76V58.52H146.714V60.76C146.714 64.12 147.754 66.6533 149.834 68.36C151.914 70.0133 154.74 70.84 158.314 70.84C161.94 70.84 164.634 70.12 166.394 68.68C168.207 67.24 169.114 65.4 169.114 63.16C169.114 61.6133 168.687 60.36 167.834 59.4C166.98 58.44 165.727 57.6667 164.074 57.08C162.42 56.44 160.394 55.8533 157.994 55.32L156.154 54.92C152.314 54.0667 149.007 53 146.234 51.72C143.514 50.3867 141.407 48.6533 139.914 46.52C138.474 44.3867 137.754 41.6133 137.754 38.2C137.754 34.7867 138.554 31.88 140.154 29.48C141.807 27.0267 144.1 25.16 147.034 23.88C150.02 22.5467 153.514 21.88 157.514 21.88C161.514 21.88 165.06 22.5733 168.154 23.96C171.3 25.2933 173.754 27.32 175.514 30.04C177.327 32.7067 178.234 36.0667 178.234 40.12V42.52H167.834V40.12C167.834 37.9867 167.407 36.28 166.554 35C165.754 33.6667 164.58 32.7067 163.034 32.12C161.487 31.48 159.647 31.16 157.514 31.16C154.314 31.16 151.94 31.7733 150.394 33C148.9 34.1733 148.154 35.8 148.154 37.88C148.154 39.2667 148.5 40.44 149.194 41.4C149.94 42.36 151.034 43.16 152.474 43.8C153.914 44.44 155.754 45 157.994 45.48L159.834 45.88C163.834 46.7333 167.3 47.8267 170.234 49.16C173.167 50.4933 175.434 52.2533 177.034 54.44C178.687 56.6267 179.514 59.4267 179.514 62.84C179.514 66.2533 178.634 69.2667 176.874 71.88C175.167 74.44 172.714 76.4667 169.514 77.96C166.367 79.4 162.634 80.12 158.314 80.12ZM153.434 88.28V13.72H163.034V88.28H153.434Z"/>
</mask>
<path d="M20.64 79L20.64 30.52H19.2L11.68 48.28H0.96L12.4 23H30.88L30.88 79H20.64ZM61.1319 80.12C56.8652 80.12 53.1585 79.32 50.0119 77.72C46.8652 76.12 44.4385 73.9067 42.7319 71.08C41.0252 68.2533 40.1719 65 40.1719 61.32V42.2C40.1719 37.6667 41.0785 33.9067 42.8919 30.92C44.7585 27.88 47.2919 25.6133 50.4919 24.12C53.7452 22.6267 57.4519 21.88 61.6119 21.88C65.7719 21.88 69.3719 22.5733 72.4119 23.96C75.5052 25.3467 77.8785 27.3467 79.5319 29.96C81.2385 32.5733 82.0919 35.6933 82.0919 39.32H71.6919C71.6919 37.08 70.9185 35.1333 69.3719 33.48C67.8252 31.8267 65.2385 31 61.6119 31C58.0385 31 55.2652 31.9333 53.2919 33.8C51.3719 35.6667 50.4119 38.2533 50.4119 41.56V47.32H51.8519C52.7585 46.2533 54.1452 45.24 56.0119 44.28C57.8785 43.32 60.5985 42.84 64.1719 42.84C67.4252 42.84 70.4119 43.5333 73.1319 44.92C75.9052 46.3067 78.1452 48.3333 79.8519 51C81.5585 53.6133 82.4119 56.7867 82.4119 60.52V61.48C82.4119 65.16 81.5319 68.4133 79.7719 71.24C78.0119 74.0133 75.5319 76.2 72.3319 77.8C69.1319 79.3467 65.3985 80.12 61.1319 80.12ZM61.2919 71C64.6519 71 67.2919 70.12 69.2119 68.36C71.1852 66.6 72.1719 64.2533 72.1719 61.32V60.68C72.1719 58.7067 71.7185 57 70.8119 55.56C69.9585 54.12 68.7052 53 67.0519 52.2C65.4519 51.4 63.5319 51 61.2919 51C59.1052 51 57.1852 51.4 55.5319 52.2C53.8785 53 52.5985 54.12 51.6919 55.56C50.8385 57 50.4119 58.7067 50.4119 60.68V61.32C50.4119 64.2533 51.3719 66.6 53.2919 68.36C55.2652 70.12 57.9319 71 61.2919 71ZM109.865 80.12C105.492 80.12 101.705 79.3467 98.505 77.8C95.3583 76.2533 92.9317 74.0667 91.225 71.24C89.5183 68.4133 88.665 65.1333 88.665 61.4V60.6H99.065V61.32C99.065 63.9867 99.945 66.28 101.705 68.2C103.518 70.0667 106.185 71 109.705 71C113.225 71 115.918 70.0667 117.785 68.2C119.705 66.28 120.665 63.8 120.665 60.76V59.96C120.665 56.9733 119.705 54.6 117.785 52.84C115.918 51.08 113.572 50.2 110.745 50.2C109.198 50.2 107.918 50.4133 106.905 50.84C105.892 51.2667 105.065 51.8 104.425 52.44C103.785 53.08 103.252 53.72 102.825 54.36H90.425V23L128.665 23V32.28H100.665V45.96H102.105C102.638 45.2667 103.358 44.6 104.265 43.96C105.172 43.32 106.345 42.7867 107.785 42.36C109.225 41.9333 110.932 41.72 112.905 41.72C116.212 41.72 119.225 42.4133 121.945 43.8C124.665 45.1867 126.825 47.24 128.425 49.96C130.078 52.6267 130.905 55.9333 130.905 59.88V60.84C130.905 64.7867 130.052 68.2 128.345 71.08C126.692 73.96 124.292 76.2 121.145 77.8C117.998 79.3467 114.238 80.12 109.865 80.12ZM158.314 80.12C153.994 80.12 150.18 79.3467 146.874 77.8C143.567 76.2533 140.98 74.04 139.114 71.16C137.247 68.28 136.314 64.8133 136.314 60.76V58.52H146.714V60.76C146.714 64.12 147.754 66.6533 149.834 68.36C151.914 70.0133 154.74 70.84 158.314 70.84C161.94 70.84 164.634 70.12 166.394 68.68C168.207 67.24 169.114 65.4 169.114 63.16C169.114 61.6133 168.687 60.36 167.834 59.4C166.98 58.44 165.727 57.6667 164.074 57.08C162.42 56.44 160.394 55.8533 157.994 55.32L156.154 54.92C152.314 54.0667 149.007 53 146.234 51.72C143.514 50.3867 141.407 48.6533 139.914 46.52C138.474 44.3867 137.754 41.6133 137.754 38.2C137.754 34.7867 138.554 31.88 140.154 29.48C141.807 27.0267 144.1 25.16 147.034 23.88C150.02 22.5467 153.514 21.88 157.514 21.88C161.514 21.88 165.06 22.5733 168.154 23.96C171.3 25.2933 173.754 27.32 175.514 30.04C177.327 32.7067 178.234 36.0667 178.234 40.12V42.52H167.834V40.12C167.834 37.9867 167.407 36.28 166.554 35C165.754 33.6667 164.58 32.7067 163.034 32.12C161.487 31.48 159.647 31.16 157.514 31.16C154.314 31.16 151.94 31.7733 150.394 33C148.9 34.1733 148.154 35.8 148.154 37.88C148.154 39.2667 148.5 40.44 149.194 41.4C149.94 42.36 151.034 43.16 152.474 43.8C153.914 44.44 155.754 45 157.994 45.48L159.834 45.88C163.834 46.7333 167.3 47.8267 170.234 49.16C173.167 50.4933 175.434 52.2533 177.034 54.44C178.687 56.6267 179.514 59.4267 179.514 62.84C179.514 66.2533 178.634 69.2667 176.874 71.88C175.167 74.44 172.714 76.4667 169.514 77.96C166.367 79.4 162.634 80.12 158.314 80.12ZM153.434 88.28V13.72H163.034V88.28H153.434Z" fill="#AEEFFF"/>
<path d="M20.64 79H19.64V80H20.64V79ZM20.64 30.52H21.64V29.52H20.64V30.52ZM19.2 30.52V29.52H18.5375L18.2791 30.1301L19.2 30.52ZM11.68 48.28V49.28H12.3425L12.6009 48.6699L11.68 48.28ZM0.96 48.28L0.0489436 47.8677L-0.590158 49.28H0.96L0.96 48.28ZM12.4 23V22H11.7549L11.4889 22.5877L12.4 23ZM30.88 23H31.88V22H30.88V23ZM30.88 79V80H31.88V79H30.88ZM21.64 79L21.64 30.52H19.64L19.64 79H21.64ZM20.64 29.52H19.2V31.52H20.64V29.52ZM18.2791 30.1301L10.7591 47.8901L12.6009 48.6699L20.1209 30.9099L18.2791 30.1301ZM11.68 47.28H0.96L0.96 49.28H11.68L11.68 47.28ZM1.87106 48.6923L13.3111 23.4123L11.4889 22.5877L0.0489436 47.8677L1.87106 48.6923ZM12.4 24H30.88V22H12.4V24ZM29.88 23L29.88 79H31.88L31.88 23H29.88ZM30.88 78H20.64V80H30.88V78ZM50.0119 77.72L49.5586 78.6114L50.0119 77.72ZM42.7319 71.08L41.8758 71.5969L41.8758 71.5969L42.7319 71.08ZM42.8919 30.92L42.0397 30.3967L42.0371 30.401L42.8919 30.92ZM50.4919 24.12L50.0747 23.2111L50.069 23.2138L50.4919 24.12ZM72.4119 23.96L71.9969 24.8698L72.0028 24.8725L72.4119 23.96ZM79.5319 29.96L78.6868 30.4946L78.6907 30.5007L78.6946 30.5068L79.5319 29.96ZM82.0919 39.32V40.32H83.0919V39.32H82.0919ZM71.6919 39.32H70.6919V40.32H71.6919V39.32ZM69.3719 33.48L68.6416 34.1632L68.6416 34.1632L69.3719 33.48ZM53.2919 33.8L52.6046 33.0735L52.5948 33.083L53.2919 33.8ZM50.4119 47.32H49.4119V48.32H50.4119V47.32ZM51.8519 47.32V48.32H52.3143L52.6138 47.9676L51.8519 47.32ZM56.0119 44.28L55.5545 43.3907L55.5545 43.3907L56.0119 44.28ZM73.1319 44.92L72.6777 45.8109L72.6847 45.8144L73.1319 44.92ZM79.8519 51L79.0096 51.5391L79.0146 51.5468L79.8519 51ZM79.7719 71.24L80.6162 71.7758L80.6208 71.7686L79.7719 71.24ZM72.3319 77.8L72.7671 78.7004L72.7791 78.6944L72.3319 77.8ZM69.2119 68.36L68.5462 67.6136L68.5362 67.6228L69.2119 68.36ZM70.8119 55.56L69.9516 56.0698L69.9585 56.0814L69.9656 56.0928L70.8119 55.56ZM67.0519 52.2L66.6046 53.0945L66.6163 53.1002L67.0519 52.2ZM55.5319 52.2L55.9674 53.1002L55.9674 53.1002L55.5319 52.2ZM51.6919 55.56L50.8456 55.0272L50.8385 55.0386L50.8316 55.0502L51.6919 55.56ZM53.2919 68.36L52.6161 69.0972L52.6263 69.1063L53.2919 68.36ZM61.1319 79.12C56.9902 79.12 53.445 78.3438 50.4651 76.8286L49.5586 78.6114C52.8721 80.2962 56.7402 81.12 61.1319 81.12V79.12ZM50.4651 76.8286C47.4731 75.3072 45.1912 73.2186 43.5879 70.5631L41.8758 71.5969C43.6858 74.5947 46.2573 76.9328 49.5586 78.6114L50.4651 76.8286ZM43.5879 70.5631C41.9859 67.9098 41.1719 64.8392 41.1719 61.32H39.1719C39.1719 65.1608 40.0645 68.5969 41.8758 71.5969L43.5879 70.5631ZM41.1719 61.32V42.2H39.1719V61.32H41.1719ZM41.1719 42.2C41.1719 37.7963 42.0526 34.2291 43.7467 31.439L42.0371 30.401C40.1044 33.5842 39.1719 37.537 39.1719 42.2H41.1719ZM43.744 31.4433C45.5093 28.5684 47.8942 26.4358 50.9148 25.0262L50.069 23.2138C46.6896 24.7909 44.0078 27.1916 42.0397 30.3967L43.744 31.4433ZM50.909 25.0288C54.0119 23.6045 57.5727 22.88 61.6119 22.88V20.88C57.3311 20.88 53.4785 21.6488 50.0747 23.2112L50.909 25.0288ZM61.6119 22.88C65.6628 22.88 69.115 23.5553 71.9969 24.8698L72.8269 23.0502C69.6288 21.5914 65.881 20.88 61.6119 20.88V22.88ZM72.0028 24.8725C74.9348 26.1868 77.1486 28.0633 78.6868 30.4946L80.377 29.4254C78.6085 26.6301 76.0756 24.5065 72.8209 23.0475L72.0028 24.8725ZM78.6946 30.5068C80.2788 32.9325 81.0919 35.8554 81.0919 39.32H83.0919C83.0919 35.5313 82.1983 32.2141 80.3692 29.4132L78.6946 30.5068ZM82.0919 38.32H71.6919V40.32H82.0919V38.32ZM72.6919 39.32C72.6919 36.8233 71.8201 34.6332 70.1021 32.7968L68.6416 34.1632C70.017 35.6334 70.6919 37.3367 70.6919 39.32H72.6919ZM70.1021 32.7968C68.2787 30.8476 65.3534 30 61.6119 30V32C65.1237 32 67.3717 32.8057 68.6416 34.1632L70.1021 32.7968ZM61.6119 30C57.8659 30 54.8163 30.9814 52.6047 33.0735L53.9791 34.5265C55.7141 32.8852 58.2111 32 61.6119 32V30ZM52.5948 33.083C50.4375 35.1803 49.4119 38.0508 49.4119 41.56H51.4119C51.4119 38.4559 52.3062 36.153 53.989 34.517L52.5948 33.083ZM49.4119 41.56V47.32H51.4119V41.56H49.4119ZM50.4119 48.32H51.8519V46.32H50.4119V48.32ZM52.6138 47.9676C53.4044 47.0376 54.6663 46.0965 56.4692 45.1693L55.5545 43.3907C53.6241 44.3835 52.1127 45.4691 51.0899 46.6723L52.6138 47.9676ZM56.4692 45.1693C58.1278 44.3163 60.6603 43.84 64.1719 43.84V41.84C60.5368 41.84 57.6293 42.3237 55.5545 43.3907L56.4692 45.1693ZM64.1719 43.84C67.2779 43.84 70.1075 44.5006 72.6777 45.8109L73.5861 44.0291C70.7162 42.566 67.5725 41.84 64.1719 41.84V43.84ZM72.6847 45.8144C75.2931 47.1187 77.398 49.0209 79.0096 51.5391L80.6941 50.4609C78.8924 47.6457 76.5173 45.4947 73.5791 44.0256L72.6847 45.8144ZM79.0146 51.5468C80.5958 53.968 81.4119 56.9423 81.4119 60.52H83.4119C83.4119 56.6311 82.5213 53.2587 80.6891 50.4532L79.0146 51.5468ZM81.4119 60.52V61.48H83.4119V60.52H81.4119ZM81.4119 61.48C81.4119 64.9935 80.574 68.0598 78.923 70.7114L80.6208 71.7686C82.4897 68.7669 83.4119 65.3265 83.4119 61.48H81.4119ZM78.9275 70.7042C77.2735 73.3106 74.9372 75.3793 71.8847 76.9056L72.7791 78.6944C76.1266 77.0207 78.7503 74.7161 80.6162 71.7758L78.9275 70.7042ZM71.8967 76.8997C68.8569 78.3689 65.2777 79.12 61.1319 79.12V81.12C65.5194 81.12 69.4068 80.3245 72.767 78.7003L71.8967 76.8997ZM61.2919 72C64.8272 72 67.7346 71.0708 69.8876 69.0972L68.5362 67.6228C66.8492 69.1692 64.4765 70 61.2919 70V72ZM69.8775 69.1063C72.0882 67.1346 73.1719 64.5036 73.1719 61.32H71.1719C71.1719 64.0031 70.2822 66.0654 68.5463 67.6137L69.8775 69.1063ZM73.1719 61.32V60.68H71.1719V61.32H73.1719ZM73.1719 60.68C73.1719 58.5488 72.6804 56.6509 71.6581 55.0272L69.9656 56.0928C70.7567 57.3491 71.1719 58.8645 71.1719 60.68H73.1719ZM71.6722 55.0502C70.709 53.4248 69.2997 52.1767 67.4874 51.2998L66.6163 53.1002C68.1107 53.8233 69.2081 54.8152 69.9516 56.0698L71.6722 55.0502ZM67.4991 51.3056C65.7297 50.4209 63.6489 50 61.2919 50V52C63.4149 52 65.1741 52.3791 66.6047 53.0944L67.4991 51.3056ZM61.2919 50C58.9828 50 56.9089 50.4228 55.0963 51.2998L55.9674 53.1002C57.4615 52.3772 59.2276 52 61.2919 52V50ZM55.0963 51.2998C53.2883 52.1747 51.86 53.4161 50.8456 55.0272L52.5381 56.0928C53.3371 54.8239 54.4688 53.8253 55.9674 53.1002L55.0963 51.2998ZM50.8316 55.0502C49.8716 56.6702 49.4119 58.5597 49.4119 60.68H51.4119C51.4119 58.8537 51.8055 57.3298 52.5522 56.0698L50.8316 55.0502ZM49.4119 60.68V61.32H51.4119V60.68H49.4119ZM49.4119 61.32C49.4119 64.4945 50.4623 67.1228 52.6162 69.0972L53.9676 67.6228C52.2814 66.0772 51.4119 64.0122 51.4119 61.32H49.4119ZM52.6263 69.1063C54.8283 71.0702 57.755 72 61.2919 72V70C58.1087 70 55.7022 69.1698 53.9575 67.6137L52.6263 69.1063ZM98.505 77.8L98.0639 78.6975L98.0698 78.7003L98.505 77.8ZM91.225 71.24L90.3689 71.7569L90.3689 71.7569L91.225 71.24ZM88.665 60.6V59.6H87.665V60.6H88.665ZM99.065 60.6H100.065V59.6H99.065V60.6ZM101.705 68.2L100.968 68.8757L100.978 68.8864L100.988 68.8968L101.705 68.2ZM117.785 68.2L117.078 67.4929L117.078 67.4929L117.785 68.2ZM117.785 52.84L117.099 53.5677L117.109 53.5772L117.785 52.84ZM106.905 50.84L106.517 49.9184L106.517 49.9184L106.905 50.84ZM104.425 52.44L105.132 53.1471L105.132 53.1471L104.425 52.44ZM102.825 54.36V55.36H103.36L103.657 54.9147L102.825 54.36ZM90.425 54.36H89.425V55.36H90.425V54.36ZM90.425 23V22H89.425V23H90.425ZM128.665 23H129.665V22H128.665V23ZM128.665 32.28V33.28H129.665V32.28H128.665ZM100.665 32.28V31.28H99.665V32.28H100.665ZM100.665 45.96H99.665V46.96H100.665V45.96ZM102.105 45.96V46.96H102.597L102.898 46.5697L102.105 45.96ZM104.265 43.96L104.842 44.777L104.842 44.777L104.265 43.96ZM107.785 42.36L107.501 41.4012L107.501 41.4012L107.785 42.36ZM121.945 43.8L122.399 42.9091L122.399 42.9091L121.945 43.8ZM128.425 49.96L127.563 50.467L127.569 50.477L127.575 50.4869L128.425 49.96ZM128.345 71.08L127.485 70.5701L127.478 70.5821L128.345 71.08ZM121.145 77.8L121.586 78.6975L121.598 78.6914L121.145 77.8ZM109.865 79.12C105.608 79.12 101.977 78.3674 98.9402 76.8997L98.0698 78.7003C101.433 80.326 105.375 81.12 109.865 81.12V79.12ZM98.9461 76.9026C95.9602 75.4349 93.6825 73.3755 92.0811 70.7231L90.3689 71.7569C92.1808 74.7578 94.7564 77.0718 98.0639 78.6974L98.9461 76.9026ZM92.0811 70.7231C90.4804 68.072 89.665 64.9755 89.665 61.4H87.665C87.665 65.2912 88.5563 68.7546 90.3689 71.7569L92.0811 70.7231ZM89.665 61.4V60.6H87.665V61.4H89.665ZM88.665 61.6H99.065V59.6H88.665V61.6ZM98.065 60.6V61.32H100.065V60.6H98.065ZM98.065 61.32C98.065 64.2303 99.0344 66.7665 100.968 68.8757L102.442 67.5243C100.856 65.7935 100.065 63.7431 100.065 61.32H98.065ZM100.988 68.8968C103.048 71.018 106.013 72 109.705 72V70C106.357 70 103.988 69.1153 102.422 67.5032L100.988 68.8968ZM109.705 72C113.399 72 116.382 71.0173 118.492 68.9071L117.078 67.4929C115.455 69.116 113.051 70 109.705 70V72ZM118.492 68.9071C120.623 66.7764 121.665 64.0305 121.665 60.76H119.665C119.665 63.5695 118.787 65.7836 117.078 67.4929L118.492 68.9071ZM121.665 60.76V59.96H119.665V60.76H121.665ZM121.665 59.96C121.665 56.7383 120.619 54.0808 118.461 52.1028L117.109 53.5772C118.791 55.1192 119.665 57.2084 119.665 59.96H121.665ZM118.471 52.1124C116.399 50.159 113.798 49.2 110.745 49.2V51.2C113.345 51.2 115.437 52.001 117.099 53.5676L118.471 52.1124ZM110.745 49.2C109.115 49.2 107.692 49.4235 106.517 49.9184L107.293 51.7616C108.144 51.4032 109.281 51.2 110.745 51.2V49.2ZM106.517 49.9184C105.409 50.3847 104.467 50.9841 103.718 51.7329L105.132 53.1471C105.663 52.6159 106.374 52.1486 107.293 51.7616L106.517 49.9184ZM103.718 51.7329C103.039 52.4115 102.462 53.1019 101.993 53.8053L103.657 54.9147C104.041 54.3381 104.531 53.7485 105.132 53.1471L103.718 51.7329ZM102.825 53.36H90.425V55.36H102.825V53.36ZM91.425 54.36V23H89.425V54.36H91.425ZM90.425 24L128.665 24V22L90.425 22V24ZM127.665 23V32.28H129.665V23H127.665ZM128.665 31.28H100.665V33.28H128.665V31.28ZM99.665 32.28V45.96H101.665V32.28H99.665ZM100.665 46.96H102.105V44.96H100.665V46.96ZM102.898 46.5697C103.356 45.9739 103.996 45.3739 104.842 44.777L103.688 43.143C102.721 43.8261 101.921 44.5594 101.312 45.3503L102.898 46.5697ZM104.842 44.777C105.634 44.2177 106.699 43.7247 108.069 43.3188L107.501 41.4012C105.991 41.8487 104.709 42.4223 103.688 43.143L104.842 44.777ZM108.069 43.3188C109.393 42.9265 111 42.72 112.905 42.72V40.72C110.864 40.72 109.057 40.9402 107.501 41.4012L108.069 43.3188ZM112.905 42.72C116.067 42.72 118.923 43.3818 121.491 44.6909L122.399 42.9091C119.527 41.4449 116.356 40.72 112.905 40.72V42.72ZM121.491 44.6909C124.035 45.988 126.056 47.9054 127.563 50.467L129.287 49.453C127.594 46.5746 125.295 44.3853 122.399 42.9091L121.491 44.6909ZM127.575 50.4869C129.108 52.9592 129.905 56.0719 129.905 59.88H131.905C131.905 55.7948 131.049 52.2941 129.275 49.4331L127.575 50.4869ZM129.905 59.88V60.84H131.905V59.88H129.905ZM129.905 60.84C129.905 64.6397 129.085 67.8702 127.485 70.5702L129.205 71.5898C131.019 68.5298 131.905 64.9337 131.905 60.84H129.905ZM127.478 70.5821C125.927 73.2827 123.677 75.3909 120.692 76.9086L121.598 78.6914C124.907 77.0091 127.456 74.6373 129.212 71.5779L127.478 70.5821ZM120.704 76.9026C117.724 78.3672 114.122 79.12 109.865 79.12V81.12C114.354 81.12 118.273 80.3262 121.586 78.6974L120.704 76.9026ZM146.874 77.8L146.45 78.7058L146.45 78.7058L146.874 77.8ZM139.114 71.16L139.953 70.6161L139.953 70.6161L139.114 71.16ZM136.314 58.52V57.52H135.314V58.52H136.314ZM146.714 58.52H147.714V57.52H146.714V58.52ZM149.834 68.36L149.199 69.1331L149.205 69.138L149.212 69.1428L149.834 68.36ZM166.394 68.68L165.772 67.8969L165.766 67.9014L165.761 67.906L166.394 68.68ZM167.834 59.4L167.086 60.0644L167.086 60.0644L167.834 59.4ZM164.074 57.08L163.713 58.0126L163.726 58.0177L163.739 58.0224L164.074 57.08ZM157.994 55.32L158.211 54.3438L158.206 54.3428L157.994 55.32ZM156.154 54.92L155.937 55.8962L155.941 55.8972L156.154 54.92ZM146.234 51.72L145.794 52.6179L145.804 52.6231L145.815 52.628L146.234 51.72ZM139.914 46.52L139.085 47.0795L139.09 47.0865L139.095 47.0935L139.914 46.52ZM140.154 29.48L139.324 28.9211L139.322 28.9253L140.154 29.48ZM147.034 23.88L147.434 24.7966L147.441 24.7931L147.034 23.88ZM168.154 23.96L167.745 24.8725L167.754 24.8767L167.764 24.8808L168.154 23.96ZM175.514 30.04L174.674 30.5832L174.68 30.5928L174.687 30.6023L175.514 30.04ZM178.234 42.52V43.52H179.234V42.52H178.234ZM167.834 42.52H166.834V43.52H167.834V42.52ZM166.554 35L165.696 35.5145L165.709 35.5349L165.722 35.5547L166.554 35ZM163.034 32.12L162.651 33.044L162.665 33.0497L162.679 33.055L163.034 32.12ZM150.394 33L151.012 33.7863L151.015 33.7835L150.394 33ZM149.194 41.4L148.383 41.9855L148.393 41.9999L148.404 42.0139L149.194 41.4ZM152.474 43.8L152.88 42.8862L152.88 42.8862L152.474 43.8ZM157.994 45.48L158.206 44.5028L158.203 44.5022L157.994 45.48ZM159.834 45.88L159.621 46.8572L159.625 46.858L159.834 45.88ZM170.234 49.16L170.648 48.2496L170.648 48.2496L170.234 49.16ZM177.034 54.44L176.227 55.0305L176.231 55.0368L176.236 55.0431L177.034 54.44ZM176.874 71.88L176.044 71.3214L176.042 71.3253L176.874 71.88ZM169.514 77.96L169.93 78.8693L169.937 78.8662L169.514 77.96ZM153.434 88.28H152.434V89.28H153.434V88.28ZM153.434 13.72V12.72H152.434V13.72H153.434ZM163.034 13.72H164.034V12.72H163.034V13.72ZM163.034 88.28V89.28H164.034V88.28H163.034ZM158.314 79.12C154.114 79.12 150.449 78.3685 147.297 76.8942L146.45 78.7058C149.911 80.3249 153.874 81.12 158.314 81.12V79.12ZM147.297 76.8942C144.149 75.4216 141.711 73.3288 139.953 70.6161L138.275 71.7039C140.25 74.7512 142.985 77.0851 146.45 78.7058L147.297 76.8942ZM139.953 70.6161C138.209 67.9255 137.314 64.6558 137.314 60.76H135.314C135.314 64.9708 136.285 68.6345 138.275 71.7039L139.953 70.6161ZM137.314 60.76V58.52H135.314V60.76H137.314ZM136.314 59.52H146.714V57.52H136.314V59.52ZM145.714 58.52V60.76H147.714V58.52H145.714ZM145.714 60.76C145.714 64.3381 146.832 67.1903 149.199 69.1331L150.468 67.5869C148.676 66.1164 147.714 63.9019 147.714 60.76H145.714ZM149.212 69.1428C151.521 70.9785 154.592 71.84 158.314 71.84V69.84C154.889 69.84 152.307 69.0481 150.456 67.5772L149.212 69.1428ZM158.314 71.84C162.043 71.84 165.009 71.1049 167.027 69.454L165.761 67.906C164.258 69.1351 161.838 69.84 158.314 69.84V71.84ZM167.016 69.4631C169.058 67.8408 170.114 65.7168 170.114 63.16H168.114C168.114 65.0832 167.356 66.6392 165.772 67.8969L167.016 69.4631ZM170.114 63.16C170.114 61.4209 169.629 59.9145 168.581 58.7356L167.086 60.0644C167.745 60.8055 168.114 61.8057 168.114 63.16H170.114ZM168.581 58.7356C167.582 57.6119 166.165 56.7609 164.408 56.1376L163.739 58.0224C165.289 58.5724 166.379 59.2681 167.086 60.0644L168.581 58.7356ZM164.435 56.1474C162.721 55.4839 160.642 54.8842 158.211 54.3438L157.777 56.2962C160.145 56.8225 162.12 57.3961 163.713 58.0126L164.435 56.1474ZM158.206 54.3428L156.366 53.9428L155.941 55.8972L157.781 56.2972L158.206 54.3428ZM156.371 53.9438C152.582 53.1018 149.346 52.055 146.653 50.812L145.815 52.628C148.668 53.945 152.046 55.0316 155.937 55.8962L156.371 53.9438ZM146.674 50.8221C144.081 49.5509 142.115 47.9203 140.733 45.9465L139.095 47.0935C140.7 49.3863 142.947 51.2224 145.794 52.6179L146.674 50.8221ZM140.743 45.9605C139.445 44.0385 138.754 41.4779 138.754 38.2H136.754C136.754 41.7488 137.502 44.7348 139.085 47.0795L140.743 45.9605ZM138.754 38.2C138.754 34.9472 139.514 32.2422 140.986 30.0347L139.322 28.9253C137.593 31.5178 136.754 34.6261 136.754 38.2H138.754ZM140.983 30.0389C142.521 27.756 144.66 26.007 147.434 24.7965L146.634 22.9635C143.541 24.313 141.093 26.2973 139.324 28.9211L140.983 30.0389ZM147.441 24.7931C150.275 23.5283 153.624 22.88 157.514 22.88V20.88C153.404 20.88 149.766 21.565 146.626 22.9669L147.441 24.7931ZM157.514 22.88C161.398 22.88 164.801 23.553 167.745 24.8725L168.563 23.0475C165.32 21.5937 161.63 20.88 157.514 20.88V22.88ZM167.764 24.8808C170.737 26.1406 173.029 28.0407 174.674 30.5832L176.353 29.4967C174.479 26.5993 171.864 24.4461 168.544 23.0392L167.764 24.8808ZM174.687 30.6023C176.361 33.065 177.234 36.2156 177.234 40.12H179.234C179.234 35.9177 178.293 32.3483 176.341 29.4777L174.687 30.6023ZM177.234 40.12V42.52H179.234V40.12H177.234ZM178.234 41.52H167.834V43.52H178.234V41.52ZM168.834 42.52V40.12H166.834V42.52H168.834ZM168.834 40.12C168.834 37.863 168.383 35.9418 167.386 34.4453L165.722 35.5547C166.431 36.6182 166.834 38.1103 166.834 40.12H168.834ZM167.411 34.4855C166.488 32.9467 165.131 31.8459 163.388 31.185L162.679 33.055C164.03 33.5674 165.02 34.3866 165.696 35.5145L167.411 34.4855ZM163.416 31.196C161.72 30.4941 159.744 30.16 157.514 30.16V32.16C159.55 32.16 161.254 32.4659 162.651 33.044L163.416 31.196ZM157.514 30.16C154.218 30.16 151.576 30.786 149.772 32.2165L151.015 33.7835C152.305 32.7607 154.409 32.16 157.514 32.16V30.16ZM149.776 32.2137C148.016 33.5964 147.154 35.5266 147.154 37.88H149.154C149.154 36.0734 149.785 34.7503 151.012 33.7863L149.776 32.2137ZM147.154 37.88C147.154 39.4398 147.547 40.8273 148.383 41.9855L150.004 40.8145C149.454 40.0527 149.154 39.0935 149.154 37.88H147.154ZM148.404 42.0139C149.278 43.1367 150.52 44.0261 152.068 44.7138L152.88 42.8862C151.547 42.2939 150.603 41.5833 149.983 40.7861L148.404 42.0139ZM152.068 44.7138C153.592 45.3914 155.504 45.9692 157.784 46.4578L158.203 44.5022C156.003 44.0308 154.235 43.4886 152.88 42.8862L152.068 44.7138ZM157.781 46.4572L159.621 46.8572L160.046 44.9028L158.206 44.5028L157.781 46.4572ZM159.625 46.858C163.572 47.7001 166.967 48.7736 169.82 50.0704L170.648 48.2496C167.634 46.8797 164.095 45.7666 160.042 44.902L159.625 46.858ZM169.82 50.0704C172.627 51.3461 174.746 53.0066 176.227 55.0305L177.841 53.8495C176.122 51.5001 173.708 49.6406 170.648 48.2496L169.82 50.0704ZM176.236 55.0431C177.729 57.0173 178.514 59.5901 178.514 62.84H180.514C180.514 59.2633 179.645 56.236 177.831 53.8369L176.236 55.0431ZM178.514 62.84C178.514 66.0717 177.684 68.887 176.044 71.3214L177.703 72.4386C179.584 69.6463 180.514 66.435 180.514 62.84H178.514ZM176.042 71.3253C174.451 73.7114 172.15 75.6263 169.091 77.0538L169.937 78.8662C173.278 77.307 175.883 75.1686 177.706 72.4347L176.042 71.3253ZM169.098 77.0507C166.11 78.418 162.525 79.12 158.314 79.12V81.12C162.743 81.12 166.624 80.382 169.93 78.8693L169.098 77.0507ZM154.434 88.28V13.72H152.434V88.28H154.434ZM153.434 14.72H163.034V12.72H153.434V14.72ZM162.034 13.72V88.28H164.034V13.72H162.034ZM163.034 87.28H153.434V89.28H163.034V87.28Z" fill="black" mask="url(#path-2-outside-1_141_7)"/>
</svg>
