<svg width="151" height="106" viewBox="0 0 151 106" fill="none" xmlns="http://www.w3.org/2000/svg">
<path d="M6.36 83L6.36 76.28C6.36 72.3867 7 69.16 8.28 66.6C9.56 63.9867 11.4 61.8533 13.8 60.2C16.2533 58.4933 19.24 57.1067 22.76 56.04L28.12 54.36C30.0933 53.72 31.7467 52.9467 33.08 52.04C34.4133 51.08 35.4267 49.9333 36.12 48.6C36.8667 47.2667 37.24 45.7467 37.24 44.04V43.72C37.24 41.0533 36.3333 38.9467 34.52 37.4C32.7067 35.8 30.2267 35 27.08 35C23.9867 35 21.48 35.8533 19.56 37.56C17.6933 39.2133 16.76 41.6133 16.76 44.76V46.2H6.52V44.92C6.52 40.8667 7.42667 37.4267 9.24 34.6C11.0533 31.7733 13.5067 29.6133 16.6 28.12C19.7467 26.6267 23.24 25.88 27.08 25.88C30.92 25.88 34.3867 26.6267 37.48 28.12C40.5733 29.56 43 31.6133 44.76 34.28C46.5733 36.8933 47.48 39.9867 47.48 43.56V44.36C47.48 47.9333 46.7333 50.9733 45.24 53.48C43.8 55.9333 41.8267 57.96 39.32 59.56C36.8133 61.1067 33.96 62.3867 30.76 63.4L25.64 65C23.3467 65.6933 21.56 66.4667 20.28 67.32C19 68.12 18.0933 69.0267 17.56 70.04C17.08 71 16.84 72.1733 16.84 73.56V73.88H47V83H6.36ZM76.42 84.12C69.8067 84.12 64.5 82.3067 60.5 78.68C56.5 75 54.5 69.4533 54.5 62.04V47.96C54.5 40.76 56.5 35.2933 60.5 31.56C64.5 27.7733 69.8067 25.88 76.42 25.88C83.0867 25.88 88.3933 27.7733 92.34 31.56C96.34 35.2933 98.34 40.76 98.34 47.96V62.04C98.34 69.4533 96.34 75 92.34 78.68C88.3933 82.3067 83.0867 84.12 76.42 84.12ZM76.42 75C80.42 75 83.3533 73.9067 85.22 71.72C87.14 69.5333 88.1 66.4133 88.1 62.36V47.48C88.1 43.3733 87.0333 40.28 84.9 38.2C82.82 36.0667 79.9933 35 76.42 35C72.74 35 69.86 36.0933 67.78 38.28C65.7533 40.4667 64.74 43.5333 64.74 47.48V62.36C64.74 66.5733 65.7 69.7467 67.62 71.88C69.5933 73.96 72.5267 75 76.42 75ZM127.095 84.12C122.775 84.12 118.962 83.3467 115.655 81.8C112.348 80.2533 109.762 78.04 107.895 75.16C106.028 72.28 105.095 68.8133 105.095 64.76V62.52H115.495V64.76C115.495 68.12 116.535 70.6533 118.615 72.36C120.695 74.0133 123.522 74.84 127.095 74.84C130.722 74.84 133.415 74.12 135.175 72.68C136.988 71.24 137.895 69.4 137.895 67.16C137.895 65.6133 137.468 64.36 136.615 63.4C135.762 62.44 134.508 61.6667 132.855 61.08C131.202 60.44 129.175 59.8533 126.775 59.32L124.935 58.92C121.095 58.0667 117.788 57 115.015 55.72C112.295 54.3867 110.188 52.6533 108.695 50.52C107.255 48.3867 106.535 45.6133 106.535 42.2C106.535 38.7867 107.335 35.88 108.935 33.48C110.588 31.0267 112.882 29.16 115.815 27.88C118.802 26.5467 122.295 25.88 126.295 25.88C130.295 25.88 133.842 26.5733 136.935 27.96C140.082 29.2933 142.535 31.32 144.295 34.04C146.108 36.7067 147.015 40.0667 147.015 44.12V46.52H136.615V44.12C136.615 41.9867 136.188 40.28 135.335 39C134.535 37.6667 133.362 36.7067 131.815 36.12C130.268 35.48 128.428 35.16 126.295 35.16C123.095 35.16 120.722 35.7733 119.175 37C117.682 38.1733 116.935 39.8 116.935 41.88C116.935 43.2667 117.282 44.44 117.975 45.4C118.722 46.36 119.815 47.16 121.255 47.8C122.695 48.44 124.535 49 126.775 49.48L128.615 49.88C132.615 50.7333 136.082 51.8267 139.015 53.16C141.948 54.4933 144.215 56.2533 145.815 58.44C147.468 60.6267 148.295 63.4267 148.295 66.84C148.295 70.2533 147.415 73.2667 145.655 75.88C143.948 78.44 141.495 80.4667 138.295 81.96C135.148 83.4 131.415 84.12 127.095 84.12ZM122.215 92.28V17.72H131.815V92.28L122.215 92.28Z" fill="black"/>
<mask id="path-2-outside-1_88_10" maskUnits="userSpaceOnUse" x="2" y="12" width="145" height="78" fill="black">
<rect fill="white" x="2" y="12" width="145" height="78"/>
<path d="M3.36 79L3.36 72.28C3.36 68.3867 4 65.16 5.28 62.6C6.56 59.9867 8.4 57.8533 10.8 56.2C13.2533 54.4933 16.24 53.1067 19.76 52.04L25.12 50.36C27.0933 49.72 28.7467 48.9467 30.08 48.04C31.4133 47.08 32.4267 45.9333 33.12 44.6C33.8667 43.2667 34.24 41.7467 34.24 40.04V39.72C34.24 37.0533 33.3333 34.9467 31.52 33.4C29.7067 31.8 27.2267 31 24.08 31C20.9867 31 18.48 31.8533 16.56 33.56C14.6933 35.2133 13.76 37.6133 13.76 40.76V42.2H3.52V40.92C3.52 36.8667 4.42667 33.4267 6.24 30.6C8.05333 27.7733 10.5067 25.6133 13.6 24.12C16.7467 22.6267 20.24 21.88 24.08 21.88C27.92 21.88 31.3867 22.6267 34.48 24.12C37.5733 25.56 40 27.6133 41.76 30.28C43.5733 32.8933 44.48 35.9867 44.48 39.56V40.36C44.48 43.9333 43.7333 46.9733 42.24 49.48C40.8 51.9333 38.8267 53.96 36.32 55.56C33.8133 57.1067 30.96 58.3867 27.76 59.4L22.64 61C20.3467 61.6933 18.56 62.4667 17.28 63.32C16 64.12 15.0933 65.0267 14.56 66.04C14.08 67 13.84 68.1733 13.84 69.56V69.88H44V79H3.36ZM73.42 80.12C66.8067 80.12 61.5 78.3067 57.5 74.68C53.5 71 51.5 65.4533 51.5 58.04V43.96C51.5 36.76 53.5 31.2933 57.5 27.56C61.5 23.7733 66.8067 21.88 73.42 21.88C80.0867 21.88 85.3933 23.7733 89.34 27.56C93.34 31.2933 95.34 36.76 95.34 43.96V58.04C95.34 65.4533 93.34 71 89.34 74.68C85.3933 78.3067 80.0867 80.12 73.42 80.12ZM73.42 71C77.42 71 80.3533 69.9067 82.22 67.72C84.14 65.5333 85.1 62.4133 85.1 58.36V43.48C85.1 39.3733 84.0333 36.28 81.9 34.2C79.82 32.0667 76.9933 31 73.42 31C69.74 31 66.86 32.0933 64.78 34.28C62.7533 36.4667 61.74 39.5333 61.74 43.48V58.36C61.74 62.5733 62.7 65.7467 64.62 67.88C66.5933 69.96 69.5267 71 73.42 71ZM124.095 80.12C119.775 80.12 115.962 79.3467 112.655 77.8C109.348 76.2533 106.762 74.04 104.895 71.16C103.028 68.28 102.095 64.8133 102.095 60.76V58.52H112.495V60.76C112.495 64.12 113.535 66.6533 115.615 68.36C117.695 70.0133 120.522 70.84 124.095 70.84C127.722 70.84 130.415 70.12 132.175 68.68C133.988 67.24 134.895 65.4 134.895 63.16C134.895 61.6133 134.468 60.36 133.615 59.4C132.762 58.44 131.508 57.6667 129.855 57.08C128.202 56.44 126.175 55.8533 123.775 55.32L121.935 54.92C118.095 54.0667 114.788 53 112.015 51.72C109.295 50.3867 107.188 48.6533 105.695 46.52C104.255 44.3867 103.535 41.6133 103.535 38.2C103.535 34.7867 104.335 31.88 105.935 29.48C107.588 27.0267 109.882 25.16 112.815 23.88C115.802 22.5467 119.295 21.88 123.295 21.88C127.295 21.88 130.842 22.5733 133.935 23.96C137.082 25.2933 139.535 27.32 141.295 30.04C143.108 32.7067 144.015 36.0667 144.015 40.12V42.52H133.615V40.12C133.615 37.9867 133.188 36.28 132.335 35C131.535 33.6667 130.362 32.7067 128.815 32.12C127.268 31.48 125.428 31.16 123.295 31.16C120.095 31.16 117.722 31.7733 116.175 33C114.682 34.1733 113.935 35.8 113.935 37.88C113.935 39.2667 114.282 40.44 114.975 41.4C115.722 42.36 116.815 43.16 118.255 43.8C119.695 44.44 121.535 45 123.775 45.48L125.615 45.88C129.615 46.7333 133.082 47.8267 136.015 49.16C138.948 50.4933 141.215 52.2533 142.815 54.44C144.468 56.6267 145.295 59.4267 145.295 62.84C145.295 66.2533 144.415 69.2667 142.655 71.88C140.948 74.44 138.495 76.4667 135.295 77.96C132.148 79.4 128.415 80.12 124.095 80.12ZM119.215 88.28V13.72H128.815V88.28L119.215 88.28Z"/>
</mask>
<path d="M3.36 79L3.36 72.28C3.36 68.3867 4 65.16 5.28 62.6C6.56 59.9867 8.4 57.8533 10.8 56.2C13.2533 54.4933 16.24 53.1067 19.76 52.04L25.12 50.36C27.0933 49.72 28.7467 48.9467 30.08 48.04C31.4133 47.08 32.4267 45.9333 33.12 44.6C33.8667 43.2667 34.24 41.7467 34.24 40.04V39.72C34.24 37.0533 33.3333 34.9467 31.52 33.4C29.7067 31.8 27.2267 31 24.08 31C20.9867 31 18.48 31.8533 16.56 33.56C14.6933 35.2133 13.76 37.6133 13.76 40.76V42.2H3.52V40.92C3.52 36.8667 4.42667 33.4267 6.24 30.6C8.05333 27.7733 10.5067 25.6133 13.6 24.12C16.7467 22.6267 20.24 21.88 24.08 21.88C27.92 21.88 31.3867 22.6267 34.48 24.12C37.5733 25.56 40 27.6133 41.76 30.28C43.5733 32.8933 44.48 35.9867 44.48 39.56V40.36C44.48 43.9333 43.7333 46.9733 42.24 49.48C40.8 51.9333 38.8267 53.96 36.32 55.56C33.8133 57.1067 30.96 58.3867 27.76 59.4L22.64 61C20.3467 61.6933 18.56 62.4667 17.28 63.32C16 64.12 15.0933 65.0267 14.56 66.04C14.08 67 13.84 68.1733 13.84 69.56V69.88H44V79H3.36ZM73.42 80.12C66.8067 80.12 61.5 78.3067 57.5 74.68C53.5 71 51.5 65.4533 51.5 58.04V43.96C51.5 36.76 53.5 31.2933 57.5 27.56C61.5 23.7733 66.8067 21.88 73.42 21.88C80.0867 21.88 85.3933 23.7733 89.34 27.56C93.34 31.2933 95.34 36.76 95.34 43.96V58.04C95.34 65.4533 93.34 71 89.34 74.68C85.3933 78.3067 80.0867 80.12 73.42 80.12ZM73.42 71C77.42 71 80.3533 69.9067 82.22 67.72C84.14 65.5333 85.1 62.4133 85.1 58.36V43.48C85.1 39.3733 84.0333 36.28 81.9 34.2C79.82 32.0667 76.9933 31 73.42 31C69.74 31 66.86 32.0933 64.78 34.28C62.7533 36.4667 61.74 39.5333 61.74 43.48V58.36C61.74 62.5733 62.7 65.7467 64.62 67.88C66.5933 69.96 69.5267 71 73.42 71ZM124.095 80.12C119.775 80.12 115.962 79.3467 112.655 77.8C109.348 76.2533 106.762 74.04 104.895 71.16C103.028 68.28 102.095 64.8133 102.095 60.76V58.52H112.495V60.76C112.495 64.12 113.535 66.6533 115.615 68.36C117.695 70.0133 120.522 70.84 124.095 70.84C127.722 70.84 130.415 70.12 132.175 68.68C133.988 67.24 134.895 65.4 134.895 63.16C134.895 61.6133 134.468 60.36 133.615 59.4C132.762 58.44 131.508 57.6667 129.855 57.08C128.202 56.44 126.175 55.8533 123.775 55.32L121.935 54.92C118.095 54.0667 114.788 53 112.015 51.72C109.295 50.3867 107.188 48.6533 105.695 46.52C104.255 44.3867 103.535 41.6133 103.535 38.2C103.535 34.7867 104.335 31.88 105.935 29.48C107.588 27.0267 109.882 25.16 112.815 23.88C115.802 22.5467 119.295 21.88 123.295 21.88C127.295 21.88 130.842 22.5733 133.935 23.96C137.082 25.2933 139.535 27.32 141.295 30.04C143.108 32.7067 144.015 36.0667 144.015 40.12V42.52H133.615V40.12C133.615 37.9867 133.188 36.28 132.335 35C131.535 33.6667 130.362 32.7067 128.815 32.12C127.268 31.48 125.428 31.16 123.295 31.16C120.095 31.16 117.722 31.7733 116.175 33C114.682 34.1733 113.935 35.8 113.935 37.88C113.935 39.2667 114.282 40.44 114.975 41.4C115.722 42.36 116.815 43.16 118.255 43.8C119.695 44.44 121.535 45 123.775 45.48L125.615 45.88C129.615 46.7333 133.082 47.8267 136.015 49.16C138.948 50.4933 141.215 52.2533 142.815 54.44C144.468 56.6267 145.295 59.4267 145.295 62.84C145.295 66.2533 144.415 69.2667 142.655 71.88C140.948 74.44 138.495 76.4667 135.295 77.96C132.148 79.4 128.415 80.12 124.095 80.12ZM119.215 88.28V13.72H128.815V88.28L119.215 88.28Z" fill="#AEEFFF"/>
<path d="M3.36 79H2.36V80H3.36V79ZM5.28 62.6L6.17446 63.0472L6.17806 63.0399L5.28 62.6ZM10.8 56.2L11.3673 57.0235L11.3711 57.0209L10.8 56.2ZM19.76 52.04L20.05 52.9971L20.0591 52.9942L19.76 52.04ZM25.12 50.36L25.4191 51.3143L25.4285 51.3112L25.12 50.36ZM30.08 48.04L30.6423 48.8669L30.6534 48.8594L30.6643 48.8515L30.08 48.04ZM33.12 44.6L32.2475 44.1114L32.2399 44.1249L32.2328 44.1386L33.12 44.6ZM31.52 33.4L30.8584 34.1498L30.8647 34.1554L30.8711 34.1608L31.52 33.4ZM16.56 33.56L17.223 34.3086L17.2244 34.3074L16.56 33.56ZM13.76 42.2V43.2H14.76V42.2H13.76ZM3.52 42.2H2.52V43.2H3.52V42.2ZM6.24 30.6L7.08169 31.14L7.08169 31.14L6.24 30.6ZM13.6 24.12L13.1712 23.2166L13.1653 23.2194L13.6 24.12ZM34.48 24.12L34.0452 25.0206L34.058 25.0266L34.48 24.12ZM41.76 30.28L40.9254 30.8308L40.9318 30.8405L40.9384 30.8501L41.76 30.28ZM42.24 49.48L41.3809 48.9682L41.3776 48.9738L42.24 49.48ZM36.32 55.56L36.8451 56.411L36.8516 56.407L36.858 56.4029L36.32 55.56ZM27.76 59.4L28.0583 60.3545L28.0619 60.3533L27.76 59.4ZM22.64 61L22.9294 61.9573L22.9383 61.9545L22.64 61ZM17.28 63.32L17.81 64.168L17.8225 64.1602L17.8347 64.152L17.28 63.32ZM14.56 66.04L13.6751 65.5743L13.6702 65.5835L13.6656 65.5928L14.56 66.04ZM13.84 69.88H12.84V70.88H13.84V69.88ZM44 69.88H45V68.88H44V69.88ZM44 79V80H45V79H44ZM4.36 79V72.28H2.36L2.36 79H4.36ZM4.36 72.28C4.36 68.4888 4.98423 65.4276 6.17443 63.0472L4.38557 62.1528C3.01577 64.8924 2.36 68.2845 2.36 72.28H4.36ZM6.17806 63.0399C7.38244 60.5809 9.10843 58.5796 11.3673 57.0235L10.2327 55.3765C7.69157 57.127 5.73756 59.3924 4.38194 62.1601L6.17806 63.0399ZM11.3711 57.0209C13.7212 55.386 16.608 54.04 20.05 52.997L19.47 51.083C15.872 52.1733 12.7854 53.6007 10.2289 55.3791L11.3711 57.0209ZM20.0591 52.9942L25.4191 51.3142L24.8209 49.4058L19.4609 51.0858L20.0591 52.9942ZM25.4285 51.3112C27.4675 50.6499 29.212 49.8395 30.6423 48.8669L29.5177 47.2131C28.2813 48.0538 26.7191 48.7901 24.8115 49.4088L25.4285 51.3112ZM30.6643 48.8515C32.1126 47.8088 33.2351 46.5461 34.0072 45.0614L32.2328 44.1386C31.6182 45.3206 30.7141 46.3512 29.4957 47.2285L30.6643 48.8515ZM33.9925 45.0886C34.8322 43.5892 35.24 41.8974 35.24 40.04H33.24C33.24 41.596 32.9011 42.9442 32.2475 44.1114L33.9925 45.0886ZM35.24 40.04V39.72H33.24V40.04H35.24ZM35.24 39.72C35.24 36.7996 34.2331 34.3998 32.1689 32.6392L30.8711 34.1608C32.4335 35.4935 33.24 37.307 33.24 39.72H35.24ZM32.1816 32.6502C30.1362 30.8454 27.3953 30 24.08 30V32C27.0581 32 29.2771 32.7546 30.8584 34.1498L32.1816 32.6502ZM24.08 30C20.7943 30 18.0345 30.9114 15.8956 32.8126L17.2244 34.3074C18.9255 32.7953 21.1791 32 24.08 32V30ZM15.897 32.8114C13.7623 34.7021 12.76 37.4076 12.76 40.76H14.76C14.76 37.8191 15.6243 35.7246 17.223 34.3086L15.897 32.8114ZM12.76 40.76V42.2H14.76V40.76H12.76ZM13.76 41.2H3.52V43.2H13.76V41.2ZM4.52 42.2V40.92H2.52V42.2H4.52ZM4.52 40.92C4.52 37.0181 5.39138 33.7749 7.08169 31.14L5.39831 30.06C3.46196 33.0785 2.52 36.7152 2.52 40.92H4.52ZM7.08169 31.14C8.79292 28.4725 11.1038 26.4355 14.0347 25.0205L13.1653 23.2194C9.90957 24.7912 7.31375 27.0742 5.39831 30.06L7.08169 31.14ZM14.0287 25.0234C17.0282 23.6 20.3729 22.88 24.08 22.88V20.88C20.1071 20.88 16.4651 21.6534 13.1713 23.2166L14.0287 25.0234ZM24.08 22.88C27.7874 22.88 31.1028 23.6 34.0453 25.0205L34.9148 23.2194C31.6706 21.6533 28.0527 20.88 24.08 20.88V22.88ZM34.058 25.0266C36.9954 26.394 39.2743 28.3292 40.9254 30.8308L42.5946 29.7292C40.7257 26.8974 38.1513 24.726 34.902 23.2134L34.058 25.0266ZM40.9384 30.8501C42.6215 33.2757 43.48 36.1643 43.48 39.56H45.48C45.48 35.809 44.5251 32.5109 42.5816 29.7099L40.9384 30.8501ZM43.48 39.56V40.36H45.48V39.56H43.48ZM43.48 40.36C43.48 43.7935 42.7633 46.6477 41.3809 48.9682L43.0991 49.9918C44.7033 47.299 45.48 44.0731 45.48 40.36H43.48ZM41.3776 48.9738C40.0212 51.2846 38.1617 53.1981 35.782 54.7171L36.858 56.4029C39.4917 54.7219 41.5788 52.5821 43.1024 49.9862L41.3776 48.9738ZM35.7949 54.709C33.3671 56.207 30.5905 57.4547 27.4581 58.4467L28.0619 60.3533C31.3295 59.3186 34.2596 58.0064 36.8451 56.411L35.7949 54.709ZM27.4617 58.4455L22.3417 60.0455L22.9383 61.9545L28.0583 60.3545L27.4617 58.4455ZM22.3506 60.0428C20.0094 60.7506 18.1194 61.5586 16.7253 62.4879L17.8347 64.152C19.0006 63.3748 20.6839 62.6361 22.9294 61.9572L22.3506 60.0428ZM16.75 62.472C15.3663 63.3368 14.313 64.3622 13.6751 65.5743L15.4449 66.5057C15.8736 65.6912 16.6337 64.9032 17.81 64.168L16.75 62.472ZM13.6656 65.5928C13.0989 66.7261 12.84 68.0619 12.84 69.56H14.84C14.84 68.2848 15.0611 67.2739 15.4544 66.4872L13.6656 65.5928ZM12.84 69.56V69.88H14.84V69.56H12.84ZM13.84 70.88H44V68.88H13.84V70.88ZM43 69.88V79H45V69.88H43ZM44 78H3.36V80H44V78ZM57.5 74.68L56.8229 75.416L56.8283 75.4208L57.5 74.68ZM57.5 27.56L58.1823 28.2911L58.1875 28.2862L57.5 27.56ZM89.34 27.56L88.6476 28.2816L88.6577 28.2911L89.34 27.56ZM89.34 74.68L90.0166 75.4163L90.0171 75.4159L89.34 74.68ZM82.22 67.72L81.4685 67.0601L81.4594 67.0707L82.22 67.72ZM81.9 34.2L81.184 34.8981L81.1928 34.9072L81.2019 34.916L81.9 34.2ZM64.78 34.28L64.0554 33.5907L64.0466 33.6002L64.78 34.28ZM64.62 67.88L63.8767 68.549L63.8855 68.5587L63.8945 68.5683L64.62 67.88ZM73.42 79.12C66.9965 79.12 61.9486 77.3635 58.1717 73.9392L56.8283 75.4208C61.0514 79.2498 66.6169 81.12 73.42 81.12V79.12ZM58.1771 73.9441C54.4496 70.5148 52.5 65.2793 52.5 58.04H50.5C50.5 65.6273 52.5504 71.4852 56.8229 75.4159L58.1771 73.9441ZM52.5 58.04V43.96H50.5V58.04H52.5ZM52.5 43.96C52.5 36.9453 54.4436 31.7806 58.1823 28.2911L56.8177 26.8289C52.5564 30.8061 50.5 36.5747 50.5 43.96H52.5ZM58.1875 28.2862C61.9657 24.7095 67.0079 22.88 73.42 22.88V20.88C66.6054 20.88 61.0343 22.8371 56.8125 26.8338L58.1875 28.2862ZM73.42 22.88C79.8884 22.88 84.9263 24.7111 88.6477 28.2816L90.0323 26.8384C85.8604 22.8356 80.2849 20.88 73.42 20.88V22.88ZM88.6577 28.2911C92.3964 31.7806 94.34 36.9453 94.34 43.96H96.34C96.34 36.5747 94.2836 30.8061 90.0223 26.8289L88.6577 28.2911ZM94.34 43.96V58.04H96.34V43.96H94.34ZM94.34 58.04C94.34 65.2793 92.3905 70.5148 88.6629 73.9441L90.0171 75.4159C94.2896 71.4852 96.34 65.6273 96.34 58.04H94.34ZM88.6634 73.9437C84.9434 77.362 79.8999 79.12 73.42 79.12V81.12C80.2735 81.12 85.8433 79.2513 90.0166 75.4163L88.6634 73.9437ZM73.42 72C77.5931 72 80.858 70.8557 82.9806 68.3693L81.4594 67.0707C79.8486 68.9577 77.2469 70 73.42 70V72ZM82.9714 68.3798C85.1049 65.95 86.1 62.561 86.1 58.36H84.1C84.1 62.2657 83.1751 65.1167 81.4686 67.0602L82.9714 68.3798ZM86.1 58.36V43.48H84.1V58.36H86.1ZM86.1 43.48C86.1 39.2082 84.9883 35.8144 82.5981 33.484L81.2019 34.916C83.0784 36.7456 84.1 39.5384 84.1 43.48H86.1ZM82.616 33.5019C80.311 31.1378 77.2052 30 73.42 30V32C76.7815 32 79.329 32.9956 81.184 34.8981L82.616 33.5019ZM73.42 30C69.5306 30 66.3645 31.1633 64.0554 33.5908L65.5046 34.9692C67.3555 33.0233 69.9494 32 73.42 32V30ZM64.0466 33.6002C61.7991 36.0251 60.74 39.3648 60.74 43.48H62.74C62.74 39.7018 63.7075 36.9082 65.5134 34.9598L64.0466 33.6002ZM60.74 43.48V58.36H62.74V43.48H60.74ZM60.74 58.36C60.74 62.7069 61.7287 66.1623 63.8767 68.549L65.3633 67.211C63.6713 65.3311 62.74 62.4398 62.74 58.36H60.74ZM63.8945 68.5683C66.1168 70.9106 69.3539 72 73.42 72V70C69.6994 70 67.0699 69.0094 65.3455 67.1917L63.8945 68.5683ZM112.655 77.8L112.231 78.7058L112.231 78.7058L112.655 77.8ZM104.895 71.16L105.734 70.6161L105.734 70.6161L104.895 71.16ZM102.095 58.52V57.52H101.095V58.52H102.095ZM112.495 58.52H113.495V57.52H112.495V58.52ZM115.615 68.36L114.981 69.1331L114.987 69.138L114.993 69.1428L115.615 68.36ZM132.175 68.68L131.553 67.8969L131.547 67.9014L131.542 67.906L132.175 68.68ZM133.615 59.4L132.868 60.0644L132.868 60.0644L133.615 59.4ZM129.855 57.08L129.494 58.0126L129.507 58.0177L129.521 58.0224L129.855 57.08ZM123.775 55.32L123.992 54.3438L123.987 54.3428L123.775 55.32ZM121.935 54.92L121.718 55.8962L121.723 55.8972L121.935 54.92ZM112.015 51.72L111.575 52.6179L111.585 52.6231L111.596 52.628L112.015 51.72ZM105.695 46.52L104.866 47.0795L104.871 47.0865L104.876 47.0935L105.695 46.52ZM105.935 29.48L105.106 28.9211L105.103 28.9253L105.935 29.48ZM112.815 23.88L113.215 24.7966L113.223 24.7931L112.815 23.88ZM133.935 23.96L133.526 24.8725L133.535 24.8767L133.545 24.8808L133.935 23.96ZM141.295 30.04L140.455 30.5832L140.462 30.5928L140.468 30.6023L141.295 30.04ZM144.015 42.52V43.52H145.015V42.52H144.015ZM133.615 42.52H132.615V43.52H133.615V42.52ZM132.335 35L131.478 35.5145L131.49 35.5349L131.503 35.5547L132.335 35ZM128.815 32.12L128.433 33.044L128.446 33.0497L128.46 33.055L128.815 32.12ZM116.175 33L116.793 33.7863L116.796 33.7835L116.175 33ZM114.975 41.4L114.164 41.9855L114.175 41.9999L114.186 42.0139L114.975 41.4ZM118.255 43.8L118.661 42.8862L118.661 42.8862L118.255 43.8ZM123.775 45.48L123.987 44.5028L123.985 44.5022L123.775 45.48ZM125.615 45.88L125.403 46.8572L125.406 46.858L125.615 45.88ZM136.015 49.16L136.429 48.2496L136.429 48.2496L136.015 49.16ZM142.815 54.44L142.008 55.0305L142.013 55.0368L142.017 55.0431L142.815 54.44ZM142.655 71.88L141.826 71.3214L141.823 71.3253L142.655 71.88ZM135.295 77.96L135.711 78.8693L135.718 78.8662L135.295 77.96ZM119.215 88.28H118.215V89.28H119.215V88.28ZM119.215 13.72V12.72H118.215V13.72H119.215ZM128.815 13.72H129.815V12.72H128.815V13.72ZM128.815 88.28V89.28H129.815V88.28H128.815ZM124.095 79.12C119.895 79.12 116.231 78.3685 113.079 76.8942L112.231 78.7058C115.693 80.3249 119.655 81.12 124.095 81.12V79.12ZM113.079 76.8942C109.93 75.4216 107.492 73.3288 105.734 70.6161L104.056 71.7039C106.031 74.7512 108.766 77.0851 112.231 78.7058L113.079 76.8942ZM105.734 70.6161C103.99 67.9255 103.095 64.6558 103.095 60.76H101.095C101.095 64.9708 102.066 68.6345 104.056 71.7039L105.734 70.6161ZM103.095 60.76V58.52H101.095V60.76H103.095ZM102.095 59.52H112.495V57.52H102.095V59.52ZM111.495 58.52V60.76H113.495V58.52H111.495ZM111.495 60.76C111.495 64.3381 112.613 67.1903 114.981 69.1331L116.249 67.5869C114.457 66.1164 113.495 63.9019 113.495 60.76H111.495ZM114.993 69.1428C117.302 70.9785 120.373 71.84 124.095 71.84V69.84C120.67 69.84 118.088 69.0481 116.237 67.5772L114.993 69.1428ZM124.095 71.84C127.824 71.84 130.79 71.1049 132.808 69.454L131.542 67.906C130.04 69.1351 127.619 69.84 124.095 69.84V71.84ZM132.797 69.4631C134.84 67.8408 135.895 65.7168 135.895 63.16H133.895C133.895 65.0832 133.137 66.6392 131.553 67.8969L132.797 69.4631ZM135.895 63.16C135.895 61.4209 135.41 59.9145 134.362 58.7356L132.868 60.0644C133.526 60.8055 133.895 61.8057 133.895 63.16H135.895ZM134.362 58.7356C133.364 57.6119 131.946 56.7609 130.189 56.1376L129.521 58.0224C131.071 58.5724 132.16 59.2681 132.868 60.0644L134.362 58.7356ZM130.216 56.1474C128.502 55.4839 126.424 54.8842 123.992 54.3438L123.558 56.2962C125.926 56.8225 127.902 57.3961 129.494 58.0126L130.216 56.1474ZM123.987 54.3428L122.147 53.9428L121.723 55.8972L123.563 56.2972L123.987 54.3428ZM122.152 53.9438C118.363 53.1018 115.127 52.055 112.434 50.812L111.596 52.628C114.449 53.945 117.827 55.0316 121.718 55.8962L122.152 53.9438ZM112.455 50.8221C109.862 49.5509 107.896 47.9203 106.514 45.9465L104.876 47.0935C106.481 49.3863 108.728 51.2224 111.575 52.6179L112.455 50.8221ZM106.524 45.9605C105.226 44.0385 104.535 41.4779 104.535 38.2H102.535C102.535 41.7488 103.284 44.7348 104.866 47.0795L106.524 45.9605ZM104.535 38.2C104.535 34.9472 105.295 32.2422 106.767 30.0347L105.103 28.9253C103.375 31.5178 102.535 34.6261 102.535 38.2H104.535ZM106.764 30.0389C108.303 27.756 110.441 26.007 113.215 24.7965L112.415 22.9635C109.322 24.313 106.874 26.2973 105.106 28.9211L106.764 30.0389ZM113.223 24.7931C116.056 23.5283 119.405 22.88 123.295 22.88V20.88C119.185 20.88 115.548 21.565 112.407 22.9669L113.223 24.7931ZM123.295 22.88C127.179 22.88 130.582 23.553 133.526 24.8725L134.344 23.0475C131.101 21.5937 127.411 20.88 123.295 20.88V22.88ZM133.545 24.8808C136.518 26.1406 138.81 28.0407 140.455 30.5832L142.135 29.4967C140.26 26.5993 137.645 24.4461 134.325 23.0392L133.545 24.8808ZM140.468 30.6023C142.143 33.065 143.015 36.2156 143.015 40.12H145.015C145.015 35.9177 144.074 32.3483 142.122 29.4777L140.468 30.6023ZM143.015 40.12V42.52H145.015V40.12H143.015ZM144.015 41.52H133.615V43.52H144.015V41.52ZM134.615 42.52V40.12H132.615V42.52H134.615ZM134.615 40.12C134.615 37.863 134.165 35.9418 133.167 34.4453L131.503 35.5547C132.212 36.6182 132.615 38.1103 132.615 40.12H134.615ZM133.192 34.4855C132.269 32.9467 130.912 31.8459 129.17 31.185L128.46 33.055C129.811 33.5674 130.801 34.3866 131.478 35.5145L133.192 34.4855ZM129.197 31.196C127.501 30.4941 125.525 30.16 123.295 30.16V32.16C125.332 32.16 127.036 32.4659 128.433 33.044L129.197 31.196ZM123.295 30.16C119.999 30.16 117.357 30.786 115.554 32.2165L116.796 33.7835C118.086 32.7607 120.191 32.16 123.295 32.16V30.16ZM115.557 32.2137C113.797 33.5964 112.935 35.5266 112.935 37.88H114.935C114.935 36.0734 115.566 34.7503 116.793 33.7863L115.557 32.2137ZM112.935 37.88C112.935 39.4398 113.328 40.8273 114.164 41.9855L115.786 40.8145C115.235 40.0527 114.935 39.0935 114.935 37.88H112.935ZM114.186 42.0139C115.059 43.1367 116.302 44.0261 117.849 44.7138L118.661 42.8862C117.328 42.2939 116.384 41.5833 115.764 40.7861L114.186 42.0139ZM117.849 44.7138C119.373 45.3914 121.285 45.9692 123.565 46.4578L123.985 44.5022C121.785 44.0308 120.017 43.4886 118.661 42.8862L117.849 44.7138ZM123.563 46.4572L125.403 46.8572L125.827 44.9028L123.987 44.5028L123.563 46.4572ZM125.406 46.858C129.354 47.7001 132.748 48.7736 135.601 50.0704L136.429 48.2496C133.415 46.8797 129.876 45.7666 125.824 44.902L125.406 46.858ZM135.601 50.0704C138.408 51.3461 140.527 53.0066 142.008 55.0305L143.622 53.8495C141.903 51.5001 139.489 49.6406 136.429 48.2496L135.601 50.0704ZM142.017 55.0431C143.51 57.0173 144.295 59.5901 144.295 62.84H146.295C146.295 59.2633 145.427 56.236 143.613 53.8369L142.017 55.0431ZM144.295 62.84C144.295 66.0717 143.465 68.887 141.826 71.3214L143.484 72.4386C145.365 69.6463 146.295 66.435 146.295 62.84H144.295ZM141.823 71.3253C140.232 73.7114 137.931 75.6263 134.872 77.0538L135.718 78.8662C139.059 77.307 141.664 75.1686 143.487 72.4347L141.823 71.3253ZM134.879 77.0507C131.891 78.418 128.306 79.12 124.095 79.12V81.12C128.524 81.12 132.406 80.382 135.711 78.8693L134.879 77.0507ZM120.215 88.28V13.72H118.215V88.28H120.215ZM119.215 14.72H128.815V12.72H119.215V14.72ZM127.815 13.72V88.28L129.815 88.28V13.72H127.815ZM128.815 87.28L119.215 87.28V89.28L128.815 89.28V87.28Z" fill="black" mask="url(#path-2-outside-1_88_10)"/>
</svg>
