<svg width="502.4" height="69" viewBox="0 0 786 108" fill="none" xmlns="http://www.w3.org/2000/svg">
<path d="M25.24 85V38.6H8.92V29H52.12V38.6H35.8V85H25.24ZM59.3112 85V29H83.6313C87.1513 29 90.2179 29.6133 92.8313 30.84C95.4446 32.0667 97.4713 33.8 98.9113 36.04C100.351 38.28 101.071 40.92 101.071 43.96V44.92C101.071 48.28 100.271 51 98.6713 53.08C97.0713 55.16 95.0979 56.68 92.7513 57.64V59.08C94.8846 59.1867 96.5379 59.9333 97.7113 61.32C98.8846 62.6533 99.4713 64.44 99.4713 66.68V85H88.9113V68.2C88.9113 66.92 88.5646 65.88 87.8713 65.08C87.2313 64.28 86.1379 63.88 84.5913 63.88H69.8713V85H59.3112ZM69.8713 54.28H82.5113C85.0179 54.28 86.9646 53.6133 88.3513 52.28C89.7913 50.8933 90.5113 49.08 90.5113 46.84V46.04C90.5113 43.8 89.8179 42.0133 88.4313 40.68C87.0446 39.2933 85.0713 38.6 82.5113 38.6H69.8713V54.28ZM122.852 85V65.72L103.812 29H115.572L127.412 53H128.852L140.692 29H152.452L133.412 65.72V85H122.852ZM199.665 86.12C192.625 86.12 187.025 84.2 182.865 80.36C178.705 76.4667 176.625 70.92 176.625 63.72V50.28C176.625 43.08 178.705 37.56 182.865 33.72C187.025 29.8267 192.625 27.88 199.665 27.88C206.705 27.88 212.305 29.8267 216.465 33.72C220.625 37.56 222.705 43.08 222.705 50.28V63.72C222.705 70.92 220.625 76.4667 216.465 80.36C212.305 84.2 206.705 86.12 199.665 86.12ZM199.665 76.68C203.612 76.68 206.678 75.5333 208.865 73.24C211.052 70.9467 212.145 67.88 212.145 64.04V49.96C212.145 46.12 211.052 43.0533 208.865 40.76C206.678 38.4667 203.612 37.32 199.665 37.32C195.772 37.32 192.705 38.4667 190.465 40.76C188.278 43.0533 187.185 46.12 187.185 49.96V64.04C187.185 67.88 188.278 70.9467 190.465 73.24C192.705 75.5333 195.772 76.68 199.665 76.68ZM253.568 86.12C248.981 86.12 245.034 85.2933 241.728 83.64C238.474 81.9333 235.968 79.5333 234.208 76.44C232.501 73.2933 231.648 69.5867 231.648 65.32V29H242.208V65.64C242.208 69.0533 243.168 71.7467 245.088 73.72C247.061 75.6933 249.888 76.68 253.568 76.68C257.248 76.68 260.048 75.6933 261.968 73.72C263.941 71.7467 264.928 69.0533 264.928 65.64V29H275.488V65.32C275.488 69.5867 274.608 73.2933 272.848 76.44C271.141 79.5333 268.634 81.9333 265.328 83.64C262.074 85.2933 258.154 86.12 253.568 86.12ZM285.717 85V29H310.038C313.558 29 316.624 29.6133 319.238 30.84C321.851 32.0667 323.878 33.8 325.318 36.04C326.758 38.28 327.477 40.92 327.477 43.96V44.92C327.477 48.28 326.678 51 325.078 53.08C323.478 55.16 321.504 56.68 319.158 57.64V59.08C321.291 59.1867 322.944 59.9333 324.118 61.32C325.291 62.6533 325.878 64.44 325.878 66.68V85H315.318V68.2C315.318 66.92 314.971 65.88 314.278 65.08C313.638 64.28 312.544 63.88 310.998 63.88H296.278V85H285.717ZM296.278 54.28H308.918C311.424 54.28 313.371 53.6133 314.758 52.28C316.198 50.8933 316.918 49.08 316.918 46.84V46.04C316.918 43.8 316.224 42.0133 314.838 40.68C313.451 39.2933 311.478 38.6 308.918 38.6H296.278V54.28ZM354.977 85V75.72H362.337V38.28H354.977V29H378.017C385.537 29 391.244 30.92 395.137 34.76C399.084 38.5467 401.057 44.2 401.057 51.72V62.28C401.057 69.8 399.084 75.48 395.137 79.32C391.244 83.1067 385.537 85 378.017 85H354.977ZM372.897 75.4H378.177C382.444 75.4 385.564 74.28 387.537 72.04C389.51 69.8 390.497 66.6533 390.497 62.6V51.4C390.497 47.2933 389.51 44.1467 387.537 41.96C385.564 39.72 382.444 38.6 378.177 38.6H372.897V75.4ZM409.858 85V29H445.858V38.6H420.418V51.96H443.618V61.56H420.418V75.4H446.338V85H409.858ZM454.155 85V29H473.755L483.435 77.8H484.875L494.555 29H514.155V85H503.915V36.76H502.475L492.875 85H475.435L465.835 36.76H464.395V85H454.155ZM546.462 86.12C539.422 86.12 533.822 84.2 529.662 80.36C525.502 76.4667 523.422 70.92 523.422 63.72V50.28C523.422 43.08 525.502 37.56 529.662 33.72C533.822 29.8267 539.422 27.88 546.462 27.88C553.502 27.88 559.102 29.8267 563.262 33.72C567.422 37.56 569.502 43.08 569.502 50.28V63.72C569.502 70.92 567.422 76.4667 563.262 80.36C559.102 84.2 553.502 86.12 546.462 86.12ZM546.462 76.68C550.409 76.68 553.475 75.5333 555.662 73.24C557.849 70.9467 558.942 67.88 558.942 64.04V49.96C558.942 46.12 557.849 43.0533 555.662 40.76C553.475 38.4667 550.409 37.32 546.462 37.32C542.569 37.32 539.502 38.4667 537.262 40.76C535.075 43.0533 533.982 46.12 533.982 49.96V64.04C533.982 67.88 535.075 70.9467 537.262 73.24C539.502 75.5333 542.569 76.68 546.462 76.68ZM599.077 85V29H609.637V52.12H630.437V29H640.997V85H630.437V61.72H609.637V85H599.077ZM651.577 85V29H687.577V38.6H662.137V51.96H685.337V61.56H662.137V75.4H688.057V85H651.577ZM695.874 85V29H720.194C723.714 29 726.78 29.6133 729.394 30.84C732.007 32.0667 734.034 33.8 735.474 36.04C736.914 38.28 737.634 40.92 737.634 43.96V44.92C737.634 48.28 736.834 51 735.234 53.08C733.634 55.16 731.66 56.68 729.314 57.64V59.08C731.447 59.1867 733.1 59.9333 734.274 61.32C735.447 62.6533 736.034 64.44 736.034 66.68V85H725.474V68.2C725.474 66.92 725.127 65.88 724.434 65.08C723.794 64.28 722.7 63.88 721.154 63.88H706.434V85H695.874ZM706.434 54.28H719.074C721.58 54.28 723.527 53.6133 724.914 52.28C726.354 50.8933 727.074 49.08 727.074 46.84V46.04C727.074 43.8 726.38 42.0133 724.994 40.68C723.607 39.2933 721.634 38.6 719.074 38.6H706.434V54.28ZM746.421 85V29H782.421V38.6H756.981V51.96H780.181V61.56H756.981V75.4H782.901V85H746.421Z" fill="black"/>
<mask id="path-2-outside-1_64_12" maskUnits="userSpaceOnUse" x="0" y="20" width="777" height="62" fill="black">
<rect fill="white" y="20" width="777" height="62"/>
<path d="M18.24 79V32.6H1.92V23H45.12V32.6H28.8V79H18.24ZM52.3112 79V23H76.6313C80.1513 23 83.2179 23.6133 85.8313 24.84C88.4446 26.0667 90.4713 27.8 91.9113 30.04C93.3513 32.28 94.0712 34.92 94.0712 37.96V38.92C94.0712 42.28 93.2713 45 91.6713 47.08C90.0713 49.16 88.0979 50.68 85.7513 51.64V53.08C87.8846 53.1867 89.5379 53.9333 90.7113 55.32C91.8846 56.6533 92.4713 58.44 92.4713 60.68V79H81.9113V62.2C81.9113 60.92 81.5646 59.88 80.8713 59.08C80.2313 58.28 79.1379 57.88 77.5913 57.88H62.8713V79H52.3112ZM62.8713 48.28H75.5113C78.0179 48.28 79.9646 47.6133 81.3513 46.28C82.7913 44.8933 83.5113 43.08 83.5113 40.84V40.04C83.5113 37.8 82.8179 36.0133 81.4313 34.68C80.0446 33.2933 78.0713 32.6 75.5113 32.6H62.8713V48.28ZM115.852 79V59.72L96.8119 23H108.572L120.412 47H121.852L133.692 23H145.452L126.412 59.72V79H115.852ZM192.665 80.12C185.625 80.12 180.025 78.2 175.865 74.36C171.705 70.4667 169.625 64.92 169.625 57.72V44.28C169.625 37.08 171.705 31.56 175.865 27.72C180.025 23.8267 185.625 21.88 192.665 21.88C199.705 21.88 205.305 23.8267 209.465 27.72C213.625 31.56 215.705 37.08 215.705 44.28V57.72C215.705 64.92 213.625 70.4667 209.465 74.36C205.305 78.2 199.705 80.12 192.665 80.12ZM192.665 70.68C196.612 70.68 199.678 69.5333 201.865 67.24C204.052 64.9467 205.145 61.88 205.145 58.04V43.96C205.145 40.12 204.052 37.0533 201.865 34.76C199.678 32.4667 196.612 31.32 192.665 31.32C188.772 31.32 185.705 32.4667 183.465 34.76C181.278 37.0533 180.185 40.12 180.185 43.96V58.04C180.185 61.88 181.278 64.9467 183.465 67.24C185.705 69.5333 188.772 70.68 192.665 70.68ZM246.568 80.12C241.981 80.12 238.034 79.2933 234.728 77.64C231.474 75.9333 228.968 73.5333 227.208 70.44C225.501 67.2933 224.648 63.5867 224.648 59.32V23H235.208V59.64C235.208 63.0533 236.168 65.7467 238.088 67.72C240.061 69.6933 242.888 70.68 246.568 70.68C250.248 70.68 253.048 69.6933 254.968 67.72C256.941 65.7467 257.928 63.0533 257.928 59.64V23H268.488V59.32C268.488 63.5867 267.608 67.2933 265.848 70.44C264.141 73.5333 261.634 75.9333 258.328 77.64C255.074 79.2933 251.154 80.12 246.568 80.12ZM278.717 79V23H303.038C306.558 23 309.624 23.6133 312.238 24.84C314.851 26.0667 316.878 27.8 318.318 30.04C319.758 32.28 320.477 34.92 320.477 37.96V38.92C320.477 42.28 319.678 45 318.078 47.08C316.478 49.16 314.504 50.68 312.158 51.64V53.08C314.291 53.1867 315.944 53.9333 317.118 55.32C318.291 56.6533 318.878 58.44 318.878 60.68V79H308.318V62.2C308.318 60.92 307.971 59.88 307.278 59.08C306.638 58.28 305.544 57.88 303.998 57.88H289.278V79H278.717ZM289.278 48.28H301.918C304.424 48.28 306.371 47.6133 307.758 46.28C309.198 44.8933 309.918 43.08 309.918 40.84V40.04C309.918 37.8 309.224 36.0133 307.838 34.68C306.451 33.2933 304.478 32.6 301.918 32.6H289.278V48.28ZM347.977 79V69.72H355.337V32.28H347.977V23H371.017C378.537 23 384.244 24.92 388.137 28.76C392.084 32.5467 394.057 38.2 394.057 45.72V56.28C394.057 63.8 392.084 69.48 388.137 73.32C384.244 77.1067 378.537 79 371.017 79H347.977ZM365.897 69.4H371.177C375.444 69.4 378.564 68.28 380.537 66.04C382.51 63.8 383.497 60.6533 383.497 56.6V45.4C383.497 41.2933 382.51 38.1467 380.537 35.96C378.564 33.72 375.444 32.6 371.177 32.6H365.897V69.4ZM402.858 79V23H438.858V32.6H413.418V45.96H436.618V55.56H413.418V69.4H439.338V79H402.858ZM447.155 79V23H466.755L476.435 71.8H477.875L487.555 23H507.155V79H496.915V30.76H495.475L485.875 79H468.435L458.835 30.76H457.395V79H447.155ZM539.462 80.12C532.422 80.12 526.822 78.2 522.662 74.36C518.502 70.4667 516.422 64.92 516.422 57.72V44.28C516.422 37.08 518.502 31.56 522.662 27.72C526.822 23.8267 532.422 21.88 539.462 21.88C546.502 21.88 552.102 23.8267 556.262 27.72C560.422 31.56 562.502 37.08 562.502 44.28V57.72C562.502 64.92 560.422 70.4667 556.262 74.36C552.102 78.2 546.502 80.12 539.462 80.12ZM539.462 70.68C543.409 70.68 546.475 69.5333 548.662 67.24C550.849 64.9467 551.942 61.88 551.942 58.04V43.96C551.942 40.12 550.849 37.0533 548.662 34.76C546.475 32.4667 543.409 31.32 539.462 31.32C535.569 31.32 532.502 32.4667 530.262 34.76C528.075 37.0533 526.982 40.12 526.982 43.96V58.04C526.982 61.88 528.075 64.9467 530.262 67.24C532.502 69.5333 535.569 70.68 539.462 70.68Z"/>
<path d="M592.077 79V23H602.637V46.12H623.437V23H633.997V79H623.437V55.72H602.637V79H592.077ZM644.577 79V23H680.577V32.6H655.137V45.96H678.337V55.56H655.137V69.4H681.057V79H644.577ZM688.874 79V23H713.194C716.714 23 719.78 23.6133 722.394 24.84C725.007 26.0667 727.034 27.8 728.474 30.04C729.914 32.28 730.634 34.92 730.634 37.96V38.92C730.634 42.28 729.834 45 728.234 47.08C726.634 49.16 724.66 50.68 722.314 51.64V53.08C724.447 53.1867 726.1 53.9333 727.274 55.32C728.447 56.6533 729.034 58.44 729.034 60.68V79H718.474V62.2C718.474 60.92 718.127 59.88 717.434 59.08C716.794 58.28 715.7 57.88 714.154 57.88H699.434V79H688.874ZM699.434 48.28H712.074C714.58 48.28 716.527 47.6133 717.914 46.28C719.354 44.8933 720.074 43.08 720.074 40.84V40.04C720.074 37.8 719.38 36.0133 717.994 34.68C716.607 33.2933 714.634 32.6 712.074 32.6H699.434V48.28ZM739.421 79V23H775.421V32.6H749.981V45.96H773.181V55.56H749.981V69.4H775.901V79H739.421Z"/>
</mask>
<path d="M18.24 79V32.6H1.92V23H45.12V32.6H28.8V79H18.24ZM52.3112 79V23H76.6313C80.1513 23 83.2179 23.6133 85.8313 24.84C88.4446 26.0667 90.4713 27.8 91.9113 30.04C93.3513 32.28 94.0712 34.92 94.0712 37.96V38.92C94.0712 42.28 93.2713 45 91.6713 47.08C90.0713 49.16 88.0979 50.68 85.7513 51.64V53.08C87.8846 53.1867 89.5379 53.9333 90.7113 55.32C91.8846 56.6533 92.4713 58.44 92.4713 60.68V79H81.9113V62.2C81.9113 60.92 81.5646 59.88 80.8713 59.08C80.2313 58.28 79.1379 57.88 77.5913 57.88H62.8713V79H52.3112ZM62.8713 48.28H75.5113C78.0179 48.28 79.9646 47.6133 81.3513 46.28C82.7913 44.8933 83.5113 43.08 83.5113 40.84V40.04C83.5113 37.8 82.8179 36.0133 81.4313 34.68C80.0446 33.2933 78.0713 32.6 75.5113 32.6H62.8713V48.28ZM115.852 79V59.72L96.8119 23H108.572L120.412 47H121.852L133.692 23H145.452L126.412 59.72V79H115.852ZM192.665 80.12C185.625 80.12 180.025 78.2 175.865 74.36C171.705 70.4667 169.625 64.92 169.625 57.72V44.28C169.625 37.08 171.705 31.56 175.865 27.72C180.025 23.8267 185.625 21.88 192.665 21.88C199.705 21.88 205.305 23.8267 209.465 27.72C213.625 31.56 215.705 37.08 215.705 44.28V57.72C215.705 64.92 213.625 70.4667 209.465 74.36C205.305 78.2 199.705 80.12 192.665 80.12ZM192.665 70.68C196.612 70.68 199.678 69.5333 201.865 67.24C204.052 64.9467 205.145 61.88 205.145 58.04V43.96C205.145 40.12 204.052 37.0533 201.865 34.76C199.678 32.4667 196.612 31.32 192.665 31.32C188.772 31.32 185.705 32.4667 183.465 34.76C181.278 37.0533 180.185 40.12 180.185 43.96V58.04C180.185 61.88 181.278 64.9467 183.465 67.24C185.705 69.5333 188.772 70.68 192.665 70.68ZM246.568 80.12C241.981 80.12 238.034 79.2933 234.728 77.64C231.474 75.9333 228.968 73.5333 227.208 70.44C225.501 67.2933 224.648 63.5867 224.648 59.32V23H235.208V59.64C235.208 63.0533 236.168 65.7467 238.088 67.72C240.061 69.6933 242.888 70.68 246.568 70.68C250.248 70.68 253.048 69.6933 254.968 67.72C256.941 65.7467 257.928 63.0533 257.928 59.64V23H268.488V59.32C268.488 63.5867 267.608 67.2933 265.848 70.44C264.141 73.5333 261.634 75.9333 258.328 77.64C255.074 79.2933 251.154 80.12 246.568 80.12ZM278.717 79V23H303.038C306.558 23 309.624 23.6133 312.238 24.84C314.851 26.0667 316.878 27.8 318.318 30.04C319.758 32.28 320.477 34.92 320.477 37.96V38.92C320.477 42.28 319.678 45 318.078 47.08C316.478 49.16 314.504 50.68 312.158 51.64V53.08C314.291 53.1867 315.944 53.9333 317.118 55.32C318.291 56.6533 318.878 58.44 318.878 60.68V79H308.318V62.2C308.318 60.92 307.971 59.88 307.278 59.08C306.638 58.28 305.544 57.88 303.998 57.88H289.278V79H278.717ZM289.278 48.28H301.918C304.424 48.28 306.371 47.6133 307.758 46.28C309.198 44.8933 309.918 43.08 309.918 40.84V40.04C309.918 37.8 309.224 36.0133 307.838 34.68C306.451 33.2933 304.478 32.6 301.918 32.6H289.278V48.28ZM347.977 79V69.72H355.337V32.28H347.977V23H371.017C378.537 23 384.244 24.92 388.137 28.76C392.084 32.5467 394.057 38.2 394.057 45.72V56.28C394.057 63.8 392.084 69.48 388.137 73.32C384.244 77.1067 378.537 79 371.017 79H347.977ZM365.897 69.4H371.177C375.444 69.4 378.564 68.28 380.537 66.04C382.51 63.8 383.497 60.6533 383.497 56.6V45.4C383.497 41.2933 382.51 38.1467 380.537 35.96C378.564 33.72 375.444 32.6 371.177 32.6H365.897V69.4ZM402.858 79V23H438.858V32.6H413.418V45.96H436.618V55.56H413.418V69.4H439.338V79H402.858ZM447.155 79V23H466.755L476.435 71.8H477.875L487.555 23H507.155V79H496.915V30.76H495.475L485.875 79H468.435L458.835 30.76H457.395V79H447.155ZM539.462 80.12C532.422 80.12 526.822 78.2 522.662 74.36C518.502 70.4667 516.422 64.92 516.422 57.72V44.28C516.422 37.08 518.502 31.56 522.662 27.72C526.822 23.8267 532.422 21.88 539.462 21.88C546.502 21.88 552.102 23.8267 556.262 27.72C560.422 31.56 562.502 37.08 562.502 44.28V57.72C562.502 64.92 560.422 70.4667 556.262 74.36C552.102 78.2 546.502 80.12 539.462 80.12ZM539.462 70.68C543.409 70.68 546.475 69.5333 548.662 67.24C550.849 64.9467 551.942 61.88 551.942 58.04V43.96C551.942 40.12 550.849 37.0533 548.662 34.76C546.475 32.4667 543.409 31.32 539.462 31.32C535.569 31.32 532.502 32.4667 530.262 34.76C528.075 37.0533 526.982 40.12 526.982 43.96V58.04C526.982 61.88 528.075 64.9467 530.262 67.24C532.502 69.5333 535.569 70.68 539.462 70.68Z" fill="#68CABF"/>
<path d="M592.077 79V23H602.637V46.12H623.437V23H633.997V79H623.437V55.72H602.637V79H592.077ZM644.577 79V23H680.577V32.6H655.137V45.96H678.337V55.56H655.137V69.4H681.057V79H644.577ZM688.874 79V23H713.194C716.714 23 719.78 23.6133 722.394 24.84C725.007 26.0667 727.034 27.8 728.474 30.04C729.914 32.28 730.634 34.92 730.634 37.96V38.92C730.634 42.28 729.834 45 728.234 47.08C726.634 49.16 724.66 50.68 722.314 51.64V53.08C724.447 53.1867 726.1 53.9333 727.274 55.32C728.447 56.6533 729.034 58.44 729.034 60.68V79H718.474V62.2C718.474 60.92 718.127 59.88 717.434 59.08C716.794 58.28 715.7 57.88 714.154 57.88H699.434V79H688.874ZM699.434 48.28H712.074C714.58 48.28 716.527 47.6133 717.914 46.28C719.354 44.8933 720.074 43.08 720.074 40.84V40.04C720.074 37.8 719.38 36.0133 717.994 34.68C716.607 33.2933 714.634 32.6 712.074 32.6H699.434V48.28ZM739.421 79V23H775.421V32.6H749.981V45.96H773.181V55.56H749.981V69.4H775.901V79H739.421Z" fill="#AEEFFF"/>
<path d="M18.24 79H17.24V80H18.24V79ZM18.24 32.6H19.24V31.6H18.24V32.6ZM1.92 32.6H0.92V33.6H1.92V32.6ZM1.92 23V22H0.92V23H1.92ZM45.12 23H46.12V22H45.12V23ZM45.12 32.6V33.6H46.12V32.6H45.12ZM28.8 32.6V31.6H27.8V32.6H28.8ZM28.8 79V80H29.8V79H28.8ZM19.24 79V32.6H17.24V79H19.24ZM18.24 31.6H1.92V33.6H18.24V31.6ZM2.92 32.6V23H0.92V32.6H2.92ZM1.92 24H45.12V22H1.92V24ZM44.12 23V32.6H46.12V23H44.12ZM45.12 31.6H28.8V33.6H45.12V31.6ZM27.8 32.6V79H29.8V32.6H27.8ZM28.8 78H18.24V80H28.8V78ZM52.3112 79H51.3112V80H52.3112V79ZM52.3112 23V22H51.3112V23H52.3112ZM85.8313 24.84L85.4063 25.7452L85.4063 25.7452L85.8313 24.84ZM91.9113 30.04L92.7524 29.4992L92.7524 29.4992L91.9113 30.04ZM91.6713 47.08L92.4639 47.6897L92.4639 47.6897L91.6713 47.08ZM85.7513 51.64L85.3726 50.7145L84.7513 50.9686V51.64H85.7513ZM85.7513 53.08H84.7513V54.0312L85.7013 54.0788L85.7513 53.08ZM90.7113 55.32L89.9479 55.9659L89.9541 55.9733L89.9605 55.9806L90.7113 55.32ZM92.4713 79V80H93.4713V79H92.4713ZM81.9113 79H80.9113V80H81.9113V79ZM80.8713 59.08L80.0904 59.7047L80.1027 59.7201L80.1156 59.7349L80.8713 59.08ZM62.8713 57.88V56.88H61.8713V57.88H62.8713ZM62.8713 79V80H63.8713V79H62.8713ZM62.8713 48.28H61.8713V49.28H62.8713V48.28ZM81.3513 46.28L82.0444 47.0008L82.0449 47.0003L81.3513 46.28ZM81.4313 34.68L80.7241 35.3871L80.7311 35.394L80.7381 35.4008L81.4313 34.68ZM62.8713 32.6V31.6H61.8713V32.6H62.8713ZM53.3112 79V23H51.3112V79H53.3112ZM52.3112 24H76.6313V22H52.3112V24ZM76.6313 24C80.036 24 82.9519 24.5931 85.4063 25.7452L86.2562 23.9348C83.484 22.6335 80.2665 22 76.6313 22V24ZM85.4063 25.7452C87.8643 26.899 89.7403 28.5123 91.0701 30.5808L92.7524 29.4992C91.2022 27.0877 89.0249 25.2344 86.2562 23.9348L85.4063 25.7452ZM91.0701 30.5808C92.3923 32.6375 93.0712 35.0839 93.0712 37.96H95.0712C95.0712 34.7561 94.3102 31.9225 92.7524 29.4992L91.0701 30.5808ZM93.0712 37.96V38.92H95.0712V37.96H93.0712ZM93.0712 38.92C93.0712 42.1219 92.3105 44.6089 90.8786 46.4703L92.4639 47.6897C94.232 45.3911 95.0712 42.4381 95.0712 38.92H93.0712ZM90.8786 46.4703C89.3824 48.4154 87.5499 49.8237 85.3726 50.7145L86.1299 52.5655C88.6459 51.5363 90.7601 49.9046 92.4639 47.6897L90.8786 46.4703ZM84.7513 51.64V53.08H86.7513V51.64H84.7513ZM85.7013 54.0788C87.6112 54.1742 88.9849 54.8278 89.9479 55.9659L91.4746 54.6741C90.091 53.0388 88.158 52.1991 85.8012 52.0812L85.7013 54.0788ZM89.9605 55.9806C90.9346 57.0875 91.4713 58.6176 91.4713 60.68H93.4713C93.4713 58.2624 92.8346 56.2192 91.462 54.6594L89.9605 55.9806ZM91.4713 60.68V79H93.4713V60.68H91.4713ZM92.4713 78H81.9113V80H92.4713V78ZM82.9113 79V62.2H80.9113V79H82.9113ZM82.9113 62.2C82.9113 60.732 82.5092 59.443 81.6269 58.4251L80.1156 59.7349C80.62 60.317 80.9113 61.108 80.9113 62.2H82.9113ZM81.6521 58.4553C80.7417 57.3172 79.2834 56.88 77.5913 56.88V58.88C78.9924 58.88 79.7208 59.2428 80.0904 59.7047L81.6521 58.4553ZM77.5913 56.88H62.8713V58.88H77.5913V56.88ZM61.8713 57.88V79H63.8713V57.88H61.8713ZM62.8713 78H52.3112V80H62.8713V78ZM62.8713 49.28H75.5113V47.28H62.8713V49.28ZM75.5113 49.28C78.1953 49.28 80.4202 48.5625 82.0444 47.0008L80.6581 45.5592C79.509 46.6641 77.8406 47.28 75.5113 47.28V49.28ZM82.0449 47.0003C83.7051 45.4016 84.5113 43.3158 84.5113 40.84H82.5113C82.5113 42.8442 81.8774 44.3851 80.6576 45.5597L82.0449 47.0003ZM84.5113 40.84V40.04H82.5113V40.84H84.5113ZM84.5113 40.04C84.5113 37.5766 83.7396 35.5123 82.1244 33.9592L80.7381 35.4008C81.8962 36.5144 82.5113 38.0234 82.5113 40.04H84.5113ZM82.1384 33.9729C80.5119 32.3465 78.2522 31.6 75.5113 31.6V33.6C77.8903 33.6 79.5772 34.2402 80.7241 35.3871L82.1384 33.9729ZM75.5113 31.6H62.8713V33.6H75.5113V31.6ZM61.8713 32.6V48.28H63.8713V32.6H61.8713ZM115.852 79H114.852V80H115.852V79ZM115.852 59.72H116.852V59.4762L116.74 59.2597L115.852 59.72ZM96.8119 23V22H95.1669L95.9241 23.4603L96.8119 23ZM108.572 23L109.469 22.5576L109.194 22H108.572V23ZM120.412 47L119.515 47.4424L119.79 48H120.412V47ZM121.852 47V48H122.474L122.749 47.4424L121.852 47ZM133.692 23V22H133.07L132.795 22.5576L133.692 23ZM145.452 23L146.34 23.4603L147.097 22H145.452V23ZM126.412 59.72L125.524 59.2597L125.412 59.4762V59.72H126.412ZM126.412 79V80H127.412V79H126.412ZM116.852 79V59.72H114.852V79H116.852ZM116.74 59.2597L97.6996 22.5397L95.9241 23.4603L114.964 60.1803L116.74 59.2597ZM96.8119 24H108.572V22H96.8119V24ZM107.675 23.4424L119.515 47.4424L121.309 46.5576L109.469 22.5576L107.675 23.4424ZM120.412 48H121.852V46H120.412V48ZM122.749 47.4424L134.589 23.4424L132.795 22.5576L120.955 46.5576L122.749 47.4424ZM133.692 24H145.452V22H133.692V24ZM144.564 22.5397L125.524 59.2597L127.3 60.1803L146.34 23.4603L144.564 22.5397ZM125.412 59.72V79H127.412V59.72H125.412ZM126.412 78H115.852V80H126.412V78ZM175.865 74.36L175.182 75.0901L175.187 75.0948L175.865 74.36ZM175.865 27.72L176.543 28.4548L176.548 28.4501L175.865 27.72ZM209.465 27.72L208.782 28.4501L208.787 28.4548L209.465 27.72ZM209.465 74.36L210.143 75.0948L210.148 75.0901L209.465 74.36ZM201.865 67.24L201.141 66.5499L201.141 66.5499L201.865 67.24ZM201.865 34.76L201.141 35.4501L201.141 35.4501L201.865 34.76ZM183.465 34.76L182.75 34.0612L182.741 34.0699L183.465 34.76ZM183.465 67.24L182.741 67.9301L182.75 67.9387L183.465 67.24ZM192.665 79.12C185.812 79.12 180.476 77.2557 176.543 73.6252L175.187 75.0948C179.574 79.1443 185.438 81.12 192.665 81.12V79.12ZM176.548 73.6299C172.641 69.9728 170.625 64.7209 170.625 57.72H168.625C168.625 65.1191 170.769 70.9605 175.182 75.0901L176.548 73.6299ZM170.625 57.72V44.28H168.625V57.72H170.625ZM170.625 44.28C170.625 37.2784 172.641 32.0569 176.543 28.4548L175.187 26.9852C170.769 31.0631 168.625 36.8816 168.625 44.28H170.625ZM176.548 28.4501C180.482 24.7688 185.816 22.88 192.665 22.88V20.88C185.434 20.88 179.568 22.8846 175.182 26.9899L176.548 28.4501ZM192.665 22.88C199.514 22.88 204.848 24.7688 208.782 28.4501L210.148 26.9899C205.762 22.8846 199.896 20.88 192.665 20.88V22.88ZM208.787 28.4548C212.689 32.0569 214.705 37.2784 214.705 44.28H216.705C216.705 36.8816 214.561 31.0631 210.143 26.9852L208.787 28.4548ZM214.705 44.28V57.72H216.705V44.28H214.705ZM214.705 57.72C214.705 64.7209 212.689 69.9728 208.782 73.6299L210.148 75.0901C214.561 70.9605 216.705 65.1191 216.705 57.72H214.705ZM208.787 73.6252C204.854 77.2557 199.518 79.12 192.665 79.12V81.12C199.892 81.12 205.756 79.1443 210.143 75.0948L208.787 73.6252ZM192.665 71.68C196.814 71.68 200.169 70.4677 202.589 67.9301L201.141 66.5499C199.188 68.5989 196.41 69.68 192.665 69.68V71.68ZM202.589 67.9301C204.989 65.4128 206.145 62.0793 206.145 58.04H204.145C204.145 61.6807 203.114 64.4805 201.141 66.5499L202.589 67.9301ZM206.145 58.04V43.96H204.145V58.04H206.145ZM206.145 43.96C206.145 39.9207 204.989 36.5872 202.589 34.0699L201.141 35.4501C203.114 37.5195 204.145 40.3193 204.145 43.96H206.145ZM202.589 34.0699C200.169 31.5323 196.814 30.32 192.665 30.32V32.32C196.41 32.32 199.188 33.4011 201.141 35.4501L202.589 34.0699ZM192.665 30.32C188.564 30.32 185.217 31.5351 182.75 34.0613L184.18 35.4587C186.193 33.3982 188.979 32.32 192.665 32.32V30.32ZM182.741 34.0699C180.341 36.5872 179.185 39.9207 179.185 43.96H181.185C181.185 40.3193 182.216 37.5195 184.189 35.4501L182.741 34.0699ZM179.185 43.96V58.04H181.185V43.96H179.185ZM179.185 58.04C179.185 62.0793 180.341 65.4128 182.741 67.9301L184.189 66.5499C182.216 64.4805 181.185 61.6807 181.185 58.04H179.185ZM182.75 67.9387C185.217 70.4649 188.564 71.68 192.665 71.68V69.68C188.979 69.68 186.193 68.6018 184.18 66.5413L182.75 67.9387ZM234.728 77.64L234.263 78.5255L234.272 78.5301L234.28 78.5344L234.728 77.64ZM227.208 70.44L226.328 70.9168L226.333 70.9257L226.338 70.9345L227.208 70.44ZM224.648 23V22H223.648V23H224.648ZM235.208 23H236.208V22H235.208V23ZM238.088 67.72L237.371 68.4174L237.38 68.4271L238.088 67.72ZM254.968 67.72L254.26 67.0128L254.251 67.0226L254.968 67.72ZM257.928 23V22H256.928V23H257.928ZM268.488 23H269.488V22H268.488V23ZM265.848 70.44L264.975 69.9518L264.972 69.9569L265.848 70.44ZM258.328 77.64L258.781 78.5315L258.786 78.5286L258.328 77.64ZM246.568 79.12C242.099 79.12 238.313 78.3148 235.175 76.7456L234.28 78.5344C237.755 80.2719 241.862 81.12 246.568 81.12V79.12ZM235.192 76.7545C232.102 75.1337 229.739 72.8669 228.077 69.9455L226.338 70.9345C228.196 74.1998 230.846 76.733 234.263 78.5255L235.192 76.7545ZM228.087 69.9632C226.473 66.9886 225.648 63.452 225.648 59.32H223.648C223.648 63.7213 224.528 67.598 226.328 70.9168L228.087 69.9632ZM225.648 59.32V23H223.648V59.32H225.648ZM224.648 24H235.208V22H224.648V24ZM234.208 23V59.64H236.208V23H234.208ZM234.208 59.64C234.208 63.2479 235.228 66.2149 237.371 68.4174L238.804 67.0226C237.107 65.2784 236.208 62.8587 236.208 59.64H234.208ZM237.38 68.4271C239.595 70.642 242.71 71.68 246.568 71.68V69.68C243.065 69.68 240.526 68.7447 238.795 67.0129L237.38 68.4271ZM246.568 71.68C250.423 71.68 253.519 70.6426 255.684 68.4174L254.251 67.0226C252.576 68.744 250.072 69.68 246.568 69.68V71.68ZM255.675 68.4271C257.876 66.226 258.928 63.2556 258.928 59.64H256.928C256.928 62.8511 256.006 65.2674 254.26 67.0129L255.675 68.4271ZM258.928 59.64V23H256.928V59.64H258.928ZM257.928 24H268.488V22H257.928V24ZM267.488 23V59.32H269.488V23H267.488ZM267.488 59.32C267.488 63.4472 266.637 66.9796 264.975 69.9518L266.72 70.9282C268.578 67.6071 269.488 63.7262 269.488 59.32H267.488ZM264.972 69.9569C263.366 72.8673 261.009 75.1305 257.869 76.7514L258.786 78.5286C262.259 76.7362 264.915 74.1994 266.723 70.9231L264.972 69.9569ZM257.874 76.7485C254.793 78.3146 251.036 79.12 246.568 79.12V81.12C251.272 81.12 255.355 80.2721 258.781 78.5315L257.874 76.7485ZM278.717 79H277.717V80H278.717V79ZM278.717 23V22H277.717V23H278.717ZM312.238 24.84L311.813 25.7452L311.813 25.7452L312.238 24.84ZM318.318 30.04L319.159 29.4992L319.159 29.4992L318.318 30.04ZM318.078 47.08L318.87 47.6897L318.87 47.6897L318.078 47.08ZM312.158 51.64L311.779 50.7145L311.158 50.9686V51.64H312.158ZM312.158 53.08H311.158V54.0312L312.108 54.0788L312.158 53.08ZM317.118 55.32L316.354 55.9659L316.36 55.9733L316.367 55.9806L317.118 55.32ZM318.878 79V80H319.878V79H318.878ZM308.318 79H307.318V80H308.318V79ZM307.278 59.08L306.497 59.7047L306.509 59.7201L306.522 59.7349L307.278 59.08ZM289.278 57.88V56.88H288.278V57.88H289.278ZM289.278 79V80H290.278V79H289.278ZM289.278 48.28H288.278V49.28H289.278V48.28ZM307.758 46.28L308.451 47.0008L308.451 47.0003L307.758 46.28ZM307.838 34.68L307.13 35.3871L307.137 35.394L307.144 35.4008L307.838 34.68ZM289.278 32.6V31.6H288.278V32.6H289.278ZM279.717 79V23H277.717V79H279.717ZM278.717 24H303.038V22H278.717V24ZM303.038 24C306.442 24 309.358 24.5931 311.813 25.7452L312.662 23.9348C309.89 22.6335 306.673 22 303.038 22V24ZM311.813 25.7452C314.271 26.899 316.147 28.5123 317.476 30.5808L319.159 29.4992C317.608 27.0877 315.431 25.2344 312.662 23.9348L311.813 25.7452ZM317.476 30.5808C318.799 32.6375 319.477 35.0839 319.477 37.96H321.477C321.477 34.7561 320.716 31.9225 319.159 29.4992L317.476 30.5808ZM319.477 37.96V38.92H321.477V37.96H319.477ZM319.477 38.92C319.477 42.1219 318.717 44.6089 317.285 46.4703L318.87 47.6897C320.638 45.3911 321.477 42.4381 321.477 38.92H319.477ZM317.285 46.4703C315.789 48.4154 313.956 49.8237 311.779 50.7145L312.536 52.5655C315.052 51.5363 317.166 49.9046 318.87 47.6897L317.285 46.4703ZM311.158 51.64V53.08H313.158V51.64H311.158ZM312.108 54.0788C314.017 54.1742 315.391 54.8278 316.354 55.9659L317.881 54.6741C316.497 53.0388 314.564 52.1991 312.207 52.0812L312.108 54.0788ZM316.367 55.9806C317.341 57.0875 317.878 58.6176 317.878 60.68H319.878C319.878 58.2624 319.241 56.2192 317.868 54.6594L316.367 55.9806ZM317.878 60.68V79H319.878V60.68H317.878ZM318.878 78H308.318V80H318.878V78ZM309.318 79V62.2H307.318V79H309.318ZM309.318 62.2C309.318 60.732 308.915 59.443 308.033 58.4251L306.522 59.7349C307.026 60.317 307.318 61.108 307.318 62.2H309.318ZM308.058 58.4553C307.148 57.3172 305.69 56.88 303.998 56.88V58.88C305.399 58.88 306.127 59.2428 306.497 59.7047L308.058 58.4553ZM303.998 56.88H289.278V58.88H303.998V56.88ZM288.278 57.88V79H290.278V57.88H288.278ZM289.278 78H278.717V80H289.278V78ZM289.278 49.28H301.918V47.28H289.278V49.28ZM301.918 49.28C304.602 49.28 306.826 48.5625 308.451 47.0008L307.064 45.5592C305.915 46.6641 304.247 47.28 301.918 47.28V49.28ZM308.451 47.0003C310.111 45.4016 310.918 43.3158 310.918 40.84H308.918C308.918 42.8442 308.284 44.3851 307.064 45.5597L308.451 47.0003ZM310.918 40.84V40.04H308.918V40.84H310.918ZM310.918 40.04C310.918 37.5766 310.146 35.5123 308.531 33.9592L307.144 35.4008C308.302 36.5144 308.918 38.0234 308.918 40.04H310.918ZM308.545 33.9729C306.918 32.3465 304.658 31.6 301.918 31.6V33.6C304.297 33.6 305.983 34.2402 307.13 35.3871L308.545 33.9729ZM301.918 31.6H289.278V33.6H301.918V31.6ZM288.278 32.6V48.28H290.278V32.6H288.278ZM347.977 79H346.977V80H347.977V79ZM347.977 69.72V68.72H346.977V69.72H347.977ZM355.337 69.72V70.72H356.337V69.72H355.337ZM355.337 32.28H356.337V31.28H355.337V32.28ZM347.977 32.28H346.977V33.28H347.977V32.28ZM347.977 23V22H346.977V23H347.977ZM388.137 28.76L387.435 29.472L387.445 29.4816L388.137 28.76ZM388.137 73.32L388.834 74.0369L388.834 74.0367L388.137 73.32ZM365.897 69.4H364.897V70.4H365.897V69.4ZM380.537 66.04L381.287 66.701L381.287 66.701L380.537 66.04ZM380.537 35.96L379.786 36.6211L379.794 36.63L380.537 35.96ZM365.897 32.6V31.6H364.897V32.6H365.897ZM348.977 79V69.72H346.977V79H348.977ZM347.977 70.72H355.337V68.72H347.977V70.72ZM356.337 69.72V32.28H354.337V69.72H356.337ZM355.337 31.28H347.977V33.28H355.337V31.28ZM348.977 32.28V23H346.977V32.28H348.977ZM347.977 24H371.017V22H347.977V24ZM371.017 24C378.375 24 383.79 25.8768 387.435 29.472L388.839 28.048C384.698 23.9632 378.699 22 371.017 22V24ZM387.445 29.4816C391.13 33.0176 393.057 38.3674 393.057 45.72H395.057C395.057 38.0326 393.037 32.0757 388.829 28.0384L387.445 29.4816ZM393.057 45.72V56.28H395.057V45.72H393.057ZM393.057 56.28C393.057 63.6316 391.13 69.0122 387.44 72.6033L388.834 74.0367C393.037 69.9478 395.057 63.9684 395.057 56.28H393.057ZM387.44 72.6031C383.795 76.148 378.378 78 371.017 78V80C378.696 80 384.692 78.0654 388.834 74.0369L387.44 72.6031ZM371.017 78H347.977V80H371.017V78ZM365.897 70.4H371.177V68.4H365.897V70.4ZM371.177 70.4C375.604 70.4 379.054 69.2362 381.287 66.701L379.787 65.379C378.073 67.3238 375.283 68.4 371.177 68.4V70.4ZM381.287 66.701C383.471 64.2219 384.497 60.809 384.497 56.6H382.497C382.497 60.4977 381.549 63.3781 379.787 65.379L381.287 66.701ZM384.497 56.6V45.4H382.497V56.6H384.497ZM384.497 45.4C384.497 41.1435 383.474 37.7219 381.279 35.29L379.794 36.63C381.546 38.5714 382.497 41.4431 382.497 45.4H384.497ZM381.287 35.299C379.054 32.7638 375.604 31.6 371.177 31.6V33.6C375.283 33.6 378.073 34.6762 379.787 36.621L381.287 35.299ZM371.177 31.6H365.897V33.6H371.177V31.6ZM364.897 32.6V69.4H366.897V32.6H364.897ZM402.858 79H401.858V80H402.858V79ZM402.858 23V22H401.858V23H402.858ZM438.858 23H439.858V22H438.858V23ZM438.858 32.6V33.6H439.858V32.6H438.858ZM413.418 32.6V31.6H412.418V32.6H413.418ZM413.418 45.96H412.418V46.96H413.418V45.96ZM436.618 45.96H437.618V44.96H436.618V45.96ZM436.618 55.56V56.56H437.618V55.56H436.618ZM413.418 55.56V54.56H412.418V55.56H413.418ZM413.418 69.4H412.418V70.4H413.418V69.4ZM439.338 69.4H440.338V68.4H439.338V69.4ZM439.338 79V80H440.338V79H439.338ZM403.858 79V23H401.858V79H403.858ZM402.858 24H438.858V22H402.858V24ZM437.858 23V32.6H439.858V23H437.858ZM438.858 31.6H413.418V33.6H438.858V31.6ZM412.418 32.6V45.96H414.418V32.6H412.418ZM413.418 46.96H436.618V44.96H413.418V46.96ZM435.618 45.96V55.56H437.618V45.96H435.618ZM436.618 54.56H413.418V56.56H436.618V54.56ZM412.418 55.56V69.4H414.418V55.56H412.418ZM413.418 70.4H439.338V68.4H413.418V70.4ZM438.338 69.4V79H440.338V69.4H438.338ZM439.338 78H402.858V80H439.338V78ZM447.155 79H446.155V80H447.155V79ZM447.155 23V22H446.155V23H447.155ZM466.755 23L467.736 22.8054L467.576 22H466.755V23ZM476.435 71.8L475.454 71.9946L475.614 72.8H476.435V71.8ZM477.875 71.8V72.8H478.696L478.856 71.9946L477.875 71.8ZM487.555 23V22H486.734L486.574 22.8054L487.555 23ZM507.155 23H508.155V22H507.155V23ZM507.155 79V80H508.155V79H507.155ZM496.915 79H495.915V80H496.915V79ZM496.915 30.76H497.915V29.76H496.915V30.76ZM495.475 30.76V29.76H494.654L494.494 30.5648L495.475 30.76ZM485.875 79V80H486.696L486.856 79.1952L485.875 79ZM468.435 79L467.454 79.1952L467.614 80H468.435V79ZM458.835 30.76L459.816 30.5648L459.656 29.76H458.835V30.76ZM457.395 30.76V29.76H456.395V30.76H457.395ZM457.395 79V80H458.395V79H457.395ZM448.155 79V23H446.155V79H448.155ZM447.155 24H466.755V22H447.155V24ZM465.774 23.1946L475.454 71.9946L477.416 71.6054L467.736 22.8054L465.774 23.1946ZM476.435 72.8H477.875V70.8H476.435V72.8ZM478.856 71.9946L488.536 23.1946L486.574 22.8054L476.894 71.6054L478.856 71.9946ZM487.555 24H507.155V22H487.555V24ZM506.155 23V79H508.155V23H506.155ZM507.155 78H496.915V80H507.155V78ZM497.915 79V30.76H495.915V79H497.915ZM496.915 29.76H495.475V31.76H496.915V29.76ZM494.494 30.5648L484.894 78.8048L486.856 79.1952L496.456 30.9552L494.494 30.5648ZM485.875 78H468.435V80H485.875V78ZM469.416 78.8048L459.816 30.5648L457.854 30.9552L467.454 79.1952L469.416 78.8048ZM458.835 29.76H457.395V31.76H458.835V29.76ZM456.395 30.76V79H458.395V30.76H456.395ZM457.395 78H447.155V80H457.395V78ZM522.662 74.36L521.979 75.0901L521.984 75.0948L522.662 74.36ZM522.662 27.72L523.34 28.4548L523.345 28.4501L522.662 27.72ZM556.262 27.72L555.579 28.4501L555.584 28.4548L556.262 27.72ZM556.262 74.36L556.94 75.0948L556.945 75.0901L556.262 74.36ZM548.662 67.24L547.938 66.5499L547.938 66.5499L548.662 67.24ZM548.662 34.76L547.938 35.4501L547.938 35.4501L548.662 34.76ZM530.262 34.76L529.546 34.0612L529.538 34.0699L530.262 34.76ZM530.262 67.24L529.538 67.9301L529.546 67.9387L530.262 67.24ZM539.462 79.12C532.609 79.12 527.273 77.2557 523.34 73.6252L521.984 75.0948C526.371 79.1443 532.234 81.12 539.462 81.12V79.12ZM523.345 73.6299C519.438 69.9728 517.422 64.7209 517.422 57.72H515.422C515.422 65.1191 517.566 70.9605 521.979 75.0901L523.345 73.6299ZM517.422 57.72V44.28H515.422V57.72H517.422ZM517.422 44.28C517.422 37.2784 519.438 32.0569 523.34 28.4548L521.984 26.9852C517.566 31.0631 515.422 36.8816 515.422 44.28H517.422ZM523.345 28.4501C527.279 24.7688 532.613 22.88 539.462 22.88V20.88C532.231 20.88 526.365 22.8846 521.979 26.9899L523.345 28.4501ZM539.462 22.88C546.311 22.88 551.645 24.7688 555.579 28.4501L556.945 26.9899C552.559 22.8846 546.693 20.88 539.462 20.88V22.88ZM555.584 28.4548C559.486 32.0569 561.502 37.2784 561.502 44.28H563.502C563.502 36.8816 561.358 31.0631 556.94 26.9852L555.584 28.4548ZM561.502 44.28V57.72H563.502V44.28H561.502ZM561.502 57.72C561.502 64.7209 559.486 69.9728 555.579 73.6299L556.945 75.0901C561.358 70.9605 563.502 65.1191 563.502 57.72H561.502ZM555.584 73.6252C551.651 77.2557 546.314 79.12 539.462 79.12V81.12C546.689 81.12 552.553 79.1443 556.94 75.0948L555.584 73.6252ZM539.462 71.68C543.61 71.68 546.966 70.4677 549.386 67.9301L547.938 66.5499C545.984 68.5989 543.207 69.68 539.462 69.68V71.68ZM549.386 67.9301C551.786 65.4128 552.942 62.0793 552.942 58.04H550.942C550.942 61.6807 549.911 64.4805 547.938 66.5499L549.386 67.9301ZM552.942 58.04V43.96H550.942V58.04H552.942ZM552.942 43.96C552.942 39.9207 551.786 36.5872 549.386 34.0699L547.938 35.4501C549.911 37.5195 550.942 40.3193 550.942 43.96H552.942ZM549.386 34.0699C546.966 31.5323 543.61 30.32 539.462 30.32V32.32C543.207 32.32 545.984 33.4011 547.938 35.4501L549.386 34.0699ZM539.462 30.32C535.361 30.32 532.014 31.5351 529.546 34.0613L530.977 35.4587C532.99 33.3982 535.776 32.32 539.462 32.32V30.32ZM529.538 34.0699C527.138 36.5872 525.982 39.9207 525.982 43.96H527.982C527.982 40.3193 529.012 37.5195 530.986 35.4501L529.538 34.0699ZM525.982 43.96V58.04H527.982V43.96H525.982ZM525.982 58.04C525.982 62.0793 527.138 65.4128 529.538 67.9301L530.986 66.5499C529.012 64.4805 527.982 61.6807 527.982 58.04H525.982ZM529.546 67.9387C532.014 70.4649 535.361 71.68 539.462 71.68V69.68C535.776 69.68 532.99 68.6018 530.977 66.5413L529.546 67.9387ZM592.077 79H591.077V80H592.077V79ZM592.077 23V22H591.077V23H592.077ZM602.637 23H603.637V22H602.637V23ZM602.637 46.12H601.637V47.12H602.637V46.12ZM623.437 46.12V47.12H624.437V46.12H623.437ZM623.437 23V22H622.437V23H623.437ZM633.997 23H634.997V22H633.997V23ZM633.997 79V80H634.997V79H633.997ZM623.437 79H622.437V80H623.437V79ZM623.437 55.72H624.437V54.72H623.437V55.72ZM602.637 55.72V54.72H601.637V55.72H602.637ZM602.637 79V80H603.637V79H602.637ZM593.077 79V23H591.077V79H593.077ZM592.077 24H602.637V22H592.077V24ZM601.637 23V46.12H603.637V23H601.637ZM602.637 47.12H623.437V45.12H602.637V47.12ZM624.437 46.12V23H622.437V46.12H624.437ZM623.437 24H633.997V22H623.437V24ZM632.997 23V79H634.997V23H632.997ZM633.997 78H623.437V80H633.997V78ZM624.437 79V55.72H622.437V79H624.437ZM623.437 54.72H602.637V56.72H623.437V54.72ZM601.637 55.72V79H603.637V55.72H601.637ZM602.637 78H592.077V80H602.637V78ZM644.577 79H643.577V80H644.577V79ZM644.577 23V22H643.577V23H644.577ZM680.577 23H681.577V22H680.577V23ZM680.577 32.6V33.6H681.577V32.6H680.577ZM655.137 32.6V31.6H654.137V32.6H655.137ZM655.137 45.96H654.137V46.96H655.137V45.96ZM678.337 45.96H679.337V44.96H678.337V45.96ZM678.337 55.56V56.56H679.337V55.56H678.337ZM655.137 55.56V54.56H654.137V55.56H655.137ZM655.137 69.4H654.137V70.4H655.137V69.4ZM681.057 69.4H682.057V68.4H681.057V69.4ZM681.057 79V80H682.057V79H681.057ZM645.577 79V23H643.577V79H645.577ZM644.577 24H680.577V22H644.577V24ZM679.577 23V32.6H681.577V23H679.577ZM680.577 31.6H655.137V33.6H680.577V31.6ZM654.137 32.6V45.96H656.137V32.6H654.137ZM655.137 46.96H678.337V44.96H655.137V46.96ZM677.337 45.96V55.56H679.337V45.96H677.337ZM678.337 54.56H655.137V56.56H678.337V54.56ZM654.137 55.56V69.4H656.137V55.56H654.137ZM655.137 70.4H681.057V68.4H655.137V70.4ZM680.057 69.4V79H682.057V69.4H680.057ZM681.057 78H644.577V80H681.057V78ZM688.874 79H687.874V80H688.874V79ZM688.874 23V22H687.874V23H688.874ZM722.394 24.84L721.969 25.7452L721.969 25.7452L722.394 24.84ZM728.474 30.04L729.315 29.4992L729.315 29.4992L728.474 30.04ZM728.234 47.08L729.026 47.6897L729.026 47.6897L728.234 47.08ZM722.314 51.64L721.935 50.7145L721.314 50.9686V51.64H722.314ZM722.314 53.08H721.314V54.0312L722.264 54.0788L722.314 53.08ZM727.274 55.32L726.51 55.9659L726.517 55.9733L726.523 55.9806L727.274 55.32ZM729.034 79V80H730.034V79H729.034ZM718.474 79H717.474V80H718.474V79ZM717.434 59.08L716.653 59.7047L716.665 59.7201L716.678 59.7349L717.434 59.08ZM699.434 57.88V56.88H698.434V57.88H699.434ZM699.434 79V80H700.434V79H699.434ZM699.434 48.28H698.434V49.28H699.434V48.28ZM717.914 46.28L718.607 47.0008L718.607 47.0003L717.914 46.28ZM717.994 34.68L717.287 35.3871L717.294 35.394L717.301 35.4008L717.994 34.68ZM699.434 32.6V31.6H698.434V32.6H699.434ZM689.874 79V23H687.874V79H689.874ZM688.874 24H713.194V22H688.874V24ZM713.194 24C716.598 24 719.514 24.5931 721.969 25.7452L722.819 23.9348C720.046 22.6335 716.829 22 713.194 22V24ZM721.969 25.7452C724.427 26.899 726.303 28.5123 727.633 30.5808L729.315 29.4992C727.765 27.0877 725.587 25.2344 722.819 23.9348L721.969 25.7452ZM727.633 30.5808C728.955 32.6375 729.634 35.0839 729.634 37.96H731.634C731.634 34.7561 730.873 31.9225 729.315 29.4992L727.633 30.5808ZM729.634 37.96V38.92H731.634V37.96H729.634ZM729.634 38.92C729.634 42.1219 728.873 44.6089 727.441 46.4703L729.026 47.6897C730.795 45.3911 731.634 42.4381 731.634 38.92H729.634ZM727.441 46.4703C725.945 48.4154 724.112 49.8237 721.935 50.7145L722.692 52.5655C725.208 51.5363 727.323 49.9046 729.026 47.6897L727.441 46.4703ZM721.314 51.64V53.08H723.314V51.64H721.314ZM722.264 54.0788C724.174 54.1742 725.547 54.8278 726.51 55.9659L728.037 54.6741C726.653 53.0388 724.72 52.1991 722.364 52.0812L722.264 54.0788ZM726.523 55.9806C727.497 57.0875 728.034 58.6176 728.034 60.68H730.034C730.034 58.2624 729.397 56.2192 728.024 54.6594L726.523 55.9806ZM728.034 60.68V79H730.034V60.68H728.034ZM729.034 78H718.474V80H729.034V78ZM719.474 79V62.2H717.474V79H719.474ZM719.474 62.2C719.474 60.732 719.072 59.443 718.189 58.4251L716.678 59.7349C717.182 60.317 717.474 61.108 717.474 62.2H719.474ZM718.215 58.4553C717.304 57.3172 715.846 56.88 714.154 56.88V58.88C715.555 58.88 716.283 59.2428 716.653 59.7047L718.215 58.4553ZM714.154 56.88H699.434V58.88H714.154V56.88ZM698.434 57.88V79H700.434V57.88H698.434ZM699.434 78H688.874V80H699.434V78ZM699.434 49.28H712.074V47.28H699.434V49.28ZM712.074 49.28C714.758 49.28 716.983 48.5625 718.607 47.0008L717.221 45.5592C716.071 46.6641 714.403 47.28 712.074 47.28V49.28ZM718.607 47.0003C720.268 45.4016 721.074 43.3158 721.074 40.84H719.074C719.074 42.8442 718.44 44.3851 717.22 45.5597L718.607 47.0003ZM721.074 40.84V40.04H719.074V40.84H721.074ZM721.074 40.04C721.074 37.5766 720.302 35.5123 718.687 33.9592L717.301 35.4008C718.459 36.5144 719.074 38.0234 719.074 40.04H721.074ZM718.701 33.9729C717.074 32.3465 714.815 31.6 712.074 31.6V33.6C714.453 33.6 716.14 34.2402 717.287 35.3871L718.701 33.9729ZM712.074 31.6H699.434V33.6H712.074V31.6ZM698.434 32.6V48.28H700.434V32.6H698.434ZM739.421 79H738.421V80H739.421V79ZM739.421 23V22H738.421V23H739.421ZM775.421 23H776.421V22H775.421V23ZM775.421 32.6V33.6H776.421V32.6H775.421ZM749.981 32.6V31.6H748.981V32.6H749.981ZM749.981 45.96H748.981V46.96H749.981V45.96ZM773.181 45.96H774.181V44.96H773.181V45.96ZM773.181 55.56V56.56H774.181V55.56H773.181ZM749.981 55.56V54.56H748.981V55.56H749.981ZM749.981 69.4H748.981V70.4H749.981V69.4ZM775.901 69.4H776.901V68.4H775.901V69.4ZM775.901 79V80H776.901V79H775.901ZM740.421 79V23H738.421V79H740.421ZM739.421 24H775.421V22H739.421V24ZM774.421 23V32.6H776.421V23H774.421ZM775.421 31.6H749.981V33.6H775.421V31.6ZM748.981 32.6V45.96H750.981V32.6H748.981ZM749.981 46.96H773.181V44.96H749.981V46.96ZM772.181 45.96V55.56H774.181V45.96H772.181ZM773.181 54.56H749.981V56.56H773.181V54.56ZM748.981 55.56V69.4H750.981V55.56H748.981ZM749.981 70.4H775.901V68.4H749.981V70.4ZM774.901 69.4V79H776.901V69.4H774.901ZM775.901 78H739.421V80H775.901V78Z" fill="black" mask="url(#path-2-outside-1_64_12)"/>
</svg>
