<svg width="667" height="534" viewBox="0 0 667 534" fill="none" xmlns="http://www.w3.org/2000/svg">
<path d="M517.727 65.606L517.288 65.1667H516.667H66.6667H65.1667V66.6667V466.667V468.167H66.6667H600H601.5V466.667V150V149.379L601.061 148.939L517.727 65.606ZM166.666 368.166L531.833 368.167V398.5H134.833V134.833H165.167L165.166 366.666V368.166H166.666ZM1.5 1.5H532.712L665.167 133.955V531.833H1.5V1.5ZM265.167 234.833V331.833H201.5V234.833H265.167ZM365.167 168.167V331.833H301.5V168.167H365.167ZM465.167 268.167V331.833H401.5V268.167H465.167Z" fill="white" stroke="black" stroke-width="3"/>
</svg>
