<svg width="534" height="600" viewBox="0 0 534 600" fill="none" xmlns="http://www.w3.org/2000/svg">
<path d="M470.921 217.31L472.456 219.887C471.613 220.394 470.762 220.897 469.905 221.397L470.921 217.31ZM470.921 217.31L470.912 217.315L468.387 218.809C468.386 218.81 468.385 218.81 468.384 218.811C468.384 218.811 468.383 218.811 468.382 218.812C467.624 219.254 466.86 219.693 466.09 220.13C466.036 220.161 465.983 220.191 465.929 220.221C465.913 220.231 465.896 220.24 465.88 220.249M470.921 217.31L465.88 220.249M65.3345 301.5C65.6699 303.076 66.497 304.831 67.7203 306.687C69.3742 309.197 71.8615 312.055 75.2405 315.15C82.0017 321.345 92.4397 328.59 107.248 335.994C147.417 356.079 204.687 368.167 266.667 368.167C328.647 368.167 385.916 356.079 426.085 335.994C440.894 328.59 451.332 321.345 458.093 315.15C461.472 312.055 463.959 309.197 465.613 306.687C467.24 304.218 468.167 301.927 468.167 300L468.168 222.399C468.748 222.068 469.324 221.735 469.897 221.401L65.3345 301.5ZM65.3345 301.5H65.1436L65.1438 300L65.154 222.393C64.5976 222.075 64.0443 221.755 63.4938 221.435L64.2488 220.139L65.0037 218.842C65.7941 219.303 66.5907 219.76 67.3935 220.215C67.4233 220.232 67.453 220.249 67.4828 220.266C116.064 247.763 187.251 265.167 266.667 265.167C346.098 265.167 417.298 247.756 465.88 220.249M65.3345 301.5L465.88 220.249M67.3716 386.87L65.1323 385.6L65.132 388.174L65.1236 464.269V464.283L65.1238 464.298L65.1703 466.79L65.1711 466.83L65.1739 466.87C65.4314 470.442 67.1357 474.141 69.9629 477.833C72.7973 481.535 76.8287 485.323 81.9038 489.093C92.055 496.634 106.537 504.22 124.441 510.984C160.26 524.516 209.982 534.833 266.667 534.833C328.647 534.833 385.916 522.745 426.085 502.661C439.908 495.749 449.921 488.978 456.69 483.071C460.074 480.118 462.665 477.366 464.518 474.903C466.357 472.46 467.53 470.221 467.97 468.299L467.987 468.224L467.996 468.147L468.156 466.849L468.167 466.758V466.667L468.168 388.193L468.168 385.619L465.929 386.888C417.344 414.412 346.123 431.833 266.667 431.833C187.193 431.833 115.957 414.404 67.3716 386.87ZM1.5 466.64V135.424L1.53262 135.423L1.53208 135.399L1.5 133.333C1.5 133.329 1.5 133.326 1.5 133.322C1.50627 97.3815 30.6831 64.4404 78.7757 40.3941C126.784 16.3901 193.211 1.5 266.667 1.5C340.122 1.5 406.55 16.3901 454.558 40.3941C502.655 64.4429 531.833 97.3886 531.833 133.333V466.667C531.833 502.611 502.655 535.557 454.558 559.606C406.55 583.61 340.122 598.5 266.667 598.5C194.845 598.5 129.74 584.265 82.0019 561.192C34.1899 538.083 4.20035 506.33 1.67393 471.474L1.5 466.64ZM266.667 65.1667C204.687 65.1667 147.417 77.2547 107.248 97.3393C92.4397 104.744 82.0017 111.989 75.2405 118.183C71.8615 121.279 69.3742 124.136 67.7203 126.646C66.093 129.115 65.1667 131.406 65.1667 133.333C65.1667 135.261 66.093 137.552 67.7203 140.021C69.3742 142.53 71.8615 145.388 75.2405 148.484C82.0017 154.678 92.4397 161.923 107.248 169.327C147.417 189.412 204.687 201.5 266.667 201.5C328.647 201.5 385.916 189.412 426.085 169.327C440.894 161.923 451.332 154.678 458.093 148.484C461.472 145.388 463.959 142.53 465.613 140.021C467.24 137.552 468.167 135.261 468.167 133.333C468.167 131.406 467.24 129.115 465.613 126.646C463.959 124.136 461.472 121.279 458.093 118.183C451.332 111.989 440.894 104.744 426.085 97.3393C385.916 77.2547 328.647 65.1667 266.667 65.1667Z" fill="white" stroke="black" stroke-width="3"/>
</svg>
