<svg width="592" height="600" viewBox="0 0 592 600" fill="none" xmlns="http://www.w3.org/2000/svg">
<path d="M138.771 133.666L139.036 134.833H140.233H589.377L525.735 431.833H141.256L58.1627 66.3341L57.8973 65.1667H56.7H1.5V1.5H108.744L138.771 133.666ZM510.233 200.314L510.622 198.5H508.767H155.4H153.521L153.937 200.332L191.804 366.999L192.069 368.167H193.267H473.033H474.246L474.5 366.981L510.233 200.314ZM265.167 550C265.167 576.786 243.452 598.5 216.667 598.5C189.881 598.5 168.167 576.786 168.167 550C168.167 523.214 189.881 501.5 216.667 501.5C243.452 501.5 265.167 523.214 265.167 550ZM498.5 550C498.5 576.786 476.786 598.5 450 598.5C423.214 598.5 401.5 576.786 401.5 550C401.5 523.214 423.214 501.5 450 501.5C476.786 501.5 498.5 523.214 498.5 550Z" fill="white" stroke="black" stroke-width="3"/>
</svg>
