<svg width="634" height="600" viewBox="0 0 634 600" fill="none" xmlns="http://www.w3.org/2000/svg">
<path d="M301.5 133.333V131.833H300H233.333H231.833V133.333V198.5H133.333H131.833V200V400V401.5H133.333H231.833V466.667V468.167H233.333H300H301.5V466.667V133.333ZM168.167 466.667V465.167H166.667H66.6667H65.1667V466.667V533.333V534.833H66.6667H166.667H168.167V533.333V466.667ZM168.167 66.6667V65.1667H166.667H66.6667H65.1667V66.6667V133.333V134.833H66.6667H166.667H168.167V133.333V66.6667ZM365.167 333.333V531.833H233.333H231.833V533.333V598.5H1.5V401.5H66.6667H68.1667V400V200V198.5H66.6667H1.5V1.5H231.833V66.6667V68.1667H233.333H365.167V266.667V268.167H366.667H431.833V331.833H366.667H365.167V333.333ZM434.833 265.167V201.5H631.833V398.5H434.833V334.833V333.333V266.667V265.167ZM568.167 266.667V265.167H566.667H500H498.5V266.667V333.333V334.833H500H566.667H568.167V333.333V266.667Z" fill="white" stroke="black" stroke-width="3"/>
</svg>
