<svg width="667" height="467" viewBox="0 0 667 467" fill="none" xmlns="http://www.w3.org/2000/svg">
<path d="M134.833 366.667L134.833 365.167H133.333L66.6656 365.166L65.1656 365.166L65.1656 366.666L65.1667 400L65.1667 401.5H66.6667H133.333H134.833L134.833 400L134.833 366.667ZM468.166 66.6656V65.1656H466.666H200H198.5V66.6656V400V401.5H200H466.666H468.166V400V66.6656ZM601.5 366.666V365.166L600 365.166L533.333 365.167H531.833V366.667L531.833 400V401.5H533.333H600H601.5V400V366.666ZM601.5 266.666V265.166L600 265.166L533.333 265.167H531.833V266.667V300V301.5H533.333H600H601.5V300V266.666ZM134.833 266.667V265.167H133.333L66.6656 265.166L65.1656 265.166V266.666V300V301.5H66.6656H133.333H134.833V300V266.667ZM601.5 166.666V165.166L600 165.166L533.333 165.167L531.833 165.167V166.667V200V201.5H533.333H600H601.5V200V166.666ZM134.833 166.667V165.167L133.333 165.167L66.6656 165.166L65.1656 165.166V166.666V200V201.5H66.6656H133.333H134.833V200V166.667ZM601.5 66.6667V65.1667L600 65.1667L533.333 65.1656L531.833 65.1656V66.6656L531.833 100V101.5H533.333H600H601.5V100V66.6667ZM134.833 66.6656L134.833 65.1656L133.333 65.1656L66.6666 65.1667L65.1667 65.1667L65.1667 66.6666L65.1656 100L65.1656 101.5H66.6656H133.333H134.833L134.833 100L134.833 66.6656ZM665.167 465.167H1.5V1.5H665.167V465.167ZM268.167 152.549L413.578 233.333L268.167 314.117V152.549Z" fill="white" stroke="black" stroke-width="3"/>
</svg>
